G04 #@! TF.GenerationSoftware,KiCad,Pcbnew,8.0.0*
G04 #@! TF.CreationDate,2024-03-17T16:54:30+01:00*
G04 #@! TF.ProjectId,soundgun,736f756e-6467-4756-9e2e-6b696361645f,rev?*
G04 #@! TF.SameCoordinates,Original*
G04 #@! TF.FileFunction,Legend,Top*
G04 #@! TF.FilePolarity,Positive*
%FSLAX46Y46*%
G04 Gerber Fmt 4.6, Leading zero omitted, Abs format (unit mm)*
G04 Created by KiCad (PCBNEW 8.0.0) date 2024-03-17 16:54:30*
%MOMM*%
%LPD*%
G01*
G04 APERTURE LIST*
%ADD10C,0.300000*%
%ADD11C,0.150000*%
%ADD12C,0.250000*%
%ADD13C,0.200000*%
%ADD14C,0.120000*%
%ADD15C,0.152400*%
%ADD16R,1.600000X2.400000*%
%ADD17O,1.600000X2.400000*%
%ADD18C,1.400000*%
%ADD19O,1.400000X1.400000*%
%ADD20R,1.800000X1.800000*%
%ADD21C,1.800000*%
%ADD22C,1.600000*%
%ADD23C,5.600000*%
%ADD24R,2.400000X2.400000*%
%ADD25C,2.400000*%
%ADD26C,0.990600*%
%ADD27O,2.006600X1.498600*%
%ADD28O,1.800000X1.800000*%
%ADD29O,1.500000X1.500000*%
%ADD30O,1.700000X1.700000*%
%ADD31R,3.500000X1.700000*%
%ADD32R,1.700000X1.700000*%
%ADD33R,1.700000X3.500000*%
%ADD34R,2.400000X1.600000*%
%ADD35O,2.400000X1.600000*%
%ADD36C,0.600000*%
G04 APERTURE END LIST*
D10*
X83328320Y-101954624D02*
X83614034Y-102049862D01*
X83614034Y-102049862D02*
X84090225Y-102049862D01*
X84090225Y-102049862D02*
X84280701Y-101954624D01*
X84280701Y-101954624D02*
X84375939Y-101859385D01*
X84375939Y-101859385D02*
X84471177Y-101668909D01*
X84471177Y-101668909D02*
X84471177Y-101478433D01*
X84471177Y-101478433D02*
X84375939Y-101287957D01*
X84375939Y-101287957D02*
X84280701Y-101192719D01*
X84280701Y-101192719D02*
X84090225Y-101097481D01*
X84090225Y-101097481D02*
X83709272Y-101002243D01*
X83709272Y-101002243D02*
X83518796Y-100907004D01*
X83518796Y-100907004D02*
X83423558Y-100811766D01*
X83423558Y-100811766D02*
X83328320Y-100621290D01*
X83328320Y-100621290D02*
X83328320Y-100430814D01*
X83328320Y-100430814D02*
X83423558Y-100240338D01*
X83423558Y-100240338D02*
X83518796Y-100145100D01*
X83518796Y-100145100D02*
X83709272Y-100049862D01*
X83709272Y-100049862D02*
X84185463Y-100049862D01*
X84185463Y-100049862D02*
X84471177Y-100145100D01*
X85614034Y-102049862D02*
X85423558Y-101954624D01*
X85423558Y-101954624D02*
X85328320Y-101859385D01*
X85328320Y-101859385D02*
X85233082Y-101668909D01*
X85233082Y-101668909D02*
X85233082Y-101097481D01*
X85233082Y-101097481D02*
X85328320Y-100907004D01*
X85328320Y-100907004D02*
X85423558Y-100811766D01*
X85423558Y-100811766D02*
X85614034Y-100716528D01*
X85614034Y-100716528D02*
X85899749Y-100716528D01*
X85899749Y-100716528D02*
X86090225Y-100811766D01*
X86090225Y-100811766D02*
X86185463Y-100907004D01*
X86185463Y-100907004D02*
X86280701Y-101097481D01*
X86280701Y-101097481D02*
X86280701Y-101668909D01*
X86280701Y-101668909D02*
X86185463Y-101859385D01*
X86185463Y-101859385D02*
X86090225Y-101954624D01*
X86090225Y-101954624D02*
X85899749Y-102049862D01*
X85899749Y-102049862D02*
X85614034Y-102049862D01*
X87994987Y-100716528D02*
X87994987Y-102049862D01*
X87137844Y-100716528D02*
X87137844Y-101764147D01*
X87137844Y-101764147D02*
X87233082Y-101954624D01*
X87233082Y-101954624D02*
X87423558Y-102049862D01*
X87423558Y-102049862D02*
X87709273Y-102049862D01*
X87709273Y-102049862D02*
X87899749Y-101954624D01*
X87899749Y-101954624D02*
X87994987Y-101859385D01*
X88947368Y-100716528D02*
X88947368Y-102049862D01*
X88947368Y-100907004D02*
X89042606Y-100811766D01*
X89042606Y-100811766D02*
X89233082Y-100716528D01*
X89233082Y-100716528D02*
X89518797Y-100716528D01*
X89518797Y-100716528D02*
X89709273Y-100811766D01*
X89709273Y-100811766D02*
X89804511Y-101002243D01*
X89804511Y-101002243D02*
X89804511Y-102049862D01*
X91614035Y-102049862D02*
X91614035Y-100049862D01*
X91614035Y-101954624D02*
X91423559Y-102049862D01*
X91423559Y-102049862D02*
X91042606Y-102049862D01*
X91042606Y-102049862D02*
X90852130Y-101954624D01*
X90852130Y-101954624D02*
X90756892Y-101859385D01*
X90756892Y-101859385D02*
X90661654Y-101668909D01*
X90661654Y-101668909D02*
X90661654Y-101097481D01*
X90661654Y-101097481D02*
X90756892Y-100907004D01*
X90756892Y-100907004D02*
X90852130Y-100811766D01*
X90852130Y-100811766D02*
X91042606Y-100716528D01*
X91042606Y-100716528D02*
X91423559Y-100716528D01*
X91423559Y-100716528D02*
X91614035Y-100811766D01*
X93423559Y-100716528D02*
X93423559Y-102335576D01*
X93423559Y-102335576D02*
X93328321Y-102526052D01*
X93328321Y-102526052D02*
X93233083Y-102621290D01*
X93233083Y-102621290D02*
X93042606Y-102716528D01*
X93042606Y-102716528D02*
X92756892Y-102716528D01*
X92756892Y-102716528D02*
X92566416Y-102621290D01*
X93423559Y-101954624D02*
X93233083Y-102049862D01*
X93233083Y-102049862D02*
X92852130Y-102049862D01*
X92852130Y-102049862D02*
X92661654Y-101954624D01*
X92661654Y-101954624D02*
X92566416Y-101859385D01*
X92566416Y-101859385D02*
X92471178Y-101668909D01*
X92471178Y-101668909D02*
X92471178Y-101097481D01*
X92471178Y-101097481D02*
X92566416Y-100907004D01*
X92566416Y-100907004D02*
X92661654Y-100811766D01*
X92661654Y-100811766D02*
X92852130Y-100716528D01*
X92852130Y-100716528D02*
X93233083Y-100716528D01*
X93233083Y-100716528D02*
X93423559Y-100811766D01*
X95233083Y-100716528D02*
X95233083Y-102049862D01*
X94375940Y-100716528D02*
X94375940Y-101764147D01*
X94375940Y-101764147D02*
X94471178Y-101954624D01*
X94471178Y-101954624D02*
X94661654Y-102049862D01*
X94661654Y-102049862D02*
X94947369Y-102049862D01*
X94947369Y-102049862D02*
X95137845Y-101954624D01*
X95137845Y-101954624D02*
X95233083Y-101859385D01*
X96185464Y-100716528D02*
X96185464Y-102049862D01*
X96185464Y-100907004D02*
X96280702Y-100811766D01*
X96280702Y-100811766D02*
X96471178Y-100716528D01*
X96471178Y-100716528D02*
X96756893Y-100716528D01*
X96756893Y-100716528D02*
X96947369Y-100811766D01*
X96947369Y-100811766D02*
X97042607Y-101002243D01*
X97042607Y-101002243D02*
X97042607Y-102049862D01*
X83137844Y-103269750D02*
X83804510Y-105269750D01*
X83804510Y-105269750D02*
X84471177Y-103269750D01*
X86185463Y-105269750D02*
X85042606Y-105269750D01*
X85614034Y-105269750D02*
X85614034Y-103269750D01*
X85614034Y-103269750D02*
X85423558Y-103555464D01*
X85423558Y-103555464D02*
X85233082Y-103745940D01*
X85233082Y-103745940D02*
X85042606Y-103841178D01*
X87042606Y-105079273D02*
X87137844Y-105174512D01*
X87137844Y-105174512D02*
X87042606Y-105269750D01*
X87042606Y-105269750D02*
X86947368Y-105174512D01*
X86947368Y-105174512D02*
X87042606Y-105079273D01*
X87042606Y-105079273D02*
X87042606Y-105269750D01*
X88375939Y-103269750D02*
X88566416Y-103269750D01*
X88566416Y-103269750D02*
X88756892Y-103364988D01*
X88756892Y-103364988D02*
X88852130Y-103460226D01*
X88852130Y-103460226D02*
X88947368Y-103650702D01*
X88947368Y-103650702D02*
X89042606Y-104031654D01*
X89042606Y-104031654D02*
X89042606Y-104507845D01*
X89042606Y-104507845D02*
X88947368Y-104888797D01*
X88947368Y-104888797D02*
X88852130Y-105079273D01*
X88852130Y-105079273D02*
X88756892Y-105174512D01*
X88756892Y-105174512D02*
X88566416Y-105269750D01*
X88566416Y-105269750D02*
X88375939Y-105269750D01*
X88375939Y-105269750D02*
X88185463Y-105174512D01*
X88185463Y-105174512D02*
X88090225Y-105079273D01*
X88090225Y-105079273D02*
X87994987Y-104888797D01*
X87994987Y-104888797D02*
X87899749Y-104507845D01*
X87899749Y-104507845D02*
X87899749Y-104031654D01*
X87899749Y-104031654D02*
X87994987Y-103650702D01*
X87994987Y-103650702D02*
X88090225Y-103460226D01*
X88090225Y-103460226D02*
X88185463Y-103364988D01*
X88185463Y-103364988D02*
X88375939Y-103269750D01*
X92852130Y-103174512D02*
X91137845Y-105745940D01*
X94947369Y-103460226D02*
X95042607Y-103364988D01*
X95042607Y-103364988D02*
X95233083Y-103269750D01*
X95233083Y-103269750D02*
X95709274Y-103269750D01*
X95709274Y-103269750D02*
X95899750Y-103364988D01*
X95899750Y-103364988D02*
X95994988Y-103460226D01*
X95994988Y-103460226D02*
X96090226Y-103650702D01*
X96090226Y-103650702D02*
X96090226Y-103841178D01*
X96090226Y-103841178D02*
X95994988Y-104126892D01*
X95994988Y-104126892D02*
X94852131Y-105269750D01*
X94852131Y-105269750D02*
X96090226Y-105269750D01*
X97328321Y-103269750D02*
X97518798Y-103269750D01*
X97518798Y-103269750D02*
X97709274Y-103364988D01*
X97709274Y-103364988D02*
X97804512Y-103460226D01*
X97804512Y-103460226D02*
X97899750Y-103650702D01*
X97899750Y-103650702D02*
X97994988Y-104031654D01*
X97994988Y-104031654D02*
X97994988Y-104507845D01*
X97994988Y-104507845D02*
X97899750Y-104888797D01*
X97899750Y-104888797D02*
X97804512Y-105079273D01*
X97804512Y-105079273D02*
X97709274Y-105174512D01*
X97709274Y-105174512D02*
X97518798Y-105269750D01*
X97518798Y-105269750D02*
X97328321Y-105269750D01*
X97328321Y-105269750D02*
X97137845Y-105174512D01*
X97137845Y-105174512D02*
X97042607Y-105079273D01*
X97042607Y-105079273D02*
X96947369Y-104888797D01*
X96947369Y-104888797D02*
X96852131Y-104507845D01*
X96852131Y-104507845D02*
X96852131Y-104031654D01*
X96852131Y-104031654D02*
X96947369Y-103650702D01*
X96947369Y-103650702D02*
X97042607Y-103460226D01*
X97042607Y-103460226D02*
X97137845Y-103364988D01*
X97137845Y-103364988D02*
X97328321Y-103269750D01*
X98756893Y-103460226D02*
X98852131Y-103364988D01*
X98852131Y-103364988D02*
X99042607Y-103269750D01*
X99042607Y-103269750D02*
X99518798Y-103269750D01*
X99518798Y-103269750D02*
X99709274Y-103364988D01*
X99709274Y-103364988D02*
X99804512Y-103460226D01*
X99804512Y-103460226D02*
X99899750Y-103650702D01*
X99899750Y-103650702D02*
X99899750Y-103841178D01*
X99899750Y-103841178D02*
X99804512Y-104126892D01*
X99804512Y-104126892D02*
X98661655Y-105269750D01*
X98661655Y-105269750D02*
X99899750Y-105269750D01*
X101614036Y-103936416D02*
X101614036Y-105269750D01*
X101137845Y-103174512D02*
X100661655Y-104603083D01*
X100661655Y-104603083D02*
X101899750Y-104603083D01*
X83994987Y-109251542D02*
X83899748Y-109156304D01*
X83899748Y-109156304D02*
X83709272Y-108870590D01*
X83709272Y-108870590D02*
X83614034Y-108680114D01*
X83614034Y-108680114D02*
X83518796Y-108394400D01*
X83518796Y-108394400D02*
X83423558Y-107918209D01*
X83423558Y-107918209D02*
X83423558Y-107537257D01*
X83423558Y-107537257D02*
X83518796Y-107061066D01*
X83518796Y-107061066D02*
X83614034Y-106775352D01*
X83614034Y-106775352D02*
X83709272Y-106584876D01*
X83709272Y-106584876D02*
X83899748Y-106299161D01*
X83899748Y-106299161D02*
X83994987Y-106203923D01*
X85614034Y-108394400D02*
X85423558Y-108489638D01*
X85423558Y-108489638D02*
X85042605Y-108489638D01*
X85042605Y-108489638D02*
X84852129Y-108394400D01*
X84852129Y-108394400D02*
X84756891Y-108299161D01*
X84756891Y-108299161D02*
X84661653Y-108108685D01*
X84661653Y-108108685D02*
X84661653Y-107537257D01*
X84661653Y-107537257D02*
X84756891Y-107346780D01*
X84756891Y-107346780D02*
X84852129Y-107251542D01*
X84852129Y-107251542D02*
X85042605Y-107156304D01*
X85042605Y-107156304D02*
X85423558Y-107156304D01*
X85423558Y-107156304D02*
X85614034Y-107251542D01*
X86280701Y-109251542D02*
X86375939Y-109156304D01*
X86375939Y-109156304D02*
X86566415Y-108870590D01*
X86566415Y-108870590D02*
X86661653Y-108680114D01*
X86661653Y-108680114D02*
X86756891Y-108394400D01*
X86756891Y-108394400D02*
X86852129Y-107918209D01*
X86852129Y-107918209D02*
X86852129Y-107537257D01*
X86852129Y-107537257D02*
X86756891Y-107061066D01*
X86756891Y-107061066D02*
X86661653Y-106775352D01*
X86661653Y-106775352D02*
X86566415Y-106584876D01*
X86566415Y-106584876D02*
X86375939Y-106299161D01*
X86375939Y-106299161D02*
X86280701Y-106203923D01*
X89233082Y-107918209D02*
X90185463Y-107918209D01*
X89042606Y-108489638D02*
X89709272Y-106489638D01*
X89709272Y-106489638D02*
X90375939Y-108489638D01*
X91042606Y-108299161D02*
X91137844Y-108394400D01*
X91137844Y-108394400D02*
X91042606Y-108489638D01*
X91042606Y-108489638D02*
X90947368Y-108394400D01*
X90947368Y-108394400D02*
X91042606Y-108299161D01*
X91042606Y-108299161D02*
X91042606Y-108489638D01*
X93423559Y-108394400D02*
X93709273Y-108489638D01*
X93709273Y-108489638D02*
X94185464Y-108489638D01*
X94185464Y-108489638D02*
X94375940Y-108394400D01*
X94375940Y-108394400D02*
X94471178Y-108299161D01*
X94471178Y-108299161D02*
X94566416Y-108108685D01*
X94566416Y-108108685D02*
X94566416Y-107918209D01*
X94566416Y-107918209D02*
X94471178Y-107727733D01*
X94471178Y-107727733D02*
X94375940Y-107632495D01*
X94375940Y-107632495D02*
X94185464Y-107537257D01*
X94185464Y-107537257D02*
X93804511Y-107442019D01*
X93804511Y-107442019D02*
X93614035Y-107346780D01*
X93614035Y-107346780D02*
X93518797Y-107251542D01*
X93518797Y-107251542D02*
X93423559Y-107061066D01*
X93423559Y-107061066D02*
X93423559Y-106870590D01*
X93423559Y-106870590D02*
X93518797Y-106680114D01*
X93518797Y-106680114D02*
X93614035Y-106584876D01*
X93614035Y-106584876D02*
X93804511Y-106489638D01*
X93804511Y-106489638D02*
X94280702Y-106489638D01*
X94280702Y-106489638D02*
X94566416Y-106584876D01*
X95137845Y-107156304D02*
X95899749Y-107156304D01*
X95423559Y-106489638D02*
X95423559Y-108203923D01*
X95423559Y-108203923D02*
X95518797Y-108394400D01*
X95518797Y-108394400D02*
X95709273Y-108489638D01*
X95709273Y-108489638D02*
X95899749Y-108489638D01*
X96566416Y-108489638D02*
X96566416Y-107156304D01*
X96566416Y-107537257D02*
X96661654Y-107346780D01*
X96661654Y-107346780D02*
X96756892Y-107251542D01*
X96756892Y-107251542D02*
X96947368Y-107156304D01*
X96947368Y-107156304D02*
X97137845Y-107156304D01*
X98661654Y-108489638D02*
X98661654Y-107442019D01*
X98661654Y-107442019D02*
X98566416Y-107251542D01*
X98566416Y-107251542D02*
X98375940Y-107156304D01*
X98375940Y-107156304D02*
X97994987Y-107156304D01*
X97994987Y-107156304D02*
X97804511Y-107251542D01*
X98661654Y-108394400D02*
X98471178Y-108489638D01*
X98471178Y-108489638D02*
X97994987Y-108489638D01*
X97994987Y-108489638D02*
X97804511Y-108394400D01*
X97804511Y-108394400D02*
X97709273Y-108203923D01*
X97709273Y-108203923D02*
X97709273Y-108013447D01*
X97709273Y-108013447D02*
X97804511Y-107822971D01*
X97804511Y-107822971D02*
X97994987Y-107727733D01*
X97994987Y-107727733D02*
X98471178Y-107727733D01*
X98471178Y-107727733D02*
X98661654Y-107632495D01*
X100471178Y-107156304D02*
X100471178Y-108489638D01*
X99614035Y-107156304D02*
X99614035Y-108203923D01*
X99614035Y-108203923D02*
X99709273Y-108394400D01*
X99709273Y-108394400D02*
X99899749Y-108489638D01*
X99899749Y-108489638D02*
X100185464Y-108489638D01*
X100185464Y-108489638D02*
X100375940Y-108394400D01*
X100375940Y-108394400D02*
X100471178Y-108299161D01*
X101423559Y-108489638D02*
X101423559Y-106489638D01*
X101423559Y-107251542D02*
X101614035Y-107156304D01*
X101614035Y-107156304D02*
X101994988Y-107156304D01*
X101994988Y-107156304D02*
X102185464Y-107251542D01*
X102185464Y-107251542D02*
X102280702Y-107346780D01*
X102280702Y-107346780D02*
X102375940Y-107537257D01*
X102375940Y-107537257D02*
X102375940Y-108108685D01*
X102375940Y-108108685D02*
X102280702Y-108299161D01*
X102280702Y-108299161D02*
X102185464Y-108394400D01*
X102185464Y-108394400D02*
X101994988Y-108489638D01*
X101994988Y-108489638D02*
X101614035Y-108489638D01*
X101614035Y-108489638D02*
X101423559Y-108394400D01*
D11*
X155860588Y-82917438D02*
X155765350Y-82869819D01*
X155765350Y-82869819D02*
X155622493Y-82869819D01*
X155622493Y-82869819D02*
X155479636Y-82917438D01*
X155479636Y-82917438D02*
X155384398Y-83012676D01*
X155384398Y-83012676D02*
X155336779Y-83107914D01*
X155336779Y-83107914D02*
X155289160Y-83298390D01*
X155289160Y-83298390D02*
X155289160Y-83441247D01*
X155289160Y-83441247D02*
X155336779Y-83631723D01*
X155336779Y-83631723D02*
X155384398Y-83726961D01*
X155384398Y-83726961D02*
X155479636Y-83822200D01*
X155479636Y-83822200D02*
X155622493Y-83869819D01*
X155622493Y-83869819D02*
X155717731Y-83869819D01*
X155717731Y-83869819D02*
X155860588Y-83822200D01*
X155860588Y-83822200D02*
X155908207Y-83774580D01*
X155908207Y-83774580D02*
X155908207Y-83441247D01*
X155908207Y-83441247D02*
X155717731Y-83441247D01*
X156336779Y-83869819D02*
X156336779Y-82869819D01*
X156336779Y-82869819D02*
X156908207Y-83869819D01*
X156908207Y-83869819D02*
X156908207Y-82869819D01*
X157384398Y-83869819D02*
X157384398Y-82869819D01*
X157384398Y-82869819D02*
X157622493Y-82869819D01*
X157622493Y-82869819D02*
X157765350Y-82917438D01*
X157765350Y-82917438D02*
X157860588Y-83012676D01*
X157860588Y-83012676D02*
X157908207Y-83107914D01*
X157908207Y-83107914D02*
X157955826Y-83298390D01*
X157955826Y-83298390D02*
X157955826Y-83441247D01*
X157955826Y-83441247D02*
X157908207Y-83631723D01*
X157908207Y-83631723D02*
X157860588Y-83726961D01*
X157860588Y-83726961D02*
X157765350Y-83822200D01*
X157765350Y-83822200D02*
X157622493Y-83869819D01*
X157622493Y-83869819D02*
X157384398Y-83869819D01*
X154336779Y-85488866D02*
X155098684Y-85488866D01*
X154717731Y-85869819D02*
X154717731Y-85107914D01*
X156098683Y-85869819D02*
X155527255Y-85869819D01*
X155812969Y-85869819D02*
X155812969Y-84869819D01*
X155812969Y-84869819D02*
X155717731Y-85012676D01*
X155717731Y-85012676D02*
X155622493Y-85107914D01*
X155622493Y-85107914D02*
X155527255Y-85155533D01*
X156479636Y-84965057D02*
X156527255Y-84917438D01*
X156527255Y-84917438D02*
X156622493Y-84869819D01*
X156622493Y-84869819D02*
X156860588Y-84869819D01*
X156860588Y-84869819D02*
X156955826Y-84917438D01*
X156955826Y-84917438D02*
X157003445Y-84965057D01*
X157003445Y-84965057D02*
X157051064Y-85060295D01*
X157051064Y-85060295D02*
X157051064Y-85155533D01*
X157051064Y-85155533D02*
X157003445Y-85298390D01*
X157003445Y-85298390D02*
X156432017Y-85869819D01*
X156432017Y-85869819D02*
X157051064Y-85869819D01*
X157336779Y-84869819D02*
X157670112Y-85869819D01*
X157670112Y-85869819D02*
X158003445Y-84869819D01*
D10*
X82578320Y-83168209D02*
X83530701Y-83168209D01*
X82387844Y-83739638D02*
X83054510Y-81739638D01*
X83054510Y-81739638D02*
X83721177Y-83739638D01*
X85244987Y-82406304D02*
X85244987Y-83739638D01*
X84387844Y-82406304D02*
X84387844Y-83453923D01*
X84387844Y-83453923D02*
X84483082Y-83644400D01*
X84483082Y-83644400D02*
X84673558Y-83739638D01*
X84673558Y-83739638D02*
X84959273Y-83739638D01*
X84959273Y-83739638D02*
X85149749Y-83644400D01*
X85149749Y-83644400D02*
X85244987Y-83549161D01*
X87054511Y-83739638D02*
X87054511Y-81739638D01*
X87054511Y-83644400D02*
X86864035Y-83739638D01*
X86864035Y-83739638D02*
X86483082Y-83739638D01*
X86483082Y-83739638D02*
X86292606Y-83644400D01*
X86292606Y-83644400D02*
X86197368Y-83549161D01*
X86197368Y-83549161D02*
X86102130Y-83358685D01*
X86102130Y-83358685D02*
X86102130Y-82787257D01*
X86102130Y-82787257D02*
X86197368Y-82596780D01*
X86197368Y-82596780D02*
X86292606Y-82501542D01*
X86292606Y-82501542D02*
X86483082Y-82406304D01*
X86483082Y-82406304D02*
X86864035Y-82406304D01*
X86864035Y-82406304D02*
X87054511Y-82501542D01*
X88006892Y-83739638D02*
X88006892Y-82406304D01*
X88006892Y-81739638D02*
X87911654Y-81834876D01*
X87911654Y-81834876D02*
X88006892Y-81930114D01*
X88006892Y-81930114D02*
X88102130Y-81834876D01*
X88102130Y-81834876D02*
X88006892Y-81739638D01*
X88006892Y-81739638D02*
X88006892Y-81930114D01*
X89244987Y-83739638D02*
X89054511Y-83644400D01*
X89054511Y-83644400D02*
X88959273Y-83549161D01*
X88959273Y-83549161D02*
X88864035Y-83358685D01*
X88864035Y-83358685D02*
X88864035Y-82787257D01*
X88864035Y-82787257D02*
X88959273Y-82596780D01*
X88959273Y-82596780D02*
X89054511Y-82501542D01*
X89054511Y-82501542D02*
X89244987Y-82406304D01*
X89244987Y-82406304D02*
X89530702Y-82406304D01*
X89530702Y-82406304D02*
X89721178Y-82501542D01*
X89721178Y-82501542D02*
X89816416Y-82596780D01*
X89816416Y-82596780D02*
X89911654Y-82787257D01*
X89911654Y-82787257D02*
X89911654Y-83358685D01*
X89911654Y-83358685D02*
X89816416Y-83549161D01*
X89816416Y-83549161D02*
X89721178Y-83644400D01*
X89721178Y-83644400D02*
X89530702Y-83739638D01*
X89530702Y-83739638D02*
X89244987Y-83739638D01*
D11*
X113584819Y-95746904D02*
X114394342Y-95746904D01*
X114394342Y-95746904D02*
X114489580Y-95699285D01*
X114489580Y-95699285D02*
X114537200Y-95651666D01*
X114537200Y-95651666D02*
X114584819Y-95556428D01*
X114584819Y-95556428D02*
X114584819Y-95365952D01*
X114584819Y-95365952D02*
X114537200Y-95270714D01*
X114537200Y-95270714D02*
X114489580Y-95223095D01*
X114489580Y-95223095D02*
X114394342Y-95175476D01*
X114394342Y-95175476D02*
X113584819Y-95175476D01*
X114584819Y-94175476D02*
X114584819Y-94746904D01*
X114584819Y-94461190D02*
X113584819Y-94461190D01*
X113584819Y-94461190D02*
X113727676Y-94556428D01*
X113727676Y-94556428D02*
X113822914Y-94651666D01*
X113822914Y-94651666D02*
X113870533Y-94746904D01*
X113333333Y-68374819D02*
X113000000Y-67898628D01*
X112761905Y-68374819D02*
X112761905Y-67374819D01*
X112761905Y-67374819D02*
X113142857Y-67374819D01*
X113142857Y-67374819D02*
X113238095Y-67422438D01*
X113238095Y-67422438D02*
X113285714Y-67470057D01*
X113285714Y-67470057D02*
X113333333Y-67565295D01*
X113333333Y-67565295D02*
X113333333Y-67708152D01*
X113333333Y-67708152D02*
X113285714Y-67803390D01*
X113285714Y-67803390D02*
X113238095Y-67851009D01*
X113238095Y-67851009D02*
X113142857Y-67898628D01*
X113142857Y-67898628D02*
X112761905Y-67898628D01*
X114190476Y-67708152D02*
X114190476Y-68374819D01*
X113952381Y-67327200D02*
X113714286Y-68041485D01*
X113714286Y-68041485D02*
X114333333Y-68041485D01*
X104256905Y-62494819D02*
X104256905Y-61494819D01*
X104256905Y-61494819D02*
X104495000Y-61494819D01*
X104495000Y-61494819D02*
X104637857Y-61542438D01*
X104637857Y-61542438D02*
X104733095Y-61637676D01*
X104733095Y-61637676D02*
X104780714Y-61732914D01*
X104780714Y-61732914D02*
X104828333Y-61923390D01*
X104828333Y-61923390D02*
X104828333Y-62066247D01*
X104828333Y-62066247D02*
X104780714Y-62256723D01*
X104780714Y-62256723D02*
X104733095Y-62351961D01*
X104733095Y-62351961D02*
X104637857Y-62447200D01*
X104637857Y-62447200D02*
X104495000Y-62494819D01*
X104495000Y-62494819D02*
X104256905Y-62494819D01*
X105780714Y-62494819D02*
X105209286Y-62494819D01*
X105495000Y-62494819D02*
X105495000Y-61494819D01*
X105495000Y-61494819D02*
X105399762Y-61637676D01*
X105399762Y-61637676D02*
X105304524Y-61732914D01*
X105304524Y-61732914D02*
X105209286Y-61780533D01*
X101333333Y-73859456D02*
X101285714Y-73907076D01*
X101285714Y-73907076D02*
X101142857Y-73954695D01*
X101142857Y-73954695D02*
X101047619Y-73954695D01*
X101047619Y-73954695D02*
X100904762Y-73907076D01*
X100904762Y-73907076D02*
X100809524Y-73811837D01*
X100809524Y-73811837D02*
X100761905Y-73716599D01*
X100761905Y-73716599D02*
X100714286Y-73526123D01*
X100714286Y-73526123D02*
X100714286Y-73383266D01*
X100714286Y-73383266D02*
X100761905Y-73192790D01*
X100761905Y-73192790D02*
X100809524Y-73097552D01*
X100809524Y-73097552D02*
X100904762Y-73002314D01*
X100904762Y-73002314D02*
X101047619Y-72954695D01*
X101047619Y-72954695D02*
X101142857Y-72954695D01*
X101142857Y-72954695D02*
X101285714Y-73002314D01*
X101285714Y-73002314D02*
X101333333Y-73049933D01*
X101666667Y-72954695D02*
X102285714Y-72954695D01*
X102285714Y-72954695D02*
X101952381Y-73335647D01*
X101952381Y-73335647D02*
X102095238Y-73335647D01*
X102095238Y-73335647D02*
X102190476Y-73383266D01*
X102190476Y-73383266D02*
X102238095Y-73430885D01*
X102238095Y-73430885D02*
X102285714Y-73526123D01*
X102285714Y-73526123D02*
X102285714Y-73764218D01*
X102285714Y-73764218D02*
X102238095Y-73859456D01*
X102238095Y-73859456D02*
X102190476Y-73907076D01*
X102190476Y-73907076D02*
X102095238Y-73954695D01*
X102095238Y-73954695D02*
X101809524Y-73954695D01*
X101809524Y-73954695D02*
X101714286Y-73907076D01*
X101714286Y-73907076D02*
X101666667Y-73859456D01*
X154494819Y-102008094D02*
X153494819Y-102008094D01*
X153494819Y-102008094D02*
X153494819Y-101769999D01*
X153494819Y-101769999D02*
X153542438Y-101627142D01*
X153542438Y-101627142D02*
X153637676Y-101531904D01*
X153637676Y-101531904D02*
X153732914Y-101484285D01*
X153732914Y-101484285D02*
X153923390Y-101436666D01*
X153923390Y-101436666D02*
X154066247Y-101436666D01*
X154066247Y-101436666D02*
X154256723Y-101484285D01*
X154256723Y-101484285D02*
X154351961Y-101531904D01*
X154351961Y-101531904D02*
X154447200Y-101627142D01*
X154447200Y-101627142D02*
X154494819Y-101769999D01*
X154494819Y-101769999D02*
X154494819Y-102008094D01*
X153590057Y-101055713D02*
X153542438Y-101008094D01*
X153542438Y-101008094D02*
X153494819Y-100912856D01*
X153494819Y-100912856D02*
X153494819Y-100674761D01*
X153494819Y-100674761D02*
X153542438Y-100579523D01*
X153542438Y-100579523D02*
X153590057Y-100531904D01*
X153590057Y-100531904D02*
X153685295Y-100484285D01*
X153685295Y-100484285D02*
X153780533Y-100484285D01*
X153780533Y-100484285D02*
X153923390Y-100531904D01*
X153923390Y-100531904D02*
X154494819Y-101103332D01*
X154494819Y-101103332D02*
X154494819Y-100484285D01*
X108859580Y-109916666D02*
X108907200Y-109964285D01*
X108907200Y-109964285D02*
X108954819Y-110107142D01*
X108954819Y-110107142D02*
X108954819Y-110202380D01*
X108954819Y-110202380D02*
X108907200Y-110345237D01*
X108907200Y-110345237D02*
X108811961Y-110440475D01*
X108811961Y-110440475D02*
X108716723Y-110488094D01*
X108716723Y-110488094D02*
X108526247Y-110535713D01*
X108526247Y-110535713D02*
X108383390Y-110535713D01*
X108383390Y-110535713D02*
X108192914Y-110488094D01*
X108192914Y-110488094D02*
X108097676Y-110440475D01*
X108097676Y-110440475D02*
X108002438Y-110345237D01*
X108002438Y-110345237D02*
X107954819Y-110202380D01*
X107954819Y-110202380D02*
X107954819Y-110107142D01*
X107954819Y-110107142D02*
X108002438Y-109964285D01*
X108002438Y-109964285D02*
X108050057Y-109916666D01*
X108288152Y-109059523D02*
X108954819Y-109059523D01*
X107907200Y-109297618D02*
X108621485Y-109535713D01*
X108621485Y-109535713D02*
X108621485Y-108916666D01*
X107359580Y-80416666D02*
X107407200Y-80464285D01*
X107407200Y-80464285D02*
X107454819Y-80607142D01*
X107454819Y-80607142D02*
X107454819Y-80702380D01*
X107454819Y-80702380D02*
X107407200Y-80845237D01*
X107407200Y-80845237D02*
X107311961Y-80940475D01*
X107311961Y-80940475D02*
X107216723Y-80988094D01*
X107216723Y-80988094D02*
X107026247Y-81035713D01*
X107026247Y-81035713D02*
X106883390Y-81035713D01*
X106883390Y-81035713D02*
X106692914Y-80988094D01*
X106692914Y-80988094D02*
X106597676Y-80940475D01*
X106597676Y-80940475D02*
X106502438Y-80845237D01*
X106502438Y-80845237D02*
X106454819Y-80702380D01*
X106454819Y-80702380D02*
X106454819Y-80607142D01*
X106454819Y-80607142D02*
X106502438Y-80464285D01*
X106502438Y-80464285D02*
X106550057Y-80416666D01*
X106550057Y-80035713D02*
X106502438Y-79988094D01*
X106502438Y-79988094D02*
X106454819Y-79892856D01*
X106454819Y-79892856D02*
X106454819Y-79654761D01*
X106454819Y-79654761D02*
X106502438Y-79559523D01*
X106502438Y-79559523D02*
X106550057Y-79511904D01*
X106550057Y-79511904D02*
X106645295Y-79464285D01*
X106645295Y-79464285D02*
X106740533Y-79464285D01*
X106740533Y-79464285D02*
X106883390Y-79511904D01*
X106883390Y-79511904D02*
X107454819Y-80083332D01*
X107454819Y-80083332D02*
X107454819Y-79464285D01*
X155534819Y-92931666D02*
X155058628Y-93264999D01*
X155534819Y-93503094D02*
X154534819Y-93503094D01*
X154534819Y-93503094D02*
X154534819Y-93122142D01*
X154534819Y-93122142D02*
X154582438Y-93026904D01*
X154582438Y-93026904D02*
X154630057Y-92979285D01*
X154630057Y-92979285D02*
X154725295Y-92931666D01*
X154725295Y-92931666D02*
X154868152Y-92931666D01*
X154868152Y-92931666D02*
X154963390Y-92979285D01*
X154963390Y-92979285D02*
X155011009Y-93026904D01*
X155011009Y-93026904D02*
X155058628Y-93122142D01*
X155058628Y-93122142D02*
X155058628Y-93503094D01*
X154534819Y-92598332D02*
X154534819Y-91979285D01*
X154534819Y-91979285D02*
X154915771Y-92312618D01*
X154915771Y-92312618D02*
X154915771Y-92169761D01*
X154915771Y-92169761D02*
X154963390Y-92074523D01*
X154963390Y-92074523D02*
X155011009Y-92026904D01*
X155011009Y-92026904D02*
X155106247Y-91979285D01*
X155106247Y-91979285D02*
X155344342Y-91979285D01*
X155344342Y-91979285D02*
X155439580Y-92026904D01*
X155439580Y-92026904D02*
X155487200Y-92074523D01*
X155487200Y-92074523D02*
X155534819Y-92169761D01*
X155534819Y-92169761D02*
X155534819Y-92455475D01*
X155534819Y-92455475D02*
X155487200Y-92550713D01*
X155487200Y-92550713D02*
X155439580Y-92598332D01*
D12*
X161833333Y-77912238D02*
X161833333Y-79340809D01*
X161833333Y-79340809D02*
X161738094Y-79626523D01*
X161738094Y-79626523D02*
X161547618Y-79817000D01*
X161547618Y-79817000D02*
X161261904Y-79912238D01*
X161261904Y-79912238D02*
X161071428Y-79912238D01*
X162690476Y-78102714D02*
X162785714Y-78007476D01*
X162785714Y-78007476D02*
X162976190Y-77912238D01*
X162976190Y-77912238D02*
X163452381Y-77912238D01*
X163452381Y-77912238D02*
X163642857Y-78007476D01*
X163642857Y-78007476D02*
X163738095Y-78102714D01*
X163738095Y-78102714D02*
X163833333Y-78293190D01*
X163833333Y-78293190D02*
X163833333Y-78483666D01*
X163833333Y-78483666D02*
X163738095Y-78769380D01*
X163738095Y-78769380D02*
X162595238Y-79912238D01*
X162595238Y-79912238D02*
X163833333Y-79912238D01*
D11*
X112109580Y-106916666D02*
X112157200Y-106964285D01*
X112157200Y-106964285D02*
X112204819Y-107107142D01*
X112204819Y-107107142D02*
X112204819Y-107202380D01*
X112204819Y-107202380D02*
X112157200Y-107345237D01*
X112157200Y-107345237D02*
X112061961Y-107440475D01*
X112061961Y-107440475D02*
X111966723Y-107488094D01*
X111966723Y-107488094D02*
X111776247Y-107535713D01*
X111776247Y-107535713D02*
X111633390Y-107535713D01*
X111633390Y-107535713D02*
X111442914Y-107488094D01*
X111442914Y-107488094D02*
X111347676Y-107440475D01*
X111347676Y-107440475D02*
X111252438Y-107345237D01*
X111252438Y-107345237D02*
X111204819Y-107202380D01*
X111204819Y-107202380D02*
X111204819Y-107107142D01*
X111204819Y-107107142D02*
X111252438Y-106964285D01*
X111252438Y-106964285D02*
X111300057Y-106916666D01*
X112204819Y-105964285D02*
X112204819Y-106535713D01*
X112204819Y-106249999D02*
X111204819Y-106249999D01*
X111204819Y-106249999D02*
X111347676Y-106345237D01*
X111347676Y-106345237D02*
X111442914Y-106440475D01*
X111442914Y-106440475D02*
X111490533Y-106535713D01*
D12*
X83333333Y-70162238D02*
X83333333Y-71590809D01*
X83333333Y-71590809D02*
X83238094Y-71876523D01*
X83238094Y-71876523D02*
X83047618Y-72067000D01*
X83047618Y-72067000D02*
X82761904Y-72162238D01*
X82761904Y-72162238D02*
X82571428Y-72162238D01*
X85333333Y-72162238D02*
X84190476Y-72162238D01*
X84761904Y-72162238D02*
X84761904Y-70162238D01*
X84761904Y-70162238D02*
X84571428Y-70447952D01*
X84571428Y-70447952D02*
X84380952Y-70638428D01*
X84380952Y-70638428D02*
X84190476Y-70733666D01*
D11*
X97333333Y-88874819D02*
X97000000Y-88398628D01*
X96761905Y-88874819D02*
X96761905Y-87874819D01*
X96761905Y-87874819D02*
X97142857Y-87874819D01*
X97142857Y-87874819D02*
X97238095Y-87922438D01*
X97238095Y-87922438D02*
X97285714Y-87970057D01*
X97285714Y-87970057D02*
X97333333Y-88065295D01*
X97333333Y-88065295D02*
X97333333Y-88208152D01*
X97333333Y-88208152D02*
X97285714Y-88303390D01*
X97285714Y-88303390D02*
X97238095Y-88351009D01*
X97238095Y-88351009D02*
X97142857Y-88398628D01*
X97142857Y-88398628D02*
X96761905Y-88398628D01*
X98285714Y-88874819D02*
X97714286Y-88874819D01*
X98000000Y-88874819D02*
X98000000Y-87874819D01*
X98000000Y-87874819D02*
X97904762Y-88017676D01*
X97904762Y-88017676D02*
X97809524Y-88112914D01*
X97809524Y-88112914D02*
X97714286Y-88160533D01*
X153809580Y-79666666D02*
X153857200Y-79714285D01*
X153857200Y-79714285D02*
X153904819Y-79857142D01*
X153904819Y-79857142D02*
X153904819Y-79952380D01*
X153904819Y-79952380D02*
X153857200Y-80095237D01*
X153857200Y-80095237D02*
X153761961Y-80190475D01*
X153761961Y-80190475D02*
X153666723Y-80238094D01*
X153666723Y-80238094D02*
X153476247Y-80285713D01*
X153476247Y-80285713D02*
X153333390Y-80285713D01*
X153333390Y-80285713D02*
X153142914Y-80238094D01*
X153142914Y-80238094D02*
X153047676Y-80190475D01*
X153047676Y-80190475D02*
X152952438Y-80095237D01*
X152952438Y-80095237D02*
X152904819Y-79952380D01*
X152904819Y-79952380D02*
X152904819Y-79857142D01*
X152904819Y-79857142D02*
X152952438Y-79714285D01*
X152952438Y-79714285D02*
X153000057Y-79666666D01*
X152904819Y-78761904D02*
X152904819Y-79238094D01*
X152904819Y-79238094D02*
X153381009Y-79285713D01*
X153381009Y-79285713D02*
X153333390Y-79238094D01*
X153333390Y-79238094D02*
X153285771Y-79142856D01*
X153285771Y-79142856D02*
X153285771Y-78904761D01*
X153285771Y-78904761D02*
X153333390Y-78809523D01*
X153333390Y-78809523D02*
X153381009Y-78761904D01*
X153381009Y-78761904D02*
X153476247Y-78714285D01*
X153476247Y-78714285D02*
X153714342Y-78714285D01*
X153714342Y-78714285D02*
X153809580Y-78761904D01*
X153809580Y-78761904D02*
X153857200Y-78809523D01*
X153857200Y-78809523D02*
X153904819Y-78904761D01*
X153904819Y-78904761D02*
X153904819Y-79142856D01*
X153904819Y-79142856D02*
X153857200Y-79238094D01*
X153857200Y-79238094D02*
X153809580Y-79285713D01*
X110954819Y-80416666D02*
X110478628Y-80749999D01*
X110954819Y-80988094D02*
X109954819Y-80988094D01*
X109954819Y-80988094D02*
X109954819Y-80607142D01*
X109954819Y-80607142D02*
X110002438Y-80511904D01*
X110002438Y-80511904D02*
X110050057Y-80464285D01*
X110050057Y-80464285D02*
X110145295Y-80416666D01*
X110145295Y-80416666D02*
X110288152Y-80416666D01*
X110288152Y-80416666D02*
X110383390Y-80464285D01*
X110383390Y-80464285D02*
X110431009Y-80511904D01*
X110431009Y-80511904D02*
X110478628Y-80607142D01*
X110478628Y-80607142D02*
X110478628Y-80988094D01*
X109954819Y-79511904D02*
X109954819Y-79988094D01*
X109954819Y-79988094D02*
X110431009Y-80035713D01*
X110431009Y-80035713D02*
X110383390Y-79988094D01*
X110383390Y-79988094D02*
X110335771Y-79892856D01*
X110335771Y-79892856D02*
X110335771Y-79654761D01*
X110335771Y-79654761D02*
X110383390Y-79559523D01*
X110383390Y-79559523D02*
X110431009Y-79511904D01*
X110431009Y-79511904D02*
X110526247Y-79464285D01*
X110526247Y-79464285D02*
X110764342Y-79464285D01*
X110764342Y-79464285D02*
X110859580Y-79511904D01*
X110859580Y-79511904D02*
X110907200Y-79559523D01*
X110907200Y-79559523D02*
X110954819Y-79654761D01*
X110954819Y-79654761D02*
X110954819Y-79892856D01*
X110954819Y-79892856D02*
X110907200Y-79988094D01*
X110907200Y-79988094D02*
X110859580Y-80035713D01*
D13*
X129976190Y-116414838D02*
X129976190Y-118033885D01*
X129976190Y-118033885D02*
X130071428Y-118224361D01*
X130071428Y-118224361D02*
X130166666Y-118319600D01*
X130166666Y-118319600D02*
X130357142Y-118414838D01*
X130357142Y-118414838D02*
X130738095Y-118414838D01*
X130738095Y-118414838D02*
X130928571Y-118319600D01*
X130928571Y-118319600D02*
X131023809Y-118224361D01*
X131023809Y-118224361D02*
X131119047Y-118033885D01*
X131119047Y-118033885D02*
X131119047Y-116414838D01*
X131880952Y-116414838D02*
X133119047Y-116414838D01*
X133119047Y-116414838D02*
X132452380Y-117176742D01*
X132452380Y-117176742D02*
X132738095Y-117176742D01*
X132738095Y-117176742D02*
X132928571Y-117271980D01*
X132928571Y-117271980D02*
X133023809Y-117367219D01*
X133023809Y-117367219D02*
X133119047Y-117557695D01*
X133119047Y-117557695D02*
X133119047Y-118033885D01*
X133119047Y-118033885D02*
X133023809Y-118224361D01*
X133023809Y-118224361D02*
X132928571Y-118319600D01*
X132928571Y-118319600D02*
X132738095Y-118414838D01*
X132738095Y-118414838D02*
X132166666Y-118414838D01*
X132166666Y-118414838D02*
X131976190Y-118319600D01*
X131976190Y-118319600D02*
X131880952Y-118224361D01*
D11*
X117099998Y-86550868D02*
X117019185Y-86577805D01*
X117019185Y-86577805D02*
X116938373Y-86658618D01*
X116938373Y-86658618D02*
X116884498Y-86766367D01*
X116884498Y-86766367D02*
X116884498Y-86874117D01*
X116884498Y-86874117D02*
X116911436Y-86954929D01*
X116911436Y-86954929D02*
X116992248Y-87089616D01*
X116992248Y-87089616D02*
X117073060Y-87170428D01*
X117073060Y-87170428D02*
X117207747Y-87251241D01*
X117207747Y-87251241D02*
X117288560Y-87278178D01*
X117288560Y-87278178D02*
X117396309Y-87278178D01*
X117396309Y-87278178D02*
X117504059Y-87224303D01*
X117504059Y-87224303D02*
X117557934Y-87170428D01*
X117557934Y-87170428D02*
X117611808Y-87062679D01*
X117611808Y-87062679D02*
X117611808Y-87008804D01*
X117611808Y-87008804D02*
X117423247Y-86820242D01*
X117423247Y-86820242D02*
X117315497Y-86927992D01*
X117908120Y-86820242D02*
X117342434Y-86254557D01*
X117342434Y-86254557D02*
X117557934Y-86039057D01*
X117557934Y-86039057D02*
X117638746Y-86012120D01*
X117638746Y-86012120D02*
X117692621Y-86012120D01*
X117692621Y-86012120D02*
X117773433Y-86039057D01*
X117773433Y-86039057D02*
X117854245Y-86119870D01*
X117854245Y-86119870D02*
X117881182Y-86200682D01*
X117881182Y-86200682D02*
X117881182Y-86254557D01*
X117881182Y-86254557D02*
X117854245Y-86335369D01*
X117854245Y-86335369D02*
X117638746Y-86550868D01*
X117935057Y-85769683D02*
X117935057Y-85715809D01*
X117935057Y-85715809D02*
X117961995Y-85634996D01*
X117961995Y-85634996D02*
X118096682Y-85500309D01*
X118096682Y-85500309D02*
X118177494Y-85473372D01*
X118177494Y-85473372D02*
X118231369Y-85473372D01*
X118231369Y-85473372D02*
X118312181Y-85500309D01*
X118312181Y-85500309D02*
X118366056Y-85554184D01*
X118366056Y-85554184D02*
X118419930Y-85661934D01*
X118419930Y-85661934D02*
X118419930Y-86308431D01*
X118419930Y-86308431D02*
X118770117Y-85958245D01*
X118473805Y-85230935D02*
X118473805Y-85177060D01*
X118473805Y-85177060D02*
X118500743Y-85096248D01*
X118500743Y-85096248D02*
X118635430Y-84961561D01*
X118635430Y-84961561D02*
X118716242Y-84934624D01*
X118716242Y-84934624D02*
X118770117Y-84934624D01*
X118770117Y-84934624D02*
X118850929Y-84961561D01*
X118850929Y-84961561D02*
X118904804Y-85015436D01*
X118904804Y-85015436D02*
X118958679Y-85123186D01*
X118958679Y-85123186D02*
X118958679Y-85769683D01*
X118958679Y-85769683D02*
X119308865Y-85419497D01*
X117099998Y-68770868D02*
X117019185Y-68797805D01*
X117019185Y-68797805D02*
X116938373Y-68878618D01*
X116938373Y-68878618D02*
X116884498Y-68986367D01*
X116884498Y-68986367D02*
X116884498Y-69094117D01*
X116884498Y-69094117D02*
X116911436Y-69174929D01*
X116911436Y-69174929D02*
X116992248Y-69309616D01*
X116992248Y-69309616D02*
X117073060Y-69390428D01*
X117073060Y-69390428D02*
X117207747Y-69471241D01*
X117207747Y-69471241D02*
X117288560Y-69498178D01*
X117288560Y-69498178D02*
X117396309Y-69498178D01*
X117396309Y-69498178D02*
X117504059Y-69444303D01*
X117504059Y-69444303D02*
X117557934Y-69390428D01*
X117557934Y-69390428D02*
X117611808Y-69282679D01*
X117611808Y-69282679D02*
X117611808Y-69228804D01*
X117611808Y-69228804D02*
X117423247Y-69040242D01*
X117423247Y-69040242D02*
X117315497Y-69147992D01*
X117908120Y-69040242D02*
X117342434Y-68474557D01*
X117342434Y-68474557D02*
X117557934Y-68259057D01*
X117557934Y-68259057D02*
X117638746Y-68232120D01*
X117638746Y-68232120D02*
X117692621Y-68232120D01*
X117692621Y-68232120D02*
X117773433Y-68259057D01*
X117773433Y-68259057D02*
X117854245Y-68339870D01*
X117854245Y-68339870D02*
X117881182Y-68420682D01*
X117881182Y-68420682D02*
X117881182Y-68474557D01*
X117881182Y-68474557D02*
X117854245Y-68555369D01*
X117854245Y-68555369D02*
X117638746Y-68770868D01*
X118770117Y-68178245D02*
X118446868Y-68501494D01*
X118608492Y-68339870D02*
X118042807Y-67774184D01*
X118042807Y-67774184D02*
X118069744Y-67908871D01*
X118069744Y-67908871D02*
X118069744Y-68016621D01*
X118069744Y-68016621D02*
X118042807Y-68097433D01*
X118392993Y-67423998D02*
X118770117Y-67046874D01*
X118770117Y-67046874D02*
X119093366Y-67854996D01*
X143223372Y-98981494D02*
X143142560Y-99008431D01*
X143142560Y-99008431D02*
X143061748Y-99089243D01*
X143061748Y-99089243D02*
X143007873Y-99196993D01*
X143007873Y-99196993D02*
X143007873Y-99304742D01*
X143007873Y-99304742D02*
X143034810Y-99385555D01*
X143034810Y-99385555D02*
X143115623Y-99520242D01*
X143115623Y-99520242D02*
X143196435Y-99601054D01*
X143196435Y-99601054D02*
X143331122Y-99681866D01*
X143331122Y-99681866D02*
X143411934Y-99708803D01*
X143411934Y-99708803D02*
X143519684Y-99708803D01*
X143519684Y-99708803D02*
X143627433Y-99654929D01*
X143627433Y-99654929D02*
X143681308Y-99601054D01*
X143681308Y-99601054D02*
X143735183Y-99493304D01*
X143735183Y-99493304D02*
X143735183Y-99439429D01*
X143735183Y-99439429D02*
X143546621Y-99250868D01*
X143546621Y-99250868D02*
X143438871Y-99358617D01*
X144031494Y-99250868D02*
X143465809Y-98685182D01*
X143465809Y-98685182D02*
X143681308Y-98469683D01*
X143681308Y-98469683D02*
X143762120Y-98442746D01*
X143762120Y-98442746D02*
X143815995Y-98442746D01*
X143815995Y-98442746D02*
X143896807Y-98469683D01*
X143896807Y-98469683D02*
X143977619Y-98550495D01*
X143977619Y-98550495D02*
X144004557Y-98631307D01*
X144004557Y-98631307D02*
X144004557Y-98685182D01*
X144004557Y-98685182D02*
X143977619Y-98765994D01*
X143977619Y-98765994D02*
X143762120Y-98981494D01*
X144300868Y-97850123D02*
X144031494Y-98119497D01*
X144031494Y-98119497D02*
X144273931Y-98415808D01*
X144273931Y-98415808D02*
X144273931Y-98361933D01*
X144273931Y-98361933D02*
X144300868Y-98281121D01*
X144300868Y-98281121D02*
X144435555Y-98146434D01*
X144435555Y-98146434D02*
X144516367Y-98119497D01*
X144516367Y-98119497D02*
X144570242Y-98119497D01*
X144570242Y-98119497D02*
X144651054Y-98146434D01*
X144651054Y-98146434D02*
X144785741Y-98281121D01*
X144785741Y-98281121D02*
X144812679Y-98361933D01*
X144812679Y-98361933D02*
X144812679Y-98415808D01*
X144812679Y-98415808D02*
X144785741Y-98496620D01*
X144785741Y-98496620D02*
X144651054Y-98631307D01*
X144651054Y-98631307D02*
X144570242Y-98658245D01*
X144570242Y-98658245D02*
X144516367Y-98658245D01*
X143223372Y-114221494D02*
X143142560Y-114248431D01*
X143142560Y-114248431D02*
X143061748Y-114329243D01*
X143061748Y-114329243D02*
X143007873Y-114436993D01*
X143007873Y-114436993D02*
X143007873Y-114544742D01*
X143007873Y-114544742D02*
X143034810Y-114625555D01*
X143034810Y-114625555D02*
X143115623Y-114760242D01*
X143115623Y-114760242D02*
X143196435Y-114841054D01*
X143196435Y-114841054D02*
X143331122Y-114921866D01*
X143331122Y-114921866D02*
X143411934Y-114948803D01*
X143411934Y-114948803D02*
X143519684Y-114948803D01*
X143519684Y-114948803D02*
X143627433Y-114894929D01*
X143627433Y-114894929D02*
X143681308Y-114841054D01*
X143681308Y-114841054D02*
X143735183Y-114733304D01*
X143735183Y-114733304D02*
X143735183Y-114679429D01*
X143735183Y-114679429D02*
X143546621Y-114490868D01*
X143546621Y-114490868D02*
X143438871Y-114598617D01*
X144031494Y-114490868D02*
X143465809Y-113925182D01*
X143465809Y-113925182D02*
X143681308Y-113709683D01*
X143681308Y-113709683D02*
X143762120Y-113682746D01*
X143762120Y-113682746D02*
X143815995Y-113682746D01*
X143815995Y-113682746D02*
X143896807Y-113709683D01*
X143896807Y-113709683D02*
X143977619Y-113790495D01*
X143977619Y-113790495D02*
X144004557Y-113871307D01*
X144004557Y-113871307D02*
X144004557Y-113925182D01*
X144004557Y-113925182D02*
X143977619Y-114005994D01*
X143977619Y-114005994D02*
X143762120Y-114221494D01*
X144139244Y-113251747D02*
X144193119Y-113197872D01*
X144193119Y-113197872D02*
X144273931Y-113170935D01*
X144273931Y-113170935D02*
X144327806Y-113170935D01*
X144327806Y-113170935D02*
X144408618Y-113197872D01*
X144408618Y-113197872D02*
X144543305Y-113278685D01*
X144543305Y-113278685D02*
X144677992Y-113413372D01*
X144677992Y-113413372D02*
X144758804Y-113548059D01*
X144758804Y-113548059D02*
X144785741Y-113628871D01*
X144785741Y-113628871D02*
X144785741Y-113682746D01*
X144785741Y-113682746D02*
X144758804Y-113763558D01*
X144758804Y-113763558D02*
X144704929Y-113817433D01*
X144704929Y-113817433D02*
X144624117Y-113844370D01*
X144624117Y-113844370D02*
X144570242Y-113844370D01*
X144570242Y-113844370D02*
X144489430Y-113817433D01*
X144489430Y-113817433D02*
X144354743Y-113736620D01*
X144354743Y-113736620D02*
X144220056Y-113601933D01*
X144220056Y-113601933D02*
X144139244Y-113467246D01*
X144139244Y-113467246D02*
X144112306Y-113386434D01*
X144112306Y-113386434D02*
X144112306Y-113332559D01*
X144112306Y-113332559D02*
X144139244Y-113251747D01*
X143207998Y-66230868D02*
X143127185Y-66257805D01*
X143127185Y-66257805D02*
X143046373Y-66338618D01*
X143046373Y-66338618D02*
X142992498Y-66446367D01*
X142992498Y-66446367D02*
X142992498Y-66554117D01*
X142992498Y-66554117D02*
X143019436Y-66634929D01*
X143019436Y-66634929D02*
X143100248Y-66769616D01*
X143100248Y-66769616D02*
X143181060Y-66850428D01*
X143181060Y-66850428D02*
X143315747Y-66931241D01*
X143315747Y-66931241D02*
X143396560Y-66958178D01*
X143396560Y-66958178D02*
X143504309Y-66958178D01*
X143504309Y-66958178D02*
X143612059Y-66904303D01*
X143612059Y-66904303D02*
X143665934Y-66850428D01*
X143665934Y-66850428D02*
X143719808Y-66742679D01*
X143719808Y-66742679D02*
X143719808Y-66688804D01*
X143719808Y-66688804D02*
X143531247Y-66500242D01*
X143531247Y-66500242D02*
X143423497Y-66607992D01*
X144016120Y-66500242D02*
X143450434Y-65934557D01*
X143450434Y-65934557D02*
X143665934Y-65719057D01*
X143665934Y-65719057D02*
X143746746Y-65692120D01*
X143746746Y-65692120D02*
X143800621Y-65692120D01*
X143800621Y-65692120D02*
X143881433Y-65719057D01*
X143881433Y-65719057D02*
X143962245Y-65799870D01*
X143962245Y-65799870D02*
X143989182Y-65880682D01*
X143989182Y-65880682D02*
X143989182Y-65934557D01*
X143989182Y-65934557D02*
X143962245Y-66015369D01*
X143962245Y-66015369D02*
X143746746Y-66230868D01*
X144878117Y-65638245D02*
X144554868Y-65961494D01*
X144716492Y-65799870D02*
X144150807Y-65234184D01*
X144150807Y-65234184D02*
X144177744Y-65368871D01*
X144177744Y-65368871D02*
X144177744Y-65476621D01*
X144177744Y-65476621D02*
X144150807Y-65557433D01*
X144824242Y-64560749D02*
X144554868Y-64830123D01*
X144554868Y-64830123D02*
X144797305Y-65126434D01*
X144797305Y-65126434D02*
X144797305Y-65072560D01*
X144797305Y-65072560D02*
X144824242Y-64991747D01*
X144824242Y-64991747D02*
X144958929Y-64857060D01*
X144958929Y-64857060D02*
X145039741Y-64830123D01*
X145039741Y-64830123D02*
X145093616Y-64830123D01*
X145093616Y-64830123D02*
X145174428Y-64857060D01*
X145174428Y-64857060D02*
X145309115Y-64991747D01*
X145309115Y-64991747D02*
X145336053Y-65072560D01*
X145336053Y-65072560D02*
X145336053Y-65126434D01*
X145336053Y-65126434D02*
X145309115Y-65207247D01*
X145309115Y-65207247D02*
X145174428Y-65341934D01*
X145174428Y-65341934D02*
X145093616Y-65368871D01*
X145093616Y-65368871D02*
X145039741Y-65368871D01*
X117099998Y-81460868D02*
X117019185Y-81487805D01*
X117019185Y-81487805D02*
X116938373Y-81568618D01*
X116938373Y-81568618D02*
X116884498Y-81676367D01*
X116884498Y-81676367D02*
X116884498Y-81784117D01*
X116884498Y-81784117D02*
X116911436Y-81864929D01*
X116911436Y-81864929D02*
X116992248Y-81999616D01*
X116992248Y-81999616D02*
X117073060Y-82080428D01*
X117073060Y-82080428D02*
X117207747Y-82161241D01*
X117207747Y-82161241D02*
X117288560Y-82188178D01*
X117288560Y-82188178D02*
X117396309Y-82188178D01*
X117396309Y-82188178D02*
X117504059Y-82134303D01*
X117504059Y-82134303D02*
X117557934Y-82080428D01*
X117557934Y-82080428D02*
X117611808Y-81972679D01*
X117611808Y-81972679D02*
X117611808Y-81918804D01*
X117611808Y-81918804D02*
X117423247Y-81730242D01*
X117423247Y-81730242D02*
X117315497Y-81837992D01*
X117908120Y-81730242D02*
X117342434Y-81164557D01*
X117342434Y-81164557D02*
X117557934Y-80949057D01*
X117557934Y-80949057D02*
X117638746Y-80922120D01*
X117638746Y-80922120D02*
X117692621Y-80922120D01*
X117692621Y-80922120D02*
X117773433Y-80949057D01*
X117773433Y-80949057D02*
X117854245Y-81029870D01*
X117854245Y-81029870D02*
X117881182Y-81110682D01*
X117881182Y-81110682D02*
X117881182Y-81164557D01*
X117881182Y-81164557D02*
X117854245Y-81245369D01*
X117854245Y-81245369D02*
X117638746Y-81460868D01*
X117935057Y-80679683D02*
X117935057Y-80625809D01*
X117935057Y-80625809D02*
X117961995Y-80544996D01*
X117961995Y-80544996D02*
X118096682Y-80410309D01*
X118096682Y-80410309D02*
X118177494Y-80383372D01*
X118177494Y-80383372D02*
X118231369Y-80383372D01*
X118231369Y-80383372D02*
X118312181Y-80410309D01*
X118312181Y-80410309D02*
X118366056Y-80464184D01*
X118366056Y-80464184D02*
X118419930Y-80571934D01*
X118419930Y-80571934D02*
X118419930Y-81218431D01*
X118419930Y-81218431D02*
X118770117Y-80868245D01*
X119308865Y-80329497D02*
X118985616Y-80652746D01*
X119147240Y-80491121D02*
X118581555Y-79925436D01*
X118581555Y-79925436D02*
X118608492Y-80060123D01*
X118608492Y-80060123D02*
X118608492Y-80167873D01*
X118608492Y-80167873D02*
X118581555Y-80248685D01*
X143223372Y-93901494D02*
X143142560Y-93928431D01*
X143142560Y-93928431D02*
X143061748Y-94009243D01*
X143061748Y-94009243D02*
X143007873Y-94116993D01*
X143007873Y-94116993D02*
X143007873Y-94224742D01*
X143007873Y-94224742D02*
X143034810Y-94305555D01*
X143034810Y-94305555D02*
X143115623Y-94440242D01*
X143115623Y-94440242D02*
X143196435Y-94521054D01*
X143196435Y-94521054D02*
X143331122Y-94601866D01*
X143331122Y-94601866D02*
X143411934Y-94628803D01*
X143411934Y-94628803D02*
X143519684Y-94628803D01*
X143519684Y-94628803D02*
X143627433Y-94574929D01*
X143627433Y-94574929D02*
X143681308Y-94521054D01*
X143681308Y-94521054D02*
X143735183Y-94413304D01*
X143735183Y-94413304D02*
X143735183Y-94359429D01*
X143735183Y-94359429D02*
X143546621Y-94170868D01*
X143546621Y-94170868D02*
X143438871Y-94278617D01*
X144031494Y-94170868D02*
X143465809Y-93605182D01*
X143465809Y-93605182D02*
X143681308Y-93389683D01*
X143681308Y-93389683D02*
X143762120Y-93362746D01*
X143762120Y-93362746D02*
X143815995Y-93362746D01*
X143815995Y-93362746D02*
X143896807Y-93389683D01*
X143896807Y-93389683D02*
X143977619Y-93470495D01*
X143977619Y-93470495D02*
X144004557Y-93551307D01*
X144004557Y-93551307D02*
X144004557Y-93605182D01*
X144004557Y-93605182D02*
X143977619Y-93685994D01*
X143977619Y-93685994D02*
X143762120Y-93901494D01*
X144273931Y-92797060D02*
X144166181Y-92904810D01*
X144166181Y-92904810D02*
X144139244Y-92985622D01*
X144139244Y-92985622D02*
X144139244Y-93039497D01*
X144139244Y-93039497D02*
X144166181Y-93174184D01*
X144166181Y-93174184D02*
X144246993Y-93308871D01*
X144246993Y-93308871D02*
X144462493Y-93524370D01*
X144462493Y-93524370D02*
X144543305Y-93551307D01*
X144543305Y-93551307D02*
X144597180Y-93551307D01*
X144597180Y-93551307D02*
X144677992Y-93524370D01*
X144677992Y-93524370D02*
X144785741Y-93416620D01*
X144785741Y-93416620D02*
X144812679Y-93335808D01*
X144812679Y-93335808D02*
X144812679Y-93281933D01*
X144812679Y-93281933D02*
X144785741Y-93201121D01*
X144785741Y-93201121D02*
X144651054Y-93066434D01*
X144651054Y-93066434D02*
X144570242Y-93039497D01*
X144570242Y-93039497D02*
X144516367Y-93039497D01*
X144516367Y-93039497D02*
X144435555Y-93066434D01*
X144435555Y-93066434D02*
X144327806Y-93174184D01*
X144327806Y-93174184D02*
X144300868Y-93254996D01*
X144300868Y-93254996D02*
X144300868Y-93308871D01*
X144300868Y-93308871D02*
X144327806Y-93389683D01*
X143253998Y-68770868D02*
X143173185Y-68797805D01*
X143173185Y-68797805D02*
X143092373Y-68878618D01*
X143092373Y-68878618D02*
X143038498Y-68986367D01*
X143038498Y-68986367D02*
X143038498Y-69094117D01*
X143038498Y-69094117D02*
X143065436Y-69174929D01*
X143065436Y-69174929D02*
X143146248Y-69309616D01*
X143146248Y-69309616D02*
X143227060Y-69390428D01*
X143227060Y-69390428D02*
X143361747Y-69471241D01*
X143361747Y-69471241D02*
X143442560Y-69498178D01*
X143442560Y-69498178D02*
X143550309Y-69498178D01*
X143550309Y-69498178D02*
X143658059Y-69444303D01*
X143658059Y-69444303D02*
X143711934Y-69390428D01*
X143711934Y-69390428D02*
X143765808Y-69282679D01*
X143765808Y-69282679D02*
X143765808Y-69228804D01*
X143765808Y-69228804D02*
X143577247Y-69040242D01*
X143577247Y-69040242D02*
X143469497Y-69147992D01*
X144062120Y-69040242D02*
X143496434Y-68474557D01*
X143496434Y-68474557D02*
X143711934Y-68259057D01*
X143711934Y-68259057D02*
X143792746Y-68232120D01*
X143792746Y-68232120D02*
X143846621Y-68232120D01*
X143846621Y-68232120D02*
X143927433Y-68259057D01*
X143927433Y-68259057D02*
X144008245Y-68339870D01*
X144008245Y-68339870D02*
X144035182Y-68420682D01*
X144035182Y-68420682D02*
X144035182Y-68474557D01*
X144035182Y-68474557D02*
X144008245Y-68555369D01*
X144008245Y-68555369D02*
X143792746Y-68770868D01*
X144924117Y-68178245D02*
X144600868Y-68501494D01*
X144762492Y-68339870D02*
X144196807Y-67774184D01*
X144196807Y-67774184D02*
X144223744Y-67908871D01*
X144223744Y-67908871D02*
X144223744Y-68016621D01*
X144223744Y-68016621D02*
X144196807Y-68097433D01*
X145031866Y-67316248D02*
X145408990Y-67693372D01*
X144681680Y-67235436D02*
X144951054Y-67774184D01*
X144951054Y-67774184D02*
X145301240Y-67423998D01*
X117099998Y-76390868D02*
X117019185Y-76417805D01*
X117019185Y-76417805D02*
X116938373Y-76498618D01*
X116938373Y-76498618D02*
X116884498Y-76606367D01*
X116884498Y-76606367D02*
X116884498Y-76714117D01*
X116884498Y-76714117D02*
X116911436Y-76794929D01*
X116911436Y-76794929D02*
X116992248Y-76929616D01*
X116992248Y-76929616D02*
X117073060Y-77010428D01*
X117073060Y-77010428D02*
X117207747Y-77091241D01*
X117207747Y-77091241D02*
X117288560Y-77118178D01*
X117288560Y-77118178D02*
X117396309Y-77118178D01*
X117396309Y-77118178D02*
X117504059Y-77064303D01*
X117504059Y-77064303D02*
X117557934Y-77010428D01*
X117557934Y-77010428D02*
X117611808Y-76902679D01*
X117611808Y-76902679D02*
X117611808Y-76848804D01*
X117611808Y-76848804D02*
X117423247Y-76660242D01*
X117423247Y-76660242D02*
X117315497Y-76767992D01*
X117908120Y-76660242D02*
X117342434Y-76094557D01*
X117342434Y-76094557D02*
X117557934Y-75879057D01*
X117557934Y-75879057D02*
X117638746Y-75852120D01*
X117638746Y-75852120D02*
X117692621Y-75852120D01*
X117692621Y-75852120D02*
X117773433Y-75879057D01*
X117773433Y-75879057D02*
X117854245Y-75959870D01*
X117854245Y-75959870D02*
X117881182Y-76040682D01*
X117881182Y-76040682D02*
X117881182Y-76094557D01*
X117881182Y-76094557D02*
X117854245Y-76175369D01*
X117854245Y-76175369D02*
X117638746Y-76390868D01*
X118770117Y-75798245D02*
X118446868Y-76121494D01*
X118608492Y-75959870D02*
X118042807Y-75394184D01*
X118042807Y-75394184D02*
X118069744Y-75528871D01*
X118069744Y-75528871D02*
X118069744Y-75636621D01*
X118069744Y-75636621D02*
X118042807Y-75717433D01*
X119039491Y-75528871D02*
X119147240Y-75421121D01*
X119147240Y-75421121D02*
X119174178Y-75340309D01*
X119174178Y-75340309D02*
X119174178Y-75286434D01*
X119174178Y-75286434D02*
X119147240Y-75151747D01*
X119147240Y-75151747D02*
X119066428Y-75017060D01*
X119066428Y-75017060D02*
X118850929Y-74801561D01*
X118850929Y-74801561D02*
X118770117Y-74774624D01*
X118770117Y-74774624D02*
X118716242Y-74774624D01*
X118716242Y-74774624D02*
X118635430Y-74801561D01*
X118635430Y-74801561D02*
X118527680Y-74909311D01*
X118527680Y-74909311D02*
X118500743Y-74990123D01*
X118500743Y-74990123D02*
X118500743Y-75043998D01*
X118500743Y-75043998D02*
X118527680Y-75124810D01*
X118527680Y-75124810D02*
X118662367Y-75259497D01*
X118662367Y-75259497D02*
X118743179Y-75286434D01*
X118743179Y-75286434D02*
X118797054Y-75286434D01*
X118797054Y-75286434D02*
X118877866Y-75259497D01*
X118877866Y-75259497D02*
X118985616Y-75151747D01*
X118985616Y-75151747D02*
X119012553Y-75070935D01*
X119012553Y-75070935D02*
X119012553Y-75017060D01*
X119012553Y-75017060D02*
X118985616Y-74936248D01*
X117099998Y-91630868D02*
X117019185Y-91657805D01*
X117019185Y-91657805D02*
X116938373Y-91738618D01*
X116938373Y-91738618D02*
X116884498Y-91846367D01*
X116884498Y-91846367D02*
X116884498Y-91954117D01*
X116884498Y-91954117D02*
X116911436Y-92034929D01*
X116911436Y-92034929D02*
X116992248Y-92169616D01*
X116992248Y-92169616D02*
X117073060Y-92250428D01*
X117073060Y-92250428D02*
X117207747Y-92331241D01*
X117207747Y-92331241D02*
X117288560Y-92358178D01*
X117288560Y-92358178D02*
X117396309Y-92358178D01*
X117396309Y-92358178D02*
X117504059Y-92304303D01*
X117504059Y-92304303D02*
X117557934Y-92250428D01*
X117557934Y-92250428D02*
X117611808Y-92142679D01*
X117611808Y-92142679D02*
X117611808Y-92088804D01*
X117611808Y-92088804D02*
X117423247Y-91900242D01*
X117423247Y-91900242D02*
X117315497Y-92007992D01*
X117908120Y-91900242D02*
X117342434Y-91334557D01*
X117342434Y-91334557D02*
X117557934Y-91119057D01*
X117557934Y-91119057D02*
X117638746Y-91092120D01*
X117638746Y-91092120D02*
X117692621Y-91092120D01*
X117692621Y-91092120D02*
X117773433Y-91119057D01*
X117773433Y-91119057D02*
X117854245Y-91199870D01*
X117854245Y-91199870D02*
X117881182Y-91280682D01*
X117881182Y-91280682D02*
X117881182Y-91334557D01*
X117881182Y-91334557D02*
X117854245Y-91415369D01*
X117854245Y-91415369D02*
X117638746Y-91630868D01*
X117935057Y-90849683D02*
X117935057Y-90795809D01*
X117935057Y-90795809D02*
X117961995Y-90714996D01*
X117961995Y-90714996D02*
X118096682Y-90580309D01*
X118096682Y-90580309D02*
X118177494Y-90553372D01*
X118177494Y-90553372D02*
X118231369Y-90553372D01*
X118231369Y-90553372D02*
X118312181Y-90580309D01*
X118312181Y-90580309D02*
X118366056Y-90634184D01*
X118366056Y-90634184D02*
X118419930Y-90741934D01*
X118419930Y-90741934D02*
X118419930Y-91388431D01*
X118419930Y-91388431D02*
X118770117Y-91038245D01*
X118689305Y-89987686D02*
X118581555Y-90095436D01*
X118581555Y-90095436D02*
X118554618Y-90176248D01*
X118554618Y-90176248D02*
X118554618Y-90230123D01*
X118554618Y-90230123D02*
X118581555Y-90364810D01*
X118581555Y-90364810D02*
X118662367Y-90499497D01*
X118662367Y-90499497D02*
X118877866Y-90714996D01*
X118877866Y-90714996D02*
X118958679Y-90741934D01*
X118958679Y-90741934D02*
X119012553Y-90741934D01*
X119012553Y-90741934D02*
X119093366Y-90714996D01*
X119093366Y-90714996D02*
X119201115Y-90607247D01*
X119201115Y-90607247D02*
X119228053Y-90526434D01*
X119228053Y-90526434D02*
X119228053Y-90472560D01*
X119228053Y-90472560D02*
X119201115Y-90391747D01*
X119201115Y-90391747D02*
X119066428Y-90257060D01*
X119066428Y-90257060D02*
X118985616Y-90230123D01*
X118985616Y-90230123D02*
X118931741Y-90230123D01*
X118931741Y-90230123D02*
X118850929Y-90257060D01*
X118850929Y-90257060D02*
X118743179Y-90364810D01*
X118743179Y-90364810D02*
X118716242Y-90445622D01*
X118716242Y-90445622D02*
X118716242Y-90499497D01*
X118716242Y-90499497D02*
X118743179Y-90580309D01*
X116630749Y-112220242D02*
X117384996Y-112597366D01*
X117384996Y-112597366D02*
X117007873Y-111843118D01*
X117708245Y-112220242D02*
X117815995Y-112166367D01*
X117815995Y-112166367D02*
X117950682Y-112031680D01*
X117950682Y-112031680D02*
X117977619Y-111950868D01*
X117977619Y-111950868D02*
X117977619Y-111896993D01*
X117977619Y-111896993D02*
X117950682Y-111816181D01*
X117950682Y-111816181D02*
X117896807Y-111762306D01*
X117896807Y-111762306D02*
X117815995Y-111735369D01*
X117815995Y-111735369D02*
X117762120Y-111735369D01*
X117762120Y-111735369D02*
X117681308Y-111762306D01*
X117681308Y-111762306D02*
X117546621Y-111843118D01*
X117546621Y-111843118D02*
X117465808Y-111870056D01*
X117465808Y-111870056D02*
X117411934Y-111870056D01*
X117411934Y-111870056D02*
X117331121Y-111843118D01*
X117331121Y-111843118D02*
X117277247Y-111789244D01*
X117277247Y-111789244D02*
X117250309Y-111708431D01*
X117250309Y-111708431D02*
X117250309Y-111654557D01*
X117250309Y-111654557D02*
X117277247Y-111573744D01*
X117277247Y-111573744D02*
X117411934Y-111439057D01*
X117411934Y-111439057D02*
X117519683Y-111385183D01*
X118139244Y-111304370D02*
X118408618Y-111573744D01*
X117654370Y-111196621D02*
X118139244Y-111304370D01*
X118139244Y-111304370D02*
X118031494Y-110819497D01*
X118731866Y-111196621D02*
X118839616Y-111142746D01*
X118839616Y-111142746D02*
X118974303Y-111008059D01*
X118974303Y-111008059D02*
X119001240Y-110927247D01*
X119001240Y-110927247D02*
X119001240Y-110873372D01*
X119001240Y-110873372D02*
X118974303Y-110792560D01*
X118974303Y-110792560D02*
X118920428Y-110738685D01*
X118920428Y-110738685D02*
X118839616Y-110711748D01*
X118839616Y-110711748D02*
X118785741Y-110711748D01*
X118785741Y-110711748D02*
X118704929Y-110738685D01*
X118704929Y-110738685D02*
X118570242Y-110819497D01*
X118570242Y-110819497D02*
X118489430Y-110846435D01*
X118489430Y-110846435D02*
X118435555Y-110846435D01*
X118435555Y-110846435D02*
X118354743Y-110819497D01*
X118354743Y-110819497D02*
X118300868Y-110765622D01*
X118300868Y-110765622D02*
X118273930Y-110684810D01*
X118273930Y-110684810D02*
X118273930Y-110630935D01*
X118273930Y-110630935D02*
X118300868Y-110550123D01*
X118300868Y-110550123D02*
X118435555Y-110415436D01*
X118435555Y-110415436D02*
X118543304Y-110361561D01*
X117948651Y-89373710D02*
X117490716Y-89292898D01*
X117625403Y-89696959D02*
X117059717Y-89131274D01*
X117059717Y-89131274D02*
X117275216Y-88915775D01*
X117275216Y-88915775D02*
X117356029Y-88888837D01*
X117356029Y-88888837D02*
X117409903Y-88888837D01*
X117409903Y-88888837D02*
X117490716Y-88915775D01*
X117490716Y-88915775D02*
X117571528Y-88996587D01*
X117571528Y-88996587D02*
X117598465Y-89077399D01*
X117598465Y-89077399D02*
X117598465Y-89131274D01*
X117598465Y-89131274D02*
X117571528Y-89212086D01*
X117571528Y-89212086D02*
X117356029Y-89427585D01*
X117625403Y-88565588D02*
X118083338Y-89023524D01*
X118083338Y-89023524D02*
X118164151Y-89050462D01*
X118164151Y-89050462D02*
X118218025Y-89050462D01*
X118218025Y-89050462D02*
X118298838Y-89023524D01*
X118298838Y-89023524D02*
X118406587Y-88915775D01*
X118406587Y-88915775D02*
X118433525Y-88834962D01*
X118433525Y-88834962D02*
X118433525Y-88781088D01*
X118433525Y-88781088D02*
X118406587Y-88700275D01*
X118406587Y-88700275D02*
X117948651Y-88242340D01*
X118783711Y-88538651D02*
X118218025Y-87972966D01*
X118218025Y-87972966D02*
X119106959Y-88215402D01*
X119106959Y-88215402D02*
X118541274Y-87649717D01*
X143323372Y-111691494D02*
X143242560Y-111718431D01*
X143242560Y-111718431D02*
X143161748Y-111799243D01*
X143161748Y-111799243D02*
X143107873Y-111906993D01*
X143107873Y-111906993D02*
X143107873Y-112014742D01*
X143107873Y-112014742D02*
X143134810Y-112095555D01*
X143134810Y-112095555D02*
X143215623Y-112230242D01*
X143215623Y-112230242D02*
X143296435Y-112311054D01*
X143296435Y-112311054D02*
X143431122Y-112391866D01*
X143431122Y-112391866D02*
X143511934Y-112418803D01*
X143511934Y-112418803D02*
X143619684Y-112418803D01*
X143619684Y-112418803D02*
X143727433Y-112364929D01*
X143727433Y-112364929D02*
X143781308Y-112311054D01*
X143781308Y-112311054D02*
X143835183Y-112203304D01*
X143835183Y-112203304D02*
X143835183Y-112149429D01*
X143835183Y-112149429D02*
X143646621Y-111960868D01*
X143646621Y-111960868D02*
X143538871Y-112068617D01*
X144131494Y-111960868D02*
X143565809Y-111395182D01*
X143565809Y-111395182D02*
X143781308Y-111179683D01*
X143781308Y-111179683D02*
X143862120Y-111152746D01*
X143862120Y-111152746D02*
X143915995Y-111152746D01*
X143915995Y-111152746D02*
X143996807Y-111179683D01*
X143996807Y-111179683D02*
X144077619Y-111260495D01*
X144077619Y-111260495D02*
X144104557Y-111341307D01*
X144104557Y-111341307D02*
X144104557Y-111395182D01*
X144104557Y-111395182D02*
X144077619Y-111475994D01*
X144077619Y-111475994D02*
X143862120Y-111691494D01*
X144993491Y-111098871D02*
X144670242Y-111422120D01*
X144831867Y-111260495D02*
X144266181Y-110694810D01*
X144266181Y-110694810D02*
X144293119Y-110829497D01*
X144293119Y-110829497D02*
X144293119Y-110937246D01*
X144293119Y-110937246D02*
X144266181Y-111018059D01*
X143123372Y-91391494D02*
X143042560Y-91418431D01*
X143042560Y-91418431D02*
X142961748Y-91499243D01*
X142961748Y-91499243D02*
X142907873Y-91606993D01*
X142907873Y-91606993D02*
X142907873Y-91714742D01*
X142907873Y-91714742D02*
X142934810Y-91795555D01*
X142934810Y-91795555D02*
X143015623Y-91930242D01*
X143015623Y-91930242D02*
X143096435Y-92011054D01*
X143096435Y-92011054D02*
X143231122Y-92091866D01*
X143231122Y-92091866D02*
X143311934Y-92118803D01*
X143311934Y-92118803D02*
X143419684Y-92118803D01*
X143419684Y-92118803D02*
X143527433Y-92064929D01*
X143527433Y-92064929D02*
X143581308Y-92011054D01*
X143581308Y-92011054D02*
X143635183Y-91903304D01*
X143635183Y-91903304D02*
X143635183Y-91849429D01*
X143635183Y-91849429D02*
X143446621Y-91660868D01*
X143446621Y-91660868D02*
X143338871Y-91768617D01*
X143931494Y-91660868D02*
X143365809Y-91095182D01*
X143365809Y-91095182D02*
X143581308Y-90879683D01*
X143581308Y-90879683D02*
X143662120Y-90852746D01*
X143662120Y-90852746D02*
X143715995Y-90852746D01*
X143715995Y-90852746D02*
X143796807Y-90879683D01*
X143796807Y-90879683D02*
X143877619Y-90960495D01*
X143877619Y-90960495D02*
X143904557Y-91041307D01*
X143904557Y-91041307D02*
X143904557Y-91095182D01*
X143904557Y-91095182D02*
X143877619Y-91175994D01*
X143877619Y-91175994D02*
X143662120Y-91391494D01*
X143877619Y-90583372D02*
X144254743Y-90206248D01*
X144254743Y-90206248D02*
X144577992Y-91014370D01*
X117099998Y-99504868D02*
X117019185Y-99531805D01*
X117019185Y-99531805D02*
X116938373Y-99612618D01*
X116938373Y-99612618D02*
X116884498Y-99720367D01*
X116884498Y-99720367D02*
X116884498Y-99828117D01*
X116884498Y-99828117D02*
X116911436Y-99908929D01*
X116911436Y-99908929D02*
X116992248Y-100043616D01*
X116992248Y-100043616D02*
X117073060Y-100124428D01*
X117073060Y-100124428D02*
X117207747Y-100205241D01*
X117207747Y-100205241D02*
X117288560Y-100232178D01*
X117288560Y-100232178D02*
X117396309Y-100232178D01*
X117396309Y-100232178D02*
X117504059Y-100178303D01*
X117504059Y-100178303D02*
X117557934Y-100124428D01*
X117557934Y-100124428D02*
X117611808Y-100016679D01*
X117611808Y-100016679D02*
X117611808Y-99962804D01*
X117611808Y-99962804D02*
X117423247Y-99774242D01*
X117423247Y-99774242D02*
X117315497Y-99881992D01*
X117908120Y-99774242D02*
X117342434Y-99208557D01*
X117342434Y-99208557D02*
X117557934Y-98993057D01*
X117557934Y-98993057D02*
X117638746Y-98966120D01*
X117638746Y-98966120D02*
X117692621Y-98966120D01*
X117692621Y-98966120D02*
X117773433Y-98993057D01*
X117773433Y-98993057D02*
X117854245Y-99073870D01*
X117854245Y-99073870D02*
X117881182Y-99154682D01*
X117881182Y-99154682D02*
X117881182Y-99208557D01*
X117881182Y-99208557D02*
X117854245Y-99289369D01*
X117854245Y-99289369D02*
X117638746Y-99504868D01*
X117935057Y-98723683D02*
X117935057Y-98669809D01*
X117935057Y-98669809D02*
X117961995Y-98588996D01*
X117961995Y-98588996D02*
X118096682Y-98454309D01*
X118096682Y-98454309D02*
X118177494Y-98427372D01*
X118177494Y-98427372D02*
X118231369Y-98427372D01*
X118231369Y-98427372D02*
X118312181Y-98454309D01*
X118312181Y-98454309D02*
X118366056Y-98508184D01*
X118366056Y-98508184D02*
X118419930Y-98615934D01*
X118419930Y-98615934D02*
X118419930Y-99262431D01*
X118419930Y-99262431D02*
X118770117Y-98912245D01*
X118770117Y-98265747D02*
X118689305Y-98292685D01*
X118689305Y-98292685D02*
X118635430Y-98292685D01*
X118635430Y-98292685D02*
X118554618Y-98265747D01*
X118554618Y-98265747D02*
X118527680Y-98238810D01*
X118527680Y-98238810D02*
X118500743Y-98157998D01*
X118500743Y-98157998D02*
X118500743Y-98104123D01*
X118500743Y-98104123D02*
X118527680Y-98023311D01*
X118527680Y-98023311D02*
X118635430Y-97915561D01*
X118635430Y-97915561D02*
X118716242Y-97888624D01*
X118716242Y-97888624D02*
X118770117Y-97888624D01*
X118770117Y-97888624D02*
X118850929Y-97915561D01*
X118850929Y-97915561D02*
X118877866Y-97942499D01*
X118877866Y-97942499D02*
X118904804Y-98023311D01*
X118904804Y-98023311D02*
X118904804Y-98077186D01*
X118904804Y-98077186D02*
X118877866Y-98157998D01*
X118877866Y-98157998D02*
X118770117Y-98265747D01*
X118770117Y-98265747D02*
X118743179Y-98346560D01*
X118743179Y-98346560D02*
X118743179Y-98400434D01*
X118743179Y-98400434D02*
X118770117Y-98481247D01*
X118770117Y-98481247D02*
X118877866Y-98588996D01*
X118877866Y-98588996D02*
X118958679Y-98615934D01*
X118958679Y-98615934D02*
X119012553Y-98615934D01*
X119012553Y-98615934D02*
X119093366Y-98588996D01*
X119093366Y-98588996D02*
X119201115Y-98481247D01*
X119201115Y-98481247D02*
X119228053Y-98400434D01*
X119228053Y-98400434D02*
X119228053Y-98346560D01*
X119228053Y-98346560D02*
X119201115Y-98265747D01*
X119201115Y-98265747D02*
X119093366Y-98157998D01*
X119093366Y-98157998D02*
X119012553Y-98131060D01*
X119012553Y-98131060D02*
X118958679Y-98131060D01*
X118958679Y-98131060D02*
X118877866Y-98157998D01*
X117596435Y-83768431D02*
X117515623Y-83795368D01*
X117515623Y-83795368D02*
X117434811Y-83876180D01*
X117434811Y-83876180D02*
X117380936Y-83983930D01*
X117380936Y-83983930D02*
X117380936Y-84091680D01*
X117380936Y-84091680D02*
X117407873Y-84172492D01*
X117407873Y-84172492D02*
X117488685Y-84307179D01*
X117488685Y-84307179D02*
X117569498Y-84387991D01*
X117569498Y-84387991D02*
X117704185Y-84468803D01*
X117704185Y-84468803D02*
X117784997Y-84495741D01*
X117784997Y-84495741D02*
X117892746Y-84495741D01*
X117892746Y-84495741D02*
X118000496Y-84441866D01*
X118000496Y-84441866D02*
X118054371Y-84387991D01*
X118054371Y-84387991D02*
X118108246Y-84280241D01*
X118108246Y-84280241D02*
X118108246Y-84226367D01*
X118108246Y-84226367D02*
X117919684Y-84037805D01*
X117919684Y-84037805D02*
X117811934Y-84145554D01*
X118404557Y-84037805D02*
X117838872Y-83472119D01*
X117838872Y-83472119D02*
X118727806Y-83714556D01*
X118727806Y-83714556D02*
X118162120Y-83148871D01*
X118997180Y-83445182D02*
X118431494Y-82879497D01*
X118431494Y-82879497D02*
X118566181Y-82744810D01*
X118566181Y-82744810D02*
X118673931Y-82690935D01*
X118673931Y-82690935D02*
X118781680Y-82690935D01*
X118781680Y-82690935D02*
X118862493Y-82717872D01*
X118862493Y-82717872D02*
X118997180Y-82798685D01*
X118997180Y-82798685D02*
X119077992Y-82879497D01*
X119077992Y-82879497D02*
X119158804Y-83014184D01*
X119158804Y-83014184D02*
X119185741Y-83094996D01*
X119185741Y-83094996D02*
X119185741Y-83202746D01*
X119185741Y-83202746D02*
X119131867Y-83310495D01*
X119131867Y-83310495D02*
X118997180Y-83445182D01*
X143196435Y-109168431D02*
X143115623Y-109195368D01*
X143115623Y-109195368D02*
X143034811Y-109276180D01*
X143034811Y-109276180D02*
X142980936Y-109383930D01*
X142980936Y-109383930D02*
X142980936Y-109491680D01*
X142980936Y-109491680D02*
X143007873Y-109572492D01*
X143007873Y-109572492D02*
X143088685Y-109707179D01*
X143088685Y-109707179D02*
X143169498Y-109787991D01*
X143169498Y-109787991D02*
X143304185Y-109868803D01*
X143304185Y-109868803D02*
X143384997Y-109895741D01*
X143384997Y-109895741D02*
X143492746Y-109895741D01*
X143492746Y-109895741D02*
X143600496Y-109841866D01*
X143600496Y-109841866D02*
X143654371Y-109787991D01*
X143654371Y-109787991D02*
X143708246Y-109680241D01*
X143708246Y-109680241D02*
X143708246Y-109626367D01*
X143708246Y-109626367D02*
X143519684Y-109437805D01*
X143519684Y-109437805D02*
X143411934Y-109545554D01*
X144004557Y-109437805D02*
X143438872Y-108872119D01*
X143438872Y-108872119D02*
X144327806Y-109114556D01*
X144327806Y-109114556D02*
X143762120Y-108548871D01*
X144597180Y-108845182D02*
X144031494Y-108279497D01*
X144031494Y-108279497D02*
X144166181Y-108144810D01*
X144166181Y-108144810D02*
X144273931Y-108090935D01*
X144273931Y-108090935D02*
X144381680Y-108090935D01*
X144381680Y-108090935D02*
X144462493Y-108117872D01*
X144462493Y-108117872D02*
X144597180Y-108198685D01*
X144597180Y-108198685D02*
X144677992Y-108279497D01*
X144677992Y-108279497D02*
X144758804Y-108414184D01*
X144758804Y-108414184D02*
X144785741Y-108494996D01*
X144785741Y-108494996D02*
X144785741Y-108602746D01*
X144785741Y-108602746D02*
X144731867Y-108710495D01*
X144731867Y-108710495D02*
X144597180Y-108845182D01*
X143223372Y-88821494D02*
X143142560Y-88848431D01*
X143142560Y-88848431D02*
X143061748Y-88929243D01*
X143061748Y-88929243D02*
X143007873Y-89036993D01*
X143007873Y-89036993D02*
X143007873Y-89144742D01*
X143007873Y-89144742D02*
X143034810Y-89225555D01*
X143034810Y-89225555D02*
X143115623Y-89360242D01*
X143115623Y-89360242D02*
X143196435Y-89441054D01*
X143196435Y-89441054D02*
X143331122Y-89521866D01*
X143331122Y-89521866D02*
X143411934Y-89548803D01*
X143411934Y-89548803D02*
X143519684Y-89548803D01*
X143519684Y-89548803D02*
X143627433Y-89494929D01*
X143627433Y-89494929D02*
X143681308Y-89441054D01*
X143681308Y-89441054D02*
X143735183Y-89333304D01*
X143735183Y-89333304D02*
X143735183Y-89279429D01*
X143735183Y-89279429D02*
X143546621Y-89090868D01*
X143546621Y-89090868D02*
X143438871Y-89198617D01*
X144031494Y-89090868D02*
X143465809Y-88525182D01*
X143465809Y-88525182D02*
X143681308Y-88309683D01*
X143681308Y-88309683D02*
X143762120Y-88282746D01*
X143762120Y-88282746D02*
X143815995Y-88282746D01*
X143815995Y-88282746D02*
X143896807Y-88309683D01*
X143896807Y-88309683D02*
X143977619Y-88390495D01*
X143977619Y-88390495D02*
X144004557Y-88471307D01*
X144004557Y-88471307D02*
X144004557Y-88525182D01*
X144004557Y-88525182D02*
X143977619Y-88605994D01*
X143977619Y-88605994D02*
X143762120Y-88821494D01*
X144354743Y-88121121D02*
X144273931Y-88148059D01*
X144273931Y-88148059D02*
X144220056Y-88148059D01*
X144220056Y-88148059D02*
X144139244Y-88121121D01*
X144139244Y-88121121D02*
X144112306Y-88094184D01*
X144112306Y-88094184D02*
X144085369Y-88013372D01*
X144085369Y-88013372D02*
X144085369Y-87959497D01*
X144085369Y-87959497D02*
X144112306Y-87878685D01*
X144112306Y-87878685D02*
X144220056Y-87770935D01*
X144220056Y-87770935D02*
X144300868Y-87743998D01*
X144300868Y-87743998D02*
X144354743Y-87743998D01*
X144354743Y-87743998D02*
X144435555Y-87770935D01*
X144435555Y-87770935D02*
X144462493Y-87797872D01*
X144462493Y-87797872D02*
X144489430Y-87878685D01*
X144489430Y-87878685D02*
X144489430Y-87932559D01*
X144489430Y-87932559D02*
X144462493Y-88013372D01*
X144462493Y-88013372D02*
X144354743Y-88121121D01*
X144354743Y-88121121D02*
X144327806Y-88201933D01*
X144327806Y-88201933D02*
X144327806Y-88255808D01*
X144327806Y-88255808D02*
X144354743Y-88336620D01*
X144354743Y-88336620D02*
X144462493Y-88444370D01*
X144462493Y-88444370D02*
X144543305Y-88471307D01*
X144543305Y-88471307D02*
X144597180Y-88471307D01*
X144597180Y-88471307D02*
X144677992Y-88444370D01*
X144677992Y-88444370D02*
X144785741Y-88336620D01*
X144785741Y-88336620D02*
X144812679Y-88255808D01*
X144812679Y-88255808D02*
X144812679Y-88201933D01*
X144812679Y-88201933D02*
X144785741Y-88121121D01*
X144785741Y-88121121D02*
X144677992Y-88013372D01*
X144677992Y-88013372D02*
X144597180Y-87986434D01*
X144597180Y-87986434D02*
X144543305Y-87986434D01*
X144543305Y-87986434D02*
X144462493Y-88013372D01*
X143196435Y-83768431D02*
X143115623Y-83795368D01*
X143115623Y-83795368D02*
X143034811Y-83876180D01*
X143034811Y-83876180D02*
X142980936Y-83983930D01*
X142980936Y-83983930D02*
X142980936Y-84091680D01*
X142980936Y-84091680D02*
X143007873Y-84172492D01*
X143007873Y-84172492D02*
X143088685Y-84307179D01*
X143088685Y-84307179D02*
X143169498Y-84387991D01*
X143169498Y-84387991D02*
X143304185Y-84468803D01*
X143304185Y-84468803D02*
X143384997Y-84495741D01*
X143384997Y-84495741D02*
X143492746Y-84495741D01*
X143492746Y-84495741D02*
X143600496Y-84441866D01*
X143600496Y-84441866D02*
X143654371Y-84387991D01*
X143654371Y-84387991D02*
X143708246Y-84280241D01*
X143708246Y-84280241D02*
X143708246Y-84226367D01*
X143708246Y-84226367D02*
X143519684Y-84037805D01*
X143519684Y-84037805D02*
X143411934Y-84145554D01*
X144004557Y-84037805D02*
X143438872Y-83472119D01*
X143438872Y-83472119D02*
X144327806Y-83714556D01*
X144327806Y-83714556D02*
X143762120Y-83148871D01*
X144597180Y-83445182D02*
X144031494Y-82879497D01*
X144031494Y-82879497D02*
X144166181Y-82744810D01*
X144166181Y-82744810D02*
X144273931Y-82690935D01*
X144273931Y-82690935D02*
X144381680Y-82690935D01*
X144381680Y-82690935D02*
X144462493Y-82717872D01*
X144462493Y-82717872D02*
X144597180Y-82798685D01*
X144597180Y-82798685D02*
X144677992Y-82879497D01*
X144677992Y-82879497D02*
X144758804Y-83014184D01*
X144758804Y-83014184D02*
X144785741Y-83094996D01*
X144785741Y-83094996D02*
X144785741Y-83202746D01*
X144785741Y-83202746D02*
X144731867Y-83310495D01*
X144731867Y-83310495D02*
X144597180Y-83445182D01*
X117099998Y-73850868D02*
X117019185Y-73877805D01*
X117019185Y-73877805D02*
X116938373Y-73958618D01*
X116938373Y-73958618D02*
X116884498Y-74066367D01*
X116884498Y-74066367D02*
X116884498Y-74174117D01*
X116884498Y-74174117D02*
X116911436Y-74254929D01*
X116911436Y-74254929D02*
X116992248Y-74389616D01*
X116992248Y-74389616D02*
X117073060Y-74470428D01*
X117073060Y-74470428D02*
X117207747Y-74551241D01*
X117207747Y-74551241D02*
X117288560Y-74578178D01*
X117288560Y-74578178D02*
X117396309Y-74578178D01*
X117396309Y-74578178D02*
X117504059Y-74524303D01*
X117504059Y-74524303D02*
X117557934Y-74470428D01*
X117557934Y-74470428D02*
X117611808Y-74362679D01*
X117611808Y-74362679D02*
X117611808Y-74308804D01*
X117611808Y-74308804D02*
X117423247Y-74120242D01*
X117423247Y-74120242D02*
X117315497Y-74227992D01*
X117908120Y-74120242D02*
X117342434Y-73554557D01*
X117342434Y-73554557D02*
X117557934Y-73339057D01*
X117557934Y-73339057D02*
X117638746Y-73312120D01*
X117638746Y-73312120D02*
X117692621Y-73312120D01*
X117692621Y-73312120D02*
X117773433Y-73339057D01*
X117773433Y-73339057D02*
X117854245Y-73419870D01*
X117854245Y-73419870D02*
X117881182Y-73500682D01*
X117881182Y-73500682D02*
X117881182Y-73554557D01*
X117881182Y-73554557D02*
X117854245Y-73635369D01*
X117854245Y-73635369D02*
X117638746Y-73850868D01*
X118770117Y-73258245D02*
X118446868Y-73581494D01*
X118608492Y-73419870D02*
X118042807Y-72854184D01*
X118042807Y-72854184D02*
X118069744Y-72988871D01*
X118069744Y-72988871D02*
X118069744Y-73096621D01*
X118069744Y-73096621D02*
X118042807Y-73177433D01*
X118770117Y-72611747D02*
X118689305Y-72638685D01*
X118689305Y-72638685D02*
X118635430Y-72638685D01*
X118635430Y-72638685D02*
X118554618Y-72611747D01*
X118554618Y-72611747D02*
X118527680Y-72584810D01*
X118527680Y-72584810D02*
X118500743Y-72503998D01*
X118500743Y-72503998D02*
X118500743Y-72450123D01*
X118500743Y-72450123D02*
X118527680Y-72369311D01*
X118527680Y-72369311D02*
X118635430Y-72261561D01*
X118635430Y-72261561D02*
X118716242Y-72234624D01*
X118716242Y-72234624D02*
X118770117Y-72234624D01*
X118770117Y-72234624D02*
X118850929Y-72261561D01*
X118850929Y-72261561D02*
X118877866Y-72288499D01*
X118877866Y-72288499D02*
X118904804Y-72369311D01*
X118904804Y-72369311D02*
X118904804Y-72423186D01*
X118904804Y-72423186D02*
X118877866Y-72503998D01*
X118877866Y-72503998D02*
X118770117Y-72611747D01*
X118770117Y-72611747D02*
X118743179Y-72692560D01*
X118743179Y-72692560D02*
X118743179Y-72746434D01*
X118743179Y-72746434D02*
X118770117Y-72827247D01*
X118770117Y-72827247D02*
X118877866Y-72934996D01*
X118877866Y-72934996D02*
X118958679Y-72961934D01*
X118958679Y-72961934D02*
X119012553Y-72961934D01*
X119012553Y-72961934D02*
X119093366Y-72934996D01*
X119093366Y-72934996D02*
X119201115Y-72827247D01*
X119201115Y-72827247D02*
X119228053Y-72746434D01*
X119228053Y-72746434D02*
X119228053Y-72692560D01*
X119228053Y-72692560D02*
X119201115Y-72611747D01*
X119201115Y-72611747D02*
X119093366Y-72503998D01*
X119093366Y-72503998D02*
X119012553Y-72477060D01*
X119012553Y-72477060D02*
X118958679Y-72477060D01*
X118958679Y-72477060D02*
X118877866Y-72503998D01*
X143223372Y-104061494D02*
X143142560Y-104088431D01*
X143142560Y-104088431D02*
X143061748Y-104169243D01*
X143061748Y-104169243D02*
X143007873Y-104276993D01*
X143007873Y-104276993D02*
X143007873Y-104384742D01*
X143007873Y-104384742D02*
X143034810Y-104465555D01*
X143034810Y-104465555D02*
X143115623Y-104600242D01*
X143115623Y-104600242D02*
X143196435Y-104681054D01*
X143196435Y-104681054D02*
X143331122Y-104761866D01*
X143331122Y-104761866D02*
X143411934Y-104788803D01*
X143411934Y-104788803D02*
X143519684Y-104788803D01*
X143519684Y-104788803D02*
X143627433Y-104734929D01*
X143627433Y-104734929D02*
X143681308Y-104681054D01*
X143681308Y-104681054D02*
X143735183Y-104573304D01*
X143735183Y-104573304D02*
X143735183Y-104519429D01*
X143735183Y-104519429D02*
X143546621Y-104330868D01*
X143546621Y-104330868D02*
X143438871Y-104438617D01*
X144031494Y-104330868D02*
X143465809Y-103765182D01*
X143465809Y-103765182D02*
X143681308Y-103549683D01*
X143681308Y-103549683D02*
X143762120Y-103522746D01*
X143762120Y-103522746D02*
X143815995Y-103522746D01*
X143815995Y-103522746D02*
X143896807Y-103549683D01*
X143896807Y-103549683D02*
X143977619Y-103630495D01*
X143977619Y-103630495D02*
X144004557Y-103711307D01*
X144004557Y-103711307D02*
X144004557Y-103765182D01*
X144004557Y-103765182D02*
X143977619Y-103845994D01*
X143977619Y-103845994D02*
X143762120Y-104061494D01*
X143977619Y-103253372D02*
X144327806Y-102903185D01*
X144327806Y-102903185D02*
X144354743Y-103307246D01*
X144354743Y-103307246D02*
X144435555Y-103226434D01*
X144435555Y-103226434D02*
X144516367Y-103199497D01*
X144516367Y-103199497D02*
X144570242Y-103199497D01*
X144570242Y-103199497D02*
X144651054Y-103226434D01*
X144651054Y-103226434D02*
X144785741Y-103361121D01*
X144785741Y-103361121D02*
X144812679Y-103441933D01*
X144812679Y-103441933D02*
X144812679Y-103495808D01*
X144812679Y-103495808D02*
X144785741Y-103576620D01*
X144785741Y-103576620D02*
X144624117Y-103738245D01*
X144624117Y-103738245D02*
X144543305Y-103765182D01*
X144543305Y-103765182D02*
X144489430Y-103765182D01*
X117596435Y-71068431D02*
X117515623Y-71095368D01*
X117515623Y-71095368D02*
X117434811Y-71176180D01*
X117434811Y-71176180D02*
X117380936Y-71283930D01*
X117380936Y-71283930D02*
X117380936Y-71391680D01*
X117380936Y-71391680D02*
X117407873Y-71472492D01*
X117407873Y-71472492D02*
X117488685Y-71607179D01*
X117488685Y-71607179D02*
X117569498Y-71687991D01*
X117569498Y-71687991D02*
X117704185Y-71768803D01*
X117704185Y-71768803D02*
X117784997Y-71795741D01*
X117784997Y-71795741D02*
X117892746Y-71795741D01*
X117892746Y-71795741D02*
X118000496Y-71741866D01*
X118000496Y-71741866D02*
X118054371Y-71687991D01*
X118054371Y-71687991D02*
X118108246Y-71580241D01*
X118108246Y-71580241D02*
X118108246Y-71526367D01*
X118108246Y-71526367D02*
X117919684Y-71337805D01*
X117919684Y-71337805D02*
X117811934Y-71445554D01*
X118404557Y-71337805D02*
X117838872Y-70772119D01*
X117838872Y-70772119D02*
X118727806Y-71014556D01*
X118727806Y-71014556D02*
X118162120Y-70448871D01*
X118997180Y-70745182D02*
X118431494Y-70179497D01*
X118431494Y-70179497D02*
X118566181Y-70044810D01*
X118566181Y-70044810D02*
X118673931Y-69990935D01*
X118673931Y-69990935D02*
X118781680Y-69990935D01*
X118781680Y-69990935D02*
X118862493Y-70017872D01*
X118862493Y-70017872D02*
X118997180Y-70098685D01*
X118997180Y-70098685D02*
X119077992Y-70179497D01*
X119077992Y-70179497D02*
X119158804Y-70314184D01*
X119158804Y-70314184D02*
X119185741Y-70394996D01*
X119185741Y-70394996D02*
X119185741Y-70502746D01*
X119185741Y-70502746D02*
X119131867Y-70610495D01*
X119131867Y-70610495D02*
X118997180Y-70745182D01*
X143207998Y-81470868D02*
X143127185Y-81497805D01*
X143127185Y-81497805D02*
X143046373Y-81578618D01*
X143046373Y-81578618D02*
X142992498Y-81686367D01*
X142992498Y-81686367D02*
X142992498Y-81794117D01*
X142992498Y-81794117D02*
X143019436Y-81874929D01*
X143019436Y-81874929D02*
X143100248Y-82009616D01*
X143100248Y-82009616D02*
X143181060Y-82090428D01*
X143181060Y-82090428D02*
X143315747Y-82171241D01*
X143315747Y-82171241D02*
X143396560Y-82198178D01*
X143396560Y-82198178D02*
X143504309Y-82198178D01*
X143504309Y-82198178D02*
X143612059Y-82144303D01*
X143612059Y-82144303D02*
X143665934Y-82090428D01*
X143665934Y-82090428D02*
X143719808Y-81982679D01*
X143719808Y-81982679D02*
X143719808Y-81928804D01*
X143719808Y-81928804D02*
X143531247Y-81740242D01*
X143531247Y-81740242D02*
X143423497Y-81847992D01*
X144016120Y-81740242D02*
X143450434Y-81174557D01*
X143450434Y-81174557D02*
X143665934Y-80959057D01*
X143665934Y-80959057D02*
X143746746Y-80932120D01*
X143746746Y-80932120D02*
X143800621Y-80932120D01*
X143800621Y-80932120D02*
X143881433Y-80959057D01*
X143881433Y-80959057D02*
X143962245Y-81039870D01*
X143962245Y-81039870D02*
X143989182Y-81120682D01*
X143989182Y-81120682D02*
X143989182Y-81174557D01*
X143989182Y-81174557D02*
X143962245Y-81255369D01*
X143962245Y-81255369D02*
X143746746Y-81470868D01*
X144878117Y-80878245D02*
X144554868Y-81201494D01*
X144716492Y-81039870D02*
X144150807Y-80474184D01*
X144150807Y-80474184D02*
X144177744Y-80608871D01*
X144177744Y-80608871D02*
X144177744Y-80716621D01*
X144177744Y-80716621D02*
X144150807Y-80797433D01*
X144662618Y-79962373D02*
X144716492Y-79908499D01*
X144716492Y-79908499D02*
X144797305Y-79881561D01*
X144797305Y-79881561D02*
X144851179Y-79881561D01*
X144851179Y-79881561D02*
X144931992Y-79908499D01*
X144931992Y-79908499D02*
X145066679Y-79989311D01*
X145066679Y-79989311D02*
X145201366Y-80123998D01*
X145201366Y-80123998D02*
X145282178Y-80258685D01*
X145282178Y-80258685D02*
X145309115Y-80339497D01*
X145309115Y-80339497D02*
X145309115Y-80393372D01*
X145309115Y-80393372D02*
X145282178Y-80474184D01*
X145282178Y-80474184D02*
X145228303Y-80528059D01*
X145228303Y-80528059D02*
X145147491Y-80554996D01*
X145147491Y-80554996D02*
X145093616Y-80554996D01*
X145093616Y-80554996D02*
X145012804Y-80528059D01*
X145012804Y-80528059D02*
X144878117Y-80447247D01*
X144878117Y-80447247D02*
X144743430Y-80312560D01*
X144743430Y-80312560D02*
X144662618Y-80177873D01*
X144662618Y-80177873D02*
X144635680Y-80097060D01*
X144635680Y-80097060D02*
X144635680Y-80043186D01*
X144635680Y-80043186D02*
X144662618Y-79962373D01*
X116463406Y-114897585D02*
X117217653Y-115274709D01*
X117217653Y-115274709D02*
X116840529Y-114520462D01*
X117487027Y-114412712D02*
X117594776Y-114358838D01*
X117594776Y-114358838D02*
X117648651Y-114358838D01*
X117648651Y-114358838D02*
X117729463Y-114385775D01*
X117729463Y-114385775D02*
X117810276Y-114466587D01*
X117810276Y-114466587D02*
X117837213Y-114547399D01*
X117837213Y-114547399D02*
X117837213Y-114601274D01*
X117837213Y-114601274D02*
X117810276Y-114682086D01*
X117810276Y-114682086D02*
X117594776Y-114897586D01*
X117594776Y-114897586D02*
X117029091Y-114331900D01*
X117029091Y-114331900D02*
X117217653Y-114143338D01*
X117217653Y-114143338D02*
X117298465Y-114116401D01*
X117298465Y-114116401D02*
X117352340Y-114116401D01*
X117352340Y-114116401D02*
X117433152Y-114143338D01*
X117433152Y-114143338D02*
X117487027Y-114197213D01*
X117487027Y-114197213D02*
X117513964Y-114278025D01*
X117513964Y-114278025D02*
X117513964Y-114331900D01*
X117513964Y-114331900D02*
X117487027Y-114412712D01*
X117487027Y-114412712D02*
X117298465Y-114601274D01*
X117594776Y-113766215D02*
X118052712Y-114224151D01*
X118052712Y-114224151D02*
X118133524Y-114251088D01*
X118133524Y-114251088D02*
X118187399Y-114251088D01*
X118187399Y-114251088D02*
X118268211Y-114224151D01*
X118268211Y-114224151D02*
X118375961Y-114116401D01*
X118375961Y-114116401D02*
X118402898Y-114035589D01*
X118402898Y-114035589D02*
X118402898Y-113981714D01*
X118402898Y-113981714D02*
X118375961Y-113900902D01*
X118375961Y-113900902D02*
X117918025Y-113442966D01*
X118699210Y-113739277D02*
X118806959Y-113685403D01*
X118806959Y-113685403D02*
X118941646Y-113550716D01*
X118941646Y-113550716D02*
X118968584Y-113469903D01*
X118968584Y-113469903D02*
X118968584Y-113416029D01*
X118968584Y-113416029D02*
X118941646Y-113335216D01*
X118941646Y-113335216D02*
X118887771Y-113281342D01*
X118887771Y-113281342D02*
X118806959Y-113254404D01*
X118806959Y-113254404D02*
X118753084Y-113254404D01*
X118753084Y-113254404D02*
X118672272Y-113281342D01*
X118672272Y-113281342D02*
X118537585Y-113362154D01*
X118537585Y-113362154D02*
X118456773Y-113389091D01*
X118456773Y-113389091D02*
X118402898Y-113389091D01*
X118402898Y-113389091D02*
X118322086Y-113362154D01*
X118322086Y-113362154D02*
X118268211Y-113308279D01*
X118268211Y-113308279D02*
X118241274Y-113227467D01*
X118241274Y-113227467D02*
X118241274Y-113173592D01*
X118241274Y-113173592D02*
X118268211Y-113092780D01*
X118268211Y-113092780D02*
X118402898Y-112958093D01*
X118402898Y-112958093D02*
X118510648Y-112904218D01*
X135000475Y-64094200D02*
X135114761Y-64132295D01*
X135114761Y-64132295D02*
X135305237Y-64132295D01*
X135305237Y-64132295D02*
X135381428Y-64094200D01*
X135381428Y-64094200D02*
X135419523Y-64056104D01*
X135419523Y-64056104D02*
X135457618Y-63979914D01*
X135457618Y-63979914D02*
X135457618Y-63903723D01*
X135457618Y-63903723D02*
X135419523Y-63827533D01*
X135419523Y-63827533D02*
X135381428Y-63789438D01*
X135381428Y-63789438D02*
X135305237Y-63751342D01*
X135305237Y-63751342D02*
X135152856Y-63713247D01*
X135152856Y-63713247D02*
X135076666Y-63675152D01*
X135076666Y-63675152D02*
X135038571Y-63637057D01*
X135038571Y-63637057D02*
X135000475Y-63560866D01*
X135000475Y-63560866D02*
X135000475Y-63484676D01*
X135000475Y-63484676D02*
X135038571Y-63408485D01*
X135038571Y-63408485D02*
X135076666Y-63370390D01*
X135076666Y-63370390D02*
X135152856Y-63332295D01*
X135152856Y-63332295D02*
X135343333Y-63332295D01*
X135343333Y-63332295D02*
X135457618Y-63370390D01*
X135724285Y-63332295D02*
X135914761Y-64132295D01*
X135914761Y-64132295D02*
X136067142Y-63560866D01*
X136067142Y-63560866D02*
X136219523Y-64132295D01*
X136219523Y-64132295D02*
X136410000Y-63332295D01*
X137171905Y-64056104D02*
X137133809Y-64094200D01*
X137133809Y-64094200D02*
X137019524Y-64132295D01*
X137019524Y-64132295D02*
X136943333Y-64132295D01*
X136943333Y-64132295D02*
X136829047Y-64094200D01*
X136829047Y-64094200D02*
X136752857Y-64018009D01*
X136752857Y-64018009D02*
X136714762Y-63941819D01*
X136714762Y-63941819D02*
X136676666Y-63789438D01*
X136676666Y-63789438D02*
X136676666Y-63675152D01*
X136676666Y-63675152D02*
X136714762Y-63522771D01*
X136714762Y-63522771D02*
X136752857Y-63446580D01*
X136752857Y-63446580D02*
X136829047Y-63370390D01*
X136829047Y-63370390D02*
X136943333Y-63332295D01*
X136943333Y-63332295D02*
X137019524Y-63332295D01*
X137019524Y-63332295D02*
X137133809Y-63370390D01*
X137133809Y-63370390D02*
X137171905Y-63408485D01*
X137895714Y-64132295D02*
X137514762Y-64132295D01*
X137514762Y-64132295D02*
X137514762Y-63332295D01*
X138162381Y-64132295D02*
X138162381Y-63332295D01*
X138619524Y-64132295D02*
X138276666Y-63675152D01*
X138619524Y-63332295D02*
X138162381Y-63789438D01*
X143223372Y-86281494D02*
X143142560Y-86308431D01*
X143142560Y-86308431D02*
X143061748Y-86389243D01*
X143061748Y-86389243D02*
X143007873Y-86496993D01*
X143007873Y-86496993D02*
X143007873Y-86604742D01*
X143007873Y-86604742D02*
X143034810Y-86685555D01*
X143034810Y-86685555D02*
X143115623Y-86820242D01*
X143115623Y-86820242D02*
X143196435Y-86901054D01*
X143196435Y-86901054D02*
X143331122Y-86981866D01*
X143331122Y-86981866D02*
X143411934Y-87008803D01*
X143411934Y-87008803D02*
X143519684Y-87008803D01*
X143519684Y-87008803D02*
X143627433Y-86954929D01*
X143627433Y-86954929D02*
X143681308Y-86901054D01*
X143681308Y-86901054D02*
X143735183Y-86793304D01*
X143735183Y-86793304D02*
X143735183Y-86739429D01*
X143735183Y-86739429D02*
X143546621Y-86550868D01*
X143546621Y-86550868D02*
X143438871Y-86658617D01*
X144031494Y-86550868D02*
X143465809Y-85985182D01*
X143465809Y-85985182D02*
X143681308Y-85769683D01*
X143681308Y-85769683D02*
X143762120Y-85742746D01*
X143762120Y-85742746D02*
X143815995Y-85742746D01*
X143815995Y-85742746D02*
X143896807Y-85769683D01*
X143896807Y-85769683D02*
X143977619Y-85850495D01*
X143977619Y-85850495D02*
X144004557Y-85931307D01*
X144004557Y-85931307D02*
X144004557Y-85985182D01*
X144004557Y-85985182D02*
X143977619Y-86065994D01*
X143977619Y-86065994D02*
X143762120Y-86281494D01*
X144624117Y-85958245D02*
X144731867Y-85850495D01*
X144731867Y-85850495D02*
X144758804Y-85769683D01*
X144758804Y-85769683D02*
X144758804Y-85715808D01*
X144758804Y-85715808D02*
X144731867Y-85581121D01*
X144731867Y-85581121D02*
X144651054Y-85446434D01*
X144651054Y-85446434D02*
X144435555Y-85230935D01*
X144435555Y-85230935D02*
X144354743Y-85203998D01*
X144354743Y-85203998D02*
X144300868Y-85203998D01*
X144300868Y-85203998D02*
X144220056Y-85230935D01*
X144220056Y-85230935D02*
X144112306Y-85338685D01*
X144112306Y-85338685D02*
X144085369Y-85419497D01*
X144085369Y-85419497D02*
X144085369Y-85473372D01*
X144085369Y-85473372D02*
X144112306Y-85554184D01*
X144112306Y-85554184D02*
X144246993Y-85688871D01*
X144246993Y-85688871D02*
X144327806Y-85715808D01*
X144327806Y-85715808D02*
X144381680Y-85715808D01*
X144381680Y-85715808D02*
X144462493Y-85688871D01*
X144462493Y-85688871D02*
X144570242Y-85581121D01*
X144570242Y-85581121D02*
X144597180Y-85500309D01*
X144597180Y-85500309D02*
X144597180Y-85446434D01*
X144597180Y-85446434D02*
X144570242Y-85365622D01*
X117099998Y-94160868D02*
X117019185Y-94187805D01*
X117019185Y-94187805D02*
X116938373Y-94268618D01*
X116938373Y-94268618D02*
X116884498Y-94376367D01*
X116884498Y-94376367D02*
X116884498Y-94484117D01*
X116884498Y-94484117D02*
X116911436Y-94564929D01*
X116911436Y-94564929D02*
X116992248Y-94699616D01*
X116992248Y-94699616D02*
X117073060Y-94780428D01*
X117073060Y-94780428D02*
X117207747Y-94861241D01*
X117207747Y-94861241D02*
X117288560Y-94888178D01*
X117288560Y-94888178D02*
X117396309Y-94888178D01*
X117396309Y-94888178D02*
X117504059Y-94834303D01*
X117504059Y-94834303D02*
X117557934Y-94780428D01*
X117557934Y-94780428D02*
X117611808Y-94672679D01*
X117611808Y-94672679D02*
X117611808Y-94618804D01*
X117611808Y-94618804D02*
X117423247Y-94430242D01*
X117423247Y-94430242D02*
X117315497Y-94537992D01*
X117908120Y-94430242D02*
X117342434Y-93864557D01*
X117342434Y-93864557D02*
X117557934Y-93649057D01*
X117557934Y-93649057D02*
X117638746Y-93622120D01*
X117638746Y-93622120D02*
X117692621Y-93622120D01*
X117692621Y-93622120D02*
X117773433Y-93649057D01*
X117773433Y-93649057D02*
X117854245Y-93729870D01*
X117854245Y-93729870D02*
X117881182Y-93810682D01*
X117881182Y-93810682D02*
X117881182Y-93864557D01*
X117881182Y-93864557D02*
X117854245Y-93945369D01*
X117854245Y-93945369D02*
X117638746Y-94160868D01*
X117935057Y-93379683D02*
X117935057Y-93325809D01*
X117935057Y-93325809D02*
X117961995Y-93244996D01*
X117961995Y-93244996D02*
X118096682Y-93110309D01*
X118096682Y-93110309D02*
X118177494Y-93083372D01*
X118177494Y-93083372D02*
X118231369Y-93083372D01*
X118231369Y-93083372D02*
X118312181Y-93110309D01*
X118312181Y-93110309D02*
X118366056Y-93164184D01*
X118366056Y-93164184D02*
X118419930Y-93271934D01*
X118419930Y-93271934D02*
X118419930Y-93918431D01*
X118419930Y-93918431D02*
X118770117Y-93568245D01*
X118392993Y-92813998D02*
X118770117Y-92436874D01*
X118770117Y-92436874D02*
X119093366Y-93244996D01*
X117200123Y-104260868D02*
X117550309Y-103910682D01*
X117550309Y-103910682D02*
X117577247Y-104314743D01*
X117577247Y-104314743D02*
X117658059Y-104233931D01*
X117658059Y-104233931D02*
X117738871Y-104206993D01*
X117738871Y-104206993D02*
X117792746Y-104206993D01*
X117792746Y-104206993D02*
X117873558Y-104233931D01*
X117873558Y-104233931D02*
X118008245Y-104368618D01*
X118008245Y-104368618D02*
X118035182Y-104449430D01*
X118035182Y-104449430D02*
X118035182Y-104503305D01*
X118035182Y-104503305D02*
X118008245Y-104584117D01*
X118008245Y-104584117D02*
X117846621Y-104745741D01*
X117846621Y-104745741D02*
X117765808Y-104772679D01*
X117765808Y-104772679D02*
X117711934Y-104772679D01*
X117711934Y-103749057D02*
X118466181Y-104126181D01*
X118466181Y-104126181D02*
X118089057Y-103371934D01*
X118223744Y-103237247D02*
X118573930Y-102887061D01*
X118573930Y-102887061D02*
X118600868Y-103291122D01*
X118600868Y-103291122D02*
X118681680Y-103210309D01*
X118681680Y-103210309D02*
X118762492Y-103183372D01*
X118762492Y-103183372D02*
X118816367Y-103183372D01*
X118816367Y-103183372D02*
X118897179Y-103210309D01*
X118897179Y-103210309D02*
X119031866Y-103344996D01*
X119031866Y-103344996D02*
X119058804Y-103425809D01*
X119058804Y-103425809D02*
X119058804Y-103479683D01*
X119058804Y-103479683D02*
X119031866Y-103560496D01*
X119031866Y-103560496D02*
X118870242Y-103722120D01*
X118870242Y-103722120D02*
X118789430Y-103749057D01*
X118789430Y-103749057D02*
X118735555Y-103749057D01*
X143223372Y-101521494D02*
X143142560Y-101548431D01*
X143142560Y-101548431D02*
X143061748Y-101629243D01*
X143061748Y-101629243D02*
X143007873Y-101736993D01*
X143007873Y-101736993D02*
X143007873Y-101844742D01*
X143007873Y-101844742D02*
X143034810Y-101925555D01*
X143034810Y-101925555D02*
X143115623Y-102060242D01*
X143115623Y-102060242D02*
X143196435Y-102141054D01*
X143196435Y-102141054D02*
X143331122Y-102221866D01*
X143331122Y-102221866D02*
X143411934Y-102248803D01*
X143411934Y-102248803D02*
X143519684Y-102248803D01*
X143519684Y-102248803D02*
X143627433Y-102194929D01*
X143627433Y-102194929D02*
X143681308Y-102141054D01*
X143681308Y-102141054D02*
X143735183Y-102033304D01*
X143735183Y-102033304D02*
X143735183Y-101979429D01*
X143735183Y-101979429D02*
X143546621Y-101790868D01*
X143546621Y-101790868D02*
X143438871Y-101898617D01*
X144031494Y-101790868D02*
X143465809Y-101225182D01*
X143465809Y-101225182D02*
X143681308Y-101009683D01*
X143681308Y-101009683D02*
X143762120Y-100982746D01*
X143762120Y-100982746D02*
X143815995Y-100982746D01*
X143815995Y-100982746D02*
X143896807Y-101009683D01*
X143896807Y-101009683D02*
X143977619Y-101090495D01*
X143977619Y-101090495D02*
X144004557Y-101171307D01*
X144004557Y-101171307D02*
X144004557Y-101225182D01*
X144004557Y-101225182D02*
X143977619Y-101305994D01*
X143977619Y-101305994D02*
X143762120Y-101521494D01*
X144462493Y-100605622D02*
X144839616Y-100982746D01*
X144112306Y-100524810D02*
X144381680Y-101063558D01*
X144381680Y-101063558D02*
X144731867Y-100713372D01*
X123814761Y-64094200D02*
X123929047Y-64132295D01*
X123929047Y-64132295D02*
X124119523Y-64132295D01*
X124119523Y-64132295D02*
X124195714Y-64094200D01*
X124195714Y-64094200D02*
X124233809Y-64056104D01*
X124233809Y-64056104D02*
X124271904Y-63979914D01*
X124271904Y-63979914D02*
X124271904Y-63903723D01*
X124271904Y-63903723D02*
X124233809Y-63827533D01*
X124233809Y-63827533D02*
X124195714Y-63789438D01*
X124195714Y-63789438D02*
X124119523Y-63751342D01*
X124119523Y-63751342D02*
X123967142Y-63713247D01*
X123967142Y-63713247D02*
X123890952Y-63675152D01*
X123890952Y-63675152D02*
X123852857Y-63637057D01*
X123852857Y-63637057D02*
X123814761Y-63560866D01*
X123814761Y-63560866D02*
X123814761Y-63484676D01*
X123814761Y-63484676D02*
X123852857Y-63408485D01*
X123852857Y-63408485D02*
X123890952Y-63370390D01*
X123890952Y-63370390D02*
X123967142Y-63332295D01*
X123967142Y-63332295D02*
X124157619Y-63332295D01*
X124157619Y-63332295D02*
X124271904Y-63370390D01*
X124538571Y-63332295D02*
X124729047Y-64132295D01*
X124729047Y-64132295D02*
X124881428Y-63560866D01*
X124881428Y-63560866D02*
X125033809Y-64132295D01*
X125033809Y-64132295D02*
X125224286Y-63332295D01*
X125529048Y-64132295D02*
X125529048Y-63332295D01*
X125529048Y-63332295D02*
X125719524Y-63332295D01*
X125719524Y-63332295D02*
X125833810Y-63370390D01*
X125833810Y-63370390D02*
X125910000Y-63446580D01*
X125910000Y-63446580D02*
X125948095Y-63522771D01*
X125948095Y-63522771D02*
X125986191Y-63675152D01*
X125986191Y-63675152D02*
X125986191Y-63789438D01*
X125986191Y-63789438D02*
X125948095Y-63941819D01*
X125948095Y-63941819D02*
X125910000Y-64018009D01*
X125910000Y-64018009D02*
X125833810Y-64094200D01*
X125833810Y-64094200D02*
X125719524Y-64132295D01*
X125719524Y-64132295D02*
X125529048Y-64132295D01*
X126329048Y-64132295D02*
X126329048Y-63332295D01*
X126862381Y-63332295D02*
X127014762Y-63332295D01*
X127014762Y-63332295D02*
X127090952Y-63370390D01*
X127090952Y-63370390D02*
X127167143Y-63446580D01*
X127167143Y-63446580D02*
X127205238Y-63598961D01*
X127205238Y-63598961D02*
X127205238Y-63865628D01*
X127205238Y-63865628D02*
X127167143Y-64018009D01*
X127167143Y-64018009D02*
X127090952Y-64094200D01*
X127090952Y-64094200D02*
X127014762Y-64132295D01*
X127014762Y-64132295D02*
X126862381Y-64132295D01*
X126862381Y-64132295D02*
X126786190Y-64094200D01*
X126786190Y-64094200D02*
X126710000Y-64018009D01*
X126710000Y-64018009D02*
X126671904Y-63865628D01*
X126671904Y-63865628D02*
X126671904Y-63598961D01*
X126671904Y-63598961D02*
X126710000Y-63446580D01*
X126710000Y-63446580D02*
X126786190Y-63370390D01*
X126786190Y-63370390D02*
X126862381Y-63332295D01*
X117596435Y-109168431D02*
X117515623Y-109195368D01*
X117515623Y-109195368D02*
X117434811Y-109276180D01*
X117434811Y-109276180D02*
X117380936Y-109383930D01*
X117380936Y-109383930D02*
X117380936Y-109491680D01*
X117380936Y-109491680D02*
X117407873Y-109572492D01*
X117407873Y-109572492D02*
X117488685Y-109707179D01*
X117488685Y-109707179D02*
X117569498Y-109787991D01*
X117569498Y-109787991D02*
X117704185Y-109868803D01*
X117704185Y-109868803D02*
X117784997Y-109895741D01*
X117784997Y-109895741D02*
X117892746Y-109895741D01*
X117892746Y-109895741D02*
X118000496Y-109841866D01*
X118000496Y-109841866D02*
X118054371Y-109787991D01*
X118054371Y-109787991D02*
X118108246Y-109680241D01*
X118108246Y-109680241D02*
X118108246Y-109626367D01*
X118108246Y-109626367D02*
X117919684Y-109437805D01*
X117919684Y-109437805D02*
X117811934Y-109545554D01*
X118404557Y-109437805D02*
X117838872Y-108872119D01*
X117838872Y-108872119D02*
X118727806Y-109114556D01*
X118727806Y-109114556D02*
X118162120Y-108548871D01*
X118997180Y-108845182D02*
X118431494Y-108279497D01*
X118431494Y-108279497D02*
X118566181Y-108144810D01*
X118566181Y-108144810D02*
X118673931Y-108090935D01*
X118673931Y-108090935D02*
X118781680Y-108090935D01*
X118781680Y-108090935D02*
X118862493Y-108117872D01*
X118862493Y-108117872D02*
X118997180Y-108198685D01*
X118997180Y-108198685D02*
X119077992Y-108279497D01*
X119077992Y-108279497D02*
X119158804Y-108414184D01*
X119158804Y-108414184D02*
X119185741Y-108494996D01*
X119185741Y-108494996D02*
X119185741Y-108602746D01*
X119185741Y-108602746D02*
X119131867Y-108710495D01*
X119131867Y-108710495D02*
X118997180Y-108845182D01*
X117153873Y-97411240D02*
X117423247Y-97141866D01*
X117261623Y-97626739D02*
X116884499Y-96872492D01*
X116884499Y-96872492D02*
X117638746Y-97249615D01*
X117584871Y-96225994D02*
X117504059Y-96252932D01*
X117504059Y-96252932D02*
X117423247Y-96333744D01*
X117423247Y-96333744D02*
X117369372Y-96441494D01*
X117369372Y-96441494D02*
X117369372Y-96549243D01*
X117369372Y-96549243D02*
X117396310Y-96630055D01*
X117396310Y-96630055D02*
X117477122Y-96764742D01*
X117477122Y-96764742D02*
X117557934Y-96845555D01*
X117557934Y-96845555D02*
X117692621Y-96926367D01*
X117692621Y-96926367D02*
X117773433Y-96953304D01*
X117773433Y-96953304D02*
X117881183Y-96953304D01*
X117881183Y-96953304D02*
X117988932Y-96899429D01*
X117988932Y-96899429D02*
X118042807Y-96845555D01*
X118042807Y-96845555D02*
X118096682Y-96737805D01*
X118096682Y-96737805D02*
X118096682Y-96683930D01*
X118096682Y-96683930D02*
X117908120Y-96495368D01*
X117908120Y-96495368D02*
X117800371Y-96603118D01*
X118392993Y-96495368D02*
X117827308Y-95929683D01*
X117827308Y-95929683D02*
X118716242Y-96172120D01*
X118716242Y-96172120D02*
X118150557Y-95606434D01*
X118985616Y-95902746D02*
X118419931Y-95337060D01*
X118419931Y-95337060D02*
X118554618Y-95202373D01*
X118554618Y-95202373D02*
X118662367Y-95148498D01*
X118662367Y-95148498D02*
X118770117Y-95148498D01*
X118770117Y-95148498D02*
X118850929Y-95175436D01*
X118850929Y-95175436D02*
X118985616Y-95256248D01*
X118985616Y-95256248D02*
X119066428Y-95337060D01*
X119066428Y-95337060D02*
X119147241Y-95471747D01*
X119147241Y-95471747D02*
X119174178Y-95552560D01*
X119174178Y-95552560D02*
X119174178Y-95660309D01*
X119174178Y-95660309D02*
X119120303Y-95768059D01*
X119120303Y-95768059D02*
X118985616Y-95902746D01*
X143353998Y-78930868D02*
X143273185Y-78957805D01*
X143273185Y-78957805D02*
X143192373Y-79038618D01*
X143192373Y-79038618D02*
X143138498Y-79146367D01*
X143138498Y-79146367D02*
X143138498Y-79254117D01*
X143138498Y-79254117D02*
X143165436Y-79334929D01*
X143165436Y-79334929D02*
X143246248Y-79469616D01*
X143246248Y-79469616D02*
X143327060Y-79550428D01*
X143327060Y-79550428D02*
X143461747Y-79631241D01*
X143461747Y-79631241D02*
X143542560Y-79658178D01*
X143542560Y-79658178D02*
X143650309Y-79658178D01*
X143650309Y-79658178D02*
X143758059Y-79604303D01*
X143758059Y-79604303D02*
X143811934Y-79550428D01*
X143811934Y-79550428D02*
X143865808Y-79442679D01*
X143865808Y-79442679D02*
X143865808Y-79388804D01*
X143865808Y-79388804D02*
X143677247Y-79200242D01*
X143677247Y-79200242D02*
X143569497Y-79307992D01*
X144162120Y-79200242D02*
X143596434Y-78634557D01*
X143596434Y-78634557D02*
X143811934Y-78419057D01*
X143811934Y-78419057D02*
X143892746Y-78392120D01*
X143892746Y-78392120D02*
X143946621Y-78392120D01*
X143946621Y-78392120D02*
X144027433Y-78419057D01*
X144027433Y-78419057D02*
X144108245Y-78499870D01*
X144108245Y-78499870D02*
X144135182Y-78580682D01*
X144135182Y-78580682D02*
X144135182Y-78634557D01*
X144135182Y-78634557D02*
X144108245Y-78715369D01*
X144108245Y-78715369D02*
X143892746Y-78930868D01*
X145024117Y-78338245D02*
X144700868Y-78661494D01*
X144862492Y-78499870D02*
X144296807Y-77934184D01*
X144296807Y-77934184D02*
X144323744Y-78068871D01*
X144323744Y-78068871D02*
X144323744Y-78176621D01*
X144323744Y-78176621D02*
X144296807Y-78257433D01*
X145562865Y-77799497D02*
X145239616Y-78122746D01*
X145401240Y-77961121D02*
X144835555Y-77395436D01*
X144835555Y-77395436D02*
X144862492Y-77530123D01*
X144862492Y-77530123D02*
X144862492Y-77637873D01*
X144862492Y-77637873D02*
X144835555Y-77718685D01*
X117099998Y-78930868D02*
X117019185Y-78957805D01*
X117019185Y-78957805D02*
X116938373Y-79038618D01*
X116938373Y-79038618D02*
X116884498Y-79146367D01*
X116884498Y-79146367D02*
X116884498Y-79254117D01*
X116884498Y-79254117D02*
X116911436Y-79334929D01*
X116911436Y-79334929D02*
X116992248Y-79469616D01*
X116992248Y-79469616D02*
X117073060Y-79550428D01*
X117073060Y-79550428D02*
X117207747Y-79631241D01*
X117207747Y-79631241D02*
X117288560Y-79658178D01*
X117288560Y-79658178D02*
X117396309Y-79658178D01*
X117396309Y-79658178D02*
X117504059Y-79604303D01*
X117504059Y-79604303D02*
X117557934Y-79550428D01*
X117557934Y-79550428D02*
X117611808Y-79442679D01*
X117611808Y-79442679D02*
X117611808Y-79388804D01*
X117611808Y-79388804D02*
X117423247Y-79200242D01*
X117423247Y-79200242D02*
X117315497Y-79307992D01*
X117908120Y-79200242D02*
X117342434Y-78634557D01*
X117342434Y-78634557D02*
X117557934Y-78419057D01*
X117557934Y-78419057D02*
X117638746Y-78392120D01*
X117638746Y-78392120D02*
X117692621Y-78392120D01*
X117692621Y-78392120D02*
X117773433Y-78419057D01*
X117773433Y-78419057D02*
X117854245Y-78499870D01*
X117854245Y-78499870D02*
X117881182Y-78580682D01*
X117881182Y-78580682D02*
X117881182Y-78634557D01*
X117881182Y-78634557D02*
X117854245Y-78715369D01*
X117854245Y-78715369D02*
X117638746Y-78930868D01*
X117935057Y-78149683D02*
X117935057Y-78095809D01*
X117935057Y-78095809D02*
X117961995Y-78014996D01*
X117961995Y-78014996D02*
X118096682Y-77880309D01*
X118096682Y-77880309D02*
X118177494Y-77853372D01*
X118177494Y-77853372D02*
X118231369Y-77853372D01*
X118231369Y-77853372D02*
X118312181Y-77880309D01*
X118312181Y-77880309D02*
X118366056Y-77934184D01*
X118366056Y-77934184D02*
X118419930Y-78041934D01*
X118419930Y-78041934D02*
X118419930Y-78688431D01*
X118419930Y-78688431D02*
X118770117Y-78338245D01*
X118554618Y-77422373D02*
X118608492Y-77368499D01*
X118608492Y-77368499D02*
X118689305Y-77341561D01*
X118689305Y-77341561D02*
X118743179Y-77341561D01*
X118743179Y-77341561D02*
X118823992Y-77368499D01*
X118823992Y-77368499D02*
X118958679Y-77449311D01*
X118958679Y-77449311D02*
X119093366Y-77583998D01*
X119093366Y-77583998D02*
X119174178Y-77718685D01*
X119174178Y-77718685D02*
X119201115Y-77799497D01*
X119201115Y-77799497D02*
X119201115Y-77853372D01*
X119201115Y-77853372D02*
X119174178Y-77934184D01*
X119174178Y-77934184D02*
X119120303Y-77988059D01*
X119120303Y-77988059D02*
X119039491Y-78014996D01*
X119039491Y-78014996D02*
X118985616Y-78014996D01*
X118985616Y-78014996D02*
X118904804Y-77988059D01*
X118904804Y-77988059D02*
X118770117Y-77907247D01*
X118770117Y-77907247D02*
X118635430Y-77772560D01*
X118635430Y-77772560D02*
X118554618Y-77637873D01*
X118554618Y-77637873D02*
X118527680Y-77557060D01*
X118527680Y-77557060D02*
X118527680Y-77503186D01*
X118527680Y-77503186D02*
X118554618Y-77422373D01*
X143353998Y-76390868D02*
X143273185Y-76417805D01*
X143273185Y-76417805D02*
X143192373Y-76498618D01*
X143192373Y-76498618D02*
X143138498Y-76606367D01*
X143138498Y-76606367D02*
X143138498Y-76714117D01*
X143138498Y-76714117D02*
X143165436Y-76794929D01*
X143165436Y-76794929D02*
X143246248Y-76929616D01*
X143246248Y-76929616D02*
X143327060Y-77010428D01*
X143327060Y-77010428D02*
X143461747Y-77091241D01*
X143461747Y-77091241D02*
X143542560Y-77118178D01*
X143542560Y-77118178D02*
X143650309Y-77118178D01*
X143650309Y-77118178D02*
X143758059Y-77064303D01*
X143758059Y-77064303D02*
X143811934Y-77010428D01*
X143811934Y-77010428D02*
X143865808Y-76902679D01*
X143865808Y-76902679D02*
X143865808Y-76848804D01*
X143865808Y-76848804D02*
X143677247Y-76660242D01*
X143677247Y-76660242D02*
X143569497Y-76767992D01*
X144162120Y-76660242D02*
X143596434Y-76094557D01*
X143596434Y-76094557D02*
X143811934Y-75879057D01*
X143811934Y-75879057D02*
X143892746Y-75852120D01*
X143892746Y-75852120D02*
X143946621Y-75852120D01*
X143946621Y-75852120D02*
X144027433Y-75879057D01*
X144027433Y-75879057D02*
X144108245Y-75959870D01*
X144108245Y-75959870D02*
X144135182Y-76040682D01*
X144135182Y-76040682D02*
X144135182Y-76094557D01*
X144135182Y-76094557D02*
X144108245Y-76175369D01*
X144108245Y-76175369D02*
X143892746Y-76390868D01*
X145024117Y-75798245D02*
X144700868Y-76121494D01*
X144862492Y-75959870D02*
X144296807Y-75394184D01*
X144296807Y-75394184D02*
X144323744Y-75528871D01*
X144323744Y-75528871D02*
X144323744Y-75636621D01*
X144323744Y-75636621D02*
X144296807Y-75717433D01*
X144727805Y-75070935D02*
X144727805Y-75017060D01*
X144727805Y-75017060D02*
X144754743Y-74936248D01*
X144754743Y-74936248D02*
X144889430Y-74801561D01*
X144889430Y-74801561D02*
X144970242Y-74774624D01*
X144970242Y-74774624D02*
X145024117Y-74774624D01*
X145024117Y-74774624D02*
X145104929Y-74801561D01*
X145104929Y-74801561D02*
X145158804Y-74855436D01*
X145158804Y-74855436D02*
X145212679Y-74963186D01*
X145212679Y-74963186D02*
X145212679Y-75609683D01*
X145212679Y-75609683D02*
X145562865Y-75259497D01*
X143196435Y-96468431D02*
X143115623Y-96495368D01*
X143115623Y-96495368D02*
X143034811Y-96576180D01*
X143034811Y-96576180D02*
X142980936Y-96683930D01*
X142980936Y-96683930D02*
X142980936Y-96791680D01*
X142980936Y-96791680D02*
X143007873Y-96872492D01*
X143007873Y-96872492D02*
X143088685Y-97007179D01*
X143088685Y-97007179D02*
X143169498Y-97087991D01*
X143169498Y-97087991D02*
X143304185Y-97168803D01*
X143304185Y-97168803D02*
X143384997Y-97195741D01*
X143384997Y-97195741D02*
X143492746Y-97195741D01*
X143492746Y-97195741D02*
X143600496Y-97141866D01*
X143600496Y-97141866D02*
X143654371Y-97087991D01*
X143654371Y-97087991D02*
X143708246Y-96980241D01*
X143708246Y-96980241D02*
X143708246Y-96926367D01*
X143708246Y-96926367D02*
X143519684Y-96737805D01*
X143519684Y-96737805D02*
X143411934Y-96845554D01*
X144004557Y-96737805D02*
X143438872Y-96172119D01*
X143438872Y-96172119D02*
X144327806Y-96414556D01*
X144327806Y-96414556D02*
X143762120Y-95848871D01*
X144597180Y-96145182D02*
X144031494Y-95579497D01*
X144031494Y-95579497D02*
X144166181Y-95444810D01*
X144166181Y-95444810D02*
X144273931Y-95390935D01*
X144273931Y-95390935D02*
X144381680Y-95390935D01*
X144381680Y-95390935D02*
X144462493Y-95417872D01*
X144462493Y-95417872D02*
X144597180Y-95498685D01*
X144597180Y-95498685D02*
X144677992Y-95579497D01*
X144677992Y-95579497D02*
X144758804Y-95714184D01*
X144758804Y-95714184D02*
X144785741Y-95794996D01*
X144785741Y-95794996D02*
X144785741Y-95902746D01*
X144785741Y-95902746D02*
X144731867Y-96010495D01*
X144731867Y-96010495D02*
X144597180Y-96145182D01*
X143196435Y-71068431D02*
X143115623Y-71095368D01*
X143115623Y-71095368D02*
X143034811Y-71176180D01*
X143034811Y-71176180D02*
X142980936Y-71283930D01*
X142980936Y-71283930D02*
X142980936Y-71391680D01*
X142980936Y-71391680D02*
X143007873Y-71472492D01*
X143007873Y-71472492D02*
X143088685Y-71607179D01*
X143088685Y-71607179D02*
X143169498Y-71687991D01*
X143169498Y-71687991D02*
X143304185Y-71768803D01*
X143304185Y-71768803D02*
X143384997Y-71795741D01*
X143384997Y-71795741D02*
X143492746Y-71795741D01*
X143492746Y-71795741D02*
X143600496Y-71741866D01*
X143600496Y-71741866D02*
X143654371Y-71687991D01*
X143654371Y-71687991D02*
X143708246Y-71580241D01*
X143708246Y-71580241D02*
X143708246Y-71526367D01*
X143708246Y-71526367D02*
X143519684Y-71337805D01*
X143519684Y-71337805D02*
X143411934Y-71445554D01*
X144004557Y-71337805D02*
X143438872Y-70772119D01*
X143438872Y-70772119D02*
X144327806Y-71014556D01*
X144327806Y-71014556D02*
X143762120Y-70448871D01*
X144597180Y-70745182D02*
X144031494Y-70179497D01*
X144031494Y-70179497D02*
X144166181Y-70044810D01*
X144166181Y-70044810D02*
X144273931Y-69990935D01*
X144273931Y-69990935D02*
X144381680Y-69990935D01*
X144381680Y-69990935D02*
X144462493Y-70017872D01*
X144462493Y-70017872D02*
X144597180Y-70098685D01*
X144597180Y-70098685D02*
X144677992Y-70179497D01*
X144677992Y-70179497D02*
X144758804Y-70314184D01*
X144758804Y-70314184D02*
X144785741Y-70394996D01*
X144785741Y-70394996D02*
X144785741Y-70502746D01*
X144785741Y-70502746D02*
X144731867Y-70610495D01*
X144731867Y-70610495D02*
X144597180Y-70745182D01*
X143323372Y-106601494D02*
X143242560Y-106628431D01*
X143242560Y-106628431D02*
X143161748Y-106709243D01*
X143161748Y-106709243D02*
X143107873Y-106816993D01*
X143107873Y-106816993D02*
X143107873Y-106924742D01*
X143107873Y-106924742D02*
X143134810Y-107005555D01*
X143134810Y-107005555D02*
X143215623Y-107140242D01*
X143215623Y-107140242D02*
X143296435Y-107221054D01*
X143296435Y-107221054D02*
X143431122Y-107301866D01*
X143431122Y-107301866D02*
X143511934Y-107328803D01*
X143511934Y-107328803D02*
X143619684Y-107328803D01*
X143619684Y-107328803D02*
X143727433Y-107274929D01*
X143727433Y-107274929D02*
X143781308Y-107221054D01*
X143781308Y-107221054D02*
X143835183Y-107113304D01*
X143835183Y-107113304D02*
X143835183Y-107059429D01*
X143835183Y-107059429D02*
X143646621Y-106870868D01*
X143646621Y-106870868D02*
X143538871Y-106978617D01*
X144131494Y-106870868D02*
X143565809Y-106305182D01*
X143565809Y-106305182D02*
X143781308Y-106089683D01*
X143781308Y-106089683D02*
X143862120Y-106062746D01*
X143862120Y-106062746D02*
X143915995Y-106062746D01*
X143915995Y-106062746D02*
X143996807Y-106089683D01*
X143996807Y-106089683D02*
X144077619Y-106170495D01*
X144077619Y-106170495D02*
X144104557Y-106251307D01*
X144104557Y-106251307D02*
X144104557Y-106305182D01*
X144104557Y-106305182D02*
X144077619Y-106385994D01*
X144077619Y-106385994D02*
X143862120Y-106601494D01*
X144158432Y-105820309D02*
X144158432Y-105766434D01*
X144158432Y-105766434D02*
X144185369Y-105685622D01*
X144185369Y-105685622D02*
X144320056Y-105550935D01*
X144320056Y-105550935D02*
X144400868Y-105523998D01*
X144400868Y-105523998D02*
X144454743Y-105523998D01*
X144454743Y-105523998D02*
X144535555Y-105550935D01*
X144535555Y-105550935D02*
X144589430Y-105604810D01*
X144589430Y-105604810D02*
X144643305Y-105712559D01*
X144643305Y-105712559D02*
X144643305Y-106359057D01*
X144643305Y-106359057D02*
X144993491Y-106008871D01*
X143207998Y-73850868D02*
X143127185Y-73877805D01*
X143127185Y-73877805D02*
X143046373Y-73958618D01*
X143046373Y-73958618D02*
X142992498Y-74066367D01*
X142992498Y-74066367D02*
X142992498Y-74174117D01*
X142992498Y-74174117D02*
X143019436Y-74254929D01*
X143019436Y-74254929D02*
X143100248Y-74389616D01*
X143100248Y-74389616D02*
X143181060Y-74470428D01*
X143181060Y-74470428D02*
X143315747Y-74551241D01*
X143315747Y-74551241D02*
X143396560Y-74578178D01*
X143396560Y-74578178D02*
X143504309Y-74578178D01*
X143504309Y-74578178D02*
X143612059Y-74524303D01*
X143612059Y-74524303D02*
X143665934Y-74470428D01*
X143665934Y-74470428D02*
X143719808Y-74362679D01*
X143719808Y-74362679D02*
X143719808Y-74308804D01*
X143719808Y-74308804D02*
X143531247Y-74120242D01*
X143531247Y-74120242D02*
X143423497Y-74227992D01*
X144016120Y-74120242D02*
X143450434Y-73554557D01*
X143450434Y-73554557D02*
X143665934Y-73339057D01*
X143665934Y-73339057D02*
X143746746Y-73312120D01*
X143746746Y-73312120D02*
X143800621Y-73312120D01*
X143800621Y-73312120D02*
X143881433Y-73339057D01*
X143881433Y-73339057D02*
X143962245Y-73419870D01*
X143962245Y-73419870D02*
X143989182Y-73500682D01*
X143989182Y-73500682D02*
X143989182Y-73554557D01*
X143989182Y-73554557D02*
X143962245Y-73635369D01*
X143962245Y-73635369D02*
X143746746Y-73850868D01*
X144878117Y-73258245D02*
X144554868Y-73581494D01*
X144716492Y-73419870D02*
X144150807Y-72854184D01*
X144150807Y-72854184D02*
X144177744Y-72988871D01*
X144177744Y-72988871D02*
X144177744Y-73096621D01*
X144177744Y-73096621D02*
X144150807Y-73177433D01*
X144500993Y-72503998D02*
X144851179Y-72153812D01*
X144851179Y-72153812D02*
X144878117Y-72557873D01*
X144878117Y-72557873D02*
X144958929Y-72477060D01*
X144958929Y-72477060D02*
X145039741Y-72450123D01*
X145039741Y-72450123D02*
X145093616Y-72450123D01*
X145093616Y-72450123D02*
X145174428Y-72477060D01*
X145174428Y-72477060D02*
X145309115Y-72611747D01*
X145309115Y-72611747D02*
X145336053Y-72692560D01*
X145336053Y-72692560D02*
X145336053Y-72746434D01*
X145336053Y-72746434D02*
X145309115Y-72827247D01*
X145309115Y-72827247D02*
X145147491Y-72988871D01*
X145147491Y-72988871D02*
X145066679Y-73015808D01*
X145066679Y-73015808D02*
X145012804Y-73015808D01*
X97333333Y-82034819D02*
X97000000Y-81558628D01*
X96761905Y-82034819D02*
X96761905Y-81034819D01*
X96761905Y-81034819D02*
X97142857Y-81034819D01*
X97142857Y-81034819D02*
X97238095Y-81082438D01*
X97238095Y-81082438D02*
X97285714Y-81130057D01*
X97285714Y-81130057D02*
X97333333Y-81225295D01*
X97333333Y-81225295D02*
X97333333Y-81368152D01*
X97333333Y-81368152D02*
X97285714Y-81463390D01*
X97285714Y-81463390D02*
X97238095Y-81511009D01*
X97238095Y-81511009D02*
X97142857Y-81558628D01*
X97142857Y-81558628D02*
X96761905Y-81558628D01*
X97666667Y-81034819D02*
X98333333Y-81034819D01*
X98333333Y-81034819D02*
X97904762Y-82034819D01*
X113954819Y-110166666D02*
X113478628Y-110499999D01*
X113954819Y-110738094D02*
X112954819Y-110738094D01*
X112954819Y-110738094D02*
X112954819Y-110357142D01*
X112954819Y-110357142D02*
X113002438Y-110261904D01*
X113002438Y-110261904D02*
X113050057Y-110214285D01*
X113050057Y-110214285D02*
X113145295Y-110166666D01*
X113145295Y-110166666D02*
X113288152Y-110166666D01*
X113288152Y-110166666D02*
X113383390Y-110214285D01*
X113383390Y-110214285D02*
X113431009Y-110261904D01*
X113431009Y-110261904D02*
X113478628Y-110357142D01*
X113478628Y-110357142D02*
X113478628Y-110738094D01*
X113050057Y-109785713D02*
X113002438Y-109738094D01*
X113002438Y-109738094D02*
X112954819Y-109642856D01*
X112954819Y-109642856D02*
X112954819Y-109404761D01*
X112954819Y-109404761D02*
X113002438Y-109309523D01*
X113002438Y-109309523D02*
X113050057Y-109261904D01*
X113050057Y-109261904D02*
X113145295Y-109214285D01*
X113145295Y-109214285D02*
X113240533Y-109214285D01*
X113240533Y-109214285D02*
X113383390Y-109261904D01*
X113383390Y-109261904D02*
X113954819Y-109833332D01*
X113954819Y-109833332D02*
X113954819Y-109214285D01*
X114204819Y-81166666D02*
X113728628Y-81499999D01*
X114204819Y-81738094D02*
X113204819Y-81738094D01*
X113204819Y-81738094D02*
X113204819Y-81357142D01*
X113204819Y-81357142D02*
X113252438Y-81261904D01*
X113252438Y-81261904D02*
X113300057Y-81214285D01*
X113300057Y-81214285D02*
X113395295Y-81166666D01*
X113395295Y-81166666D02*
X113538152Y-81166666D01*
X113538152Y-81166666D02*
X113633390Y-81214285D01*
X113633390Y-81214285D02*
X113681009Y-81261904D01*
X113681009Y-81261904D02*
X113728628Y-81357142D01*
X113728628Y-81357142D02*
X113728628Y-81738094D01*
X113204819Y-80309523D02*
X113204819Y-80499999D01*
X113204819Y-80499999D02*
X113252438Y-80595237D01*
X113252438Y-80595237D02*
X113300057Y-80642856D01*
X113300057Y-80642856D02*
X113442914Y-80738094D01*
X113442914Y-80738094D02*
X113633390Y-80785713D01*
X113633390Y-80785713D02*
X114014342Y-80785713D01*
X114014342Y-80785713D02*
X114109580Y-80738094D01*
X114109580Y-80738094D02*
X114157200Y-80690475D01*
X114157200Y-80690475D02*
X114204819Y-80595237D01*
X114204819Y-80595237D02*
X114204819Y-80404761D01*
X114204819Y-80404761D02*
X114157200Y-80309523D01*
X114157200Y-80309523D02*
X114109580Y-80261904D01*
X114109580Y-80261904D02*
X114014342Y-80214285D01*
X114014342Y-80214285D02*
X113776247Y-80214285D01*
X113776247Y-80214285D02*
X113681009Y-80261904D01*
X113681009Y-80261904D02*
X113633390Y-80309523D01*
X113633390Y-80309523D02*
X113585771Y-80404761D01*
X113585771Y-80404761D02*
X113585771Y-80595237D01*
X113585771Y-80595237D02*
X113633390Y-80690475D01*
X113633390Y-80690475D02*
X113681009Y-80738094D01*
X113681009Y-80738094D02*
X113776247Y-80785713D01*
X151223095Y-64324819D02*
X151223095Y-65134342D01*
X151223095Y-65134342D02*
X151270714Y-65229580D01*
X151270714Y-65229580D02*
X151318333Y-65277200D01*
X151318333Y-65277200D02*
X151413571Y-65324819D01*
X151413571Y-65324819D02*
X151604047Y-65324819D01*
X151604047Y-65324819D02*
X151699285Y-65277200D01*
X151699285Y-65277200D02*
X151746904Y-65229580D01*
X151746904Y-65229580D02*
X151794523Y-65134342D01*
X151794523Y-65134342D02*
X151794523Y-64324819D01*
X152223095Y-64420057D02*
X152270714Y-64372438D01*
X152270714Y-64372438D02*
X152365952Y-64324819D01*
X152365952Y-64324819D02*
X152604047Y-64324819D01*
X152604047Y-64324819D02*
X152699285Y-64372438D01*
X152699285Y-64372438D02*
X152746904Y-64420057D01*
X152746904Y-64420057D02*
X152794523Y-64515295D01*
X152794523Y-64515295D02*
X152794523Y-64610533D01*
X152794523Y-64610533D02*
X152746904Y-64753390D01*
X152746904Y-64753390D02*
X152175476Y-65324819D01*
X152175476Y-65324819D02*
X152794523Y-65324819D01*
D12*
X161833333Y-89412238D02*
X161833333Y-90840809D01*
X161833333Y-90840809D02*
X161738094Y-91126523D01*
X161738094Y-91126523D02*
X161547618Y-91317000D01*
X161547618Y-91317000D02*
X161261904Y-91412238D01*
X161261904Y-91412238D02*
X161071428Y-91412238D01*
X162595238Y-89412238D02*
X163833333Y-89412238D01*
X163833333Y-89412238D02*
X163166666Y-90174142D01*
X163166666Y-90174142D02*
X163452381Y-90174142D01*
X163452381Y-90174142D02*
X163642857Y-90269380D01*
X163642857Y-90269380D02*
X163738095Y-90364619D01*
X163738095Y-90364619D02*
X163833333Y-90555095D01*
X163833333Y-90555095D02*
X163833333Y-91031285D01*
X163833333Y-91031285D02*
X163738095Y-91221761D01*
X163738095Y-91221761D02*
X163642857Y-91317000D01*
X163642857Y-91317000D02*
X163452381Y-91412238D01*
X163452381Y-91412238D02*
X162880952Y-91412238D01*
X162880952Y-91412238D02*
X162690476Y-91317000D01*
X162690476Y-91317000D02*
X162595238Y-91221761D01*
D14*
X102850000Y-92735000D02*
X102850000Y-97235000D01*
X102850000Y-97235000D02*
X113130000Y-97235000D01*
X113130000Y-92735000D02*
X102850000Y-92735000D01*
X113130000Y-93985000D02*
X113130000Y-92735000D01*
X113130000Y-97235000D02*
X113130000Y-95985000D01*
X113130000Y-95985000D02*
G75*
G02*
X113130000Y-93985000I0J1000000D01*
G01*
X110630000Y-66000000D02*
X111580000Y-66000000D01*
X111580000Y-65080000D02*
X111580000Y-66920000D01*
X111580000Y-66920000D02*
X115420000Y-66920000D01*
X115420000Y-65080000D02*
X111580000Y-65080000D01*
X115420000Y-66920000D02*
X115420000Y-65080000D01*
X116370000Y-66000000D02*
X115420000Y-66000000D01*
X102435000Y-64455000D02*
X102435000Y-67545000D01*
X102435001Y-64455170D02*
G75*
G02*
X107984999Y-66000462I2559999J-1544830D01*
G01*
X107985000Y-65999538D02*
G75*
G02*
X102435000Y-67544830I-2990000J-462D01*
G01*
X107495000Y-66000000D02*
G75*
G02*
X102495000Y-66000000I-2500000J0D01*
G01*
X102495000Y-66000000D02*
G75*
G02*
X107495000Y-66000000I2500000J0D01*
G01*
X99030000Y-74629876D02*
X99030000Y-74944876D01*
X99030000Y-74629876D02*
X103970000Y-74629876D01*
X99030000Y-77054876D02*
X99030000Y-77369876D01*
X99030000Y-77369876D02*
X103970000Y-77369876D01*
X103970000Y-74629876D02*
X103970000Y-74944876D01*
X103970000Y-77054876D02*
X103970000Y-77369876D01*
X156455000Y-103830000D02*
X159545000Y-103830000D01*
X156455170Y-103829999D02*
G75*
G02*
X158000462Y-98280001I1544830J2559999D01*
G01*
X157999538Y-98280000D02*
G75*
G02*
X159544830Y-103830000I462J-2990000D01*
G01*
X160500000Y-101270000D02*
G75*
G02*
X155500000Y-101270000I-2500000J0D01*
G01*
X155500000Y-101270000D02*
G75*
G02*
X160500000Y-101270000I2500000J0D01*
G01*
X107630000Y-102280000D02*
X107945000Y-102280000D01*
X107630000Y-107220000D02*
X107630000Y-102280000D01*
X107630000Y-107220000D02*
X107945000Y-107220000D01*
X110055000Y-102280000D02*
X110370000Y-102280000D01*
X110055000Y-107220000D02*
X110370000Y-107220000D01*
X110370000Y-107220000D02*
X110370000Y-102280000D01*
X104130000Y-82030000D02*
X104130000Y-86970000D01*
X104445000Y-82030000D02*
X104130000Y-82030000D01*
X104445000Y-86970000D02*
X104130000Y-86970000D01*
X106870000Y-82030000D02*
X106555000Y-82030000D01*
X106870000Y-82030000D02*
X106870000Y-86970000D01*
X106870000Y-86970000D02*
X106555000Y-86970000D01*
X156080000Y-90845000D02*
X156080000Y-94685000D01*
X156080000Y-94685000D02*
X157920000Y-94685000D01*
X157000000Y-89895000D02*
X157000000Y-90845000D01*
X157000000Y-95635000D02*
X157000000Y-94685000D01*
X157920000Y-90845000D02*
X156080000Y-90845000D01*
X157920000Y-94685000D02*
X157920000Y-90845000D01*
X159140000Y-69940000D02*
X166860000Y-69940000D01*
X159140000Y-77060000D02*
X159140000Y-69940000D01*
X159140000Y-77060000D02*
X166860000Y-77060000D01*
X161025000Y-70680000D02*
X161119000Y-70774000D01*
X161231000Y-70475000D02*
X161359000Y-70604000D01*
X163241000Y-72895000D02*
X163369000Y-73024000D01*
X163481000Y-72725000D02*
X163574000Y-72819000D01*
X165300000Y-77060000D02*
X165300000Y-69940000D01*
X166400000Y-77060000D02*
X166400000Y-69940000D01*
X166460000Y-77300000D02*
X167100000Y-77300000D01*
X166860000Y-77060000D02*
X166860000Y-69940000D01*
X167100000Y-77300000D02*
X167100000Y-76900000D01*
X160874642Y-76139894D02*
G75*
G02*
X160860000Y-74384000I1425356J889894D01*
G01*
X161409808Y-73824497D02*
G75*
G02*
X163190999Y-73825001I890192J-1425506D01*
G01*
X163189894Y-76675358D02*
G75*
G02*
X161434000Y-76690000I-889894J1425356D01*
G01*
X163724720Y-74359736D02*
G75*
G02*
X163979999Y-75250000I-1424710J-890261D01*
G01*
X163980098Y-75221326D02*
G75*
G02*
X163740000Y-76116000I-1680112J-28671D01*
G01*
X163980000Y-71750000D02*
G75*
G02*
X160620000Y-71750000I-1680000J0D01*
G01*
X160620000Y-71750000D02*
G75*
G02*
X163980000Y-71750000I1680000J0D01*
G01*
X111080000Y-101480000D02*
X111705000Y-101480000D01*
X111080000Y-105520000D02*
X111080000Y-101480000D01*
X111080000Y-105520000D02*
X111705000Y-105520000D01*
X113295000Y-101480000D02*
X113920000Y-101480000D01*
X113295000Y-105520000D02*
X113920000Y-105520000D01*
X113920000Y-105520000D02*
X113920000Y-101480000D01*
D15*
X80932509Y-73319332D02*
X80932509Y-80761532D01*
X80932509Y-76913432D02*
X80932509Y-77167432D01*
X80932509Y-77167432D02*
X81186509Y-77167432D01*
X80932509Y-80761532D02*
X94112658Y-80761532D01*
X81186509Y-76913432D02*
X80932509Y-76913432D01*
X81186509Y-77167432D02*
X81186509Y-76913432D01*
X94112331Y-73319332D02*
X80932509Y-73319332D01*
X95181909Y-78954441D02*
X95181909Y-75226306D01*
D14*
X94630000Y-86500000D02*
X95580000Y-86500000D01*
X95580000Y-85580000D02*
X95580000Y-87420000D01*
X95580000Y-87420000D02*
X99420000Y-87420000D01*
X99420000Y-85580000D02*
X95580000Y-85580000D01*
X99420000Y-87420000D02*
X99420000Y-85580000D01*
X100370000Y-86500000D02*
X99420000Y-86500000D01*
X154580000Y-77480000D02*
X155205000Y-77480000D01*
X154580000Y-81520000D02*
X154580000Y-77480000D01*
X154580000Y-81520000D02*
X155205000Y-81520000D01*
X156795000Y-77480000D02*
X157420000Y-77480000D01*
X156795000Y-81520000D02*
X157420000Y-81520000D01*
X157420000Y-81520000D02*
X157420000Y-77480000D01*
X108080000Y-81580000D02*
X108080000Y-85420000D01*
X108080000Y-85420000D02*
X109920000Y-85420000D01*
X109000000Y-80630000D02*
X109000000Y-81580000D01*
X109000000Y-86370000D02*
X109000000Y-85420000D01*
X109920000Y-81580000D02*
X108080000Y-81580000D01*
X109920000Y-85420000D02*
X109920000Y-81580000D01*
X120610000Y-64470000D02*
X127410000Y-64470000D01*
X120610000Y-67270000D02*
X120610000Y-66870000D01*
X120610000Y-69870000D02*
X120610000Y-69470000D01*
X120610000Y-72370000D02*
X120610000Y-71970000D01*
X120610000Y-74870000D02*
X120610000Y-74470000D01*
X120610000Y-77470000D02*
X120610000Y-77070000D01*
X120610000Y-79970000D02*
X120610000Y-79570000D01*
X120610000Y-82570000D02*
X120610000Y-82170000D01*
X120610000Y-85070000D02*
X120610000Y-84670000D01*
X120610000Y-87670000D02*
X120610000Y-87270000D01*
X120610000Y-90170000D02*
X120610000Y-89770000D01*
X120610000Y-92670000D02*
X120610000Y-92270000D01*
X120610000Y-95270000D02*
X120610000Y-94870000D01*
X120610000Y-97770000D02*
X120610000Y-97370000D01*
X120610000Y-100370000D02*
X120610000Y-99970000D01*
X120610000Y-102870000D02*
X120610000Y-102470000D01*
X120610000Y-105370000D02*
X120610000Y-104970000D01*
X120610000Y-107970000D02*
X120610000Y-107570000D01*
X120610000Y-110470000D02*
X120610000Y-110070000D01*
X120610000Y-113070000D02*
X120610000Y-112670000D01*
X120610000Y-115470000D02*
X120610000Y-115170000D01*
X130010000Y-64470000D02*
X129610000Y-64470000D01*
X132610000Y-64470000D02*
X132210000Y-64470000D01*
X134810000Y-64470000D02*
X141610000Y-64470000D01*
X138603000Y-112803000D02*
X138603000Y-115470000D01*
X141610000Y-67270000D02*
X141610000Y-66870000D01*
X141610000Y-69870000D02*
X141610000Y-69470000D01*
X141610000Y-72370000D02*
X141610000Y-71970000D01*
X141610000Y-74870000D02*
X141610000Y-74470000D01*
X141610000Y-77470000D02*
X141610000Y-77070000D01*
X141610000Y-79970000D02*
X141610000Y-79570000D01*
X141610000Y-82570000D02*
X141610000Y-82170000D01*
X141610000Y-85070000D02*
X141610000Y-84670000D01*
X141610000Y-87670000D02*
X141610000Y-87270000D01*
X141610000Y-90170000D02*
X141610000Y-89770000D01*
X141610000Y-92670000D02*
X141610000Y-92270000D01*
X141610000Y-95270000D02*
X141610000Y-94870000D01*
X141610000Y-97770000D02*
X141610000Y-97370000D01*
X141610000Y-100370000D02*
X141610000Y-99970000D01*
X141610000Y-102870000D02*
X141610000Y-102470000D01*
X141610000Y-105370000D02*
X141610000Y-104970000D01*
X141610000Y-107970000D02*
X141610000Y-107570000D01*
X141610000Y-110470000D02*
X141610000Y-110070000D01*
X141610000Y-112803000D02*
X138603000Y-112803000D01*
X141610000Y-113070000D02*
X141610000Y-112670000D01*
X141610000Y-115470000D02*
X120610000Y-115470000D01*
X141610000Y-115470000D02*
X141610000Y-115170000D01*
X94630000Y-83500000D02*
X95580000Y-83500000D01*
X95580000Y-82580000D02*
X95580000Y-84420000D01*
X95580000Y-84420000D02*
X99420000Y-84420000D01*
X99420000Y-82580000D02*
X95580000Y-82580000D01*
X99420000Y-84420000D02*
X99420000Y-82580000D01*
X100370000Y-83500000D02*
X99420000Y-83500000D01*
X114580000Y-104080000D02*
X114580000Y-107920000D01*
X114580000Y-107920000D02*
X116420000Y-107920000D01*
X115500000Y-103130000D02*
X115500000Y-104080000D01*
X115500000Y-108870000D02*
X115500000Y-107920000D01*
X116420000Y-104080000D02*
X114580000Y-104080000D01*
X116420000Y-107920000D02*
X116420000Y-104080000D01*
X111080000Y-81580000D02*
X111080000Y-85420000D01*
X111080000Y-85420000D02*
X112920000Y-85420000D01*
X112000000Y-80630000D02*
X112000000Y-81580000D01*
X112000000Y-86370000D02*
X112000000Y-85420000D01*
X112920000Y-81580000D02*
X111080000Y-81580000D01*
X112920000Y-85420000D02*
X112920000Y-81580000D01*
X149735000Y-65870000D02*
X149735000Y-76150000D01*
X149735000Y-76150000D02*
X154235000Y-76150000D01*
X150985000Y-65870000D02*
X149735000Y-65870000D01*
X154235000Y-65870000D02*
X152985000Y-65870000D01*
X154235000Y-76150000D02*
X154235000Y-65870000D01*
X152985000Y-65870000D02*
G75*
G02*
X150985000Y-65870000I-1000000J0D01*
G01*
X159140000Y-81440000D02*
X166860000Y-81440000D01*
X159140000Y-88560000D02*
X159140000Y-81440000D01*
X159140000Y-88560000D02*
X166860000Y-88560000D01*
X161025000Y-82180000D02*
X161119000Y-82274000D01*
X161231000Y-81975000D02*
X161359000Y-82104000D01*
X163241000Y-84395000D02*
X163369000Y-84524000D01*
X163481000Y-84225000D02*
X163574000Y-84319000D01*
X165300000Y-88560000D02*
X165300000Y-81440000D01*
X166400000Y-88560000D02*
X166400000Y-81440000D01*
X166460000Y-88800000D02*
X167100000Y-88800000D01*
X166860000Y-88560000D02*
X166860000Y-81440000D01*
X167100000Y-88800000D02*
X167100000Y-88400000D01*
X160874642Y-87639894D02*
G75*
G02*
X160860000Y-85884000I1425356J889894D01*
G01*
X161409808Y-85324497D02*
G75*
G02*
X163190999Y-85325001I890192J-1425506D01*
G01*
X163189894Y-88175358D02*
G75*
G02*
X161434000Y-88190000I-889894J1425356D01*
G01*
X163724720Y-85859736D02*
G75*
G02*
X163979999Y-86750000I-1424710J-890261D01*
G01*
X163980098Y-86721326D02*
G75*
G02*
X163740000Y-87616000I-1680112J-28671D01*
G01*
X163980000Y-83250000D02*
G75*
G02*
X160620000Y-83250000I-1680000J0D01*
G01*
X160620000Y-83250000D02*
G75*
G02*
X163980000Y-83250000I1680000J0D01*
G01*
%LPC*%
D16*
X111800000Y-91175000D03*
D17*
X109260000Y-91175000D03*
X106720000Y-91175000D03*
X104180000Y-91175000D03*
X104180000Y-98795000D03*
X106720000Y-98795000D03*
X109260000Y-98795000D03*
X111800000Y-98795000D03*
D18*
X117310000Y-66000000D03*
D19*
X109690000Y-66000000D03*
D20*
X103725000Y-66000000D03*
D21*
X106265000Y-66000000D03*
D22*
X99000000Y-75999876D03*
X104000000Y-75999876D03*
D20*
X158000000Y-102540000D03*
D21*
X158000000Y-100000000D03*
D22*
X109000000Y-107250000D03*
X109000000Y-102250000D03*
X105500000Y-82000000D03*
X105500000Y-87000000D03*
D23*
X85000000Y-65000000D03*
D18*
X157000000Y-96575000D03*
D19*
X157000000Y-88955000D03*
D24*
X162300000Y-75250000D03*
D25*
X162300000Y-71750000D03*
D22*
X112500000Y-104750000D03*
X112500000Y-102250000D03*
D26*
X85059508Y-77040432D03*
X92559508Y-77040432D03*
D27*
X89159508Y-78540556D03*
X94459510Y-74290374D03*
X94459510Y-79790373D03*
D18*
X101310000Y-86500000D03*
D19*
X93690000Y-86500000D03*
D22*
X156000000Y-80750000D03*
X156000000Y-78250000D03*
D18*
X109000000Y-79690000D03*
D19*
X109000000Y-87310000D03*
D28*
X133835000Y-113970000D03*
D29*
X133535000Y-110940000D03*
X128685000Y-110940000D03*
D28*
X128385000Y-113970000D03*
D30*
X140000000Y-114100000D03*
D31*
X140900000Y-114100000D03*
D30*
X140000000Y-111560000D03*
D31*
X140900000Y-111560000D03*
D32*
X140000000Y-109020000D03*
D31*
X140900000Y-109020000D03*
D30*
X140000000Y-106480000D03*
D31*
X140900000Y-106480000D03*
D30*
X140000000Y-103940000D03*
D31*
X140900000Y-103940000D03*
D30*
X140000000Y-101400000D03*
D31*
X140900000Y-101400000D03*
D30*
X140000000Y-98860000D03*
D31*
X140900000Y-98860000D03*
D32*
X140000000Y-96320000D03*
D31*
X140900000Y-96320000D03*
D30*
X140000000Y-93780000D03*
D31*
X140900000Y-93780000D03*
D30*
X140000000Y-91240000D03*
D31*
X140900000Y-91240000D03*
D30*
X140000000Y-88700000D03*
D31*
X140900000Y-88700000D03*
D30*
X140000000Y-86160000D03*
D31*
X140900000Y-86160000D03*
D32*
X140000000Y-83620000D03*
D31*
X140900000Y-83620000D03*
D30*
X140000000Y-81080000D03*
D31*
X140900000Y-81080000D03*
D30*
X140000000Y-78540000D03*
D31*
X140900000Y-78540000D03*
D30*
X140000000Y-76000000D03*
D31*
X140900000Y-76000000D03*
D30*
X140000000Y-73460000D03*
D31*
X140900000Y-73460000D03*
D32*
X140000000Y-70920000D03*
D31*
X140900000Y-70920000D03*
D30*
X140000000Y-68380000D03*
D31*
X140900000Y-68380000D03*
D30*
X140000000Y-65840000D03*
D31*
X140900000Y-65840000D03*
D30*
X122220000Y-65840000D03*
D31*
X121320000Y-65840000D03*
D30*
X122220000Y-68380000D03*
D31*
X121320000Y-68380000D03*
D32*
X122220000Y-70920000D03*
D31*
X121320000Y-70920000D03*
D30*
X122220000Y-73460000D03*
D31*
X121320000Y-73460000D03*
D30*
X122220000Y-76000000D03*
D31*
X121320000Y-76000000D03*
D30*
X122220000Y-78540000D03*
D31*
X121320000Y-78540000D03*
D30*
X122220000Y-81080000D03*
D31*
X121320000Y-81080000D03*
D32*
X122220000Y-83620000D03*
D31*
X121320000Y-83620000D03*
D30*
X122220000Y-86160000D03*
D31*
X121320000Y-86160000D03*
D30*
X122220000Y-88700000D03*
D31*
X121320000Y-88700000D03*
D30*
X122220000Y-91240000D03*
D31*
X121320000Y-91240000D03*
D30*
X122220000Y-93780000D03*
D31*
X121320000Y-93780000D03*
D32*
X122220000Y-96320000D03*
D31*
X121320000Y-96320000D03*
D30*
X122220000Y-98860000D03*
D31*
X121320000Y-98860000D03*
D30*
X122220000Y-101400000D03*
D31*
X121320000Y-101400000D03*
D30*
X122220000Y-103940000D03*
D31*
X121320000Y-103940000D03*
D30*
X122220000Y-106480000D03*
D31*
X121320000Y-106480000D03*
D32*
X122220000Y-109020000D03*
D31*
X121320000Y-109020000D03*
D30*
X122220000Y-111560000D03*
D31*
X121320000Y-111560000D03*
D30*
X122220000Y-114100000D03*
D31*
X121320000Y-114100000D03*
D30*
X133650000Y-66070000D03*
D33*
X133650000Y-65170000D03*
D32*
X131110000Y-66070000D03*
D33*
X131110000Y-65170000D03*
D30*
X128570000Y-66070000D03*
D33*
X128570000Y-65170000D03*
D23*
X162500000Y-115000000D03*
D18*
X93690000Y-83500000D03*
D19*
X101310000Y-83500000D03*
D18*
X115500000Y-109810000D03*
D19*
X115500000Y-102190000D03*
D23*
X162500000Y-65000000D03*
D18*
X112000000Y-79690000D03*
D19*
X112000000Y-87310000D03*
D34*
X148175000Y-67200000D03*
D35*
X148175000Y-69740000D03*
X148175000Y-72280000D03*
X148175000Y-74820000D03*
X155795000Y-74820000D03*
X155795000Y-72280000D03*
X155795000Y-69740000D03*
X155795000Y-67200000D03*
D23*
X85000000Y-115000000D03*
D24*
X162300000Y-86750000D03*
D25*
X162300000Y-83250000D03*
D36*
X144000000Y-63000000D03*
X84000000Y-95750000D03*
X127250000Y-79750000D03*
X92000000Y-64000000D03*
X84000000Y-108250000D03*
X134750000Y-96000000D03*
X114250000Y-117250000D03*
X165500000Y-98750000D03*
X112500000Y-72500000D03*
X100250000Y-64000000D03*
X111000000Y-63000000D03*
X149000000Y-82250000D03*
X97000000Y-117250000D03*
X129250000Y-90250000D03*
X127750000Y-71000000D03*
X149000000Y-109000000D03*
X83750000Y-102500000D03*
X118750000Y-62750000D03*
X83750000Y-87750000D03*
X96250000Y-68750000D03*
X154500000Y-62750000D03*
X165000000Y-91750000D03*
X91500000Y-113000000D03*
X149000000Y-91000000D03*
X129750000Y-101250000D03*
X106500000Y-117250000D03*
X135750000Y-75500000D03*
X157250000Y-116250000D03*
X165250000Y-106750000D03*
X149500000Y-116500000D03*
X157500000Y-108250000D03*
X148750000Y-100250000D03*
X135750000Y-84500000D03*
%LPD*%
M02*
