G04 #@! TF.GenerationSoftware,KiCad,Pcbnew,8.0.0*
G04 #@! TF.CreationDate,2024-03-17T16:54:30+01:00*
G04 #@! TF.ProjectId,soundgun,736f756e-6467-4756-9e2e-6b696361645f,rev?*
G04 #@! TF.SameCoordinates,Original*
G04 #@! TF.FileFunction,Copper,L1,Top*
G04 #@! TF.FilePolarity,Positive*
%FSLAX46Y46*%
G04 Gerber Fmt 4.6, Leading zero omitted, Abs format (unit mm)*
G04 Created by KiCad (PCBNEW 8.0.0) date 2024-03-17 16:54:30*
%MOMM*%
%LPD*%
G01*
G04 APERTURE LIST*
G04 #@! TA.AperFunction,ComponentPad*
%ADD10R,1.600000X2.400000*%
G04 #@! TD*
G04 #@! TA.AperFunction,ComponentPad*
%ADD11O,1.600000X2.400000*%
G04 #@! TD*
G04 #@! TA.AperFunction,ComponentPad*
%ADD12C,1.400000*%
G04 #@! TD*
G04 #@! TA.AperFunction,ComponentPad*
%ADD13O,1.400000X1.400000*%
G04 #@! TD*
G04 #@! TA.AperFunction,ComponentPad*
%ADD14R,1.800000X1.800000*%
G04 #@! TD*
G04 #@! TA.AperFunction,ComponentPad*
%ADD15C,1.800000*%
G04 #@! TD*
G04 #@! TA.AperFunction,ComponentPad*
%ADD16C,1.600000*%
G04 #@! TD*
G04 #@! TA.AperFunction,ComponentPad*
%ADD17C,5.600000*%
G04 #@! TD*
G04 #@! TA.AperFunction,ComponentPad*
%ADD18R,2.400000X2.400000*%
G04 #@! TD*
G04 #@! TA.AperFunction,ComponentPad*
%ADD19C,2.400000*%
G04 #@! TD*
G04 #@! TA.AperFunction,ComponentPad*
%ADD20O,2.006600X1.498600*%
G04 #@! TD*
G04 #@! TA.AperFunction,ComponentPad*
%ADD21O,1.700000X1.700000*%
G04 #@! TD*
G04 #@! TA.AperFunction,SMDPad,CuDef*
%ADD22R,3.500000X1.700000*%
G04 #@! TD*
G04 #@! TA.AperFunction,ComponentPad*
%ADD23R,1.700000X1.700000*%
G04 #@! TD*
G04 #@! TA.AperFunction,SMDPad,CuDef*
%ADD24R,1.700000X3.500000*%
G04 #@! TD*
G04 #@! TA.AperFunction,ComponentPad*
%ADD25R,2.400000X1.600000*%
G04 #@! TD*
G04 #@! TA.AperFunction,ComponentPad*
%ADD26O,2.400000X1.600000*%
G04 #@! TD*
G04 #@! TA.AperFunction,ViaPad*
%ADD27C,0.600000*%
G04 #@! TD*
G04 #@! TA.AperFunction,Conductor*
%ADD28C,0.500000*%
G04 #@! TD*
G04 #@! TA.AperFunction,Conductor*
%ADD29C,0.200000*%
G04 #@! TD*
G04 APERTURE END LIST*
D10*
X111800000Y-91175000D03*
D11*
X109260000Y-91175000D03*
X106720000Y-91175000D03*
X104180000Y-91175000D03*
X104180000Y-98795000D03*
X106720000Y-98795000D03*
X109260000Y-98795000D03*
X111800000Y-98795000D03*
D12*
X117310000Y-66000000D03*
D13*
X109690000Y-66000000D03*
D14*
X103725000Y-66000000D03*
D15*
X106265000Y-66000000D03*
D16*
X99000000Y-75999876D03*
X104000000Y-75999876D03*
D14*
X158000000Y-102540000D03*
D15*
X158000000Y-100000000D03*
D16*
X109000000Y-107250000D03*
X109000000Y-102250000D03*
X105500000Y-82000000D03*
X105500000Y-87000000D03*
D17*
X85000000Y-65000000D03*
D12*
X157000000Y-96575000D03*
D13*
X157000000Y-88955000D03*
D18*
X162300000Y-75250000D03*
D19*
X162300000Y-71750000D03*
D16*
X112500000Y-104750000D03*
X112500000Y-102250000D03*
D20*
X89159508Y-78540556D03*
X94459510Y-74290374D03*
X94459510Y-79790373D03*
D12*
X101310000Y-86500000D03*
D13*
X93690000Y-86500000D03*
D16*
X156000000Y-80750000D03*
X156000000Y-78250000D03*
D12*
X109000000Y-79690000D03*
D13*
X109000000Y-87310000D03*
D21*
X140000000Y-114100000D03*
D22*
X140900000Y-114100000D03*
D21*
X140000000Y-111560000D03*
D22*
X140900000Y-111560000D03*
D23*
X140000000Y-109020000D03*
D22*
X140900000Y-109020000D03*
D21*
X140000000Y-106480000D03*
D22*
X140900000Y-106480000D03*
D21*
X140000000Y-103940000D03*
D22*
X140900000Y-103940000D03*
D21*
X140000000Y-101400000D03*
D22*
X140900000Y-101400000D03*
D21*
X140000000Y-98860000D03*
D22*
X140900000Y-98860000D03*
D23*
X140000000Y-96320000D03*
D22*
X140900000Y-96320000D03*
D21*
X140000000Y-93780000D03*
D22*
X140900000Y-93780000D03*
D21*
X140000000Y-91240000D03*
D22*
X140900000Y-91240000D03*
D21*
X140000000Y-88700000D03*
D22*
X140900000Y-88700000D03*
D21*
X140000000Y-86160000D03*
D22*
X140900000Y-86160000D03*
D23*
X140000000Y-83620000D03*
D22*
X140900000Y-83620000D03*
D21*
X140000000Y-81080000D03*
D22*
X140900000Y-81080000D03*
D21*
X140000000Y-78540000D03*
D22*
X140900000Y-78540000D03*
D21*
X140000000Y-76000000D03*
D22*
X140900000Y-76000000D03*
D21*
X140000000Y-73460000D03*
D22*
X140900000Y-73460000D03*
D23*
X140000000Y-70920000D03*
D22*
X140900000Y-70920000D03*
D21*
X140000000Y-68380000D03*
D22*
X140900000Y-68380000D03*
D21*
X140000000Y-65840000D03*
D22*
X140900000Y-65840000D03*
D21*
X122220000Y-65840000D03*
D22*
X121320000Y-65840000D03*
D21*
X122220000Y-68380000D03*
D22*
X121320000Y-68380000D03*
D23*
X122220000Y-70920000D03*
D22*
X121320000Y-70920000D03*
D21*
X122220000Y-73460000D03*
D22*
X121320000Y-73460000D03*
D21*
X122220000Y-76000000D03*
D22*
X121320000Y-76000000D03*
D21*
X122220000Y-78540000D03*
D22*
X121320000Y-78540000D03*
D21*
X122220000Y-81080000D03*
D22*
X121320000Y-81080000D03*
D23*
X122220000Y-83620000D03*
D22*
X121320000Y-83620000D03*
D21*
X122220000Y-86160000D03*
D22*
X121320000Y-86160000D03*
D21*
X122220000Y-88700000D03*
D22*
X121320000Y-88700000D03*
D21*
X122220000Y-91240000D03*
D22*
X121320000Y-91240000D03*
D21*
X122220000Y-93780000D03*
D22*
X121320000Y-93780000D03*
D23*
X122220000Y-96320000D03*
D22*
X121320000Y-96320000D03*
D21*
X122220000Y-98860000D03*
D22*
X121320000Y-98860000D03*
D21*
X122220000Y-101400000D03*
D22*
X121320000Y-101400000D03*
D21*
X122220000Y-103940000D03*
D22*
X121320000Y-103940000D03*
D21*
X122220000Y-106480000D03*
D22*
X121320000Y-106480000D03*
D23*
X122220000Y-109020000D03*
D22*
X121320000Y-109020000D03*
D21*
X122220000Y-111560000D03*
D22*
X121320000Y-111560000D03*
D21*
X122220000Y-114100000D03*
D22*
X121320000Y-114100000D03*
D21*
X133650000Y-66070000D03*
D24*
X133650000Y-65170000D03*
D23*
X131110000Y-66070000D03*
D24*
X131110000Y-65170000D03*
D21*
X128570000Y-66070000D03*
D24*
X128570000Y-65170000D03*
D17*
X162500000Y-115000000D03*
D12*
X93690000Y-83500000D03*
D13*
X101310000Y-83500000D03*
D12*
X115500000Y-109810000D03*
D13*
X115500000Y-102190000D03*
D17*
X162500000Y-65000000D03*
D12*
X112000000Y-79690000D03*
D13*
X112000000Y-87310000D03*
D25*
X148175000Y-67200000D03*
D26*
X148175000Y-69740000D03*
X148175000Y-72280000D03*
X148175000Y-74820000D03*
X155795000Y-74820000D03*
X155795000Y-72280000D03*
X155795000Y-69740000D03*
X155795000Y-67200000D03*
D17*
X85000000Y-115000000D03*
D18*
X162300000Y-86750000D03*
D19*
X162300000Y-83250000D03*
D27*
X144000000Y-63000000D03*
X84000000Y-95750000D03*
X127250000Y-79750000D03*
X92000000Y-64000000D03*
X84000000Y-108250000D03*
X134750000Y-96000000D03*
X114250000Y-117250000D03*
X165500000Y-98750000D03*
X112500000Y-72500000D03*
X100250000Y-64000000D03*
X111000000Y-63000000D03*
X149000000Y-82250000D03*
X97000000Y-117250000D03*
X129250000Y-90250000D03*
X127750000Y-71000000D03*
X149000000Y-109000000D03*
X83750000Y-102500000D03*
X118750000Y-62750000D03*
X83750000Y-87750000D03*
X96250000Y-68750000D03*
X154500000Y-62750000D03*
X165000000Y-91750000D03*
X91500000Y-113000000D03*
X149000000Y-91000000D03*
X129750000Y-101250000D03*
X106500000Y-117250000D03*
X135750000Y-75500000D03*
X157250000Y-116250000D03*
X165250000Y-106750000D03*
X149500000Y-116500000D03*
X157500000Y-108250000D03*
X148750000Y-100250000D03*
X135750000Y-84500000D03*
D28*
X109000000Y-102250000D02*
X112500000Y-102250000D01*
X115500000Y-102190000D02*
X115440000Y-102250000D01*
X111800000Y-98795000D02*
X111800000Y-101550000D01*
X115440000Y-102250000D02*
X112500000Y-102250000D01*
X111800000Y-101550000D02*
X112500000Y-102250000D01*
D29*
X105500000Y-87000000D02*
X105000000Y-86500000D01*
X101310000Y-86500000D02*
X101310000Y-83500000D01*
X106720000Y-88220000D02*
X105500000Y-87000000D01*
X105000000Y-86500000D02*
X101310000Y-86500000D01*
X106720000Y-91175000D02*
X106720000Y-88220000D01*
X109000000Y-79690000D02*
X105309876Y-75999876D01*
X105309876Y-75999876D02*
X104000000Y-75999876D01*
X94459510Y-74290374D02*
X95790374Y-74290374D01*
X99000000Y-75999876D02*
X97499876Y-75999876D01*
X97499876Y-75999876D02*
X96125000Y-74625000D01*
X95790374Y-74290374D02*
X96125000Y-74625000D01*
D28*
X158000000Y-86750000D02*
X162800000Y-86750000D01*
X152000000Y-73500000D02*
X153220000Y-72280000D01*
X157750000Y-78250000D02*
X158000000Y-78500000D01*
D29*
X157000000Y-88955000D02*
X157000000Y-87750000D01*
X157000000Y-87750000D02*
X158000000Y-86750000D01*
D28*
X156000000Y-78250000D02*
X157750000Y-78250000D01*
X158000000Y-78500000D02*
X158000000Y-86750000D01*
X152000000Y-77500000D02*
X152000000Y-73500000D01*
X153220000Y-72280000D02*
X155795000Y-72280000D01*
X156000000Y-78250000D02*
X152750000Y-78250000D01*
X152750000Y-78250000D02*
X152000000Y-77500000D01*
D29*
X109690000Y-66000000D02*
X106265000Y-66000000D01*
D28*
X158000000Y-97575000D02*
X158000000Y-100000000D01*
X157000000Y-96575000D02*
X158000000Y-97575000D01*
X161870000Y-74820000D02*
X162300000Y-75250000D01*
X155795000Y-74820000D02*
X161870000Y-74820000D01*
X160290000Y-69740000D02*
X162300000Y-71750000D01*
X159750000Y-69740000D02*
X155795000Y-69740000D01*
X159750000Y-69740000D02*
X160290000Y-69740000D01*
X115500000Y-109810000D02*
X115500000Y-113000000D01*
X116600000Y-114100000D02*
X122220000Y-114100000D01*
X115500000Y-113000000D02*
X116600000Y-114100000D01*
D29*
X119000000Y-66000000D02*
X117310000Y-66000000D01*
X122220000Y-65840000D02*
X119160000Y-65840000D01*
X119160000Y-65840000D02*
X119000000Y-66000000D01*
X109260000Y-91175000D02*
X109260000Y-87570000D01*
X109000000Y-82690000D02*
X112000000Y-79690000D01*
X109260000Y-87570000D02*
X109000000Y-87310000D01*
X109000000Y-87310000D02*
X109000000Y-82690000D01*
X112000000Y-87310000D02*
X112000000Y-90975000D01*
X111800000Y-91175000D02*
X122155000Y-91175000D01*
X112000000Y-90975000D02*
X111800000Y-91175000D01*
X122155000Y-91175000D02*
X122220000Y-91240000D01*
X146820000Y-74820000D02*
X148175000Y-74820000D01*
X140000000Y-68380000D02*
X143380000Y-68380000D01*
X145500000Y-70500000D02*
X145500000Y-73500000D01*
X143380000Y-68380000D02*
X145500000Y-70500000D01*
X145500000Y-73500000D02*
X146820000Y-74820000D01*
X140000000Y-65840000D02*
X143340000Y-65840000D01*
X143340000Y-65840000D02*
X147240000Y-69740000D01*
X147240000Y-69740000D02*
X148175000Y-69740000D01*
M02*
