%TF.GenerationSoftware,KiCad,Pcbnew,8.0.0*%
%TF.CreationDate,2024-03-17T16:54:24+01:00*%
%TF.ProjectId,soundgun,736f756e-6467-4756-9e2e-6b696361645f,rev?*%
%TF.SameCoordinates,Original*%
%TF.FileFunction,Drillmap*%
%TF.FilePolarity,Positive*%
%FSLAX45Y45*%
G04 Gerber Fmt 4.5, Leading zero omitted, Abs format (unit mm)*
G04 Created by KiCad (PCBNEW 8.0.0) date 2024-03-17 16:54:24*
%MOMM*%
%LPD*%
G01*
G04 APERTURE LIST*
%ADD10C,0.100000*%
%ADD11C,0.200000*%
%ADD12C,0.102000*%
%ADD13C,0.110000*%
%ADD14C,0.120000*%
%ADD15C,0.320000*%
G04 APERTURE END LIST*
D10*
X8000000Y-6000000D02*
X16750000Y-6000000D01*
X16750000Y-12000000D01*
X8000000Y-12000000D01*
X8000000Y-6000000D01*
D11*
D10*
X8360000Y-8760000D02*
X8390000Y-8790000D01*
X8390000Y-8760000D02*
X8360000Y-8790000D01*
X8360000Y-10235000D02*
X8390000Y-10265000D01*
X8390000Y-10235000D02*
X8360000Y-10265000D01*
X8385000Y-9560000D02*
X8415000Y-9590000D01*
X8415000Y-9560000D02*
X8385000Y-9590000D01*
X8385000Y-10810000D02*
X8415000Y-10840000D01*
X8415000Y-10810000D02*
X8385000Y-10840000D01*
X9135000Y-11285000D02*
X9165000Y-11315000D01*
X9165000Y-11285000D02*
X9135000Y-11315000D01*
X9185000Y-6385000D02*
X9215000Y-6415000D01*
X9215000Y-6385000D02*
X9185000Y-6415000D01*
X9610000Y-6860000D02*
X9640000Y-6890000D01*
X9640000Y-6860000D02*
X9610000Y-6890000D01*
X9685000Y-11710000D02*
X9715000Y-11740000D01*
X9715000Y-11710000D02*
X9685000Y-11740000D01*
X10010000Y-6385000D02*
X10040000Y-6415000D01*
X10040000Y-6385000D02*
X10010000Y-6415000D01*
X10635000Y-11710000D02*
X10665000Y-11740000D01*
X10665000Y-11710000D02*
X10635000Y-11740000D01*
X11085000Y-6285000D02*
X11115000Y-6315000D01*
X11115000Y-6285000D02*
X11085000Y-6315000D01*
X11235000Y-7235000D02*
X11265000Y-7265000D01*
X11265000Y-7235000D02*
X11235000Y-7265000D01*
X11410000Y-11710000D02*
X11440000Y-11740000D01*
X11440000Y-11710000D02*
X11410000Y-11740000D01*
X11860000Y-6260000D02*
X11890000Y-6290000D01*
X11890000Y-6260000D02*
X11860000Y-6290000D01*
X12710000Y-7960000D02*
X12740000Y-7990000D01*
X12740000Y-7960000D02*
X12710000Y-7990000D01*
X12760000Y-7085000D02*
X12790000Y-7115000D01*
X12790000Y-7085000D02*
X12760000Y-7115000D01*
X12910000Y-9010000D02*
X12940000Y-9040000D01*
X12940000Y-9010000D02*
X12910000Y-9040000D01*
X12960000Y-10110000D02*
X12990000Y-10140000D01*
X12990000Y-10110000D02*
X12960000Y-10140000D01*
X13460000Y-9585000D02*
X13490000Y-9615000D01*
X13490000Y-9585000D02*
X13460000Y-9615000D01*
X13560000Y-7535000D02*
X13590000Y-7565000D01*
X13590000Y-7535000D02*
X13560000Y-7565000D01*
X13560000Y-8435000D02*
X13590000Y-8465000D01*
X13590000Y-8435000D02*
X13560000Y-8465000D01*
X14385000Y-6285000D02*
X14415000Y-6315000D01*
X14415000Y-6285000D02*
X14385000Y-6315000D01*
X14860000Y-10010000D02*
X14890000Y-10040000D01*
X14890000Y-10010000D02*
X14860000Y-10040000D01*
X14885000Y-8210000D02*
X14915000Y-8240000D01*
X14915000Y-8210000D02*
X14885000Y-8240000D01*
X14885000Y-9085000D02*
X14915000Y-9115000D01*
X14915000Y-9085000D02*
X14885000Y-9115000D01*
X14885000Y-10885000D02*
X14915000Y-10915000D01*
X14915000Y-10885000D02*
X14885000Y-10915000D01*
X14935000Y-11635000D02*
X14965000Y-11665000D01*
X14965000Y-11635000D02*
X14935000Y-11665000D01*
X15435000Y-6260000D02*
X15465000Y-6290000D01*
X15465000Y-6260000D02*
X15435000Y-6290000D01*
X15710000Y-11610000D02*
X15740000Y-11640000D01*
X15740000Y-11610000D02*
X15710000Y-11640000D01*
X15735000Y-10810000D02*
X15765000Y-10840000D01*
X15765000Y-10810000D02*
X15735000Y-10840000D01*
X16485000Y-9160000D02*
X16515000Y-9190000D01*
X16515000Y-9160000D02*
X16485000Y-9190000D01*
X16510000Y-10660000D02*
X16540000Y-10690000D01*
X16540000Y-10660000D02*
X16510000Y-10690000D01*
X16535000Y-9860000D02*
X16565000Y-9890000D01*
X16565000Y-9860000D02*
X16535000Y-9890000D01*
X9404000Y-8350000D02*
G75*
G02*
X9334000Y-8350000I-35000J0D01*
G01*
X9334000Y-8350000D02*
G75*
G02*
X9404000Y-8350000I35000J0D01*
G01*
X9404000Y-8650000D02*
G75*
G02*
X9334000Y-8650000I-35000J0D01*
G01*
X9334000Y-8650000D02*
G75*
G02*
X9404000Y-8650000I35000J0D01*
G01*
X10166000Y-8350000D02*
G75*
G02*
X10096000Y-8350000I-35000J0D01*
G01*
X10096000Y-8350000D02*
G75*
G02*
X10166000Y-8350000I35000J0D01*
G01*
X10166000Y-8650000D02*
G75*
G02*
X10096000Y-8650000I-35000J0D01*
G01*
X10096000Y-8650000D02*
G75*
G02*
X10166000Y-8650000I35000J0D01*
G01*
X10935000Y-7969000D02*
G75*
G02*
X10865000Y-7969000I-35000J0D01*
G01*
X10865000Y-7969000D02*
G75*
G02*
X10935000Y-7969000I35000J0D01*
G01*
X10935000Y-8731000D02*
G75*
G02*
X10865000Y-8731000I-35000J0D01*
G01*
X10865000Y-8731000D02*
G75*
G02*
X10935000Y-8731000I35000J0D01*
G01*
X11004000Y-6600000D02*
G75*
G02*
X10934000Y-6600000I-35000J0D01*
G01*
X10934000Y-6600000D02*
G75*
G02*
X11004000Y-6600000I35000J0D01*
G01*
X11235000Y-7969000D02*
G75*
G02*
X11165000Y-7969000I-35000J0D01*
G01*
X11165000Y-7969000D02*
G75*
G02*
X11235000Y-7969000I35000J0D01*
G01*
X11235000Y-8731000D02*
G75*
G02*
X11165000Y-8731000I-35000J0D01*
G01*
X11165000Y-8731000D02*
G75*
G02*
X11235000Y-8731000I35000J0D01*
G01*
X11585000Y-10219000D02*
G75*
G02*
X11515000Y-10219000I-35000J0D01*
G01*
X11515000Y-10219000D02*
G75*
G02*
X11585000Y-10219000I35000J0D01*
G01*
X11585000Y-10981000D02*
G75*
G02*
X11515000Y-10981000I-35000J0D01*
G01*
X11515000Y-10981000D02*
G75*
G02*
X11585000Y-10981000I35000J0D01*
G01*
X11766000Y-6600000D02*
G75*
G02*
X11696000Y-6600000I-35000J0D01*
G01*
X11696000Y-6600000D02*
G75*
G02*
X11766000Y-6600000I35000J0D01*
G01*
X15735000Y-8895500D02*
G75*
G02*
X15665000Y-8895500I-35000J0D01*
G01*
X15665000Y-8895500D02*
G75*
G02*
X15735000Y-8895500I35000J0D01*
G01*
X15735000Y-9657500D02*
G75*
G02*
X15665000Y-9657500I-35000J0D01*
G01*
X15665000Y-9657500D02*
G75*
G02*
X15735000Y-9657500I35000J0D01*
G01*
X9900000Y-7559988D02*
X9900000Y-7639988D01*
X9860000Y-7599988D02*
X9940000Y-7599988D01*
X10400000Y-7559988D02*
X10400000Y-7639988D01*
X10360000Y-7599988D02*
X10440000Y-7599988D01*
X10418000Y-9077500D02*
X10418000Y-9157500D01*
X10378000Y-9117500D02*
X10458000Y-9117500D01*
X10418000Y-9839500D02*
X10418000Y-9919500D01*
X10378000Y-9879500D02*
X10458000Y-9879500D01*
X10550000Y-8160000D02*
X10550000Y-8240000D01*
X10510000Y-8200000D02*
X10590000Y-8200000D01*
X10550000Y-8660000D02*
X10550000Y-8740000D01*
X10510000Y-8700000D02*
X10590000Y-8700000D01*
X10672000Y-9077500D02*
X10672000Y-9157500D01*
X10632000Y-9117500D02*
X10712000Y-9117500D01*
X10672000Y-9839500D02*
X10672000Y-9919500D01*
X10632000Y-9879500D02*
X10712000Y-9879500D01*
X10900000Y-10185000D02*
X10900000Y-10265000D01*
X10860000Y-10225000D02*
X10940000Y-10225000D01*
X10900000Y-10685000D02*
X10900000Y-10765000D01*
X10860000Y-10725000D02*
X10940000Y-10725000D01*
X10926000Y-9077500D02*
X10926000Y-9157500D01*
X10886000Y-9117500D02*
X10966000Y-9117500D01*
X10926000Y-9839500D02*
X10926000Y-9919500D01*
X10886000Y-9879500D02*
X10966000Y-9879500D01*
X11180000Y-9077500D02*
X11180000Y-9157500D01*
X11140000Y-9117500D02*
X11220000Y-9117500D01*
X11180000Y-9839500D02*
X11180000Y-9919500D01*
X11140000Y-9879500D02*
X11220000Y-9879500D01*
X11250000Y-10185000D02*
X11250000Y-10265000D01*
X11210000Y-10225000D02*
X11290000Y-10225000D01*
X11250000Y-10435000D02*
X11250000Y-10515000D01*
X11210000Y-10475000D02*
X11290000Y-10475000D01*
X14817500Y-6680000D02*
X14817500Y-6760000D01*
X14777500Y-6720000D02*
X14857500Y-6720000D01*
X14817500Y-6934000D02*
X14817500Y-7014000D01*
X14777500Y-6974000D02*
X14857500Y-6974000D01*
X14817500Y-7188000D02*
X14817500Y-7268000D01*
X14777500Y-7228000D02*
X14857500Y-7228000D01*
X14817500Y-7442000D02*
X14817500Y-7522000D01*
X14777500Y-7482000D02*
X14857500Y-7482000D01*
X15579500Y-6680000D02*
X15579500Y-6760000D01*
X15539500Y-6720000D02*
X15619500Y-6720000D01*
X15579500Y-6934000D02*
X15579500Y-7014000D01*
X15539500Y-6974000D02*
X15619500Y-6974000D01*
X15579500Y-7188000D02*
X15579500Y-7268000D01*
X15539500Y-7228000D02*
X15619500Y-7228000D01*
X15579500Y-7442000D02*
X15579500Y-7522000D01*
X15539500Y-7482000D02*
X15619500Y-7482000D01*
X15600000Y-7785000D02*
X15600000Y-7865000D01*
X15560000Y-7825000D02*
X15640000Y-7825000D01*
X15600000Y-8035000D02*
X15600000Y-8115000D01*
X15560000Y-8075000D02*
X15640000Y-8075000D01*
X10404320Y-6631820D02*
X10404320Y-6568180D01*
X10340680Y-6568180D01*
X10340680Y-6631820D01*
X10404320Y-6631820D01*
X10658320Y-6631820D02*
X10658320Y-6568180D01*
X10594680Y-6568180D01*
X10594680Y-6631820D01*
X10658320Y-6631820D01*
X15831820Y-10031820D02*
X15831820Y-9968180D01*
X15768180Y-9968180D01*
X15768180Y-10031820D01*
X15831820Y-10031820D01*
X15831820Y-10285820D02*
X15831820Y-10222180D01*
X15768180Y-10222180D01*
X15768180Y-10285820D01*
X15831820Y-10285820D01*
D12*
X12222000Y-6635000D02*
X12273000Y-6584000D01*
X12222000Y-6533000D01*
X12171000Y-6584000D01*
X12222000Y-6635000D01*
X12222000Y-6889000D02*
X12273000Y-6838000D01*
X12222000Y-6787000D01*
X12171000Y-6838000D01*
X12222000Y-6889000D01*
X12222000Y-7143000D02*
X12273000Y-7092000D01*
X12222000Y-7041000D01*
X12171000Y-7092000D01*
X12222000Y-7143000D01*
X12222000Y-7397000D02*
X12273000Y-7346000D01*
X12222000Y-7295000D01*
X12171000Y-7346000D01*
X12222000Y-7397000D01*
X12222000Y-7651000D02*
X12273000Y-7600000D01*
X12222000Y-7549000D01*
X12171000Y-7600000D01*
X12222000Y-7651000D01*
X12222000Y-7905000D02*
X12273000Y-7854000D01*
X12222000Y-7803000D01*
X12171000Y-7854000D01*
X12222000Y-7905000D01*
X12222000Y-8159000D02*
X12273000Y-8108000D01*
X12222000Y-8057000D01*
X12171000Y-8108000D01*
X12222000Y-8159000D01*
X12222000Y-8413000D02*
X12273000Y-8362000D01*
X12222000Y-8311000D01*
X12171000Y-8362000D01*
X12222000Y-8413000D01*
X12222000Y-8667000D02*
X12273000Y-8616000D01*
X12222000Y-8565000D01*
X12171000Y-8616000D01*
X12222000Y-8667000D01*
X12222000Y-8921000D02*
X12273000Y-8870000D01*
X12222000Y-8819000D01*
X12171000Y-8870000D01*
X12222000Y-8921000D01*
X12222000Y-9175000D02*
X12273000Y-9124000D01*
X12222000Y-9073000D01*
X12171000Y-9124000D01*
X12222000Y-9175000D01*
X12222000Y-9429000D02*
X12273000Y-9378000D01*
X12222000Y-9327000D01*
X12171000Y-9378000D01*
X12222000Y-9429000D01*
X12222000Y-9683000D02*
X12273000Y-9632000D01*
X12222000Y-9581000D01*
X12171000Y-9632000D01*
X12222000Y-9683000D01*
X12222000Y-9937000D02*
X12273000Y-9886000D01*
X12222000Y-9835000D01*
X12171000Y-9886000D01*
X12222000Y-9937000D01*
X12222000Y-10191000D02*
X12273000Y-10140000D01*
X12222000Y-10089000D01*
X12171000Y-10140000D01*
X12222000Y-10191000D01*
X12222000Y-10445000D02*
X12273000Y-10394000D01*
X12222000Y-10343000D01*
X12171000Y-10394000D01*
X12222000Y-10445000D01*
X12222000Y-10699000D02*
X12273000Y-10648000D01*
X12222000Y-10597000D01*
X12171000Y-10648000D01*
X12222000Y-10699000D01*
X12222000Y-10953000D02*
X12273000Y-10902000D01*
X12222000Y-10851000D01*
X12171000Y-10902000D01*
X12222000Y-10953000D01*
X12222000Y-11207000D02*
X12273000Y-11156000D01*
X12222000Y-11105000D01*
X12171000Y-11156000D01*
X12222000Y-11207000D01*
X12222000Y-11461000D02*
X12273000Y-11410000D01*
X12222000Y-11359000D01*
X12171000Y-11410000D01*
X12222000Y-11461000D01*
X12857000Y-6658000D02*
X12908000Y-6607000D01*
X12857000Y-6556000D01*
X12806000Y-6607000D01*
X12857000Y-6658000D01*
X13111000Y-6658000D02*
X13162000Y-6607000D01*
X13111000Y-6556000D01*
X13060000Y-6607000D01*
X13111000Y-6658000D01*
X13365000Y-6658000D02*
X13416000Y-6607000D01*
X13365000Y-6556000D01*
X13314000Y-6607000D01*
X13365000Y-6658000D01*
X14000000Y-6635000D02*
X14051000Y-6584000D01*
X14000000Y-6533000D01*
X13949000Y-6584000D01*
X14000000Y-6635000D01*
X14000000Y-6889000D02*
X14051000Y-6838000D01*
X14000000Y-6787000D01*
X13949000Y-6838000D01*
X14000000Y-6889000D01*
X14000000Y-7143000D02*
X14051000Y-7092000D01*
X14000000Y-7041000D01*
X13949000Y-7092000D01*
X14000000Y-7143000D01*
X14000000Y-7397000D02*
X14051000Y-7346000D01*
X14000000Y-7295000D01*
X13949000Y-7346000D01*
X14000000Y-7397000D01*
X14000000Y-7651000D02*
X14051000Y-7600000D01*
X14000000Y-7549000D01*
X13949000Y-7600000D01*
X14000000Y-7651000D01*
X14000000Y-7905000D02*
X14051000Y-7854000D01*
X14000000Y-7803000D01*
X13949000Y-7854000D01*
X14000000Y-7905000D01*
X14000000Y-8159000D02*
X14051000Y-8108000D01*
X14000000Y-8057000D01*
X13949000Y-8108000D01*
X14000000Y-8159000D01*
X14000000Y-8413000D02*
X14051000Y-8362000D01*
X14000000Y-8311000D01*
X13949000Y-8362000D01*
X14000000Y-8413000D01*
X14000000Y-8667000D02*
X14051000Y-8616000D01*
X14000000Y-8565000D01*
X13949000Y-8616000D01*
X14000000Y-8667000D01*
X14000000Y-8921000D02*
X14051000Y-8870000D01*
X14000000Y-8819000D01*
X13949000Y-8870000D01*
X14000000Y-8921000D01*
X14000000Y-9175000D02*
X14051000Y-9124000D01*
X14000000Y-9073000D01*
X13949000Y-9124000D01*
X14000000Y-9175000D01*
X14000000Y-9429000D02*
X14051000Y-9378000D01*
X14000000Y-9327000D01*
X13949000Y-9378000D01*
X14000000Y-9429000D01*
X14000000Y-9683000D02*
X14051000Y-9632000D01*
X14000000Y-9581000D01*
X13949000Y-9632000D01*
X14000000Y-9683000D01*
X14000000Y-9937000D02*
X14051000Y-9886000D01*
X14000000Y-9835000D01*
X13949000Y-9886000D01*
X14000000Y-9937000D01*
X14000000Y-10191000D02*
X14051000Y-10140000D01*
X14000000Y-10089000D01*
X13949000Y-10140000D01*
X14000000Y-10191000D01*
X14000000Y-10445000D02*
X14051000Y-10394000D01*
X14000000Y-10343000D01*
X13949000Y-10394000D01*
X14000000Y-10445000D01*
X14000000Y-10699000D02*
X14051000Y-10648000D01*
X14000000Y-10597000D01*
X13949000Y-10648000D01*
X14000000Y-10699000D01*
X14000000Y-10953000D02*
X14051000Y-10902000D01*
X14000000Y-10851000D01*
X13949000Y-10902000D01*
X14000000Y-10953000D01*
X14000000Y-11207000D02*
X14051000Y-11156000D01*
X14000000Y-11105000D01*
X13949000Y-11156000D01*
X14000000Y-11207000D01*
X14000000Y-11461000D02*
X14051000Y-11410000D01*
X14000000Y-11359000D01*
X13949000Y-11410000D01*
X14000000Y-11461000D01*
D13*
X8860951Y-7799056D02*
X8970951Y-7909056D01*
X8970951Y-7799056D02*
X8860951Y-7909056D01*
X8970951Y-7854056D02*
G75*
G02*
X8860951Y-7854056I-55000J0D01*
G01*
X8860951Y-7854056D02*
G75*
G02*
X8970951Y-7854056I55000J0D01*
G01*
D10*
X8935951Y-7799056D02*
X8895951Y-7799056D01*
X8895951Y-7909056D02*
G75*
G02*
X8895951Y-7799056I0J55000D01*
G01*
X8895951Y-7909056D02*
X8935951Y-7909056D01*
X8935951Y-7909056D02*
G75*
G03*
X8935951Y-7799056I0J55000D01*
G01*
D13*
X9390951Y-7374037D02*
X9500951Y-7484037D01*
X9500951Y-7374037D02*
X9390951Y-7484037D01*
X9500951Y-7429037D02*
G75*
G02*
X9390951Y-7429037I-55000J0D01*
G01*
X9390951Y-7429037D02*
G75*
G02*
X9500951Y-7429037I55000J0D01*
G01*
D10*
X9465951Y-7374037D02*
X9425951Y-7374037D01*
X9425951Y-7484037D02*
G75*
G02*
X9425951Y-7374037I0J55000D01*
G01*
X9425951Y-7484037D02*
X9465951Y-7484037D01*
X9465951Y-7484037D02*
G75*
G03*
X9465951Y-7374037I0J55000D01*
G01*
D13*
X9390951Y-7924037D02*
X9500951Y-8034037D01*
X9500951Y-7924037D02*
X9390951Y-8034037D01*
X9500951Y-7979037D02*
G75*
G02*
X9390951Y-7979037I-55000J0D01*
G01*
X9390951Y-7979037D02*
G75*
G02*
X9500951Y-7979037I55000J0D01*
G01*
D10*
X9465951Y-7924037D02*
X9425951Y-7924037D01*
X9425951Y-8034037D02*
G75*
G02*
X9425951Y-7924037I0J55000D01*
G01*
X9425951Y-8034037D02*
X9465951Y-8034037D01*
X9465951Y-8034037D02*
G75*
G03*
X9465951Y-7924037I0J55000D01*
G01*
D14*
X16170000Y-7115000D02*
X16290000Y-7235000D01*
X16290000Y-7115000D02*
X16170000Y-7235000D01*
X16230000Y-7115000D02*
X16230000Y-7235000D01*
X16170000Y-7175000D02*
X16290000Y-7175000D01*
X16170000Y-7465000D02*
X16290000Y-7585000D01*
X16290000Y-7465000D02*
X16170000Y-7585000D01*
X16230000Y-7465000D02*
X16230000Y-7585000D01*
X16170000Y-7525000D02*
X16290000Y-7525000D01*
X16170000Y-8265000D02*
X16290000Y-8385000D01*
X16290000Y-8265000D02*
X16170000Y-8385000D01*
X16230000Y-8265000D02*
X16230000Y-8385000D01*
X16170000Y-8325000D02*
X16290000Y-8325000D01*
X16170000Y-8615000D02*
X16290000Y-8735000D01*
X16290000Y-8615000D02*
X16170000Y-8735000D01*
X16230000Y-8615000D02*
X16230000Y-8735000D01*
X16170000Y-8675000D02*
X16290000Y-8675000D01*
D15*
X8340000Y-6340000D02*
X8660000Y-6660000D01*
X8660000Y-6340000D02*
X8340000Y-6660000D01*
X8613138Y-6613138D02*
X8613138Y-6386862D01*
X8386862Y-6386862D01*
X8386862Y-6613138D01*
X8613138Y-6613138D01*
X8340000Y-11340000D02*
X8660000Y-11660000D01*
X8660000Y-11340000D02*
X8340000Y-11660000D01*
X8613138Y-11613138D02*
X8613138Y-11386862D01*
X8386862Y-11386862D01*
X8386862Y-11613138D01*
X8613138Y-11613138D01*
X16090000Y-6340000D02*
X16410000Y-6660000D01*
X16410000Y-6340000D02*
X16090000Y-6660000D01*
X16363138Y-6613138D02*
X16363138Y-6386862D01*
X16136862Y-6386862D01*
X16136862Y-6613138D01*
X16363138Y-6613138D01*
X16090000Y-11340000D02*
X16410000Y-11660000D01*
X16410000Y-11340000D02*
X16090000Y-11660000D01*
X16363138Y-11613138D02*
X16363138Y-11386862D01*
X16136862Y-11386862D01*
X16136862Y-11613138D01*
X16363138Y-11613138D01*
D11*
X8255777Y-12316484D02*
X8255777Y-12116484D01*
X8255777Y-12116484D02*
X8303396Y-12116484D01*
X8303396Y-12116484D02*
X8331967Y-12126008D01*
X8331967Y-12126008D02*
X8351015Y-12145055D01*
X8351015Y-12145055D02*
X8360539Y-12164103D01*
X8360539Y-12164103D02*
X8370062Y-12202198D01*
X8370062Y-12202198D02*
X8370062Y-12230769D01*
X8370062Y-12230769D02*
X8360539Y-12268865D01*
X8360539Y-12268865D02*
X8351015Y-12287912D01*
X8351015Y-12287912D02*
X8331967Y-12306960D01*
X8331967Y-12306960D02*
X8303396Y-12316484D01*
X8303396Y-12316484D02*
X8255777Y-12316484D01*
X8455777Y-12316484D02*
X8455777Y-12183150D01*
X8455777Y-12221246D02*
X8465301Y-12202198D01*
X8465301Y-12202198D02*
X8474824Y-12192674D01*
X8474824Y-12192674D02*
X8493872Y-12183150D01*
X8493872Y-12183150D02*
X8512920Y-12183150D01*
X8579586Y-12316484D02*
X8579586Y-12183150D01*
X8579586Y-12116484D02*
X8570063Y-12126008D01*
X8570063Y-12126008D02*
X8579586Y-12135531D01*
X8579586Y-12135531D02*
X8589110Y-12126008D01*
X8589110Y-12126008D02*
X8579586Y-12116484D01*
X8579586Y-12116484D02*
X8579586Y-12135531D01*
X8703396Y-12316484D02*
X8684348Y-12306960D01*
X8684348Y-12306960D02*
X8674824Y-12287912D01*
X8674824Y-12287912D02*
X8674824Y-12116484D01*
X8808158Y-12316484D02*
X8789110Y-12306960D01*
X8789110Y-12306960D02*
X8779586Y-12287912D01*
X8779586Y-12287912D02*
X8779586Y-12116484D01*
X9036729Y-12316484D02*
X9036729Y-12116484D01*
X9036729Y-12116484D02*
X9103396Y-12259341D01*
X9103396Y-12259341D02*
X9170063Y-12116484D01*
X9170063Y-12116484D02*
X9170063Y-12316484D01*
X9351015Y-12316484D02*
X9351015Y-12211722D01*
X9351015Y-12211722D02*
X9341491Y-12192674D01*
X9341491Y-12192674D02*
X9322444Y-12183150D01*
X9322444Y-12183150D02*
X9284348Y-12183150D01*
X9284348Y-12183150D02*
X9265301Y-12192674D01*
X9351015Y-12306960D02*
X9331967Y-12316484D01*
X9331967Y-12316484D02*
X9284348Y-12316484D01*
X9284348Y-12316484D02*
X9265301Y-12306960D01*
X9265301Y-12306960D02*
X9255777Y-12287912D01*
X9255777Y-12287912D02*
X9255777Y-12268865D01*
X9255777Y-12268865D02*
X9265301Y-12249817D01*
X9265301Y-12249817D02*
X9284348Y-12240293D01*
X9284348Y-12240293D02*
X9331967Y-12240293D01*
X9331967Y-12240293D02*
X9351015Y-12230769D01*
X9446253Y-12183150D02*
X9446253Y-12383150D01*
X9446253Y-12192674D02*
X9465301Y-12183150D01*
X9465301Y-12183150D02*
X9503396Y-12183150D01*
X9503396Y-12183150D02*
X9522444Y-12192674D01*
X9522444Y-12192674D02*
X9531967Y-12202198D01*
X9531967Y-12202198D02*
X9541491Y-12221246D01*
X9541491Y-12221246D02*
X9541491Y-12278388D01*
X9541491Y-12278388D02*
X9531967Y-12297436D01*
X9531967Y-12297436D02*
X9522444Y-12306960D01*
X9522444Y-12306960D02*
X9503396Y-12316484D01*
X9503396Y-12316484D02*
X9465301Y-12316484D01*
X9465301Y-12316484D02*
X9446253Y-12306960D01*
X9627205Y-12297436D02*
X9636729Y-12306960D01*
X9636729Y-12306960D02*
X9627205Y-12316484D01*
X9627205Y-12316484D02*
X9617682Y-12306960D01*
X9617682Y-12306960D02*
X9627205Y-12297436D01*
X9627205Y-12297436D02*
X9627205Y-12316484D01*
X9627205Y-12192674D02*
X9636729Y-12202198D01*
X9636729Y-12202198D02*
X9627205Y-12211722D01*
X9627205Y-12211722D02*
X9617682Y-12202198D01*
X9617682Y-12202198D02*
X9627205Y-12192674D01*
X9627205Y-12192674D02*
X9627205Y-12211722D01*
D10*
X7965000Y-12630000D02*
X7995000Y-12660000D01*
X7995000Y-12630000D02*
X7965000Y-12660000D01*
D11*
X8293872Y-12536484D02*
X8312920Y-12536484D01*
X8312920Y-12536484D02*
X8331967Y-12546008D01*
X8331967Y-12546008D02*
X8341491Y-12555531D01*
X8341491Y-12555531D02*
X8351015Y-12574579D01*
X8351015Y-12574579D02*
X8360539Y-12612674D01*
X8360539Y-12612674D02*
X8360539Y-12660293D01*
X8360539Y-12660293D02*
X8351015Y-12698388D01*
X8351015Y-12698388D02*
X8341491Y-12717436D01*
X8341491Y-12717436D02*
X8331967Y-12726960D01*
X8331967Y-12726960D02*
X8312920Y-12736484D01*
X8312920Y-12736484D02*
X8293872Y-12736484D01*
X8293872Y-12736484D02*
X8274824Y-12726960D01*
X8274824Y-12726960D02*
X8265301Y-12717436D01*
X8265301Y-12717436D02*
X8255777Y-12698388D01*
X8255777Y-12698388D02*
X8246253Y-12660293D01*
X8246253Y-12660293D02*
X8246253Y-12612674D01*
X8246253Y-12612674D02*
X8255777Y-12574579D01*
X8255777Y-12574579D02*
X8265301Y-12555531D01*
X8265301Y-12555531D02*
X8274824Y-12546008D01*
X8274824Y-12546008D02*
X8293872Y-12536484D01*
X8446253Y-12717436D02*
X8455777Y-12726960D01*
X8455777Y-12726960D02*
X8446253Y-12736484D01*
X8446253Y-12736484D02*
X8436729Y-12726960D01*
X8436729Y-12726960D02*
X8446253Y-12717436D01*
X8446253Y-12717436D02*
X8446253Y-12736484D01*
X8522444Y-12536484D02*
X8646253Y-12536484D01*
X8646253Y-12536484D02*
X8579586Y-12612674D01*
X8579586Y-12612674D02*
X8608158Y-12612674D01*
X8608158Y-12612674D02*
X8627205Y-12622198D01*
X8627205Y-12622198D02*
X8636729Y-12631722D01*
X8636729Y-12631722D02*
X8646253Y-12650769D01*
X8646253Y-12650769D02*
X8646253Y-12698388D01*
X8646253Y-12698388D02*
X8636729Y-12717436D01*
X8636729Y-12717436D02*
X8627205Y-12726960D01*
X8627205Y-12726960D02*
X8608158Y-12736484D01*
X8608158Y-12736484D02*
X8551015Y-12736484D01*
X8551015Y-12736484D02*
X8531967Y-12726960D01*
X8531967Y-12726960D02*
X8522444Y-12717436D01*
X8770063Y-12536484D02*
X8789110Y-12536484D01*
X8789110Y-12536484D02*
X8808158Y-12546008D01*
X8808158Y-12546008D02*
X8817682Y-12555531D01*
X8817682Y-12555531D02*
X8827205Y-12574579D01*
X8827205Y-12574579D02*
X8836729Y-12612674D01*
X8836729Y-12612674D02*
X8836729Y-12660293D01*
X8836729Y-12660293D02*
X8827205Y-12698388D01*
X8827205Y-12698388D02*
X8817682Y-12717436D01*
X8817682Y-12717436D02*
X8808158Y-12726960D01*
X8808158Y-12726960D02*
X8789110Y-12736484D01*
X8789110Y-12736484D02*
X8770063Y-12736484D01*
X8770063Y-12736484D02*
X8751015Y-12726960D01*
X8751015Y-12726960D02*
X8741491Y-12717436D01*
X8741491Y-12717436D02*
X8731967Y-12698388D01*
X8731967Y-12698388D02*
X8722444Y-12660293D01*
X8722444Y-12660293D02*
X8722444Y-12612674D01*
X8722444Y-12612674D02*
X8731967Y-12574579D01*
X8731967Y-12574579D02*
X8741491Y-12555531D01*
X8741491Y-12555531D02*
X8751015Y-12546008D01*
X8751015Y-12546008D02*
X8770063Y-12536484D01*
X8960539Y-12536484D02*
X8979586Y-12536484D01*
X8979586Y-12536484D02*
X8998634Y-12546008D01*
X8998634Y-12546008D02*
X9008158Y-12555531D01*
X9008158Y-12555531D02*
X9017682Y-12574579D01*
X9017682Y-12574579D02*
X9027205Y-12612674D01*
X9027205Y-12612674D02*
X9027205Y-12660293D01*
X9027205Y-12660293D02*
X9017682Y-12698388D01*
X9017682Y-12698388D02*
X9008158Y-12717436D01*
X9008158Y-12717436D02*
X8998634Y-12726960D01*
X8998634Y-12726960D02*
X8979586Y-12736484D01*
X8979586Y-12736484D02*
X8960539Y-12736484D01*
X8960539Y-12736484D02*
X8941491Y-12726960D01*
X8941491Y-12726960D02*
X8931967Y-12717436D01*
X8931967Y-12717436D02*
X8922444Y-12698388D01*
X8922444Y-12698388D02*
X8912920Y-12660293D01*
X8912920Y-12660293D02*
X8912920Y-12612674D01*
X8912920Y-12612674D02*
X8922444Y-12574579D01*
X8922444Y-12574579D02*
X8931967Y-12555531D01*
X8931967Y-12555531D02*
X8941491Y-12546008D01*
X8941491Y-12546008D02*
X8960539Y-12536484D01*
X9112920Y-12736484D02*
X9112920Y-12603150D01*
X9112920Y-12622198D02*
X9122444Y-12612674D01*
X9122444Y-12612674D02*
X9141491Y-12603150D01*
X9141491Y-12603150D02*
X9170063Y-12603150D01*
X9170063Y-12603150D02*
X9189110Y-12612674D01*
X9189110Y-12612674D02*
X9198634Y-12631722D01*
X9198634Y-12631722D02*
X9198634Y-12736484D01*
X9198634Y-12631722D02*
X9208158Y-12612674D01*
X9208158Y-12612674D02*
X9227205Y-12603150D01*
X9227205Y-12603150D02*
X9255777Y-12603150D01*
X9255777Y-12603150D02*
X9274825Y-12612674D01*
X9274825Y-12612674D02*
X9284348Y-12631722D01*
X9284348Y-12631722D02*
X9284348Y-12736484D01*
X9379586Y-12736484D02*
X9379586Y-12603150D01*
X9379586Y-12622198D02*
X9389110Y-12612674D01*
X9389110Y-12612674D02*
X9408158Y-12603150D01*
X9408158Y-12603150D02*
X9436729Y-12603150D01*
X9436729Y-12603150D02*
X9455777Y-12612674D01*
X9455777Y-12612674D02*
X9465301Y-12631722D01*
X9465301Y-12631722D02*
X9465301Y-12736484D01*
X9465301Y-12631722D02*
X9474825Y-12612674D01*
X9474825Y-12612674D02*
X9493872Y-12603150D01*
X9493872Y-12603150D02*
X9522444Y-12603150D01*
X9522444Y-12603150D02*
X9541491Y-12612674D01*
X9541491Y-12612674D02*
X9551015Y-12631722D01*
X9551015Y-12631722D02*
X9551015Y-12736484D01*
X9941491Y-12526960D02*
X9770063Y-12784103D01*
X10198634Y-12536484D02*
X10217682Y-12536484D01*
X10217682Y-12536484D02*
X10236729Y-12546008D01*
X10236729Y-12546008D02*
X10246253Y-12555531D01*
X10246253Y-12555531D02*
X10255777Y-12574579D01*
X10255777Y-12574579D02*
X10265301Y-12612674D01*
X10265301Y-12612674D02*
X10265301Y-12660293D01*
X10265301Y-12660293D02*
X10255777Y-12698388D01*
X10255777Y-12698388D02*
X10246253Y-12717436D01*
X10246253Y-12717436D02*
X10236729Y-12726960D01*
X10236729Y-12726960D02*
X10217682Y-12736484D01*
X10217682Y-12736484D02*
X10198634Y-12736484D01*
X10198634Y-12736484D02*
X10179587Y-12726960D01*
X10179587Y-12726960D02*
X10170063Y-12717436D01*
X10170063Y-12717436D02*
X10160539Y-12698388D01*
X10160539Y-12698388D02*
X10151015Y-12660293D01*
X10151015Y-12660293D02*
X10151015Y-12612674D01*
X10151015Y-12612674D02*
X10160539Y-12574579D01*
X10160539Y-12574579D02*
X10170063Y-12555531D01*
X10170063Y-12555531D02*
X10179587Y-12546008D01*
X10179587Y-12546008D02*
X10198634Y-12536484D01*
X10351015Y-12717436D02*
X10360539Y-12726960D01*
X10360539Y-12726960D02*
X10351015Y-12736484D01*
X10351015Y-12736484D02*
X10341491Y-12726960D01*
X10341491Y-12726960D02*
X10351015Y-12717436D01*
X10351015Y-12717436D02*
X10351015Y-12736484D01*
X10484348Y-12536484D02*
X10503396Y-12536484D01*
X10503396Y-12536484D02*
X10522444Y-12546008D01*
X10522444Y-12546008D02*
X10531968Y-12555531D01*
X10531968Y-12555531D02*
X10541491Y-12574579D01*
X10541491Y-12574579D02*
X10551015Y-12612674D01*
X10551015Y-12612674D02*
X10551015Y-12660293D01*
X10551015Y-12660293D02*
X10541491Y-12698388D01*
X10541491Y-12698388D02*
X10531968Y-12717436D01*
X10531968Y-12717436D02*
X10522444Y-12726960D01*
X10522444Y-12726960D02*
X10503396Y-12736484D01*
X10503396Y-12736484D02*
X10484348Y-12736484D01*
X10484348Y-12736484D02*
X10465301Y-12726960D01*
X10465301Y-12726960D02*
X10455777Y-12717436D01*
X10455777Y-12717436D02*
X10446253Y-12698388D01*
X10446253Y-12698388D02*
X10436729Y-12660293D01*
X10436729Y-12660293D02*
X10436729Y-12612674D01*
X10436729Y-12612674D02*
X10446253Y-12574579D01*
X10446253Y-12574579D02*
X10455777Y-12555531D01*
X10455777Y-12555531D02*
X10465301Y-12546008D01*
X10465301Y-12546008D02*
X10484348Y-12536484D01*
X10741491Y-12736484D02*
X10627206Y-12736484D01*
X10684348Y-12736484D02*
X10684348Y-12536484D01*
X10684348Y-12536484D02*
X10665301Y-12565055D01*
X10665301Y-12565055D02*
X10646253Y-12584103D01*
X10646253Y-12584103D02*
X10627206Y-12593627D01*
X10931968Y-12736484D02*
X10817682Y-12736484D01*
X10874825Y-12736484D02*
X10874825Y-12536484D01*
X10874825Y-12536484D02*
X10855777Y-12565055D01*
X10855777Y-12565055D02*
X10836729Y-12584103D01*
X10836729Y-12584103D02*
X10817682Y-12593627D01*
X11046253Y-12622198D02*
X11027206Y-12612674D01*
X11027206Y-12612674D02*
X11017682Y-12603150D01*
X11017682Y-12603150D02*
X11008158Y-12584103D01*
X11008158Y-12584103D02*
X11008158Y-12574579D01*
X11008158Y-12574579D02*
X11017682Y-12555531D01*
X11017682Y-12555531D02*
X11027206Y-12546008D01*
X11027206Y-12546008D02*
X11046253Y-12536484D01*
X11046253Y-12536484D02*
X11084349Y-12536484D01*
X11084349Y-12536484D02*
X11103396Y-12546008D01*
X11103396Y-12546008D02*
X11112920Y-12555531D01*
X11112920Y-12555531D02*
X11122444Y-12574579D01*
X11122444Y-12574579D02*
X11122444Y-12584103D01*
X11122444Y-12584103D02*
X11112920Y-12603150D01*
X11112920Y-12603150D02*
X11103396Y-12612674D01*
X11103396Y-12612674D02*
X11084349Y-12622198D01*
X11084349Y-12622198D02*
X11046253Y-12622198D01*
X11046253Y-12622198D02*
X11027206Y-12631722D01*
X11027206Y-12631722D02*
X11017682Y-12641246D01*
X11017682Y-12641246D02*
X11008158Y-12660293D01*
X11008158Y-12660293D02*
X11008158Y-12698388D01*
X11008158Y-12698388D02*
X11017682Y-12717436D01*
X11017682Y-12717436D02*
X11027206Y-12726960D01*
X11027206Y-12726960D02*
X11046253Y-12736484D01*
X11046253Y-12736484D02*
X11084349Y-12736484D01*
X11084349Y-12736484D02*
X11103396Y-12726960D01*
X11103396Y-12726960D02*
X11112920Y-12717436D01*
X11112920Y-12717436D02*
X11122444Y-12698388D01*
X11122444Y-12698388D02*
X11122444Y-12660293D01*
X11122444Y-12660293D02*
X11112920Y-12641246D01*
X11112920Y-12641246D02*
X11103396Y-12631722D01*
X11103396Y-12631722D02*
X11084349Y-12622198D01*
X11198634Y-12536484D02*
X11198634Y-12574579D01*
X11274825Y-12536484D02*
X11274825Y-12574579D01*
X11570063Y-12812674D02*
X11560539Y-12803150D01*
X11560539Y-12803150D02*
X11541491Y-12774579D01*
X11541491Y-12774579D02*
X11531968Y-12755531D01*
X11531968Y-12755531D02*
X11522444Y-12726960D01*
X11522444Y-12726960D02*
X11512920Y-12679341D01*
X11512920Y-12679341D02*
X11512920Y-12641246D01*
X11512920Y-12641246D02*
X11522444Y-12593627D01*
X11522444Y-12593627D02*
X11531968Y-12565055D01*
X11531968Y-12565055D02*
X11541491Y-12546008D01*
X11541491Y-12546008D02*
X11560539Y-12517436D01*
X11560539Y-12517436D02*
X11570063Y-12507912D01*
X11627206Y-12536484D02*
X11751015Y-12536484D01*
X11751015Y-12536484D02*
X11684348Y-12612674D01*
X11684348Y-12612674D02*
X11712920Y-12612674D01*
X11712920Y-12612674D02*
X11731968Y-12622198D01*
X11731968Y-12622198D02*
X11741491Y-12631722D01*
X11741491Y-12631722D02*
X11751015Y-12650769D01*
X11751015Y-12650769D02*
X11751015Y-12698388D01*
X11751015Y-12698388D02*
X11741491Y-12717436D01*
X11741491Y-12717436D02*
X11731968Y-12726960D01*
X11731968Y-12726960D02*
X11712920Y-12736484D01*
X11712920Y-12736484D02*
X11655777Y-12736484D01*
X11655777Y-12736484D02*
X11636729Y-12726960D01*
X11636729Y-12726960D02*
X11627206Y-12717436D01*
X11817682Y-12536484D02*
X11941491Y-12536484D01*
X11941491Y-12536484D02*
X11874825Y-12612674D01*
X11874825Y-12612674D02*
X11903396Y-12612674D01*
X11903396Y-12612674D02*
X11922444Y-12622198D01*
X11922444Y-12622198D02*
X11931968Y-12631722D01*
X11931968Y-12631722D02*
X11941491Y-12650769D01*
X11941491Y-12650769D02*
X11941491Y-12698388D01*
X11941491Y-12698388D02*
X11931968Y-12717436D01*
X11931968Y-12717436D02*
X11922444Y-12726960D01*
X11922444Y-12726960D02*
X11903396Y-12736484D01*
X11903396Y-12736484D02*
X11846253Y-12736484D01*
X11846253Y-12736484D02*
X11827206Y-12726960D01*
X11827206Y-12726960D02*
X11817682Y-12717436D01*
X12179587Y-12736484D02*
X12179587Y-12536484D01*
X12265301Y-12736484D02*
X12265301Y-12631722D01*
X12265301Y-12631722D02*
X12255777Y-12612674D01*
X12255777Y-12612674D02*
X12236730Y-12603150D01*
X12236730Y-12603150D02*
X12208158Y-12603150D01*
X12208158Y-12603150D02*
X12189110Y-12612674D01*
X12189110Y-12612674D02*
X12179587Y-12622198D01*
X12389110Y-12736484D02*
X12370063Y-12726960D01*
X12370063Y-12726960D02*
X12360539Y-12717436D01*
X12360539Y-12717436D02*
X12351015Y-12698388D01*
X12351015Y-12698388D02*
X12351015Y-12641246D01*
X12351015Y-12641246D02*
X12360539Y-12622198D01*
X12360539Y-12622198D02*
X12370063Y-12612674D01*
X12370063Y-12612674D02*
X12389110Y-12603150D01*
X12389110Y-12603150D02*
X12417682Y-12603150D01*
X12417682Y-12603150D02*
X12436730Y-12612674D01*
X12436730Y-12612674D02*
X12446253Y-12622198D01*
X12446253Y-12622198D02*
X12455777Y-12641246D01*
X12455777Y-12641246D02*
X12455777Y-12698388D01*
X12455777Y-12698388D02*
X12446253Y-12717436D01*
X12446253Y-12717436D02*
X12436730Y-12726960D01*
X12436730Y-12726960D02*
X12417682Y-12736484D01*
X12417682Y-12736484D02*
X12389110Y-12736484D01*
X12570063Y-12736484D02*
X12551015Y-12726960D01*
X12551015Y-12726960D02*
X12541491Y-12707912D01*
X12541491Y-12707912D02*
X12541491Y-12536484D01*
X12722444Y-12726960D02*
X12703396Y-12736484D01*
X12703396Y-12736484D02*
X12665301Y-12736484D01*
X12665301Y-12736484D02*
X12646253Y-12726960D01*
X12646253Y-12726960D02*
X12636730Y-12707912D01*
X12636730Y-12707912D02*
X12636730Y-12631722D01*
X12636730Y-12631722D02*
X12646253Y-12612674D01*
X12646253Y-12612674D02*
X12665301Y-12603150D01*
X12665301Y-12603150D02*
X12703396Y-12603150D01*
X12703396Y-12603150D02*
X12722444Y-12612674D01*
X12722444Y-12612674D02*
X12731968Y-12631722D01*
X12731968Y-12631722D02*
X12731968Y-12650769D01*
X12731968Y-12650769D02*
X12636730Y-12669817D01*
X12808158Y-12726960D02*
X12827206Y-12736484D01*
X12827206Y-12736484D02*
X12865301Y-12736484D01*
X12865301Y-12736484D02*
X12884349Y-12726960D01*
X12884349Y-12726960D02*
X12893872Y-12707912D01*
X12893872Y-12707912D02*
X12893872Y-12698388D01*
X12893872Y-12698388D02*
X12884349Y-12679341D01*
X12884349Y-12679341D02*
X12865301Y-12669817D01*
X12865301Y-12669817D02*
X12836730Y-12669817D01*
X12836730Y-12669817D02*
X12817682Y-12660293D01*
X12817682Y-12660293D02*
X12808158Y-12641246D01*
X12808158Y-12641246D02*
X12808158Y-12631722D01*
X12808158Y-12631722D02*
X12817682Y-12612674D01*
X12817682Y-12612674D02*
X12836730Y-12603150D01*
X12836730Y-12603150D02*
X12865301Y-12603150D01*
X12865301Y-12603150D02*
X12884349Y-12612674D01*
X12960539Y-12812674D02*
X12970063Y-12803150D01*
X12970063Y-12803150D02*
X12989111Y-12774579D01*
X12989111Y-12774579D02*
X12998634Y-12755531D01*
X12998634Y-12755531D02*
X13008158Y-12726960D01*
X13008158Y-12726960D02*
X13017682Y-12679341D01*
X13017682Y-12679341D02*
X13017682Y-12641246D01*
X13017682Y-12641246D02*
X13008158Y-12593627D01*
X13008158Y-12593627D02*
X12998634Y-12565055D01*
X12998634Y-12565055D02*
X12989111Y-12546008D01*
X12989111Y-12546008D02*
X12970063Y-12517436D01*
X12970063Y-12517436D02*
X12960539Y-12507912D01*
D10*
X7995000Y-12909000D02*
G75*
G02*
X7925000Y-12909000I-35000J0D01*
G01*
X7925000Y-12909000D02*
G75*
G02*
X7995000Y-12909000I35000J0D01*
G01*
D11*
X8293872Y-12800484D02*
X8312920Y-12800484D01*
X8312920Y-12800484D02*
X8331967Y-12810008D01*
X8331967Y-12810008D02*
X8341491Y-12819531D01*
X8341491Y-12819531D02*
X8351015Y-12838579D01*
X8351015Y-12838579D02*
X8360539Y-12876674D01*
X8360539Y-12876674D02*
X8360539Y-12924293D01*
X8360539Y-12924293D02*
X8351015Y-12962388D01*
X8351015Y-12962388D02*
X8341491Y-12981436D01*
X8341491Y-12981436D02*
X8331967Y-12990960D01*
X8331967Y-12990960D02*
X8312920Y-13000484D01*
X8312920Y-13000484D02*
X8293872Y-13000484D01*
X8293872Y-13000484D02*
X8274824Y-12990960D01*
X8274824Y-12990960D02*
X8265301Y-12981436D01*
X8265301Y-12981436D02*
X8255777Y-12962388D01*
X8255777Y-12962388D02*
X8246253Y-12924293D01*
X8246253Y-12924293D02*
X8246253Y-12876674D01*
X8246253Y-12876674D02*
X8255777Y-12838579D01*
X8255777Y-12838579D02*
X8265301Y-12819531D01*
X8265301Y-12819531D02*
X8274824Y-12810008D01*
X8274824Y-12810008D02*
X8293872Y-12800484D01*
X8446253Y-12981436D02*
X8455777Y-12990960D01*
X8455777Y-12990960D02*
X8446253Y-13000484D01*
X8446253Y-13000484D02*
X8436729Y-12990960D01*
X8436729Y-12990960D02*
X8446253Y-12981436D01*
X8446253Y-12981436D02*
X8446253Y-13000484D01*
X8522444Y-12800484D02*
X8655777Y-12800484D01*
X8655777Y-12800484D02*
X8570063Y-13000484D01*
X8770063Y-12800484D02*
X8789110Y-12800484D01*
X8789110Y-12800484D02*
X8808158Y-12810008D01*
X8808158Y-12810008D02*
X8817682Y-12819531D01*
X8817682Y-12819531D02*
X8827205Y-12838579D01*
X8827205Y-12838579D02*
X8836729Y-12876674D01*
X8836729Y-12876674D02*
X8836729Y-12924293D01*
X8836729Y-12924293D02*
X8827205Y-12962388D01*
X8827205Y-12962388D02*
X8817682Y-12981436D01*
X8817682Y-12981436D02*
X8808158Y-12990960D01*
X8808158Y-12990960D02*
X8789110Y-13000484D01*
X8789110Y-13000484D02*
X8770063Y-13000484D01*
X8770063Y-13000484D02*
X8751015Y-12990960D01*
X8751015Y-12990960D02*
X8741491Y-12981436D01*
X8741491Y-12981436D02*
X8731967Y-12962388D01*
X8731967Y-12962388D02*
X8722444Y-12924293D01*
X8722444Y-12924293D02*
X8722444Y-12876674D01*
X8722444Y-12876674D02*
X8731967Y-12838579D01*
X8731967Y-12838579D02*
X8741491Y-12819531D01*
X8741491Y-12819531D02*
X8751015Y-12810008D01*
X8751015Y-12810008D02*
X8770063Y-12800484D01*
X8960539Y-12800484D02*
X8979586Y-12800484D01*
X8979586Y-12800484D02*
X8998634Y-12810008D01*
X8998634Y-12810008D02*
X9008158Y-12819531D01*
X9008158Y-12819531D02*
X9017682Y-12838579D01*
X9017682Y-12838579D02*
X9027205Y-12876674D01*
X9027205Y-12876674D02*
X9027205Y-12924293D01*
X9027205Y-12924293D02*
X9017682Y-12962388D01*
X9017682Y-12962388D02*
X9008158Y-12981436D01*
X9008158Y-12981436D02*
X8998634Y-12990960D01*
X8998634Y-12990960D02*
X8979586Y-13000484D01*
X8979586Y-13000484D02*
X8960539Y-13000484D01*
X8960539Y-13000484D02*
X8941491Y-12990960D01*
X8941491Y-12990960D02*
X8931967Y-12981436D01*
X8931967Y-12981436D02*
X8922444Y-12962388D01*
X8922444Y-12962388D02*
X8912920Y-12924293D01*
X8912920Y-12924293D02*
X8912920Y-12876674D01*
X8912920Y-12876674D02*
X8922444Y-12838579D01*
X8922444Y-12838579D02*
X8931967Y-12819531D01*
X8931967Y-12819531D02*
X8941491Y-12810008D01*
X8941491Y-12810008D02*
X8960539Y-12800484D01*
X9112920Y-13000484D02*
X9112920Y-12867150D01*
X9112920Y-12886198D02*
X9122444Y-12876674D01*
X9122444Y-12876674D02*
X9141491Y-12867150D01*
X9141491Y-12867150D02*
X9170063Y-12867150D01*
X9170063Y-12867150D02*
X9189110Y-12876674D01*
X9189110Y-12876674D02*
X9198634Y-12895722D01*
X9198634Y-12895722D02*
X9198634Y-13000484D01*
X9198634Y-12895722D02*
X9208158Y-12876674D01*
X9208158Y-12876674D02*
X9227205Y-12867150D01*
X9227205Y-12867150D02*
X9255777Y-12867150D01*
X9255777Y-12867150D02*
X9274825Y-12876674D01*
X9274825Y-12876674D02*
X9284348Y-12895722D01*
X9284348Y-12895722D02*
X9284348Y-13000484D01*
X9379586Y-13000484D02*
X9379586Y-12867150D01*
X9379586Y-12886198D02*
X9389110Y-12876674D01*
X9389110Y-12876674D02*
X9408158Y-12867150D01*
X9408158Y-12867150D02*
X9436729Y-12867150D01*
X9436729Y-12867150D02*
X9455777Y-12876674D01*
X9455777Y-12876674D02*
X9465301Y-12895722D01*
X9465301Y-12895722D02*
X9465301Y-13000484D01*
X9465301Y-12895722D02*
X9474825Y-12876674D01*
X9474825Y-12876674D02*
X9493872Y-12867150D01*
X9493872Y-12867150D02*
X9522444Y-12867150D01*
X9522444Y-12867150D02*
X9541491Y-12876674D01*
X9541491Y-12876674D02*
X9551015Y-12895722D01*
X9551015Y-12895722D02*
X9551015Y-13000484D01*
X9941491Y-12790960D02*
X9770063Y-13048103D01*
X10198634Y-12800484D02*
X10217682Y-12800484D01*
X10217682Y-12800484D02*
X10236729Y-12810008D01*
X10236729Y-12810008D02*
X10246253Y-12819531D01*
X10246253Y-12819531D02*
X10255777Y-12838579D01*
X10255777Y-12838579D02*
X10265301Y-12876674D01*
X10265301Y-12876674D02*
X10265301Y-12924293D01*
X10265301Y-12924293D02*
X10255777Y-12962388D01*
X10255777Y-12962388D02*
X10246253Y-12981436D01*
X10246253Y-12981436D02*
X10236729Y-12990960D01*
X10236729Y-12990960D02*
X10217682Y-13000484D01*
X10217682Y-13000484D02*
X10198634Y-13000484D01*
X10198634Y-13000484D02*
X10179587Y-12990960D01*
X10179587Y-12990960D02*
X10170063Y-12981436D01*
X10170063Y-12981436D02*
X10160539Y-12962388D01*
X10160539Y-12962388D02*
X10151015Y-12924293D01*
X10151015Y-12924293D02*
X10151015Y-12876674D01*
X10151015Y-12876674D02*
X10160539Y-12838579D01*
X10160539Y-12838579D02*
X10170063Y-12819531D01*
X10170063Y-12819531D02*
X10179587Y-12810008D01*
X10179587Y-12810008D02*
X10198634Y-12800484D01*
X10351015Y-12981436D02*
X10360539Y-12990960D01*
X10360539Y-12990960D02*
X10351015Y-13000484D01*
X10351015Y-13000484D02*
X10341491Y-12990960D01*
X10341491Y-12990960D02*
X10351015Y-12981436D01*
X10351015Y-12981436D02*
X10351015Y-13000484D01*
X10484348Y-12800484D02*
X10503396Y-12800484D01*
X10503396Y-12800484D02*
X10522444Y-12810008D01*
X10522444Y-12810008D02*
X10531968Y-12819531D01*
X10531968Y-12819531D02*
X10541491Y-12838579D01*
X10541491Y-12838579D02*
X10551015Y-12876674D01*
X10551015Y-12876674D02*
X10551015Y-12924293D01*
X10551015Y-12924293D02*
X10541491Y-12962388D01*
X10541491Y-12962388D02*
X10531968Y-12981436D01*
X10531968Y-12981436D02*
X10522444Y-12990960D01*
X10522444Y-12990960D02*
X10503396Y-13000484D01*
X10503396Y-13000484D02*
X10484348Y-13000484D01*
X10484348Y-13000484D02*
X10465301Y-12990960D01*
X10465301Y-12990960D02*
X10455777Y-12981436D01*
X10455777Y-12981436D02*
X10446253Y-12962388D01*
X10446253Y-12962388D02*
X10436729Y-12924293D01*
X10436729Y-12924293D02*
X10436729Y-12876674D01*
X10436729Y-12876674D02*
X10446253Y-12838579D01*
X10446253Y-12838579D02*
X10455777Y-12819531D01*
X10455777Y-12819531D02*
X10465301Y-12810008D01*
X10465301Y-12810008D02*
X10484348Y-12800484D01*
X10627206Y-12819531D02*
X10636729Y-12810008D01*
X10636729Y-12810008D02*
X10655777Y-12800484D01*
X10655777Y-12800484D02*
X10703396Y-12800484D01*
X10703396Y-12800484D02*
X10722444Y-12810008D01*
X10722444Y-12810008D02*
X10731968Y-12819531D01*
X10731968Y-12819531D02*
X10741491Y-12838579D01*
X10741491Y-12838579D02*
X10741491Y-12857627D01*
X10741491Y-12857627D02*
X10731968Y-12886198D01*
X10731968Y-12886198D02*
X10617682Y-13000484D01*
X10617682Y-13000484D02*
X10741491Y-13000484D01*
X10808158Y-12800484D02*
X10941491Y-12800484D01*
X10941491Y-12800484D02*
X10855777Y-13000484D01*
X11103396Y-12800484D02*
X11065301Y-12800484D01*
X11065301Y-12800484D02*
X11046253Y-12810008D01*
X11046253Y-12810008D02*
X11036729Y-12819531D01*
X11036729Y-12819531D02*
X11017682Y-12848103D01*
X11017682Y-12848103D02*
X11008158Y-12886198D01*
X11008158Y-12886198D02*
X11008158Y-12962388D01*
X11008158Y-12962388D02*
X11017682Y-12981436D01*
X11017682Y-12981436D02*
X11027206Y-12990960D01*
X11027206Y-12990960D02*
X11046253Y-13000484D01*
X11046253Y-13000484D02*
X11084349Y-13000484D01*
X11084349Y-13000484D02*
X11103396Y-12990960D01*
X11103396Y-12990960D02*
X11112920Y-12981436D01*
X11112920Y-12981436D02*
X11122444Y-12962388D01*
X11122444Y-12962388D02*
X11122444Y-12914769D01*
X11122444Y-12914769D02*
X11112920Y-12895722D01*
X11112920Y-12895722D02*
X11103396Y-12886198D01*
X11103396Y-12886198D02*
X11084349Y-12876674D01*
X11084349Y-12876674D02*
X11046253Y-12876674D01*
X11046253Y-12876674D02*
X11027206Y-12886198D01*
X11027206Y-12886198D02*
X11017682Y-12895722D01*
X11017682Y-12895722D02*
X11008158Y-12914769D01*
X11198634Y-12800484D02*
X11198634Y-12838579D01*
X11274825Y-12800484D02*
X11274825Y-12838579D01*
X11570063Y-13076674D02*
X11560539Y-13067150D01*
X11560539Y-13067150D02*
X11541491Y-13038579D01*
X11541491Y-13038579D02*
X11531968Y-13019531D01*
X11531968Y-13019531D02*
X11522444Y-12990960D01*
X11522444Y-12990960D02*
X11512920Y-12943341D01*
X11512920Y-12943341D02*
X11512920Y-12905246D01*
X11512920Y-12905246D02*
X11522444Y-12857627D01*
X11522444Y-12857627D02*
X11531968Y-12829055D01*
X11531968Y-12829055D02*
X11541491Y-12810008D01*
X11541491Y-12810008D02*
X11560539Y-12781436D01*
X11560539Y-12781436D02*
X11570063Y-12771912D01*
X11751015Y-13000484D02*
X11636729Y-13000484D01*
X11693872Y-13000484D02*
X11693872Y-12800484D01*
X11693872Y-12800484D02*
X11674825Y-12829055D01*
X11674825Y-12829055D02*
X11655777Y-12848103D01*
X11655777Y-12848103D02*
X11636729Y-12857627D01*
X11922444Y-12867150D02*
X11922444Y-13000484D01*
X11874825Y-12790960D02*
X11827206Y-12933817D01*
X11827206Y-12933817D02*
X11951015Y-12933817D01*
X12179587Y-13000484D02*
X12179587Y-12800484D01*
X12265301Y-13000484D02*
X12265301Y-12895722D01*
X12265301Y-12895722D02*
X12255777Y-12876674D01*
X12255777Y-12876674D02*
X12236730Y-12867150D01*
X12236730Y-12867150D02*
X12208158Y-12867150D01*
X12208158Y-12867150D02*
X12189110Y-12876674D01*
X12189110Y-12876674D02*
X12179587Y-12886198D01*
X12389110Y-13000484D02*
X12370063Y-12990960D01*
X12370063Y-12990960D02*
X12360539Y-12981436D01*
X12360539Y-12981436D02*
X12351015Y-12962388D01*
X12351015Y-12962388D02*
X12351015Y-12905246D01*
X12351015Y-12905246D02*
X12360539Y-12886198D01*
X12360539Y-12886198D02*
X12370063Y-12876674D01*
X12370063Y-12876674D02*
X12389110Y-12867150D01*
X12389110Y-12867150D02*
X12417682Y-12867150D01*
X12417682Y-12867150D02*
X12436730Y-12876674D01*
X12436730Y-12876674D02*
X12446253Y-12886198D01*
X12446253Y-12886198D02*
X12455777Y-12905246D01*
X12455777Y-12905246D02*
X12455777Y-12962388D01*
X12455777Y-12962388D02*
X12446253Y-12981436D01*
X12446253Y-12981436D02*
X12436730Y-12990960D01*
X12436730Y-12990960D02*
X12417682Y-13000484D01*
X12417682Y-13000484D02*
X12389110Y-13000484D01*
X12570063Y-13000484D02*
X12551015Y-12990960D01*
X12551015Y-12990960D02*
X12541491Y-12971912D01*
X12541491Y-12971912D02*
X12541491Y-12800484D01*
X12722444Y-12990960D02*
X12703396Y-13000484D01*
X12703396Y-13000484D02*
X12665301Y-13000484D01*
X12665301Y-13000484D02*
X12646253Y-12990960D01*
X12646253Y-12990960D02*
X12636730Y-12971912D01*
X12636730Y-12971912D02*
X12636730Y-12895722D01*
X12636730Y-12895722D02*
X12646253Y-12876674D01*
X12646253Y-12876674D02*
X12665301Y-12867150D01*
X12665301Y-12867150D02*
X12703396Y-12867150D01*
X12703396Y-12867150D02*
X12722444Y-12876674D01*
X12722444Y-12876674D02*
X12731968Y-12895722D01*
X12731968Y-12895722D02*
X12731968Y-12914769D01*
X12731968Y-12914769D02*
X12636730Y-12933817D01*
X12808158Y-12990960D02*
X12827206Y-13000484D01*
X12827206Y-13000484D02*
X12865301Y-13000484D01*
X12865301Y-13000484D02*
X12884349Y-12990960D01*
X12884349Y-12990960D02*
X12893872Y-12971912D01*
X12893872Y-12971912D02*
X12893872Y-12962388D01*
X12893872Y-12962388D02*
X12884349Y-12943341D01*
X12884349Y-12943341D02*
X12865301Y-12933817D01*
X12865301Y-12933817D02*
X12836730Y-12933817D01*
X12836730Y-12933817D02*
X12817682Y-12924293D01*
X12817682Y-12924293D02*
X12808158Y-12905246D01*
X12808158Y-12905246D02*
X12808158Y-12895722D01*
X12808158Y-12895722D02*
X12817682Y-12876674D01*
X12817682Y-12876674D02*
X12836730Y-12867150D01*
X12836730Y-12867150D02*
X12865301Y-12867150D01*
X12865301Y-12867150D02*
X12884349Y-12876674D01*
X12960539Y-13076674D02*
X12970063Y-13067150D01*
X12970063Y-13067150D02*
X12989111Y-13038579D01*
X12989111Y-13038579D02*
X12998634Y-13019531D01*
X12998634Y-13019531D02*
X13008158Y-12990960D01*
X13008158Y-12990960D02*
X13017682Y-12943341D01*
X13017682Y-12943341D02*
X13017682Y-12905246D01*
X13017682Y-12905246D02*
X13008158Y-12857627D01*
X13008158Y-12857627D02*
X12998634Y-12829055D01*
X12998634Y-12829055D02*
X12989111Y-12810008D01*
X12989111Y-12810008D02*
X12970063Y-12781436D01*
X12970063Y-12781436D02*
X12960539Y-12771912D01*
D10*
X7955000Y-13133000D02*
X7955000Y-13213000D01*
X7915000Y-13173000D02*
X7995000Y-13173000D01*
D11*
X8293872Y-13064484D02*
X8312920Y-13064484D01*
X8312920Y-13064484D02*
X8331967Y-13074008D01*
X8331967Y-13074008D02*
X8341491Y-13083531D01*
X8341491Y-13083531D02*
X8351015Y-13102579D01*
X8351015Y-13102579D02*
X8360539Y-13140674D01*
X8360539Y-13140674D02*
X8360539Y-13188293D01*
X8360539Y-13188293D02*
X8351015Y-13226388D01*
X8351015Y-13226388D02*
X8341491Y-13245436D01*
X8341491Y-13245436D02*
X8331967Y-13254960D01*
X8331967Y-13254960D02*
X8312920Y-13264484D01*
X8312920Y-13264484D02*
X8293872Y-13264484D01*
X8293872Y-13264484D02*
X8274824Y-13254960D01*
X8274824Y-13254960D02*
X8265301Y-13245436D01*
X8265301Y-13245436D02*
X8255777Y-13226388D01*
X8255777Y-13226388D02*
X8246253Y-13188293D01*
X8246253Y-13188293D02*
X8246253Y-13140674D01*
X8246253Y-13140674D02*
X8255777Y-13102579D01*
X8255777Y-13102579D02*
X8265301Y-13083531D01*
X8265301Y-13083531D02*
X8274824Y-13074008D01*
X8274824Y-13074008D02*
X8293872Y-13064484D01*
X8446253Y-13245436D02*
X8455777Y-13254960D01*
X8455777Y-13254960D02*
X8446253Y-13264484D01*
X8446253Y-13264484D02*
X8436729Y-13254960D01*
X8436729Y-13254960D02*
X8446253Y-13245436D01*
X8446253Y-13245436D02*
X8446253Y-13264484D01*
X8570063Y-13150198D02*
X8551015Y-13140674D01*
X8551015Y-13140674D02*
X8541491Y-13131150D01*
X8541491Y-13131150D02*
X8531967Y-13112103D01*
X8531967Y-13112103D02*
X8531967Y-13102579D01*
X8531967Y-13102579D02*
X8541491Y-13083531D01*
X8541491Y-13083531D02*
X8551015Y-13074008D01*
X8551015Y-13074008D02*
X8570063Y-13064484D01*
X8570063Y-13064484D02*
X8608158Y-13064484D01*
X8608158Y-13064484D02*
X8627205Y-13074008D01*
X8627205Y-13074008D02*
X8636729Y-13083531D01*
X8636729Y-13083531D02*
X8646253Y-13102579D01*
X8646253Y-13102579D02*
X8646253Y-13112103D01*
X8646253Y-13112103D02*
X8636729Y-13131150D01*
X8636729Y-13131150D02*
X8627205Y-13140674D01*
X8627205Y-13140674D02*
X8608158Y-13150198D01*
X8608158Y-13150198D02*
X8570063Y-13150198D01*
X8570063Y-13150198D02*
X8551015Y-13159722D01*
X8551015Y-13159722D02*
X8541491Y-13169246D01*
X8541491Y-13169246D02*
X8531967Y-13188293D01*
X8531967Y-13188293D02*
X8531967Y-13226388D01*
X8531967Y-13226388D02*
X8541491Y-13245436D01*
X8541491Y-13245436D02*
X8551015Y-13254960D01*
X8551015Y-13254960D02*
X8570063Y-13264484D01*
X8570063Y-13264484D02*
X8608158Y-13264484D01*
X8608158Y-13264484D02*
X8627205Y-13254960D01*
X8627205Y-13254960D02*
X8636729Y-13245436D01*
X8636729Y-13245436D02*
X8646253Y-13226388D01*
X8646253Y-13226388D02*
X8646253Y-13188293D01*
X8646253Y-13188293D02*
X8636729Y-13169246D01*
X8636729Y-13169246D02*
X8627205Y-13159722D01*
X8627205Y-13159722D02*
X8608158Y-13150198D01*
X8770063Y-13064484D02*
X8789110Y-13064484D01*
X8789110Y-13064484D02*
X8808158Y-13074008D01*
X8808158Y-13074008D02*
X8817682Y-13083531D01*
X8817682Y-13083531D02*
X8827205Y-13102579D01*
X8827205Y-13102579D02*
X8836729Y-13140674D01*
X8836729Y-13140674D02*
X8836729Y-13188293D01*
X8836729Y-13188293D02*
X8827205Y-13226388D01*
X8827205Y-13226388D02*
X8817682Y-13245436D01*
X8817682Y-13245436D02*
X8808158Y-13254960D01*
X8808158Y-13254960D02*
X8789110Y-13264484D01*
X8789110Y-13264484D02*
X8770063Y-13264484D01*
X8770063Y-13264484D02*
X8751015Y-13254960D01*
X8751015Y-13254960D02*
X8741491Y-13245436D01*
X8741491Y-13245436D02*
X8731967Y-13226388D01*
X8731967Y-13226388D02*
X8722444Y-13188293D01*
X8722444Y-13188293D02*
X8722444Y-13140674D01*
X8722444Y-13140674D02*
X8731967Y-13102579D01*
X8731967Y-13102579D02*
X8741491Y-13083531D01*
X8741491Y-13083531D02*
X8751015Y-13074008D01*
X8751015Y-13074008D02*
X8770063Y-13064484D01*
X8960539Y-13064484D02*
X8979586Y-13064484D01*
X8979586Y-13064484D02*
X8998634Y-13074008D01*
X8998634Y-13074008D02*
X9008158Y-13083531D01*
X9008158Y-13083531D02*
X9017682Y-13102579D01*
X9017682Y-13102579D02*
X9027205Y-13140674D01*
X9027205Y-13140674D02*
X9027205Y-13188293D01*
X9027205Y-13188293D02*
X9017682Y-13226388D01*
X9017682Y-13226388D02*
X9008158Y-13245436D01*
X9008158Y-13245436D02*
X8998634Y-13254960D01*
X8998634Y-13254960D02*
X8979586Y-13264484D01*
X8979586Y-13264484D02*
X8960539Y-13264484D01*
X8960539Y-13264484D02*
X8941491Y-13254960D01*
X8941491Y-13254960D02*
X8931967Y-13245436D01*
X8931967Y-13245436D02*
X8922444Y-13226388D01*
X8922444Y-13226388D02*
X8912920Y-13188293D01*
X8912920Y-13188293D02*
X8912920Y-13140674D01*
X8912920Y-13140674D02*
X8922444Y-13102579D01*
X8922444Y-13102579D02*
X8931967Y-13083531D01*
X8931967Y-13083531D02*
X8941491Y-13074008D01*
X8941491Y-13074008D02*
X8960539Y-13064484D01*
X9112920Y-13264484D02*
X9112920Y-13131150D01*
X9112920Y-13150198D02*
X9122444Y-13140674D01*
X9122444Y-13140674D02*
X9141491Y-13131150D01*
X9141491Y-13131150D02*
X9170063Y-13131150D01*
X9170063Y-13131150D02*
X9189110Y-13140674D01*
X9189110Y-13140674D02*
X9198634Y-13159722D01*
X9198634Y-13159722D02*
X9198634Y-13264484D01*
X9198634Y-13159722D02*
X9208158Y-13140674D01*
X9208158Y-13140674D02*
X9227205Y-13131150D01*
X9227205Y-13131150D02*
X9255777Y-13131150D01*
X9255777Y-13131150D02*
X9274825Y-13140674D01*
X9274825Y-13140674D02*
X9284348Y-13159722D01*
X9284348Y-13159722D02*
X9284348Y-13264484D01*
X9379586Y-13264484D02*
X9379586Y-13131150D01*
X9379586Y-13150198D02*
X9389110Y-13140674D01*
X9389110Y-13140674D02*
X9408158Y-13131150D01*
X9408158Y-13131150D02*
X9436729Y-13131150D01*
X9436729Y-13131150D02*
X9455777Y-13140674D01*
X9455777Y-13140674D02*
X9465301Y-13159722D01*
X9465301Y-13159722D02*
X9465301Y-13264484D01*
X9465301Y-13159722D02*
X9474825Y-13140674D01*
X9474825Y-13140674D02*
X9493872Y-13131150D01*
X9493872Y-13131150D02*
X9522444Y-13131150D01*
X9522444Y-13131150D02*
X9541491Y-13140674D01*
X9541491Y-13140674D02*
X9551015Y-13159722D01*
X9551015Y-13159722D02*
X9551015Y-13264484D01*
X9941491Y-13054960D02*
X9770063Y-13312103D01*
X10198634Y-13064484D02*
X10217682Y-13064484D01*
X10217682Y-13064484D02*
X10236729Y-13074008D01*
X10236729Y-13074008D02*
X10246253Y-13083531D01*
X10246253Y-13083531D02*
X10255777Y-13102579D01*
X10255777Y-13102579D02*
X10265301Y-13140674D01*
X10265301Y-13140674D02*
X10265301Y-13188293D01*
X10265301Y-13188293D02*
X10255777Y-13226388D01*
X10255777Y-13226388D02*
X10246253Y-13245436D01*
X10246253Y-13245436D02*
X10236729Y-13254960D01*
X10236729Y-13254960D02*
X10217682Y-13264484D01*
X10217682Y-13264484D02*
X10198634Y-13264484D01*
X10198634Y-13264484D02*
X10179587Y-13254960D01*
X10179587Y-13254960D02*
X10170063Y-13245436D01*
X10170063Y-13245436D02*
X10160539Y-13226388D01*
X10160539Y-13226388D02*
X10151015Y-13188293D01*
X10151015Y-13188293D02*
X10151015Y-13140674D01*
X10151015Y-13140674D02*
X10160539Y-13102579D01*
X10160539Y-13102579D02*
X10170063Y-13083531D01*
X10170063Y-13083531D02*
X10179587Y-13074008D01*
X10179587Y-13074008D02*
X10198634Y-13064484D01*
X10351015Y-13245436D02*
X10360539Y-13254960D01*
X10360539Y-13254960D02*
X10351015Y-13264484D01*
X10351015Y-13264484D02*
X10341491Y-13254960D01*
X10341491Y-13254960D02*
X10351015Y-13245436D01*
X10351015Y-13245436D02*
X10351015Y-13264484D01*
X10484348Y-13064484D02*
X10503396Y-13064484D01*
X10503396Y-13064484D02*
X10522444Y-13074008D01*
X10522444Y-13074008D02*
X10531968Y-13083531D01*
X10531968Y-13083531D02*
X10541491Y-13102579D01*
X10541491Y-13102579D02*
X10551015Y-13140674D01*
X10551015Y-13140674D02*
X10551015Y-13188293D01*
X10551015Y-13188293D02*
X10541491Y-13226388D01*
X10541491Y-13226388D02*
X10531968Y-13245436D01*
X10531968Y-13245436D02*
X10522444Y-13254960D01*
X10522444Y-13254960D02*
X10503396Y-13264484D01*
X10503396Y-13264484D02*
X10484348Y-13264484D01*
X10484348Y-13264484D02*
X10465301Y-13254960D01*
X10465301Y-13254960D02*
X10455777Y-13245436D01*
X10455777Y-13245436D02*
X10446253Y-13226388D01*
X10446253Y-13226388D02*
X10436729Y-13188293D01*
X10436729Y-13188293D02*
X10436729Y-13140674D01*
X10436729Y-13140674D02*
X10446253Y-13102579D01*
X10446253Y-13102579D02*
X10455777Y-13083531D01*
X10455777Y-13083531D02*
X10465301Y-13074008D01*
X10465301Y-13074008D02*
X10484348Y-13064484D01*
X10617682Y-13064484D02*
X10741491Y-13064484D01*
X10741491Y-13064484D02*
X10674825Y-13140674D01*
X10674825Y-13140674D02*
X10703396Y-13140674D01*
X10703396Y-13140674D02*
X10722444Y-13150198D01*
X10722444Y-13150198D02*
X10731968Y-13159722D01*
X10731968Y-13159722D02*
X10741491Y-13178769D01*
X10741491Y-13178769D02*
X10741491Y-13226388D01*
X10741491Y-13226388D02*
X10731968Y-13245436D01*
X10731968Y-13245436D02*
X10722444Y-13254960D01*
X10722444Y-13254960D02*
X10703396Y-13264484D01*
X10703396Y-13264484D02*
X10646253Y-13264484D01*
X10646253Y-13264484D02*
X10627206Y-13254960D01*
X10627206Y-13254960D02*
X10617682Y-13245436D01*
X10931968Y-13264484D02*
X10817682Y-13264484D01*
X10874825Y-13264484D02*
X10874825Y-13064484D01*
X10874825Y-13064484D02*
X10855777Y-13093055D01*
X10855777Y-13093055D02*
X10836729Y-13112103D01*
X10836729Y-13112103D02*
X10817682Y-13121627D01*
X11112920Y-13064484D02*
X11017682Y-13064484D01*
X11017682Y-13064484D02*
X11008158Y-13159722D01*
X11008158Y-13159722D02*
X11017682Y-13150198D01*
X11017682Y-13150198D02*
X11036729Y-13140674D01*
X11036729Y-13140674D02*
X11084349Y-13140674D01*
X11084349Y-13140674D02*
X11103396Y-13150198D01*
X11103396Y-13150198D02*
X11112920Y-13159722D01*
X11112920Y-13159722D02*
X11122444Y-13178769D01*
X11122444Y-13178769D02*
X11122444Y-13226388D01*
X11122444Y-13226388D02*
X11112920Y-13245436D01*
X11112920Y-13245436D02*
X11103396Y-13254960D01*
X11103396Y-13254960D02*
X11084349Y-13264484D01*
X11084349Y-13264484D02*
X11036729Y-13264484D01*
X11036729Y-13264484D02*
X11017682Y-13254960D01*
X11017682Y-13254960D02*
X11008158Y-13245436D01*
X11198634Y-13064484D02*
X11198634Y-13102579D01*
X11274825Y-13064484D02*
X11274825Y-13102579D01*
X11570063Y-13340674D02*
X11560539Y-13331150D01*
X11560539Y-13331150D02*
X11541491Y-13302579D01*
X11541491Y-13302579D02*
X11531968Y-13283531D01*
X11531968Y-13283531D02*
X11522444Y-13254960D01*
X11522444Y-13254960D02*
X11512920Y-13207341D01*
X11512920Y-13207341D02*
X11512920Y-13169246D01*
X11512920Y-13169246D02*
X11522444Y-13121627D01*
X11522444Y-13121627D02*
X11531968Y-13093055D01*
X11531968Y-13093055D02*
X11541491Y-13074008D01*
X11541491Y-13074008D02*
X11560539Y-13045436D01*
X11560539Y-13045436D02*
X11570063Y-13035912D01*
X11636729Y-13083531D02*
X11646253Y-13074008D01*
X11646253Y-13074008D02*
X11665301Y-13064484D01*
X11665301Y-13064484D02*
X11712920Y-13064484D01*
X11712920Y-13064484D02*
X11731968Y-13074008D01*
X11731968Y-13074008D02*
X11741491Y-13083531D01*
X11741491Y-13083531D02*
X11751015Y-13102579D01*
X11751015Y-13102579D02*
X11751015Y-13121627D01*
X11751015Y-13121627D02*
X11741491Y-13150198D01*
X11741491Y-13150198D02*
X11627206Y-13264484D01*
X11627206Y-13264484D02*
X11751015Y-13264484D01*
X11922444Y-13064484D02*
X11884348Y-13064484D01*
X11884348Y-13064484D02*
X11865301Y-13074008D01*
X11865301Y-13074008D02*
X11855777Y-13083531D01*
X11855777Y-13083531D02*
X11836729Y-13112103D01*
X11836729Y-13112103D02*
X11827206Y-13150198D01*
X11827206Y-13150198D02*
X11827206Y-13226388D01*
X11827206Y-13226388D02*
X11836729Y-13245436D01*
X11836729Y-13245436D02*
X11846253Y-13254960D01*
X11846253Y-13254960D02*
X11865301Y-13264484D01*
X11865301Y-13264484D02*
X11903396Y-13264484D01*
X11903396Y-13264484D02*
X11922444Y-13254960D01*
X11922444Y-13254960D02*
X11931968Y-13245436D01*
X11931968Y-13245436D02*
X11941491Y-13226388D01*
X11941491Y-13226388D02*
X11941491Y-13178769D01*
X11941491Y-13178769D02*
X11931968Y-13159722D01*
X11931968Y-13159722D02*
X11922444Y-13150198D01*
X11922444Y-13150198D02*
X11903396Y-13140674D01*
X11903396Y-13140674D02*
X11865301Y-13140674D01*
X11865301Y-13140674D02*
X11846253Y-13150198D01*
X11846253Y-13150198D02*
X11836729Y-13159722D01*
X11836729Y-13159722D02*
X11827206Y-13178769D01*
X12179587Y-13264484D02*
X12179587Y-13064484D01*
X12265301Y-13264484D02*
X12265301Y-13159722D01*
X12265301Y-13159722D02*
X12255777Y-13140674D01*
X12255777Y-13140674D02*
X12236730Y-13131150D01*
X12236730Y-13131150D02*
X12208158Y-13131150D01*
X12208158Y-13131150D02*
X12189110Y-13140674D01*
X12189110Y-13140674D02*
X12179587Y-13150198D01*
X12389110Y-13264484D02*
X12370063Y-13254960D01*
X12370063Y-13254960D02*
X12360539Y-13245436D01*
X12360539Y-13245436D02*
X12351015Y-13226388D01*
X12351015Y-13226388D02*
X12351015Y-13169246D01*
X12351015Y-13169246D02*
X12360539Y-13150198D01*
X12360539Y-13150198D02*
X12370063Y-13140674D01*
X12370063Y-13140674D02*
X12389110Y-13131150D01*
X12389110Y-13131150D02*
X12417682Y-13131150D01*
X12417682Y-13131150D02*
X12436730Y-13140674D01*
X12436730Y-13140674D02*
X12446253Y-13150198D01*
X12446253Y-13150198D02*
X12455777Y-13169246D01*
X12455777Y-13169246D02*
X12455777Y-13226388D01*
X12455777Y-13226388D02*
X12446253Y-13245436D01*
X12446253Y-13245436D02*
X12436730Y-13254960D01*
X12436730Y-13254960D02*
X12417682Y-13264484D01*
X12417682Y-13264484D02*
X12389110Y-13264484D01*
X12570063Y-13264484D02*
X12551015Y-13254960D01*
X12551015Y-13254960D02*
X12541491Y-13235912D01*
X12541491Y-13235912D02*
X12541491Y-13064484D01*
X12722444Y-13254960D02*
X12703396Y-13264484D01*
X12703396Y-13264484D02*
X12665301Y-13264484D01*
X12665301Y-13264484D02*
X12646253Y-13254960D01*
X12646253Y-13254960D02*
X12636730Y-13235912D01*
X12636730Y-13235912D02*
X12636730Y-13159722D01*
X12636730Y-13159722D02*
X12646253Y-13140674D01*
X12646253Y-13140674D02*
X12665301Y-13131150D01*
X12665301Y-13131150D02*
X12703396Y-13131150D01*
X12703396Y-13131150D02*
X12722444Y-13140674D01*
X12722444Y-13140674D02*
X12731968Y-13159722D01*
X12731968Y-13159722D02*
X12731968Y-13178769D01*
X12731968Y-13178769D02*
X12636730Y-13197817D01*
X12808158Y-13254960D02*
X12827206Y-13264484D01*
X12827206Y-13264484D02*
X12865301Y-13264484D01*
X12865301Y-13264484D02*
X12884349Y-13254960D01*
X12884349Y-13254960D02*
X12893872Y-13235912D01*
X12893872Y-13235912D02*
X12893872Y-13226388D01*
X12893872Y-13226388D02*
X12884349Y-13207341D01*
X12884349Y-13207341D02*
X12865301Y-13197817D01*
X12865301Y-13197817D02*
X12836730Y-13197817D01*
X12836730Y-13197817D02*
X12817682Y-13188293D01*
X12817682Y-13188293D02*
X12808158Y-13169246D01*
X12808158Y-13169246D02*
X12808158Y-13159722D01*
X12808158Y-13159722D02*
X12817682Y-13140674D01*
X12817682Y-13140674D02*
X12836730Y-13131150D01*
X12836730Y-13131150D02*
X12865301Y-13131150D01*
X12865301Y-13131150D02*
X12884349Y-13140674D01*
X12960539Y-13340674D02*
X12970063Y-13331150D01*
X12970063Y-13331150D02*
X12989111Y-13302579D01*
X12989111Y-13302579D02*
X12998634Y-13283531D01*
X12998634Y-13283531D02*
X13008158Y-13254960D01*
X13008158Y-13254960D02*
X13017682Y-13207341D01*
X13017682Y-13207341D02*
X13017682Y-13169246D01*
X13017682Y-13169246D02*
X13008158Y-13121627D01*
X13008158Y-13121627D02*
X12998634Y-13093055D01*
X12998634Y-13093055D02*
X12989111Y-13074008D01*
X12989111Y-13074008D02*
X12970063Y-13045436D01*
X12970063Y-13045436D02*
X12960539Y-13035912D01*
D10*
X7981820Y-13468820D02*
X7981820Y-13405180D01*
X7918180Y-13405180D01*
X7918180Y-13468820D01*
X7981820Y-13468820D01*
D11*
X8293872Y-13328484D02*
X8312920Y-13328484D01*
X8312920Y-13328484D02*
X8331967Y-13338008D01*
X8331967Y-13338008D02*
X8341491Y-13347531D01*
X8341491Y-13347531D02*
X8351015Y-13366579D01*
X8351015Y-13366579D02*
X8360539Y-13404674D01*
X8360539Y-13404674D02*
X8360539Y-13452293D01*
X8360539Y-13452293D02*
X8351015Y-13490388D01*
X8351015Y-13490388D02*
X8341491Y-13509436D01*
X8341491Y-13509436D02*
X8331967Y-13518960D01*
X8331967Y-13518960D02*
X8312920Y-13528484D01*
X8312920Y-13528484D02*
X8293872Y-13528484D01*
X8293872Y-13528484D02*
X8274824Y-13518960D01*
X8274824Y-13518960D02*
X8265301Y-13509436D01*
X8265301Y-13509436D02*
X8255777Y-13490388D01*
X8255777Y-13490388D02*
X8246253Y-13452293D01*
X8246253Y-13452293D02*
X8246253Y-13404674D01*
X8246253Y-13404674D02*
X8255777Y-13366579D01*
X8255777Y-13366579D02*
X8265301Y-13347531D01*
X8265301Y-13347531D02*
X8274824Y-13338008D01*
X8274824Y-13338008D02*
X8293872Y-13328484D01*
X8446253Y-13509436D02*
X8455777Y-13518960D01*
X8455777Y-13518960D02*
X8446253Y-13528484D01*
X8446253Y-13528484D02*
X8436729Y-13518960D01*
X8436729Y-13518960D02*
X8446253Y-13509436D01*
X8446253Y-13509436D02*
X8446253Y-13528484D01*
X8551015Y-13528484D02*
X8589110Y-13528484D01*
X8589110Y-13528484D02*
X8608158Y-13518960D01*
X8608158Y-13518960D02*
X8617682Y-13509436D01*
X8617682Y-13509436D02*
X8636729Y-13480865D01*
X8636729Y-13480865D02*
X8646253Y-13442769D01*
X8646253Y-13442769D02*
X8646253Y-13366579D01*
X8646253Y-13366579D02*
X8636729Y-13347531D01*
X8636729Y-13347531D02*
X8627205Y-13338008D01*
X8627205Y-13338008D02*
X8608158Y-13328484D01*
X8608158Y-13328484D02*
X8570063Y-13328484D01*
X8570063Y-13328484D02*
X8551015Y-13338008D01*
X8551015Y-13338008D02*
X8541491Y-13347531D01*
X8541491Y-13347531D02*
X8531967Y-13366579D01*
X8531967Y-13366579D02*
X8531967Y-13414198D01*
X8531967Y-13414198D02*
X8541491Y-13433246D01*
X8541491Y-13433246D02*
X8551015Y-13442769D01*
X8551015Y-13442769D02*
X8570063Y-13452293D01*
X8570063Y-13452293D02*
X8608158Y-13452293D01*
X8608158Y-13452293D02*
X8627205Y-13442769D01*
X8627205Y-13442769D02*
X8636729Y-13433246D01*
X8636729Y-13433246D02*
X8646253Y-13414198D01*
X8770063Y-13328484D02*
X8789110Y-13328484D01*
X8789110Y-13328484D02*
X8808158Y-13338008D01*
X8808158Y-13338008D02*
X8817682Y-13347531D01*
X8817682Y-13347531D02*
X8827205Y-13366579D01*
X8827205Y-13366579D02*
X8836729Y-13404674D01*
X8836729Y-13404674D02*
X8836729Y-13452293D01*
X8836729Y-13452293D02*
X8827205Y-13490388D01*
X8827205Y-13490388D02*
X8817682Y-13509436D01*
X8817682Y-13509436D02*
X8808158Y-13518960D01*
X8808158Y-13518960D02*
X8789110Y-13528484D01*
X8789110Y-13528484D02*
X8770063Y-13528484D01*
X8770063Y-13528484D02*
X8751015Y-13518960D01*
X8751015Y-13518960D02*
X8741491Y-13509436D01*
X8741491Y-13509436D02*
X8731967Y-13490388D01*
X8731967Y-13490388D02*
X8722444Y-13452293D01*
X8722444Y-13452293D02*
X8722444Y-13404674D01*
X8722444Y-13404674D02*
X8731967Y-13366579D01*
X8731967Y-13366579D02*
X8741491Y-13347531D01*
X8741491Y-13347531D02*
X8751015Y-13338008D01*
X8751015Y-13338008D02*
X8770063Y-13328484D01*
X8960539Y-13328484D02*
X8979586Y-13328484D01*
X8979586Y-13328484D02*
X8998634Y-13338008D01*
X8998634Y-13338008D02*
X9008158Y-13347531D01*
X9008158Y-13347531D02*
X9017682Y-13366579D01*
X9017682Y-13366579D02*
X9027205Y-13404674D01*
X9027205Y-13404674D02*
X9027205Y-13452293D01*
X9027205Y-13452293D02*
X9017682Y-13490388D01*
X9017682Y-13490388D02*
X9008158Y-13509436D01*
X9008158Y-13509436D02*
X8998634Y-13518960D01*
X8998634Y-13518960D02*
X8979586Y-13528484D01*
X8979586Y-13528484D02*
X8960539Y-13528484D01*
X8960539Y-13528484D02*
X8941491Y-13518960D01*
X8941491Y-13518960D02*
X8931967Y-13509436D01*
X8931967Y-13509436D02*
X8922444Y-13490388D01*
X8922444Y-13490388D02*
X8912920Y-13452293D01*
X8912920Y-13452293D02*
X8912920Y-13404674D01*
X8912920Y-13404674D02*
X8922444Y-13366579D01*
X8922444Y-13366579D02*
X8931967Y-13347531D01*
X8931967Y-13347531D02*
X8941491Y-13338008D01*
X8941491Y-13338008D02*
X8960539Y-13328484D01*
X9112920Y-13528484D02*
X9112920Y-13395150D01*
X9112920Y-13414198D02*
X9122444Y-13404674D01*
X9122444Y-13404674D02*
X9141491Y-13395150D01*
X9141491Y-13395150D02*
X9170063Y-13395150D01*
X9170063Y-13395150D02*
X9189110Y-13404674D01*
X9189110Y-13404674D02*
X9198634Y-13423722D01*
X9198634Y-13423722D02*
X9198634Y-13528484D01*
X9198634Y-13423722D02*
X9208158Y-13404674D01*
X9208158Y-13404674D02*
X9227205Y-13395150D01*
X9227205Y-13395150D02*
X9255777Y-13395150D01*
X9255777Y-13395150D02*
X9274825Y-13404674D01*
X9274825Y-13404674D02*
X9284348Y-13423722D01*
X9284348Y-13423722D02*
X9284348Y-13528484D01*
X9379586Y-13528484D02*
X9379586Y-13395150D01*
X9379586Y-13414198D02*
X9389110Y-13404674D01*
X9389110Y-13404674D02*
X9408158Y-13395150D01*
X9408158Y-13395150D02*
X9436729Y-13395150D01*
X9436729Y-13395150D02*
X9455777Y-13404674D01*
X9455777Y-13404674D02*
X9465301Y-13423722D01*
X9465301Y-13423722D02*
X9465301Y-13528484D01*
X9465301Y-13423722D02*
X9474825Y-13404674D01*
X9474825Y-13404674D02*
X9493872Y-13395150D01*
X9493872Y-13395150D02*
X9522444Y-13395150D01*
X9522444Y-13395150D02*
X9541491Y-13404674D01*
X9541491Y-13404674D02*
X9551015Y-13423722D01*
X9551015Y-13423722D02*
X9551015Y-13528484D01*
X9941491Y-13318960D02*
X9770063Y-13576103D01*
X10198634Y-13328484D02*
X10217682Y-13328484D01*
X10217682Y-13328484D02*
X10236729Y-13338008D01*
X10236729Y-13338008D02*
X10246253Y-13347531D01*
X10246253Y-13347531D02*
X10255777Y-13366579D01*
X10255777Y-13366579D02*
X10265301Y-13404674D01*
X10265301Y-13404674D02*
X10265301Y-13452293D01*
X10265301Y-13452293D02*
X10255777Y-13490388D01*
X10255777Y-13490388D02*
X10246253Y-13509436D01*
X10246253Y-13509436D02*
X10236729Y-13518960D01*
X10236729Y-13518960D02*
X10217682Y-13528484D01*
X10217682Y-13528484D02*
X10198634Y-13528484D01*
X10198634Y-13528484D02*
X10179587Y-13518960D01*
X10179587Y-13518960D02*
X10170063Y-13509436D01*
X10170063Y-13509436D02*
X10160539Y-13490388D01*
X10160539Y-13490388D02*
X10151015Y-13452293D01*
X10151015Y-13452293D02*
X10151015Y-13404674D01*
X10151015Y-13404674D02*
X10160539Y-13366579D01*
X10160539Y-13366579D02*
X10170063Y-13347531D01*
X10170063Y-13347531D02*
X10179587Y-13338008D01*
X10179587Y-13338008D02*
X10198634Y-13328484D01*
X10351015Y-13509436D02*
X10360539Y-13518960D01*
X10360539Y-13518960D02*
X10351015Y-13528484D01*
X10351015Y-13528484D02*
X10341491Y-13518960D01*
X10341491Y-13518960D02*
X10351015Y-13509436D01*
X10351015Y-13509436D02*
X10351015Y-13528484D01*
X10484348Y-13328484D02*
X10503396Y-13328484D01*
X10503396Y-13328484D02*
X10522444Y-13338008D01*
X10522444Y-13338008D02*
X10531968Y-13347531D01*
X10531968Y-13347531D02*
X10541491Y-13366579D01*
X10541491Y-13366579D02*
X10551015Y-13404674D01*
X10551015Y-13404674D02*
X10551015Y-13452293D01*
X10551015Y-13452293D02*
X10541491Y-13490388D01*
X10541491Y-13490388D02*
X10531968Y-13509436D01*
X10531968Y-13509436D02*
X10522444Y-13518960D01*
X10522444Y-13518960D02*
X10503396Y-13528484D01*
X10503396Y-13528484D02*
X10484348Y-13528484D01*
X10484348Y-13528484D02*
X10465301Y-13518960D01*
X10465301Y-13518960D02*
X10455777Y-13509436D01*
X10455777Y-13509436D02*
X10446253Y-13490388D01*
X10446253Y-13490388D02*
X10436729Y-13452293D01*
X10436729Y-13452293D02*
X10436729Y-13404674D01*
X10436729Y-13404674D02*
X10446253Y-13366579D01*
X10446253Y-13366579D02*
X10455777Y-13347531D01*
X10455777Y-13347531D02*
X10465301Y-13338008D01*
X10465301Y-13338008D02*
X10484348Y-13328484D01*
X10617682Y-13328484D02*
X10741491Y-13328484D01*
X10741491Y-13328484D02*
X10674825Y-13404674D01*
X10674825Y-13404674D02*
X10703396Y-13404674D01*
X10703396Y-13404674D02*
X10722444Y-13414198D01*
X10722444Y-13414198D02*
X10731968Y-13423722D01*
X10731968Y-13423722D02*
X10741491Y-13442769D01*
X10741491Y-13442769D02*
X10741491Y-13490388D01*
X10741491Y-13490388D02*
X10731968Y-13509436D01*
X10731968Y-13509436D02*
X10722444Y-13518960D01*
X10722444Y-13518960D02*
X10703396Y-13528484D01*
X10703396Y-13528484D02*
X10646253Y-13528484D01*
X10646253Y-13528484D02*
X10627206Y-13518960D01*
X10627206Y-13518960D02*
X10617682Y-13509436D01*
X10922444Y-13328484D02*
X10827206Y-13328484D01*
X10827206Y-13328484D02*
X10817682Y-13423722D01*
X10817682Y-13423722D02*
X10827206Y-13414198D01*
X10827206Y-13414198D02*
X10846253Y-13404674D01*
X10846253Y-13404674D02*
X10893872Y-13404674D01*
X10893872Y-13404674D02*
X10912920Y-13414198D01*
X10912920Y-13414198D02*
X10922444Y-13423722D01*
X10922444Y-13423722D02*
X10931968Y-13442769D01*
X10931968Y-13442769D02*
X10931968Y-13490388D01*
X10931968Y-13490388D02*
X10922444Y-13509436D01*
X10922444Y-13509436D02*
X10912920Y-13518960D01*
X10912920Y-13518960D02*
X10893872Y-13528484D01*
X10893872Y-13528484D02*
X10846253Y-13528484D01*
X10846253Y-13528484D02*
X10827206Y-13518960D01*
X10827206Y-13518960D02*
X10817682Y-13509436D01*
X11103396Y-13395150D02*
X11103396Y-13528484D01*
X11055777Y-13318960D02*
X11008158Y-13461817D01*
X11008158Y-13461817D02*
X11131968Y-13461817D01*
X11198634Y-13328484D02*
X11198634Y-13366579D01*
X11274825Y-13328484D02*
X11274825Y-13366579D01*
X11570063Y-13604674D02*
X11560539Y-13595150D01*
X11560539Y-13595150D02*
X11541491Y-13566579D01*
X11541491Y-13566579D02*
X11531968Y-13547531D01*
X11531968Y-13547531D02*
X11522444Y-13518960D01*
X11522444Y-13518960D02*
X11512920Y-13471341D01*
X11512920Y-13471341D02*
X11512920Y-13433246D01*
X11512920Y-13433246D02*
X11522444Y-13385627D01*
X11522444Y-13385627D02*
X11531968Y-13357055D01*
X11531968Y-13357055D02*
X11541491Y-13338008D01*
X11541491Y-13338008D02*
X11560539Y-13309436D01*
X11560539Y-13309436D02*
X11570063Y-13299912D01*
X11731968Y-13395150D02*
X11731968Y-13528484D01*
X11684348Y-13318960D02*
X11636729Y-13461817D01*
X11636729Y-13461817D02*
X11760539Y-13461817D01*
X11989110Y-13528484D02*
X11989110Y-13328484D01*
X12074825Y-13528484D02*
X12074825Y-13423722D01*
X12074825Y-13423722D02*
X12065301Y-13404674D01*
X12065301Y-13404674D02*
X12046253Y-13395150D01*
X12046253Y-13395150D02*
X12017682Y-13395150D01*
X12017682Y-13395150D02*
X11998634Y-13404674D01*
X11998634Y-13404674D02*
X11989110Y-13414198D01*
X12198634Y-13528484D02*
X12179587Y-13518960D01*
X12179587Y-13518960D02*
X12170063Y-13509436D01*
X12170063Y-13509436D02*
X12160539Y-13490388D01*
X12160539Y-13490388D02*
X12160539Y-13433246D01*
X12160539Y-13433246D02*
X12170063Y-13414198D01*
X12170063Y-13414198D02*
X12179587Y-13404674D01*
X12179587Y-13404674D02*
X12198634Y-13395150D01*
X12198634Y-13395150D02*
X12227206Y-13395150D01*
X12227206Y-13395150D02*
X12246253Y-13404674D01*
X12246253Y-13404674D02*
X12255777Y-13414198D01*
X12255777Y-13414198D02*
X12265301Y-13433246D01*
X12265301Y-13433246D02*
X12265301Y-13490388D01*
X12265301Y-13490388D02*
X12255777Y-13509436D01*
X12255777Y-13509436D02*
X12246253Y-13518960D01*
X12246253Y-13518960D02*
X12227206Y-13528484D01*
X12227206Y-13528484D02*
X12198634Y-13528484D01*
X12379587Y-13528484D02*
X12360539Y-13518960D01*
X12360539Y-13518960D02*
X12351015Y-13499912D01*
X12351015Y-13499912D02*
X12351015Y-13328484D01*
X12531968Y-13518960D02*
X12512920Y-13528484D01*
X12512920Y-13528484D02*
X12474825Y-13528484D01*
X12474825Y-13528484D02*
X12455777Y-13518960D01*
X12455777Y-13518960D02*
X12446253Y-13499912D01*
X12446253Y-13499912D02*
X12446253Y-13423722D01*
X12446253Y-13423722D02*
X12455777Y-13404674D01*
X12455777Y-13404674D02*
X12474825Y-13395150D01*
X12474825Y-13395150D02*
X12512920Y-13395150D01*
X12512920Y-13395150D02*
X12531968Y-13404674D01*
X12531968Y-13404674D02*
X12541491Y-13423722D01*
X12541491Y-13423722D02*
X12541491Y-13442769D01*
X12541491Y-13442769D02*
X12446253Y-13461817D01*
X12617682Y-13518960D02*
X12636730Y-13528484D01*
X12636730Y-13528484D02*
X12674825Y-13528484D01*
X12674825Y-13528484D02*
X12693872Y-13518960D01*
X12693872Y-13518960D02*
X12703396Y-13499912D01*
X12703396Y-13499912D02*
X12703396Y-13490388D01*
X12703396Y-13490388D02*
X12693872Y-13471341D01*
X12693872Y-13471341D02*
X12674825Y-13461817D01*
X12674825Y-13461817D02*
X12646253Y-13461817D01*
X12646253Y-13461817D02*
X12627206Y-13452293D01*
X12627206Y-13452293D02*
X12617682Y-13433246D01*
X12617682Y-13433246D02*
X12617682Y-13423722D01*
X12617682Y-13423722D02*
X12627206Y-13404674D01*
X12627206Y-13404674D02*
X12646253Y-13395150D01*
X12646253Y-13395150D02*
X12674825Y-13395150D01*
X12674825Y-13395150D02*
X12693872Y-13404674D01*
X12770063Y-13604674D02*
X12779587Y-13595150D01*
X12779587Y-13595150D02*
X12798634Y-13566579D01*
X12798634Y-13566579D02*
X12808158Y-13547531D01*
X12808158Y-13547531D02*
X12817682Y-13518960D01*
X12817682Y-13518960D02*
X12827206Y-13471341D01*
X12827206Y-13471341D02*
X12827206Y-13433246D01*
X12827206Y-13433246D02*
X12817682Y-13385627D01*
X12817682Y-13385627D02*
X12808158Y-13357055D01*
X12808158Y-13357055D02*
X12798634Y-13338008D01*
X12798634Y-13338008D02*
X12779587Y-13309436D01*
X12779587Y-13309436D02*
X12770063Y-13299912D01*
D12*
X7944000Y-13752000D02*
X7995000Y-13701000D01*
X7944000Y-13650000D01*
X7893000Y-13701000D01*
X7944000Y-13752000D01*
D11*
X8360539Y-13792484D02*
X8246253Y-13792484D01*
X8303396Y-13792484D02*
X8303396Y-13592484D01*
X8303396Y-13592484D02*
X8284348Y-13621055D01*
X8284348Y-13621055D02*
X8265301Y-13640103D01*
X8265301Y-13640103D02*
X8246253Y-13649627D01*
X8446253Y-13773436D02*
X8455777Y-13782960D01*
X8455777Y-13782960D02*
X8446253Y-13792484D01*
X8446253Y-13792484D02*
X8436729Y-13782960D01*
X8436729Y-13782960D02*
X8446253Y-13773436D01*
X8446253Y-13773436D02*
X8446253Y-13792484D01*
X8579586Y-13592484D02*
X8598634Y-13592484D01*
X8598634Y-13592484D02*
X8617682Y-13602008D01*
X8617682Y-13602008D02*
X8627205Y-13611531D01*
X8627205Y-13611531D02*
X8636729Y-13630579D01*
X8636729Y-13630579D02*
X8646253Y-13668674D01*
X8646253Y-13668674D02*
X8646253Y-13716293D01*
X8646253Y-13716293D02*
X8636729Y-13754388D01*
X8636729Y-13754388D02*
X8627205Y-13773436D01*
X8627205Y-13773436D02*
X8617682Y-13782960D01*
X8617682Y-13782960D02*
X8598634Y-13792484D01*
X8598634Y-13792484D02*
X8579586Y-13792484D01*
X8579586Y-13792484D02*
X8560539Y-13782960D01*
X8560539Y-13782960D02*
X8551015Y-13773436D01*
X8551015Y-13773436D02*
X8541491Y-13754388D01*
X8541491Y-13754388D02*
X8531967Y-13716293D01*
X8531967Y-13716293D02*
X8531967Y-13668674D01*
X8531967Y-13668674D02*
X8541491Y-13630579D01*
X8541491Y-13630579D02*
X8551015Y-13611531D01*
X8551015Y-13611531D02*
X8560539Y-13602008D01*
X8560539Y-13602008D02*
X8579586Y-13592484D01*
X8722444Y-13611531D02*
X8731967Y-13602008D01*
X8731967Y-13602008D02*
X8751015Y-13592484D01*
X8751015Y-13592484D02*
X8798634Y-13592484D01*
X8798634Y-13592484D02*
X8817682Y-13602008D01*
X8817682Y-13602008D02*
X8827205Y-13611531D01*
X8827205Y-13611531D02*
X8836729Y-13630579D01*
X8836729Y-13630579D02*
X8836729Y-13649627D01*
X8836729Y-13649627D02*
X8827205Y-13678198D01*
X8827205Y-13678198D02*
X8712920Y-13792484D01*
X8712920Y-13792484D02*
X8836729Y-13792484D01*
X8960539Y-13592484D02*
X8979586Y-13592484D01*
X8979586Y-13592484D02*
X8998634Y-13602008D01*
X8998634Y-13602008D02*
X9008158Y-13611531D01*
X9008158Y-13611531D02*
X9017682Y-13630579D01*
X9017682Y-13630579D02*
X9027205Y-13668674D01*
X9027205Y-13668674D02*
X9027205Y-13716293D01*
X9027205Y-13716293D02*
X9017682Y-13754388D01*
X9017682Y-13754388D02*
X9008158Y-13773436D01*
X9008158Y-13773436D02*
X8998634Y-13782960D01*
X8998634Y-13782960D02*
X8979586Y-13792484D01*
X8979586Y-13792484D02*
X8960539Y-13792484D01*
X8960539Y-13792484D02*
X8941491Y-13782960D01*
X8941491Y-13782960D02*
X8931967Y-13773436D01*
X8931967Y-13773436D02*
X8922444Y-13754388D01*
X8922444Y-13754388D02*
X8912920Y-13716293D01*
X8912920Y-13716293D02*
X8912920Y-13668674D01*
X8912920Y-13668674D02*
X8922444Y-13630579D01*
X8922444Y-13630579D02*
X8931967Y-13611531D01*
X8931967Y-13611531D02*
X8941491Y-13602008D01*
X8941491Y-13602008D02*
X8960539Y-13592484D01*
X9112920Y-13792484D02*
X9112920Y-13659150D01*
X9112920Y-13678198D02*
X9122444Y-13668674D01*
X9122444Y-13668674D02*
X9141491Y-13659150D01*
X9141491Y-13659150D02*
X9170063Y-13659150D01*
X9170063Y-13659150D02*
X9189110Y-13668674D01*
X9189110Y-13668674D02*
X9198634Y-13687722D01*
X9198634Y-13687722D02*
X9198634Y-13792484D01*
X9198634Y-13687722D02*
X9208158Y-13668674D01*
X9208158Y-13668674D02*
X9227205Y-13659150D01*
X9227205Y-13659150D02*
X9255777Y-13659150D01*
X9255777Y-13659150D02*
X9274825Y-13668674D01*
X9274825Y-13668674D02*
X9284348Y-13687722D01*
X9284348Y-13687722D02*
X9284348Y-13792484D01*
X9379586Y-13792484D02*
X9379586Y-13659150D01*
X9379586Y-13678198D02*
X9389110Y-13668674D01*
X9389110Y-13668674D02*
X9408158Y-13659150D01*
X9408158Y-13659150D02*
X9436729Y-13659150D01*
X9436729Y-13659150D02*
X9455777Y-13668674D01*
X9455777Y-13668674D02*
X9465301Y-13687722D01*
X9465301Y-13687722D02*
X9465301Y-13792484D01*
X9465301Y-13687722D02*
X9474825Y-13668674D01*
X9474825Y-13668674D02*
X9493872Y-13659150D01*
X9493872Y-13659150D02*
X9522444Y-13659150D01*
X9522444Y-13659150D02*
X9541491Y-13668674D01*
X9541491Y-13668674D02*
X9551015Y-13687722D01*
X9551015Y-13687722D02*
X9551015Y-13792484D01*
X9941491Y-13582960D02*
X9770063Y-13840103D01*
X10198634Y-13592484D02*
X10217682Y-13592484D01*
X10217682Y-13592484D02*
X10236729Y-13602008D01*
X10236729Y-13602008D02*
X10246253Y-13611531D01*
X10246253Y-13611531D02*
X10255777Y-13630579D01*
X10255777Y-13630579D02*
X10265301Y-13668674D01*
X10265301Y-13668674D02*
X10265301Y-13716293D01*
X10265301Y-13716293D02*
X10255777Y-13754388D01*
X10255777Y-13754388D02*
X10246253Y-13773436D01*
X10246253Y-13773436D02*
X10236729Y-13782960D01*
X10236729Y-13782960D02*
X10217682Y-13792484D01*
X10217682Y-13792484D02*
X10198634Y-13792484D01*
X10198634Y-13792484D02*
X10179587Y-13782960D01*
X10179587Y-13782960D02*
X10170063Y-13773436D01*
X10170063Y-13773436D02*
X10160539Y-13754388D01*
X10160539Y-13754388D02*
X10151015Y-13716293D01*
X10151015Y-13716293D02*
X10151015Y-13668674D01*
X10151015Y-13668674D02*
X10160539Y-13630579D01*
X10160539Y-13630579D02*
X10170063Y-13611531D01*
X10170063Y-13611531D02*
X10179587Y-13602008D01*
X10179587Y-13602008D02*
X10198634Y-13592484D01*
X10351015Y-13773436D02*
X10360539Y-13782960D01*
X10360539Y-13782960D02*
X10351015Y-13792484D01*
X10351015Y-13792484D02*
X10341491Y-13782960D01*
X10341491Y-13782960D02*
X10351015Y-13773436D01*
X10351015Y-13773436D02*
X10351015Y-13792484D01*
X10484348Y-13592484D02*
X10503396Y-13592484D01*
X10503396Y-13592484D02*
X10522444Y-13602008D01*
X10522444Y-13602008D02*
X10531968Y-13611531D01*
X10531968Y-13611531D02*
X10541491Y-13630579D01*
X10541491Y-13630579D02*
X10551015Y-13668674D01*
X10551015Y-13668674D02*
X10551015Y-13716293D01*
X10551015Y-13716293D02*
X10541491Y-13754388D01*
X10541491Y-13754388D02*
X10531968Y-13773436D01*
X10531968Y-13773436D02*
X10522444Y-13782960D01*
X10522444Y-13782960D02*
X10503396Y-13792484D01*
X10503396Y-13792484D02*
X10484348Y-13792484D01*
X10484348Y-13792484D02*
X10465301Y-13782960D01*
X10465301Y-13782960D02*
X10455777Y-13773436D01*
X10455777Y-13773436D02*
X10446253Y-13754388D01*
X10446253Y-13754388D02*
X10436729Y-13716293D01*
X10436729Y-13716293D02*
X10436729Y-13668674D01*
X10436729Y-13668674D02*
X10446253Y-13630579D01*
X10446253Y-13630579D02*
X10455777Y-13611531D01*
X10455777Y-13611531D02*
X10465301Y-13602008D01*
X10465301Y-13602008D02*
X10484348Y-13592484D01*
X10722444Y-13659150D02*
X10722444Y-13792484D01*
X10674825Y-13582960D02*
X10627206Y-13725817D01*
X10627206Y-13725817D02*
X10751015Y-13725817D01*
X10865301Y-13592484D02*
X10884349Y-13592484D01*
X10884349Y-13592484D02*
X10903396Y-13602008D01*
X10903396Y-13602008D02*
X10912920Y-13611531D01*
X10912920Y-13611531D02*
X10922444Y-13630579D01*
X10922444Y-13630579D02*
X10931968Y-13668674D01*
X10931968Y-13668674D02*
X10931968Y-13716293D01*
X10931968Y-13716293D02*
X10922444Y-13754388D01*
X10922444Y-13754388D02*
X10912920Y-13773436D01*
X10912920Y-13773436D02*
X10903396Y-13782960D01*
X10903396Y-13782960D02*
X10884349Y-13792484D01*
X10884349Y-13792484D02*
X10865301Y-13792484D01*
X10865301Y-13792484D02*
X10846253Y-13782960D01*
X10846253Y-13782960D02*
X10836729Y-13773436D01*
X10836729Y-13773436D02*
X10827206Y-13754388D01*
X10827206Y-13754388D02*
X10817682Y-13716293D01*
X10817682Y-13716293D02*
X10817682Y-13668674D01*
X10817682Y-13668674D02*
X10827206Y-13630579D01*
X10827206Y-13630579D02*
X10836729Y-13611531D01*
X10836729Y-13611531D02*
X10846253Y-13602008D01*
X10846253Y-13602008D02*
X10865301Y-13592484D01*
X11008158Y-13611531D02*
X11017682Y-13602008D01*
X11017682Y-13602008D02*
X11036729Y-13592484D01*
X11036729Y-13592484D02*
X11084349Y-13592484D01*
X11084349Y-13592484D02*
X11103396Y-13602008D01*
X11103396Y-13602008D02*
X11112920Y-13611531D01*
X11112920Y-13611531D02*
X11122444Y-13630579D01*
X11122444Y-13630579D02*
X11122444Y-13649627D01*
X11122444Y-13649627D02*
X11112920Y-13678198D01*
X11112920Y-13678198D02*
X10998634Y-13792484D01*
X10998634Y-13792484D02*
X11122444Y-13792484D01*
X11198634Y-13592484D02*
X11198634Y-13630579D01*
X11274825Y-13592484D02*
X11274825Y-13630579D01*
X11570063Y-13868674D02*
X11560539Y-13859150D01*
X11560539Y-13859150D02*
X11541491Y-13830579D01*
X11541491Y-13830579D02*
X11531968Y-13811531D01*
X11531968Y-13811531D02*
X11522444Y-13782960D01*
X11522444Y-13782960D02*
X11512920Y-13735341D01*
X11512920Y-13735341D02*
X11512920Y-13697246D01*
X11512920Y-13697246D02*
X11522444Y-13649627D01*
X11522444Y-13649627D02*
X11531968Y-13621055D01*
X11531968Y-13621055D02*
X11541491Y-13602008D01*
X11541491Y-13602008D02*
X11560539Y-13573436D01*
X11560539Y-13573436D02*
X11570063Y-13563912D01*
X11731968Y-13659150D02*
X11731968Y-13792484D01*
X11684348Y-13582960D02*
X11636729Y-13725817D01*
X11636729Y-13725817D02*
X11760539Y-13725817D01*
X11817682Y-13592484D02*
X11941491Y-13592484D01*
X11941491Y-13592484D02*
X11874825Y-13668674D01*
X11874825Y-13668674D02*
X11903396Y-13668674D01*
X11903396Y-13668674D02*
X11922444Y-13678198D01*
X11922444Y-13678198D02*
X11931968Y-13687722D01*
X11931968Y-13687722D02*
X11941491Y-13706769D01*
X11941491Y-13706769D02*
X11941491Y-13754388D01*
X11941491Y-13754388D02*
X11931968Y-13773436D01*
X11931968Y-13773436D02*
X11922444Y-13782960D01*
X11922444Y-13782960D02*
X11903396Y-13792484D01*
X11903396Y-13792484D02*
X11846253Y-13792484D01*
X11846253Y-13792484D02*
X11827206Y-13782960D01*
X11827206Y-13782960D02*
X11817682Y-13773436D01*
X12179587Y-13792484D02*
X12179587Y-13592484D01*
X12265301Y-13792484D02*
X12265301Y-13687722D01*
X12265301Y-13687722D02*
X12255777Y-13668674D01*
X12255777Y-13668674D02*
X12236730Y-13659150D01*
X12236730Y-13659150D02*
X12208158Y-13659150D01*
X12208158Y-13659150D02*
X12189110Y-13668674D01*
X12189110Y-13668674D02*
X12179587Y-13678198D01*
X12389110Y-13792484D02*
X12370063Y-13782960D01*
X12370063Y-13782960D02*
X12360539Y-13773436D01*
X12360539Y-13773436D02*
X12351015Y-13754388D01*
X12351015Y-13754388D02*
X12351015Y-13697246D01*
X12351015Y-13697246D02*
X12360539Y-13678198D01*
X12360539Y-13678198D02*
X12370063Y-13668674D01*
X12370063Y-13668674D02*
X12389110Y-13659150D01*
X12389110Y-13659150D02*
X12417682Y-13659150D01*
X12417682Y-13659150D02*
X12436730Y-13668674D01*
X12436730Y-13668674D02*
X12446253Y-13678198D01*
X12446253Y-13678198D02*
X12455777Y-13697246D01*
X12455777Y-13697246D02*
X12455777Y-13754388D01*
X12455777Y-13754388D02*
X12446253Y-13773436D01*
X12446253Y-13773436D02*
X12436730Y-13782960D01*
X12436730Y-13782960D02*
X12417682Y-13792484D01*
X12417682Y-13792484D02*
X12389110Y-13792484D01*
X12570063Y-13792484D02*
X12551015Y-13782960D01*
X12551015Y-13782960D02*
X12541491Y-13763912D01*
X12541491Y-13763912D02*
X12541491Y-13592484D01*
X12722444Y-13782960D02*
X12703396Y-13792484D01*
X12703396Y-13792484D02*
X12665301Y-13792484D01*
X12665301Y-13792484D02*
X12646253Y-13782960D01*
X12646253Y-13782960D02*
X12636730Y-13763912D01*
X12636730Y-13763912D02*
X12636730Y-13687722D01*
X12636730Y-13687722D02*
X12646253Y-13668674D01*
X12646253Y-13668674D02*
X12665301Y-13659150D01*
X12665301Y-13659150D02*
X12703396Y-13659150D01*
X12703396Y-13659150D02*
X12722444Y-13668674D01*
X12722444Y-13668674D02*
X12731968Y-13687722D01*
X12731968Y-13687722D02*
X12731968Y-13706769D01*
X12731968Y-13706769D02*
X12636730Y-13725817D01*
X12808158Y-13782960D02*
X12827206Y-13792484D01*
X12827206Y-13792484D02*
X12865301Y-13792484D01*
X12865301Y-13792484D02*
X12884349Y-13782960D01*
X12884349Y-13782960D02*
X12893872Y-13763912D01*
X12893872Y-13763912D02*
X12893872Y-13754388D01*
X12893872Y-13754388D02*
X12884349Y-13735341D01*
X12884349Y-13735341D02*
X12865301Y-13725817D01*
X12865301Y-13725817D02*
X12836730Y-13725817D01*
X12836730Y-13725817D02*
X12817682Y-13716293D01*
X12817682Y-13716293D02*
X12808158Y-13697246D01*
X12808158Y-13697246D02*
X12808158Y-13687722D01*
X12808158Y-13687722D02*
X12817682Y-13668674D01*
X12817682Y-13668674D02*
X12836730Y-13659150D01*
X12836730Y-13659150D02*
X12865301Y-13659150D01*
X12865301Y-13659150D02*
X12884349Y-13668674D01*
X12960539Y-13868674D02*
X12970063Y-13859150D01*
X12970063Y-13859150D02*
X12989111Y-13830579D01*
X12989111Y-13830579D02*
X12998634Y-13811531D01*
X12998634Y-13811531D02*
X13008158Y-13782960D01*
X13008158Y-13782960D02*
X13017682Y-13735341D01*
X13017682Y-13735341D02*
X13017682Y-13697246D01*
X13017682Y-13697246D02*
X13008158Y-13649627D01*
X13008158Y-13649627D02*
X12998634Y-13621055D01*
X12998634Y-13621055D02*
X12989111Y-13602008D01*
X12989111Y-13602008D02*
X12970063Y-13573436D01*
X12970063Y-13573436D02*
X12960539Y-13563912D01*
D13*
X7885000Y-13910000D02*
X7995000Y-14020000D01*
X7995000Y-13910000D02*
X7885000Y-14020000D01*
X7995000Y-13965000D02*
G75*
G02*
X7885000Y-13965000I-55000J0D01*
G01*
X7885000Y-13965000D02*
G75*
G02*
X7995000Y-13965000I55000J0D01*
G01*
D11*
X8360539Y-14056484D02*
X8246253Y-14056484D01*
X8303396Y-14056484D02*
X8303396Y-13856484D01*
X8303396Y-13856484D02*
X8284348Y-13885055D01*
X8284348Y-13885055D02*
X8265301Y-13904103D01*
X8265301Y-13904103D02*
X8246253Y-13913627D01*
X8446253Y-14037436D02*
X8455777Y-14046960D01*
X8455777Y-14046960D02*
X8446253Y-14056484D01*
X8446253Y-14056484D02*
X8436729Y-14046960D01*
X8436729Y-14046960D02*
X8446253Y-14037436D01*
X8446253Y-14037436D02*
X8446253Y-14056484D01*
X8646253Y-14056484D02*
X8531967Y-14056484D01*
X8589110Y-14056484D02*
X8589110Y-13856484D01*
X8589110Y-13856484D02*
X8570063Y-13885055D01*
X8570063Y-13885055D02*
X8551015Y-13904103D01*
X8551015Y-13904103D02*
X8531967Y-13913627D01*
X8770063Y-13856484D02*
X8789110Y-13856484D01*
X8789110Y-13856484D02*
X8808158Y-13866008D01*
X8808158Y-13866008D02*
X8817682Y-13875531D01*
X8817682Y-13875531D02*
X8827205Y-13894579D01*
X8827205Y-13894579D02*
X8836729Y-13932674D01*
X8836729Y-13932674D02*
X8836729Y-13980293D01*
X8836729Y-13980293D02*
X8827205Y-14018388D01*
X8827205Y-14018388D02*
X8817682Y-14037436D01*
X8817682Y-14037436D02*
X8808158Y-14046960D01*
X8808158Y-14046960D02*
X8789110Y-14056484D01*
X8789110Y-14056484D02*
X8770063Y-14056484D01*
X8770063Y-14056484D02*
X8751015Y-14046960D01*
X8751015Y-14046960D02*
X8741491Y-14037436D01*
X8741491Y-14037436D02*
X8731967Y-14018388D01*
X8731967Y-14018388D02*
X8722444Y-13980293D01*
X8722444Y-13980293D02*
X8722444Y-13932674D01*
X8722444Y-13932674D02*
X8731967Y-13894579D01*
X8731967Y-13894579D02*
X8741491Y-13875531D01*
X8741491Y-13875531D02*
X8751015Y-13866008D01*
X8751015Y-13866008D02*
X8770063Y-13856484D01*
X8960539Y-13856484D02*
X8979586Y-13856484D01*
X8979586Y-13856484D02*
X8998634Y-13866008D01*
X8998634Y-13866008D02*
X9008158Y-13875531D01*
X9008158Y-13875531D02*
X9017682Y-13894579D01*
X9017682Y-13894579D02*
X9027205Y-13932674D01*
X9027205Y-13932674D02*
X9027205Y-13980293D01*
X9027205Y-13980293D02*
X9017682Y-14018388D01*
X9017682Y-14018388D02*
X9008158Y-14037436D01*
X9008158Y-14037436D02*
X8998634Y-14046960D01*
X8998634Y-14046960D02*
X8979586Y-14056484D01*
X8979586Y-14056484D02*
X8960539Y-14056484D01*
X8960539Y-14056484D02*
X8941491Y-14046960D01*
X8941491Y-14046960D02*
X8931967Y-14037436D01*
X8931967Y-14037436D02*
X8922444Y-14018388D01*
X8922444Y-14018388D02*
X8912920Y-13980293D01*
X8912920Y-13980293D02*
X8912920Y-13932674D01*
X8912920Y-13932674D02*
X8922444Y-13894579D01*
X8922444Y-13894579D02*
X8931967Y-13875531D01*
X8931967Y-13875531D02*
X8941491Y-13866008D01*
X8941491Y-13866008D02*
X8960539Y-13856484D01*
X9112920Y-14056484D02*
X9112920Y-13923150D01*
X9112920Y-13942198D02*
X9122444Y-13932674D01*
X9122444Y-13932674D02*
X9141491Y-13923150D01*
X9141491Y-13923150D02*
X9170063Y-13923150D01*
X9170063Y-13923150D02*
X9189110Y-13932674D01*
X9189110Y-13932674D02*
X9198634Y-13951722D01*
X9198634Y-13951722D02*
X9198634Y-14056484D01*
X9198634Y-13951722D02*
X9208158Y-13932674D01*
X9208158Y-13932674D02*
X9227205Y-13923150D01*
X9227205Y-13923150D02*
X9255777Y-13923150D01*
X9255777Y-13923150D02*
X9274825Y-13932674D01*
X9274825Y-13932674D02*
X9284348Y-13951722D01*
X9284348Y-13951722D02*
X9284348Y-14056484D01*
X9379586Y-14056484D02*
X9379586Y-13923150D01*
X9379586Y-13942198D02*
X9389110Y-13932674D01*
X9389110Y-13932674D02*
X9408158Y-13923150D01*
X9408158Y-13923150D02*
X9436729Y-13923150D01*
X9436729Y-13923150D02*
X9455777Y-13932674D01*
X9455777Y-13932674D02*
X9465301Y-13951722D01*
X9465301Y-13951722D02*
X9465301Y-14056484D01*
X9465301Y-13951722D02*
X9474825Y-13932674D01*
X9474825Y-13932674D02*
X9493872Y-13923150D01*
X9493872Y-13923150D02*
X9522444Y-13923150D01*
X9522444Y-13923150D02*
X9541491Y-13932674D01*
X9541491Y-13932674D02*
X9551015Y-13951722D01*
X9551015Y-13951722D02*
X9551015Y-14056484D01*
X9941491Y-13846960D02*
X9770063Y-14104103D01*
X10198634Y-13856484D02*
X10217682Y-13856484D01*
X10217682Y-13856484D02*
X10236729Y-13866008D01*
X10236729Y-13866008D02*
X10246253Y-13875531D01*
X10246253Y-13875531D02*
X10255777Y-13894579D01*
X10255777Y-13894579D02*
X10265301Y-13932674D01*
X10265301Y-13932674D02*
X10265301Y-13980293D01*
X10265301Y-13980293D02*
X10255777Y-14018388D01*
X10255777Y-14018388D02*
X10246253Y-14037436D01*
X10246253Y-14037436D02*
X10236729Y-14046960D01*
X10236729Y-14046960D02*
X10217682Y-14056484D01*
X10217682Y-14056484D02*
X10198634Y-14056484D01*
X10198634Y-14056484D02*
X10179587Y-14046960D01*
X10179587Y-14046960D02*
X10170063Y-14037436D01*
X10170063Y-14037436D02*
X10160539Y-14018388D01*
X10160539Y-14018388D02*
X10151015Y-13980293D01*
X10151015Y-13980293D02*
X10151015Y-13932674D01*
X10151015Y-13932674D02*
X10160539Y-13894579D01*
X10160539Y-13894579D02*
X10170063Y-13875531D01*
X10170063Y-13875531D02*
X10179587Y-13866008D01*
X10179587Y-13866008D02*
X10198634Y-13856484D01*
X10351015Y-14037436D02*
X10360539Y-14046960D01*
X10360539Y-14046960D02*
X10351015Y-14056484D01*
X10351015Y-14056484D02*
X10341491Y-14046960D01*
X10341491Y-14046960D02*
X10351015Y-14037436D01*
X10351015Y-14037436D02*
X10351015Y-14056484D01*
X10484348Y-13856484D02*
X10503396Y-13856484D01*
X10503396Y-13856484D02*
X10522444Y-13866008D01*
X10522444Y-13866008D02*
X10531968Y-13875531D01*
X10531968Y-13875531D02*
X10541491Y-13894579D01*
X10541491Y-13894579D02*
X10551015Y-13932674D01*
X10551015Y-13932674D02*
X10551015Y-13980293D01*
X10551015Y-13980293D02*
X10541491Y-14018388D01*
X10541491Y-14018388D02*
X10531968Y-14037436D01*
X10531968Y-14037436D02*
X10522444Y-14046960D01*
X10522444Y-14046960D02*
X10503396Y-14056484D01*
X10503396Y-14056484D02*
X10484348Y-14056484D01*
X10484348Y-14056484D02*
X10465301Y-14046960D01*
X10465301Y-14046960D02*
X10455777Y-14037436D01*
X10455777Y-14037436D02*
X10446253Y-14018388D01*
X10446253Y-14018388D02*
X10436729Y-13980293D01*
X10436729Y-13980293D02*
X10436729Y-13932674D01*
X10436729Y-13932674D02*
X10446253Y-13894579D01*
X10446253Y-13894579D02*
X10455777Y-13875531D01*
X10455777Y-13875531D02*
X10465301Y-13866008D01*
X10465301Y-13866008D02*
X10484348Y-13856484D01*
X10722444Y-13923150D02*
X10722444Y-14056484D01*
X10674825Y-13846960D02*
X10627206Y-13989817D01*
X10627206Y-13989817D02*
X10751015Y-13989817D01*
X10808158Y-13856484D02*
X10931968Y-13856484D01*
X10931968Y-13856484D02*
X10865301Y-13932674D01*
X10865301Y-13932674D02*
X10893872Y-13932674D01*
X10893872Y-13932674D02*
X10912920Y-13942198D01*
X10912920Y-13942198D02*
X10922444Y-13951722D01*
X10922444Y-13951722D02*
X10931968Y-13970769D01*
X10931968Y-13970769D02*
X10931968Y-14018388D01*
X10931968Y-14018388D02*
X10922444Y-14037436D01*
X10922444Y-14037436D02*
X10912920Y-14046960D01*
X10912920Y-14046960D02*
X10893872Y-14056484D01*
X10893872Y-14056484D02*
X10836729Y-14056484D01*
X10836729Y-14056484D02*
X10817682Y-14046960D01*
X10817682Y-14046960D02*
X10808158Y-14037436D01*
X10998634Y-13856484D02*
X11122444Y-13856484D01*
X11122444Y-13856484D02*
X11055777Y-13932674D01*
X11055777Y-13932674D02*
X11084349Y-13932674D01*
X11084349Y-13932674D02*
X11103396Y-13942198D01*
X11103396Y-13942198D02*
X11112920Y-13951722D01*
X11112920Y-13951722D02*
X11122444Y-13970769D01*
X11122444Y-13970769D02*
X11122444Y-14018388D01*
X11122444Y-14018388D02*
X11112920Y-14037436D01*
X11112920Y-14037436D02*
X11103396Y-14046960D01*
X11103396Y-14046960D02*
X11084349Y-14056484D01*
X11084349Y-14056484D02*
X11027206Y-14056484D01*
X11027206Y-14056484D02*
X11008158Y-14046960D01*
X11008158Y-14046960D02*
X10998634Y-14037436D01*
X11198634Y-13856484D02*
X11198634Y-13894579D01*
X11274825Y-13856484D02*
X11274825Y-13894579D01*
X11570063Y-14132674D02*
X11560539Y-14123150D01*
X11560539Y-14123150D02*
X11541491Y-14094579D01*
X11541491Y-14094579D02*
X11531968Y-14075531D01*
X11531968Y-14075531D02*
X11522444Y-14046960D01*
X11522444Y-14046960D02*
X11512920Y-13999341D01*
X11512920Y-13999341D02*
X11512920Y-13961246D01*
X11512920Y-13961246D02*
X11522444Y-13913627D01*
X11522444Y-13913627D02*
X11531968Y-13885055D01*
X11531968Y-13885055D02*
X11541491Y-13866008D01*
X11541491Y-13866008D02*
X11560539Y-13837436D01*
X11560539Y-13837436D02*
X11570063Y-13827912D01*
X11684348Y-13856484D02*
X11703396Y-13856484D01*
X11703396Y-13856484D02*
X11722444Y-13866008D01*
X11722444Y-13866008D02*
X11731968Y-13875531D01*
X11731968Y-13875531D02*
X11741491Y-13894579D01*
X11741491Y-13894579D02*
X11751015Y-13932674D01*
X11751015Y-13932674D02*
X11751015Y-13980293D01*
X11751015Y-13980293D02*
X11741491Y-14018388D01*
X11741491Y-14018388D02*
X11731968Y-14037436D01*
X11731968Y-14037436D02*
X11722444Y-14046960D01*
X11722444Y-14046960D02*
X11703396Y-14056484D01*
X11703396Y-14056484D02*
X11684348Y-14056484D01*
X11684348Y-14056484D02*
X11665301Y-14046960D01*
X11665301Y-14046960D02*
X11655777Y-14037436D01*
X11655777Y-14037436D02*
X11646253Y-14018388D01*
X11646253Y-14018388D02*
X11636729Y-13980293D01*
X11636729Y-13980293D02*
X11636729Y-13932674D01*
X11636729Y-13932674D02*
X11646253Y-13894579D01*
X11646253Y-13894579D02*
X11655777Y-13875531D01*
X11655777Y-13875531D02*
X11665301Y-13866008D01*
X11665301Y-13866008D02*
X11684348Y-13856484D01*
X11989110Y-14056484D02*
X11989110Y-13856484D01*
X12074825Y-14056484D02*
X12074825Y-13951722D01*
X12074825Y-13951722D02*
X12065301Y-13932674D01*
X12065301Y-13932674D02*
X12046253Y-13923150D01*
X12046253Y-13923150D02*
X12017682Y-13923150D01*
X12017682Y-13923150D02*
X11998634Y-13932674D01*
X11998634Y-13932674D02*
X11989110Y-13942198D01*
X12198634Y-14056484D02*
X12179587Y-14046960D01*
X12179587Y-14046960D02*
X12170063Y-14037436D01*
X12170063Y-14037436D02*
X12160539Y-14018388D01*
X12160539Y-14018388D02*
X12160539Y-13961246D01*
X12160539Y-13961246D02*
X12170063Y-13942198D01*
X12170063Y-13942198D02*
X12179587Y-13932674D01*
X12179587Y-13932674D02*
X12198634Y-13923150D01*
X12198634Y-13923150D02*
X12227206Y-13923150D01*
X12227206Y-13923150D02*
X12246253Y-13932674D01*
X12246253Y-13932674D02*
X12255777Y-13942198D01*
X12255777Y-13942198D02*
X12265301Y-13961246D01*
X12265301Y-13961246D02*
X12265301Y-14018388D01*
X12265301Y-14018388D02*
X12255777Y-14037436D01*
X12255777Y-14037436D02*
X12246253Y-14046960D01*
X12246253Y-14046960D02*
X12227206Y-14056484D01*
X12227206Y-14056484D02*
X12198634Y-14056484D01*
X12379587Y-14056484D02*
X12360539Y-14046960D01*
X12360539Y-14046960D02*
X12351015Y-14027912D01*
X12351015Y-14027912D02*
X12351015Y-13856484D01*
X12531968Y-14046960D02*
X12512920Y-14056484D01*
X12512920Y-14056484D02*
X12474825Y-14056484D01*
X12474825Y-14056484D02*
X12455777Y-14046960D01*
X12455777Y-14046960D02*
X12446253Y-14027912D01*
X12446253Y-14027912D02*
X12446253Y-13951722D01*
X12446253Y-13951722D02*
X12455777Y-13932674D01*
X12455777Y-13932674D02*
X12474825Y-13923150D01*
X12474825Y-13923150D02*
X12512920Y-13923150D01*
X12512920Y-13923150D02*
X12531968Y-13932674D01*
X12531968Y-13932674D02*
X12541491Y-13951722D01*
X12541491Y-13951722D02*
X12541491Y-13970769D01*
X12541491Y-13970769D02*
X12446253Y-13989817D01*
X12617682Y-14046960D02*
X12636730Y-14056484D01*
X12636730Y-14056484D02*
X12674825Y-14056484D01*
X12674825Y-14056484D02*
X12693872Y-14046960D01*
X12693872Y-14046960D02*
X12703396Y-14027912D01*
X12703396Y-14027912D02*
X12703396Y-14018388D01*
X12703396Y-14018388D02*
X12693872Y-13999341D01*
X12693872Y-13999341D02*
X12674825Y-13989817D01*
X12674825Y-13989817D02*
X12646253Y-13989817D01*
X12646253Y-13989817D02*
X12627206Y-13980293D01*
X12627206Y-13980293D02*
X12617682Y-13961246D01*
X12617682Y-13961246D02*
X12617682Y-13951722D01*
X12617682Y-13951722D02*
X12627206Y-13932674D01*
X12627206Y-13932674D02*
X12646253Y-13923150D01*
X12646253Y-13923150D02*
X12674825Y-13923150D01*
X12674825Y-13923150D02*
X12693872Y-13932674D01*
X12941492Y-13980293D02*
X13093873Y-13980293D01*
X13017682Y-14056484D02*
X13017682Y-13904103D01*
X13322444Y-13856484D02*
X13446253Y-13856484D01*
X13446253Y-13856484D02*
X13379587Y-13932674D01*
X13379587Y-13932674D02*
X13408158Y-13932674D01*
X13408158Y-13932674D02*
X13427206Y-13942198D01*
X13427206Y-13942198D02*
X13436730Y-13951722D01*
X13436730Y-13951722D02*
X13446253Y-13970769D01*
X13446253Y-13970769D02*
X13446253Y-14018388D01*
X13446253Y-14018388D02*
X13436730Y-14037436D01*
X13436730Y-14037436D02*
X13427206Y-14046960D01*
X13427206Y-14046960D02*
X13408158Y-14056484D01*
X13408158Y-14056484D02*
X13351015Y-14056484D01*
X13351015Y-14056484D02*
X13331968Y-14046960D01*
X13331968Y-14046960D02*
X13322444Y-14037436D01*
X13674825Y-14046960D02*
X13693873Y-14056484D01*
X13693873Y-14056484D02*
X13731968Y-14056484D01*
X13731968Y-14056484D02*
X13751015Y-14046960D01*
X13751015Y-14046960D02*
X13760539Y-14027912D01*
X13760539Y-14027912D02*
X13760539Y-14018388D01*
X13760539Y-14018388D02*
X13751015Y-13999341D01*
X13751015Y-13999341D02*
X13731968Y-13989817D01*
X13731968Y-13989817D02*
X13703396Y-13989817D01*
X13703396Y-13989817D02*
X13684349Y-13980293D01*
X13684349Y-13980293D02*
X13674825Y-13961246D01*
X13674825Y-13961246D02*
X13674825Y-13951722D01*
X13674825Y-13951722D02*
X13684349Y-13932674D01*
X13684349Y-13932674D02*
X13703396Y-13923150D01*
X13703396Y-13923150D02*
X13731968Y-13923150D01*
X13731968Y-13923150D02*
X13751015Y-13932674D01*
X13874825Y-14056484D02*
X13855777Y-14046960D01*
X13855777Y-14046960D02*
X13846254Y-14027912D01*
X13846254Y-14027912D02*
X13846254Y-13856484D01*
X13979587Y-14056484D02*
X13960539Y-14046960D01*
X13960539Y-14046960D02*
X13951015Y-14037436D01*
X13951015Y-14037436D02*
X13941492Y-14018388D01*
X13941492Y-14018388D02*
X13941492Y-13961246D01*
X13941492Y-13961246D02*
X13951015Y-13942198D01*
X13951015Y-13942198D02*
X13960539Y-13932674D01*
X13960539Y-13932674D02*
X13979587Y-13923150D01*
X13979587Y-13923150D02*
X14008158Y-13923150D01*
X14008158Y-13923150D02*
X14027206Y-13932674D01*
X14027206Y-13932674D02*
X14036730Y-13942198D01*
X14036730Y-13942198D02*
X14046254Y-13961246D01*
X14046254Y-13961246D02*
X14046254Y-14018388D01*
X14046254Y-14018388D02*
X14036730Y-14037436D01*
X14036730Y-14037436D02*
X14027206Y-14046960D01*
X14027206Y-14046960D02*
X14008158Y-14056484D01*
X14008158Y-14056484D02*
X13979587Y-14056484D01*
X14103396Y-13923150D02*
X14179587Y-13923150D01*
X14131968Y-13856484D02*
X14131968Y-14027912D01*
X14131968Y-14027912D02*
X14141492Y-14046960D01*
X14141492Y-14046960D02*
X14160539Y-14056484D01*
X14160539Y-14056484D02*
X14179587Y-14056484D01*
X14236730Y-14046960D02*
X14255777Y-14056484D01*
X14255777Y-14056484D02*
X14293873Y-14056484D01*
X14293873Y-14056484D02*
X14312920Y-14046960D01*
X14312920Y-14046960D02*
X14322444Y-14027912D01*
X14322444Y-14027912D02*
X14322444Y-14018388D01*
X14322444Y-14018388D02*
X14312920Y-13999341D01*
X14312920Y-13999341D02*
X14293873Y-13989817D01*
X14293873Y-13989817D02*
X14265301Y-13989817D01*
X14265301Y-13989817D02*
X14246254Y-13980293D01*
X14246254Y-13980293D02*
X14236730Y-13961246D01*
X14236730Y-13961246D02*
X14236730Y-13951722D01*
X14236730Y-13951722D02*
X14246254Y-13932674D01*
X14246254Y-13932674D02*
X14265301Y-13923150D01*
X14265301Y-13923150D02*
X14293873Y-13923150D01*
X14293873Y-13923150D02*
X14312920Y-13932674D01*
X14389111Y-14132674D02*
X14398635Y-14123150D01*
X14398635Y-14123150D02*
X14417682Y-14094579D01*
X14417682Y-14094579D02*
X14427206Y-14075531D01*
X14427206Y-14075531D02*
X14436730Y-14046960D01*
X14436730Y-14046960D02*
X14446254Y-13999341D01*
X14446254Y-13999341D02*
X14446254Y-13961246D01*
X14446254Y-13961246D02*
X14436730Y-13913627D01*
X14436730Y-13913627D02*
X14427206Y-13885055D01*
X14427206Y-13885055D02*
X14417682Y-13866008D01*
X14417682Y-13866008D02*
X14398635Y-13837436D01*
X14398635Y-13837436D02*
X14389111Y-13827912D01*
D14*
X7875000Y-14169000D02*
X7995000Y-14289000D01*
X7995000Y-14169000D02*
X7875000Y-14289000D01*
X7935000Y-14169000D02*
X7935000Y-14289000D01*
X7875000Y-14229000D02*
X7995000Y-14229000D01*
D11*
X8360539Y-14320484D02*
X8246253Y-14320484D01*
X8303396Y-14320484D02*
X8303396Y-14120484D01*
X8303396Y-14120484D02*
X8284348Y-14149055D01*
X8284348Y-14149055D02*
X8265301Y-14168103D01*
X8265301Y-14168103D02*
X8246253Y-14177627D01*
X8446253Y-14301436D02*
X8455777Y-14310960D01*
X8455777Y-14310960D02*
X8446253Y-14320484D01*
X8446253Y-14320484D02*
X8436729Y-14310960D01*
X8436729Y-14310960D02*
X8446253Y-14301436D01*
X8446253Y-14301436D02*
X8446253Y-14320484D01*
X8531967Y-14139531D02*
X8541491Y-14130008D01*
X8541491Y-14130008D02*
X8560539Y-14120484D01*
X8560539Y-14120484D02*
X8608158Y-14120484D01*
X8608158Y-14120484D02*
X8627205Y-14130008D01*
X8627205Y-14130008D02*
X8636729Y-14139531D01*
X8636729Y-14139531D02*
X8646253Y-14158579D01*
X8646253Y-14158579D02*
X8646253Y-14177627D01*
X8646253Y-14177627D02*
X8636729Y-14206198D01*
X8636729Y-14206198D02*
X8522444Y-14320484D01*
X8522444Y-14320484D02*
X8646253Y-14320484D01*
X8770063Y-14120484D02*
X8789110Y-14120484D01*
X8789110Y-14120484D02*
X8808158Y-14130008D01*
X8808158Y-14130008D02*
X8817682Y-14139531D01*
X8817682Y-14139531D02*
X8827205Y-14158579D01*
X8827205Y-14158579D02*
X8836729Y-14196674D01*
X8836729Y-14196674D02*
X8836729Y-14244293D01*
X8836729Y-14244293D02*
X8827205Y-14282388D01*
X8827205Y-14282388D02*
X8817682Y-14301436D01*
X8817682Y-14301436D02*
X8808158Y-14310960D01*
X8808158Y-14310960D02*
X8789110Y-14320484D01*
X8789110Y-14320484D02*
X8770063Y-14320484D01*
X8770063Y-14320484D02*
X8751015Y-14310960D01*
X8751015Y-14310960D02*
X8741491Y-14301436D01*
X8741491Y-14301436D02*
X8731967Y-14282388D01*
X8731967Y-14282388D02*
X8722444Y-14244293D01*
X8722444Y-14244293D02*
X8722444Y-14196674D01*
X8722444Y-14196674D02*
X8731967Y-14158579D01*
X8731967Y-14158579D02*
X8741491Y-14139531D01*
X8741491Y-14139531D02*
X8751015Y-14130008D01*
X8751015Y-14130008D02*
X8770063Y-14120484D01*
X8960539Y-14120484D02*
X8979586Y-14120484D01*
X8979586Y-14120484D02*
X8998634Y-14130008D01*
X8998634Y-14130008D02*
X9008158Y-14139531D01*
X9008158Y-14139531D02*
X9017682Y-14158579D01*
X9017682Y-14158579D02*
X9027205Y-14196674D01*
X9027205Y-14196674D02*
X9027205Y-14244293D01*
X9027205Y-14244293D02*
X9017682Y-14282388D01*
X9017682Y-14282388D02*
X9008158Y-14301436D01*
X9008158Y-14301436D02*
X8998634Y-14310960D01*
X8998634Y-14310960D02*
X8979586Y-14320484D01*
X8979586Y-14320484D02*
X8960539Y-14320484D01*
X8960539Y-14320484D02*
X8941491Y-14310960D01*
X8941491Y-14310960D02*
X8931967Y-14301436D01*
X8931967Y-14301436D02*
X8922444Y-14282388D01*
X8922444Y-14282388D02*
X8912920Y-14244293D01*
X8912920Y-14244293D02*
X8912920Y-14196674D01*
X8912920Y-14196674D02*
X8922444Y-14158579D01*
X8922444Y-14158579D02*
X8931967Y-14139531D01*
X8931967Y-14139531D02*
X8941491Y-14130008D01*
X8941491Y-14130008D02*
X8960539Y-14120484D01*
X9112920Y-14320484D02*
X9112920Y-14187150D01*
X9112920Y-14206198D02*
X9122444Y-14196674D01*
X9122444Y-14196674D02*
X9141491Y-14187150D01*
X9141491Y-14187150D02*
X9170063Y-14187150D01*
X9170063Y-14187150D02*
X9189110Y-14196674D01*
X9189110Y-14196674D02*
X9198634Y-14215722D01*
X9198634Y-14215722D02*
X9198634Y-14320484D01*
X9198634Y-14215722D02*
X9208158Y-14196674D01*
X9208158Y-14196674D02*
X9227205Y-14187150D01*
X9227205Y-14187150D02*
X9255777Y-14187150D01*
X9255777Y-14187150D02*
X9274825Y-14196674D01*
X9274825Y-14196674D02*
X9284348Y-14215722D01*
X9284348Y-14215722D02*
X9284348Y-14320484D01*
X9379586Y-14320484D02*
X9379586Y-14187150D01*
X9379586Y-14206198D02*
X9389110Y-14196674D01*
X9389110Y-14196674D02*
X9408158Y-14187150D01*
X9408158Y-14187150D02*
X9436729Y-14187150D01*
X9436729Y-14187150D02*
X9455777Y-14196674D01*
X9455777Y-14196674D02*
X9465301Y-14215722D01*
X9465301Y-14215722D02*
X9465301Y-14320484D01*
X9465301Y-14215722D02*
X9474825Y-14196674D01*
X9474825Y-14196674D02*
X9493872Y-14187150D01*
X9493872Y-14187150D02*
X9522444Y-14187150D01*
X9522444Y-14187150D02*
X9541491Y-14196674D01*
X9541491Y-14196674D02*
X9551015Y-14215722D01*
X9551015Y-14215722D02*
X9551015Y-14320484D01*
X9941491Y-14110960D02*
X9770063Y-14368103D01*
X10198634Y-14120484D02*
X10217682Y-14120484D01*
X10217682Y-14120484D02*
X10236729Y-14130008D01*
X10236729Y-14130008D02*
X10246253Y-14139531D01*
X10246253Y-14139531D02*
X10255777Y-14158579D01*
X10255777Y-14158579D02*
X10265301Y-14196674D01*
X10265301Y-14196674D02*
X10265301Y-14244293D01*
X10265301Y-14244293D02*
X10255777Y-14282388D01*
X10255777Y-14282388D02*
X10246253Y-14301436D01*
X10246253Y-14301436D02*
X10236729Y-14310960D01*
X10236729Y-14310960D02*
X10217682Y-14320484D01*
X10217682Y-14320484D02*
X10198634Y-14320484D01*
X10198634Y-14320484D02*
X10179587Y-14310960D01*
X10179587Y-14310960D02*
X10170063Y-14301436D01*
X10170063Y-14301436D02*
X10160539Y-14282388D01*
X10160539Y-14282388D02*
X10151015Y-14244293D01*
X10151015Y-14244293D02*
X10151015Y-14196674D01*
X10151015Y-14196674D02*
X10160539Y-14158579D01*
X10160539Y-14158579D02*
X10170063Y-14139531D01*
X10170063Y-14139531D02*
X10179587Y-14130008D01*
X10179587Y-14130008D02*
X10198634Y-14120484D01*
X10351015Y-14301436D02*
X10360539Y-14310960D01*
X10360539Y-14310960D02*
X10351015Y-14320484D01*
X10351015Y-14320484D02*
X10341491Y-14310960D01*
X10341491Y-14310960D02*
X10351015Y-14301436D01*
X10351015Y-14301436D02*
X10351015Y-14320484D01*
X10484348Y-14120484D02*
X10503396Y-14120484D01*
X10503396Y-14120484D02*
X10522444Y-14130008D01*
X10522444Y-14130008D02*
X10531968Y-14139531D01*
X10531968Y-14139531D02*
X10541491Y-14158579D01*
X10541491Y-14158579D02*
X10551015Y-14196674D01*
X10551015Y-14196674D02*
X10551015Y-14244293D01*
X10551015Y-14244293D02*
X10541491Y-14282388D01*
X10541491Y-14282388D02*
X10531968Y-14301436D01*
X10531968Y-14301436D02*
X10522444Y-14310960D01*
X10522444Y-14310960D02*
X10503396Y-14320484D01*
X10503396Y-14320484D02*
X10484348Y-14320484D01*
X10484348Y-14320484D02*
X10465301Y-14310960D01*
X10465301Y-14310960D02*
X10455777Y-14301436D01*
X10455777Y-14301436D02*
X10446253Y-14282388D01*
X10446253Y-14282388D02*
X10436729Y-14244293D01*
X10436729Y-14244293D02*
X10436729Y-14196674D01*
X10436729Y-14196674D02*
X10446253Y-14158579D01*
X10446253Y-14158579D02*
X10455777Y-14139531D01*
X10455777Y-14139531D02*
X10465301Y-14130008D01*
X10465301Y-14130008D02*
X10484348Y-14120484D01*
X10722444Y-14187150D02*
X10722444Y-14320484D01*
X10674825Y-14110960D02*
X10627206Y-14253817D01*
X10627206Y-14253817D02*
X10751015Y-14253817D01*
X10808158Y-14120484D02*
X10941491Y-14120484D01*
X10941491Y-14120484D02*
X10855777Y-14320484D01*
X11008158Y-14139531D02*
X11017682Y-14130008D01*
X11017682Y-14130008D02*
X11036729Y-14120484D01*
X11036729Y-14120484D02*
X11084349Y-14120484D01*
X11084349Y-14120484D02*
X11103396Y-14130008D01*
X11103396Y-14130008D02*
X11112920Y-14139531D01*
X11112920Y-14139531D02*
X11122444Y-14158579D01*
X11122444Y-14158579D02*
X11122444Y-14177627D01*
X11122444Y-14177627D02*
X11112920Y-14206198D01*
X11112920Y-14206198D02*
X10998634Y-14320484D01*
X10998634Y-14320484D02*
X11122444Y-14320484D01*
X11198634Y-14120484D02*
X11198634Y-14158579D01*
X11274825Y-14120484D02*
X11274825Y-14158579D01*
X11570063Y-14396674D02*
X11560539Y-14387150D01*
X11560539Y-14387150D02*
X11541491Y-14358579D01*
X11541491Y-14358579D02*
X11531968Y-14339531D01*
X11531968Y-14339531D02*
X11522444Y-14310960D01*
X11522444Y-14310960D02*
X11512920Y-14263341D01*
X11512920Y-14263341D02*
X11512920Y-14225246D01*
X11512920Y-14225246D02*
X11522444Y-14177627D01*
X11522444Y-14177627D02*
X11531968Y-14149055D01*
X11531968Y-14149055D02*
X11541491Y-14130008D01*
X11541491Y-14130008D02*
X11560539Y-14101436D01*
X11560539Y-14101436D02*
X11570063Y-14091912D01*
X11731968Y-14187150D02*
X11731968Y-14320484D01*
X11684348Y-14110960D02*
X11636729Y-14253817D01*
X11636729Y-14253817D02*
X11760539Y-14253817D01*
X11989110Y-14320484D02*
X11989110Y-14120484D01*
X12074825Y-14320484D02*
X12074825Y-14215722D01*
X12074825Y-14215722D02*
X12065301Y-14196674D01*
X12065301Y-14196674D02*
X12046253Y-14187150D01*
X12046253Y-14187150D02*
X12017682Y-14187150D01*
X12017682Y-14187150D02*
X11998634Y-14196674D01*
X11998634Y-14196674D02*
X11989110Y-14206198D01*
X12198634Y-14320484D02*
X12179587Y-14310960D01*
X12179587Y-14310960D02*
X12170063Y-14301436D01*
X12170063Y-14301436D02*
X12160539Y-14282388D01*
X12160539Y-14282388D02*
X12160539Y-14225246D01*
X12160539Y-14225246D02*
X12170063Y-14206198D01*
X12170063Y-14206198D02*
X12179587Y-14196674D01*
X12179587Y-14196674D02*
X12198634Y-14187150D01*
X12198634Y-14187150D02*
X12227206Y-14187150D01*
X12227206Y-14187150D02*
X12246253Y-14196674D01*
X12246253Y-14196674D02*
X12255777Y-14206198D01*
X12255777Y-14206198D02*
X12265301Y-14225246D01*
X12265301Y-14225246D02*
X12265301Y-14282388D01*
X12265301Y-14282388D02*
X12255777Y-14301436D01*
X12255777Y-14301436D02*
X12246253Y-14310960D01*
X12246253Y-14310960D02*
X12227206Y-14320484D01*
X12227206Y-14320484D02*
X12198634Y-14320484D01*
X12379587Y-14320484D02*
X12360539Y-14310960D01*
X12360539Y-14310960D02*
X12351015Y-14291912D01*
X12351015Y-14291912D02*
X12351015Y-14120484D01*
X12531968Y-14310960D02*
X12512920Y-14320484D01*
X12512920Y-14320484D02*
X12474825Y-14320484D01*
X12474825Y-14320484D02*
X12455777Y-14310960D01*
X12455777Y-14310960D02*
X12446253Y-14291912D01*
X12446253Y-14291912D02*
X12446253Y-14215722D01*
X12446253Y-14215722D02*
X12455777Y-14196674D01*
X12455777Y-14196674D02*
X12474825Y-14187150D01*
X12474825Y-14187150D02*
X12512920Y-14187150D01*
X12512920Y-14187150D02*
X12531968Y-14196674D01*
X12531968Y-14196674D02*
X12541491Y-14215722D01*
X12541491Y-14215722D02*
X12541491Y-14234769D01*
X12541491Y-14234769D02*
X12446253Y-14253817D01*
X12617682Y-14310960D02*
X12636730Y-14320484D01*
X12636730Y-14320484D02*
X12674825Y-14320484D01*
X12674825Y-14320484D02*
X12693872Y-14310960D01*
X12693872Y-14310960D02*
X12703396Y-14291912D01*
X12703396Y-14291912D02*
X12703396Y-14282388D01*
X12703396Y-14282388D02*
X12693872Y-14263341D01*
X12693872Y-14263341D02*
X12674825Y-14253817D01*
X12674825Y-14253817D02*
X12646253Y-14253817D01*
X12646253Y-14253817D02*
X12627206Y-14244293D01*
X12627206Y-14244293D02*
X12617682Y-14225246D01*
X12617682Y-14225246D02*
X12617682Y-14215722D01*
X12617682Y-14215722D02*
X12627206Y-14196674D01*
X12627206Y-14196674D02*
X12646253Y-14187150D01*
X12646253Y-14187150D02*
X12674825Y-14187150D01*
X12674825Y-14187150D02*
X12693872Y-14196674D01*
X12770063Y-14396674D02*
X12779587Y-14387150D01*
X12779587Y-14387150D02*
X12798634Y-14358579D01*
X12798634Y-14358579D02*
X12808158Y-14339531D01*
X12808158Y-14339531D02*
X12817682Y-14310960D01*
X12817682Y-14310960D02*
X12827206Y-14263341D01*
X12827206Y-14263341D02*
X12827206Y-14225246D01*
X12827206Y-14225246D02*
X12817682Y-14177627D01*
X12817682Y-14177627D02*
X12808158Y-14149055D01*
X12808158Y-14149055D02*
X12798634Y-14130008D01*
X12798634Y-14130008D02*
X12779587Y-14101436D01*
X12779587Y-14101436D02*
X12770063Y-14091912D01*
X7795000Y-14393000D02*
X7995000Y-14593000D01*
X7995000Y-14393000D02*
X7795000Y-14593000D01*
X7965711Y-14563711D02*
X7965711Y-14422289D01*
X7824289Y-14422289D01*
X7824289Y-14563711D01*
X7965711Y-14563711D01*
X8236729Y-14384484D02*
X8360539Y-14384484D01*
X8360539Y-14384484D02*
X8293872Y-14460674D01*
X8293872Y-14460674D02*
X8322443Y-14460674D01*
X8322443Y-14460674D02*
X8341491Y-14470198D01*
X8341491Y-14470198D02*
X8351015Y-14479722D01*
X8351015Y-14479722D02*
X8360539Y-14498769D01*
X8360539Y-14498769D02*
X8360539Y-14546388D01*
X8360539Y-14546388D02*
X8351015Y-14565436D01*
X8351015Y-14565436D02*
X8341491Y-14574960D01*
X8341491Y-14574960D02*
X8322443Y-14584484D01*
X8322443Y-14584484D02*
X8265301Y-14584484D01*
X8265301Y-14584484D02*
X8246253Y-14574960D01*
X8246253Y-14574960D02*
X8236729Y-14565436D01*
X8446253Y-14565436D02*
X8455777Y-14574960D01*
X8455777Y-14574960D02*
X8446253Y-14584484D01*
X8446253Y-14584484D02*
X8436729Y-14574960D01*
X8436729Y-14574960D02*
X8446253Y-14565436D01*
X8446253Y-14565436D02*
X8446253Y-14584484D01*
X8531967Y-14403531D02*
X8541491Y-14394008D01*
X8541491Y-14394008D02*
X8560539Y-14384484D01*
X8560539Y-14384484D02*
X8608158Y-14384484D01*
X8608158Y-14384484D02*
X8627205Y-14394008D01*
X8627205Y-14394008D02*
X8636729Y-14403531D01*
X8636729Y-14403531D02*
X8646253Y-14422579D01*
X8646253Y-14422579D02*
X8646253Y-14441627D01*
X8646253Y-14441627D02*
X8636729Y-14470198D01*
X8636729Y-14470198D02*
X8522444Y-14584484D01*
X8522444Y-14584484D02*
X8646253Y-14584484D01*
X8770063Y-14384484D02*
X8789110Y-14384484D01*
X8789110Y-14384484D02*
X8808158Y-14394008D01*
X8808158Y-14394008D02*
X8817682Y-14403531D01*
X8817682Y-14403531D02*
X8827205Y-14422579D01*
X8827205Y-14422579D02*
X8836729Y-14460674D01*
X8836729Y-14460674D02*
X8836729Y-14508293D01*
X8836729Y-14508293D02*
X8827205Y-14546388D01*
X8827205Y-14546388D02*
X8817682Y-14565436D01*
X8817682Y-14565436D02*
X8808158Y-14574960D01*
X8808158Y-14574960D02*
X8789110Y-14584484D01*
X8789110Y-14584484D02*
X8770063Y-14584484D01*
X8770063Y-14584484D02*
X8751015Y-14574960D01*
X8751015Y-14574960D02*
X8741491Y-14565436D01*
X8741491Y-14565436D02*
X8731967Y-14546388D01*
X8731967Y-14546388D02*
X8722444Y-14508293D01*
X8722444Y-14508293D02*
X8722444Y-14460674D01*
X8722444Y-14460674D02*
X8731967Y-14422579D01*
X8731967Y-14422579D02*
X8741491Y-14403531D01*
X8741491Y-14403531D02*
X8751015Y-14394008D01*
X8751015Y-14394008D02*
X8770063Y-14384484D01*
X8960539Y-14384484D02*
X8979586Y-14384484D01*
X8979586Y-14384484D02*
X8998634Y-14394008D01*
X8998634Y-14394008D02*
X9008158Y-14403531D01*
X9008158Y-14403531D02*
X9017682Y-14422579D01*
X9017682Y-14422579D02*
X9027205Y-14460674D01*
X9027205Y-14460674D02*
X9027205Y-14508293D01*
X9027205Y-14508293D02*
X9017682Y-14546388D01*
X9017682Y-14546388D02*
X9008158Y-14565436D01*
X9008158Y-14565436D02*
X8998634Y-14574960D01*
X8998634Y-14574960D02*
X8979586Y-14584484D01*
X8979586Y-14584484D02*
X8960539Y-14584484D01*
X8960539Y-14584484D02*
X8941491Y-14574960D01*
X8941491Y-14574960D02*
X8931967Y-14565436D01*
X8931967Y-14565436D02*
X8922444Y-14546388D01*
X8922444Y-14546388D02*
X8912920Y-14508293D01*
X8912920Y-14508293D02*
X8912920Y-14460674D01*
X8912920Y-14460674D02*
X8922444Y-14422579D01*
X8922444Y-14422579D02*
X8931967Y-14403531D01*
X8931967Y-14403531D02*
X8941491Y-14394008D01*
X8941491Y-14394008D02*
X8960539Y-14384484D01*
X9112920Y-14584484D02*
X9112920Y-14451150D01*
X9112920Y-14470198D02*
X9122444Y-14460674D01*
X9122444Y-14460674D02*
X9141491Y-14451150D01*
X9141491Y-14451150D02*
X9170063Y-14451150D01*
X9170063Y-14451150D02*
X9189110Y-14460674D01*
X9189110Y-14460674D02*
X9198634Y-14479722D01*
X9198634Y-14479722D02*
X9198634Y-14584484D01*
X9198634Y-14479722D02*
X9208158Y-14460674D01*
X9208158Y-14460674D02*
X9227205Y-14451150D01*
X9227205Y-14451150D02*
X9255777Y-14451150D01*
X9255777Y-14451150D02*
X9274825Y-14460674D01*
X9274825Y-14460674D02*
X9284348Y-14479722D01*
X9284348Y-14479722D02*
X9284348Y-14584484D01*
X9379586Y-14584484D02*
X9379586Y-14451150D01*
X9379586Y-14470198D02*
X9389110Y-14460674D01*
X9389110Y-14460674D02*
X9408158Y-14451150D01*
X9408158Y-14451150D02*
X9436729Y-14451150D01*
X9436729Y-14451150D02*
X9455777Y-14460674D01*
X9455777Y-14460674D02*
X9465301Y-14479722D01*
X9465301Y-14479722D02*
X9465301Y-14584484D01*
X9465301Y-14479722D02*
X9474825Y-14460674D01*
X9474825Y-14460674D02*
X9493872Y-14451150D01*
X9493872Y-14451150D02*
X9522444Y-14451150D01*
X9522444Y-14451150D02*
X9541491Y-14460674D01*
X9541491Y-14460674D02*
X9551015Y-14479722D01*
X9551015Y-14479722D02*
X9551015Y-14584484D01*
X9941491Y-14374960D02*
X9770063Y-14632103D01*
X10198634Y-14384484D02*
X10217682Y-14384484D01*
X10217682Y-14384484D02*
X10236729Y-14394008D01*
X10236729Y-14394008D02*
X10246253Y-14403531D01*
X10246253Y-14403531D02*
X10255777Y-14422579D01*
X10255777Y-14422579D02*
X10265301Y-14460674D01*
X10265301Y-14460674D02*
X10265301Y-14508293D01*
X10265301Y-14508293D02*
X10255777Y-14546388D01*
X10255777Y-14546388D02*
X10246253Y-14565436D01*
X10246253Y-14565436D02*
X10236729Y-14574960D01*
X10236729Y-14574960D02*
X10217682Y-14584484D01*
X10217682Y-14584484D02*
X10198634Y-14584484D01*
X10198634Y-14584484D02*
X10179587Y-14574960D01*
X10179587Y-14574960D02*
X10170063Y-14565436D01*
X10170063Y-14565436D02*
X10160539Y-14546388D01*
X10160539Y-14546388D02*
X10151015Y-14508293D01*
X10151015Y-14508293D02*
X10151015Y-14460674D01*
X10151015Y-14460674D02*
X10160539Y-14422579D01*
X10160539Y-14422579D02*
X10170063Y-14403531D01*
X10170063Y-14403531D02*
X10179587Y-14394008D01*
X10179587Y-14394008D02*
X10198634Y-14384484D01*
X10351015Y-14565436D02*
X10360539Y-14574960D01*
X10360539Y-14574960D02*
X10351015Y-14584484D01*
X10351015Y-14584484D02*
X10341491Y-14574960D01*
X10341491Y-14574960D02*
X10351015Y-14565436D01*
X10351015Y-14565436D02*
X10351015Y-14584484D01*
X10551015Y-14584484D02*
X10436729Y-14584484D01*
X10493872Y-14584484D02*
X10493872Y-14384484D01*
X10493872Y-14384484D02*
X10474825Y-14413055D01*
X10474825Y-14413055D02*
X10455777Y-14432103D01*
X10455777Y-14432103D02*
X10436729Y-14441627D01*
X10627206Y-14403531D02*
X10636729Y-14394008D01*
X10636729Y-14394008D02*
X10655777Y-14384484D01*
X10655777Y-14384484D02*
X10703396Y-14384484D01*
X10703396Y-14384484D02*
X10722444Y-14394008D01*
X10722444Y-14394008D02*
X10731968Y-14403531D01*
X10731968Y-14403531D02*
X10741491Y-14422579D01*
X10741491Y-14422579D02*
X10741491Y-14441627D01*
X10741491Y-14441627D02*
X10731968Y-14470198D01*
X10731968Y-14470198D02*
X10617682Y-14584484D01*
X10617682Y-14584484D02*
X10741491Y-14584484D01*
X10912920Y-14384484D02*
X10874825Y-14384484D01*
X10874825Y-14384484D02*
X10855777Y-14394008D01*
X10855777Y-14394008D02*
X10846253Y-14403531D01*
X10846253Y-14403531D02*
X10827206Y-14432103D01*
X10827206Y-14432103D02*
X10817682Y-14470198D01*
X10817682Y-14470198D02*
X10817682Y-14546388D01*
X10817682Y-14546388D02*
X10827206Y-14565436D01*
X10827206Y-14565436D02*
X10836729Y-14574960D01*
X10836729Y-14574960D02*
X10855777Y-14584484D01*
X10855777Y-14584484D02*
X10893872Y-14584484D01*
X10893872Y-14584484D02*
X10912920Y-14574960D01*
X10912920Y-14574960D02*
X10922444Y-14565436D01*
X10922444Y-14565436D02*
X10931968Y-14546388D01*
X10931968Y-14546388D02*
X10931968Y-14498769D01*
X10931968Y-14498769D02*
X10922444Y-14479722D01*
X10922444Y-14479722D02*
X10912920Y-14470198D01*
X10912920Y-14470198D02*
X10893872Y-14460674D01*
X10893872Y-14460674D02*
X10855777Y-14460674D01*
X10855777Y-14460674D02*
X10836729Y-14470198D01*
X10836729Y-14470198D02*
X10827206Y-14479722D01*
X10827206Y-14479722D02*
X10817682Y-14498769D01*
X11055777Y-14384484D02*
X11074825Y-14384484D01*
X11074825Y-14384484D02*
X11093872Y-14394008D01*
X11093872Y-14394008D02*
X11103396Y-14403531D01*
X11103396Y-14403531D02*
X11112920Y-14422579D01*
X11112920Y-14422579D02*
X11122444Y-14460674D01*
X11122444Y-14460674D02*
X11122444Y-14508293D01*
X11122444Y-14508293D02*
X11112920Y-14546388D01*
X11112920Y-14546388D02*
X11103396Y-14565436D01*
X11103396Y-14565436D02*
X11093872Y-14574960D01*
X11093872Y-14574960D02*
X11074825Y-14584484D01*
X11074825Y-14584484D02*
X11055777Y-14584484D01*
X11055777Y-14584484D02*
X11036729Y-14574960D01*
X11036729Y-14574960D02*
X11027206Y-14565436D01*
X11027206Y-14565436D02*
X11017682Y-14546388D01*
X11017682Y-14546388D02*
X11008158Y-14508293D01*
X11008158Y-14508293D02*
X11008158Y-14460674D01*
X11008158Y-14460674D02*
X11017682Y-14422579D01*
X11017682Y-14422579D02*
X11027206Y-14403531D01*
X11027206Y-14403531D02*
X11036729Y-14394008D01*
X11036729Y-14394008D02*
X11055777Y-14384484D01*
X11198634Y-14384484D02*
X11198634Y-14422579D01*
X11274825Y-14384484D02*
X11274825Y-14422579D01*
X11570063Y-14660674D02*
X11560539Y-14651150D01*
X11560539Y-14651150D02*
X11541491Y-14622579D01*
X11541491Y-14622579D02*
X11531968Y-14603531D01*
X11531968Y-14603531D02*
X11522444Y-14574960D01*
X11522444Y-14574960D02*
X11512920Y-14527341D01*
X11512920Y-14527341D02*
X11512920Y-14489246D01*
X11512920Y-14489246D02*
X11522444Y-14441627D01*
X11522444Y-14441627D02*
X11531968Y-14413055D01*
X11531968Y-14413055D02*
X11541491Y-14394008D01*
X11541491Y-14394008D02*
X11560539Y-14365436D01*
X11560539Y-14365436D02*
X11570063Y-14355912D01*
X11731968Y-14451150D02*
X11731968Y-14584484D01*
X11684348Y-14374960D02*
X11636729Y-14517817D01*
X11636729Y-14517817D02*
X11760539Y-14517817D01*
X11989110Y-14584484D02*
X11989110Y-14384484D01*
X12074825Y-14584484D02*
X12074825Y-14479722D01*
X12074825Y-14479722D02*
X12065301Y-14460674D01*
X12065301Y-14460674D02*
X12046253Y-14451150D01*
X12046253Y-14451150D02*
X12017682Y-14451150D01*
X12017682Y-14451150D02*
X11998634Y-14460674D01*
X11998634Y-14460674D02*
X11989110Y-14470198D01*
X12198634Y-14584484D02*
X12179587Y-14574960D01*
X12179587Y-14574960D02*
X12170063Y-14565436D01*
X12170063Y-14565436D02*
X12160539Y-14546388D01*
X12160539Y-14546388D02*
X12160539Y-14489246D01*
X12160539Y-14489246D02*
X12170063Y-14470198D01*
X12170063Y-14470198D02*
X12179587Y-14460674D01*
X12179587Y-14460674D02*
X12198634Y-14451150D01*
X12198634Y-14451150D02*
X12227206Y-14451150D01*
X12227206Y-14451150D02*
X12246253Y-14460674D01*
X12246253Y-14460674D02*
X12255777Y-14470198D01*
X12255777Y-14470198D02*
X12265301Y-14489246D01*
X12265301Y-14489246D02*
X12265301Y-14546388D01*
X12265301Y-14546388D02*
X12255777Y-14565436D01*
X12255777Y-14565436D02*
X12246253Y-14574960D01*
X12246253Y-14574960D02*
X12227206Y-14584484D01*
X12227206Y-14584484D02*
X12198634Y-14584484D01*
X12379587Y-14584484D02*
X12360539Y-14574960D01*
X12360539Y-14574960D02*
X12351015Y-14555912D01*
X12351015Y-14555912D02*
X12351015Y-14384484D01*
X12531968Y-14574960D02*
X12512920Y-14584484D01*
X12512920Y-14584484D02*
X12474825Y-14584484D01*
X12474825Y-14584484D02*
X12455777Y-14574960D01*
X12455777Y-14574960D02*
X12446253Y-14555912D01*
X12446253Y-14555912D02*
X12446253Y-14479722D01*
X12446253Y-14479722D02*
X12455777Y-14460674D01*
X12455777Y-14460674D02*
X12474825Y-14451150D01*
X12474825Y-14451150D02*
X12512920Y-14451150D01*
X12512920Y-14451150D02*
X12531968Y-14460674D01*
X12531968Y-14460674D02*
X12541491Y-14479722D01*
X12541491Y-14479722D02*
X12541491Y-14498769D01*
X12541491Y-14498769D02*
X12446253Y-14517817D01*
X12617682Y-14574960D02*
X12636730Y-14584484D01*
X12636730Y-14584484D02*
X12674825Y-14584484D01*
X12674825Y-14584484D02*
X12693872Y-14574960D01*
X12693872Y-14574960D02*
X12703396Y-14555912D01*
X12703396Y-14555912D02*
X12703396Y-14546388D01*
X12703396Y-14546388D02*
X12693872Y-14527341D01*
X12693872Y-14527341D02*
X12674825Y-14517817D01*
X12674825Y-14517817D02*
X12646253Y-14517817D01*
X12646253Y-14517817D02*
X12627206Y-14508293D01*
X12627206Y-14508293D02*
X12617682Y-14489246D01*
X12617682Y-14489246D02*
X12617682Y-14479722D01*
X12617682Y-14479722D02*
X12627206Y-14460674D01*
X12627206Y-14460674D02*
X12646253Y-14451150D01*
X12646253Y-14451150D02*
X12674825Y-14451150D01*
X12674825Y-14451150D02*
X12693872Y-14460674D01*
X12770063Y-14660674D02*
X12779587Y-14651150D01*
X12779587Y-14651150D02*
X12798634Y-14622579D01*
X12798634Y-14622579D02*
X12808158Y-14603531D01*
X12808158Y-14603531D02*
X12817682Y-14574960D01*
X12817682Y-14574960D02*
X12827206Y-14527341D01*
X12827206Y-14527341D02*
X12827206Y-14489246D01*
X12827206Y-14489246D02*
X12817682Y-14441627D01*
X12817682Y-14441627D02*
X12808158Y-14413055D01*
X12808158Y-14413055D02*
X12798634Y-14394008D01*
X12798634Y-14394008D02*
X12779587Y-14365436D01*
X12779587Y-14365436D02*
X12770063Y-14355912D01*
M02*
