%TF.GenerationSoftware,KiCad,Pcbnew,8.0.0*%
%TF.CreationDate,2024-03-17T16:54:24+01:00*%
%TF.ProjectId,soundgun,736f756e-6467-4756-9e2e-6b696361645f,rev?*%
%TF.SameCoordinates,Original*%
%TF.FileFunction,Drillmap*%
%TF.FilePolarity,Positive*%
%FSLAX45Y45*%
G04 Gerber Fmt 4.5, Leading zero omitted, Abs format (unit mm)*
G04 Created by KiCad (PCBNEW 8.0.0) date 2024-03-17 16:54:24*
%MOMM*%
%LPD*%
G01*
G04 APERTURE LIST*
%ADD10C,0.100000*%
%ADD11C,0.200000*%
%ADD12C,0.150000*%
%ADD13C,0.180000*%
G04 APERTURE END LIST*
D10*
X8000000Y-6000000D02*
X16750000Y-6000000D01*
X16750000Y-12000000D01*
X8000000Y-12000000D01*
X8000000Y-6000000D01*
D11*
D10*
X8456421Y-7654513D02*
X8555481Y-7753573D01*
X8555481Y-7654513D02*
X8456421Y-7753573D01*
X9206421Y-7654513D02*
X9305481Y-7753573D01*
X9305481Y-7654513D02*
X9206421Y-7753573D01*
D12*
X12943500Y-11094000D02*
G75*
G02*
X12793500Y-11094000I-75000J0D01*
G01*
X12793500Y-11094000D02*
G75*
G02*
X12943500Y-11094000I75000J0D01*
G01*
X13428500Y-11094000D02*
G75*
G02*
X13278500Y-11094000I-75000J0D01*
G01*
X13278500Y-11094000D02*
G75*
G02*
X13428500Y-11094000I75000J0D01*
G01*
D13*
X12838500Y-11307000D02*
X12838500Y-11487000D01*
X12748500Y-11397000D02*
X12928500Y-11397000D01*
X13383500Y-11307000D02*
X13383500Y-11487000D01*
X13293500Y-11397000D02*
X13473500Y-11397000D01*
D11*
X8255777Y-12316484D02*
X8255777Y-12116484D01*
X8255777Y-12116484D02*
X8303396Y-12116484D01*
X8303396Y-12116484D02*
X8331967Y-12126008D01*
X8331967Y-12126008D02*
X8351015Y-12145055D01*
X8351015Y-12145055D02*
X8360539Y-12164103D01*
X8360539Y-12164103D02*
X8370062Y-12202198D01*
X8370062Y-12202198D02*
X8370062Y-12230769D01*
X8370062Y-12230769D02*
X8360539Y-12268865D01*
X8360539Y-12268865D02*
X8351015Y-12287912D01*
X8351015Y-12287912D02*
X8331967Y-12306960D01*
X8331967Y-12306960D02*
X8303396Y-12316484D01*
X8303396Y-12316484D02*
X8255777Y-12316484D01*
X8455777Y-12316484D02*
X8455777Y-12183150D01*
X8455777Y-12221246D02*
X8465301Y-12202198D01*
X8465301Y-12202198D02*
X8474824Y-12192674D01*
X8474824Y-12192674D02*
X8493872Y-12183150D01*
X8493872Y-12183150D02*
X8512920Y-12183150D01*
X8579586Y-12316484D02*
X8579586Y-12183150D01*
X8579586Y-12116484D02*
X8570063Y-12126008D01*
X8570063Y-12126008D02*
X8579586Y-12135531D01*
X8579586Y-12135531D02*
X8589110Y-12126008D01*
X8589110Y-12126008D02*
X8579586Y-12116484D01*
X8579586Y-12116484D02*
X8579586Y-12135531D01*
X8703396Y-12316484D02*
X8684348Y-12306960D01*
X8684348Y-12306960D02*
X8674824Y-12287912D01*
X8674824Y-12287912D02*
X8674824Y-12116484D01*
X8808158Y-12316484D02*
X8789110Y-12306960D01*
X8789110Y-12306960D02*
X8779586Y-12287912D01*
X8779586Y-12287912D02*
X8779586Y-12116484D01*
X9036729Y-12316484D02*
X9036729Y-12116484D01*
X9036729Y-12116484D02*
X9103396Y-12259341D01*
X9103396Y-12259341D02*
X9170063Y-12116484D01*
X9170063Y-12116484D02*
X9170063Y-12316484D01*
X9351015Y-12316484D02*
X9351015Y-12211722D01*
X9351015Y-12211722D02*
X9341491Y-12192674D01*
X9341491Y-12192674D02*
X9322444Y-12183150D01*
X9322444Y-12183150D02*
X9284348Y-12183150D01*
X9284348Y-12183150D02*
X9265301Y-12192674D01*
X9351015Y-12306960D02*
X9331967Y-12316484D01*
X9331967Y-12316484D02*
X9284348Y-12316484D01*
X9284348Y-12316484D02*
X9265301Y-12306960D01*
X9265301Y-12306960D02*
X9255777Y-12287912D01*
X9255777Y-12287912D02*
X9255777Y-12268865D01*
X9255777Y-12268865D02*
X9265301Y-12249817D01*
X9265301Y-12249817D02*
X9284348Y-12240293D01*
X9284348Y-12240293D02*
X9331967Y-12240293D01*
X9331967Y-12240293D02*
X9351015Y-12230769D01*
X9446253Y-12183150D02*
X9446253Y-12383150D01*
X9446253Y-12192674D02*
X9465301Y-12183150D01*
X9465301Y-12183150D02*
X9503396Y-12183150D01*
X9503396Y-12183150D02*
X9522444Y-12192674D01*
X9522444Y-12192674D02*
X9531967Y-12202198D01*
X9531967Y-12202198D02*
X9541491Y-12221246D01*
X9541491Y-12221246D02*
X9541491Y-12278388D01*
X9541491Y-12278388D02*
X9531967Y-12297436D01*
X9531967Y-12297436D02*
X9522444Y-12306960D01*
X9522444Y-12306960D02*
X9503396Y-12316484D01*
X9503396Y-12316484D02*
X9465301Y-12316484D01*
X9465301Y-12316484D02*
X9446253Y-12306960D01*
X9627205Y-12297436D02*
X9636729Y-12306960D01*
X9636729Y-12306960D02*
X9627205Y-12316484D01*
X9627205Y-12316484D02*
X9617682Y-12306960D01*
X9617682Y-12306960D02*
X9627205Y-12297436D01*
X9627205Y-12297436D02*
X9627205Y-12316484D01*
X9627205Y-12192674D02*
X9636729Y-12202198D01*
X9636729Y-12202198D02*
X9627205Y-12211722D01*
X9627205Y-12211722D02*
X9617682Y-12202198D01*
X9617682Y-12202198D02*
X9627205Y-12192674D01*
X9627205Y-12192674D02*
X9627205Y-12211722D01*
D10*
X7895940Y-12595470D02*
X7995000Y-12694530D01*
X7995000Y-12595470D02*
X7895940Y-12694530D01*
D11*
X8293872Y-12536484D02*
X8312920Y-12536484D01*
X8312920Y-12536484D02*
X8331967Y-12546008D01*
X8331967Y-12546008D02*
X8341491Y-12555531D01*
X8341491Y-12555531D02*
X8351015Y-12574579D01*
X8351015Y-12574579D02*
X8360539Y-12612674D01*
X8360539Y-12612674D02*
X8360539Y-12660293D01*
X8360539Y-12660293D02*
X8351015Y-12698388D01*
X8351015Y-12698388D02*
X8341491Y-12717436D01*
X8341491Y-12717436D02*
X8331967Y-12726960D01*
X8331967Y-12726960D02*
X8312920Y-12736484D01*
X8312920Y-12736484D02*
X8293872Y-12736484D01*
X8293872Y-12736484D02*
X8274824Y-12726960D01*
X8274824Y-12726960D02*
X8265301Y-12717436D01*
X8265301Y-12717436D02*
X8255777Y-12698388D01*
X8255777Y-12698388D02*
X8246253Y-12660293D01*
X8246253Y-12660293D02*
X8246253Y-12612674D01*
X8246253Y-12612674D02*
X8255777Y-12574579D01*
X8255777Y-12574579D02*
X8265301Y-12555531D01*
X8265301Y-12555531D02*
X8274824Y-12546008D01*
X8274824Y-12546008D02*
X8293872Y-12536484D01*
X8446253Y-12717436D02*
X8455777Y-12726960D01*
X8455777Y-12726960D02*
X8446253Y-12736484D01*
X8446253Y-12736484D02*
X8436729Y-12726960D01*
X8436729Y-12726960D02*
X8446253Y-12717436D01*
X8446253Y-12717436D02*
X8446253Y-12736484D01*
X8551015Y-12736484D02*
X8589110Y-12736484D01*
X8589110Y-12736484D02*
X8608158Y-12726960D01*
X8608158Y-12726960D02*
X8617682Y-12717436D01*
X8617682Y-12717436D02*
X8636729Y-12688865D01*
X8636729Y-12688865D02*
X8646253Y-12650769D01*
X8646253Y-12650769D02*
X8646253Y-12574579D01*
X8646253Y-12574579D02*
X8636729Y-12555531D01*
X8636729Y-12555531D02*
X8627205Y-12546008D01*
X8627205Y-12546008D02*
X8608158Y-12536484D01*
X8608158Y-12536484D02*
X8570063Y-12536484D01*
X8570063Y-12536484D02*
X8551015Y-12546008D01*
X8551015Y-12546008D02*
X8541491Y-12555531D01*
X8541491Y-12555531D02*
X8531967Y-12574579D01*
X8531967Y-12574579D02*
X8531967Y-12622198D01*
X8531967Y-12622198D02*
X8541491Y-12641246D01*
X8541491Y-12641246D02*
X8551015Y-12650769D01*
X8551015Y-12650769D02*
X8570063Y-12660293D01*
X8570063Y-12660293D02*
X8608158Y-12660293D01*
X8608158Y-12660293D02*
X8627205Y-12650769D01*
X8627205Y-12650769D02*
X8636729Y-12641246D01*
X8636729Y-12641246D02*
X8646253Y-12622198D01*
X8741491Y-12736484D02*
X8779586Y-12736484D01*
X8779586Y-12736484D02*
X8798634Y-12726960D01*
X8798634Y-12726960D02*
X8808158Y-12717436D01*
X8808158Y-12717436D02*
X8827205Y-12688865D01*
X8827205Y-12688865D02*
X8836729Y-12650769D01*
X8836729Y-12650769D02*
X8836729Y-12574579D01*
X8836729Y-12574579D02*
X8827205Y-12555531D01*
X8827205Y-12555531D02*
X8817682Y-12546008D01*
X8817682Y-12546008D02*
X8798634Y-12536484D01*
X8798634Y-12536484D02*
X8760539Y-12536484D01*
X8760539Y-12536484D02*
X8741491Y-12546008D01*
X8741491Y-12546008D02*
X8731967Y-12555531D01*
X8731967Y-12555531D02*
X8722444Y-12574579D01*
X8722444Y-12574579D02*
X8722444Y-12622198D01*
X8722444Y-12622198D02*
X8731967Y-12641246D01*
X8731967Y-12641246D02*
X8741491Y-12650769D01*
X8741491Y-12650769D02*
X8760539Y-12660293D01*
X8760539Y-12660293D02*
X8798634Y-12660293D01*
X8798634Y-12660293D02*
X8817682Y-12650769D01*
X8817682Y-12650769D02*
X8827205Y-12641246D01*
X8827205Y-12641246D02*
X8836729Y-12622198D01*
X9027205Y-12736484D02*
X8912920Y-12736484D01*
X8970063Y-12736484D02*
X8970063Y-12536484D01*
X8970063Y-12536484D02*
X8951015Y-12565055D01*
X8951015Y-12565055D02*
X8931967Y-12584103D01*
X8931967Y-12584103D02*
X8912920Y-12593627D01*
X9112920Y-12736484D02*
X9112920Y-12603150D01*
X9112920Y-12622198D02*
X9122444Y-12612674D01*
X9122444Y-12612674D02*
X9141491Y-12603150D01*
X9141491Y-12603150D02*
X9170063Y-12603150D01*
X9170063Y-12603150D02*
X9189110Y-12612674D01*
X9189110Y-12612674D02*
X9198634Y-12631722D01*
X9198634Y-12631722D02*
X9198634Y-12736484D01*
X9198634Y-12631722D02*
X9208158Y-12612674D01*
X9208158Y-12612674D02*
X9227205Y-12603150D01*
X9227205Y-12603150D02*
X9255777Y-12603150D01*
X9255777Y-12603150D02*
X9274825Y-12612674D01*
X9274825Y-12612674D02*
X9284348Y-12631722D01*
X9284348Y-12631722D02*
X9284348Y-12736484D01*
X9379586Y-12736484D02*
X9379586Y-12603150D01*
X9379586Y-12622198D02*
X9389110Y-12612674D01*
X9389110Y-12612674D02*
X9408158Y-12603150D01*
X9408158Y-12603150D02*
X9436729Y-12603150D01*
X9436729Y-12603150D02*
X9455777Y-12612674D01*
X9455777Y-12612674D02*
X9465301Y-12631722D01*
X9465301Y-12631722D02*
X9465301Y-12736484D01*
X9465301Y-12631722D02*
X9474825Y-12612674D01*
X9474825Y-12612674D02*
X9493872Y-12603150D01*
X9493872Y-12603150D02*
X9522444Y-12603150D01*
X9522444Y-12603150D02*
X9541491Y-12612674D01*
X9541491Y-12612674D02*
X9551015Y-12631722D01*
X9551015Y-12631722D02*
X9551015Y-12736484D01*
X9941491Y-12526960D02*
X9770063Y-12784103D01*
X10198634Y-12536484D02*
X10217682Y-12536484D01*
X10217682Y-12536484D02*
X10236729Y-12546008D01*
X10236729Y-12546008D02*
X10246253Y-12555531D01*
X10246253Y-12555531D02*
X10255777Y-12574579D01*
X10255777Y-12574579D02*
X10265301Y-12612674D01*
X10265301Y-12612674D02*
X10265301Y-12660293D01*
X10265301Y-12660293D02*
X10255777Y-12698388D01*
X10255777Y-12698388D02*
X10246253Y-12717436D01*
X10246253Y-12717436D02*
X10236729Y-12726960D01*
X10236729Y-12726960D02*
X10217682Y-12736484D01*
X10217682Y-12736484D02*
X10198634Y-12736484D01*
X10198634Y-12736484D02*
X10179587Y-12726960D01*
X10179587Y-12726960D02*
X10170063Y-12717436D01*
X10170063Y-12717436D02*
X10160539Y-12698388D01*
X10160539Y-12698388D02*
X10151015Y-12660293D01*
X10151015Y-12660293D02*
X10151015Y-12612674D01*
X10151015Y-12612674D02*
X10160539Y-12574579D01*
X10160539Y-12574579D02*
X10170063Y-12555531D01*
X10170063Y-12555531D02*
X10179587Y-12546008D01*
X10179587Y-12546008D02*
X10198634Y-12536484D01*
X10351015Y-12717436D02*
X10360539Y-12726960D01*
X10360539Y-12726960D02*
X10351015Y-12736484D01*
X10351015Y-12736484D02*
X10341491Y-12726960D01*
X10341491Y-12726960D02*
X10351015Y-12717436D01*
X10351015Y-12717436D02*
X10351015Y-12736484D01*
X10484348Y-12536484D02*
X10503396Y-12536484D01*
X10503396Y-12536484D02*
X10522444Y-12546008D01*
X10522444Y-12546008D02*
X10531968Y-12555531D01*
X10531968Y-12555531D02*
X10541491Y-12574579D01*
X10541491Y-12574579D02*
X10551015Y-12612674D01*
X10551015Y-12612674D02*
X10551015Y-12660293D01*
X10551015Y-12660293D02*
X10541491Y-12698388D01*
X10541491Y-12698388D02*
X10531968Y-12717436D01*
X10531968Y-12717436D02*
X10522444Y-12726960D01*
X10522444Y-12726960D02*
X10503396Y-12736484D01*
X10503396Y-12736484D02*
X10484348Y-12736484D01*
X10484348Y-12736484D02*
X10465301Y-12726960D01*
X10465301Y-12726960D02*
X10455777Y-12717436D01*
X10455777Y-12717436D02*
X10446253Y-12698388D01*
X10446253Y-12698388D02*
X10436729Y-12660293D01*
X10436729Y-12660293D02*
X10436729Y-12612674D01*
X10436729Y-12612674D02*
X10446253Y-12574579D01*
X10446253Y-12574579D02*
X10455777Y-12555531D01*
X10455777Y-12555531D02*
X10465301Y-12546008D01*
X10465301Y-12546008D02*
X10484348Y-12536484D01*
X10617682Y-12536484D02*
X10741491Y-12536484D01*
X10741491Y-12536484D02*
X10674825Y-12612674D01*
X10674825Y-12612674D02*
X10703396Y-12612674D01*
X10703396Y-12612674D02*
X10722444Y-12622198D01*
X10722444Y-12622198D02*
X10731968Y-12631722D01*
X10731968Y-12631722D02*
X10741491Y-12650769D01*
X10741491Y-12650769D02*
X10741491Y-12698388D01*
X10741491Y-12698388D02*
X10731968Y-12717436D01*
X10731968Y-12717436D02*
X10722444Y-12726960D01*
X10722444Y-12726960D02*
X10703396Y-12736484D01*
X10703396Y-12736484D02*
X10646253Y-12736484D01*
X10646253Y-12736484D02*
X10627206Y-12726960D01*
X10627206Y-12726960D02*
X10617682Y-12717436D01*
X10836729Y-12736484D02*
X10874825Y-12736484D01*
X10874825Y-12736484D02*
X10893872Y-12726960D01*
X10893872Y-12726960D02*
X10903396Y-12717436D01*
X10903396Y-12717436D02*
X10922444Y-12688865D01*
X10922444Y-12688865D02*
X10931968Y-12650769D01*
X10931968Y-12650769D02*
X10931968Y-12574579D01*
X10931968Y-12574579D02*
X10922444Y-12555531D01*
X10922444Y-12555531D02*
X10912920Y-12546008D01*
X10912920Y-12546008D02*
X10893872Y-12536484D01*
X10893872Y-12536484D02*
X10855777Y-12536484D01*
X10855777Y-12536484D02*
X10836729Y-12546008D01*
X10836729Y-12546008D02*
X10827206Y-12555531D01*
X10827206Y-12555531D02*
X10817682Y-12574579D01*
X10817682Y-12574579D02*
X10817682Y-12622198D01*
X10817682Y-12622198D02*
X10827206Y-12641246D01*
X10827206Y-12641246D02*
X10836729Y-12650769D01*
X10836729Y-12650769D02*
X10855777Y-12660293D01*
X10855777Y-12660293D02*
X10893872Y-12660293D01*
X10893872Y-12660293D02*
X10912920Y-12650769D01*
X10912920Y-12650769D02*
X10922444Y-12641246D01*
X10922444Y-12641246D02*
X10931968Y-12622198D01*
X11055777Y-12536484D02*
X11074825Y-12536484D01*
X11074825Y-12536484D02*
X11093872Y-12546008D01*
X11093872Y-12546008D02*
X11103396Y-12555531D01*
X11103396Y-12555531D02*
X11112920Y-12574579D01*
X11112920Y-12574579D02*
X11122444Y-12612674D01*
X11122444Y-12612674D02*
X11122444Y-12660293D01*
X11122444Y-12660293D02*
X11112920Y-12698388D01*
X11112920Y-12698388D02*
X11103396Y-12717436D01*
X11103396Y-12717436D02*
X11093872Y-12726960D01*
X11093872Y-12726960D02*
X11074825Y-12736484D01*
X11074825Y-12736484D02*
X11055777Y-12736484D01*
X11055777Y-12736484D02*
X11036729Y-12726960D01*
X11036729Y-12726960D02*
X11027206Y-12717436D01*
X11027206Y-12717436D02*
X11017682Y-12698388D01*
X11017682Y-12698388D02*
X11008158Y-12660293D01*
X11008158Y-12660293D02*
X11008158Y-12612674D01*
X11008158Y-12612674D02*
X11017682Y-12574579D01*
X11017682Y-12574579D02*
X11027206Y-12555531D01*
X11027206Y-12555531D02*
X11036729Y-12546008D01*
X11036729Y-12546008D02*
X11055777Y-12536484D01*
X11198634Y-12536484D02*
X11198634Y-12574579D01*
X11274825Y-12536484D02*
X11274825Y-12574579D01*
X11570063Y-12812674D02*
X11560539Y-12803150D01*
X11560539Y-12803150D02*
X11541491Y-12774579D01*
X11541491Y-12774579D02*
X11531968Y-12755531D01*
X11531968Y-12755531D02*
X11522444Y-12726960D01*
X11522444Y-12726960D02*
X11512920Y-12679341D01*
X11512920Y-12679341D02*
X11512920Y-12641246D01*
X11512920Y-12641246D02*
X11522444Y-12593627D01*
X11522444Y-12593627D02*
X11531968Y-12565055D01*
X11531968Y-12565055D02*
X11541491Y-12546008D01*
X11541491Y-12546008D02*
X11560539Y-12517436D01*
X11560539Y-12517436D02*
X11570063Y-12507912D01*
X11636729Y-12555531D02*
X11646253Y-12546008D01*
X11646253Y-12546008D02*
X11665301Y-12536484D01*
X11665301Y-12536484D02*
X11712920Y-12536484D01*
X11712920Y-12536484D02*
X11731968Y-12546008D01*
X11731968Y-12546008D02*
X11741491Y-12555531D01*
X11741491Y-12555531D02*
X11751015Y-12574579D01*
X11751015Y-12574579D02*
X11751015Y-12593627D01*
X11751015Y-12593627D02*
X11741491Y-12622198D01*
X11741491Y-12622198D02*
X11627206Y-12736484D01*
X11627206Y-12736484D02*
X11751015Y-12736484D01*
X11989110Y-12736484D02*
X11989110Y-12536484D01*
X12074825Y-12736484D02*
X12074825Y-12631722D01*
X12074825Y-12631722D02*
X12065301Y-12612674D01*
X12065301Y-12612674D02*
X12046253Y-12603150D01*
X12046253Y-12603150D02*
X12017682Y-12603150D01*
X12017682Y-12603150D02*
X11998634Y-12612674D01*
X11998634Y-12612674D02*
X11989110Y-12622198D01*
X12198634Y-12736484D02*
X12179587Y-12726960D01*
X12179587Y-12726960D02*
X12170063Y-12717436D01*
X12170063Y-12717436D02*
X12160539Y-12698388D01*
X12160539Y-12698388D02*
X12160539Y-12641246D01*
X12160539Y-12641246D02*
X12170063Y-12622198D01*
X12170063Y-12622198D02*
X12179587Y-12612674D01*
X12179587Y-12612674D02*
X12198634Y-12603150D01*
X12198634Y-12603150D02*
X12227206Y-12603150D01*
X12227206Y-12603150D02*
X12246253Y-12612674D01*
X12246253Y-12612674D02*
X12255777Y-12622198D01*
X12255777Y-12622198D02*
X12265301Y-12641246D01*
X12265301Y-12641246D02*
X12265301Y-12698388D01*
X12265301Y-12698388D02*
X12255777Y-12717436D01*
X12255777Y-12717436D02*
X12246253Y-12726960D01*
X12246253Y-12726960D02*
X12227206Y-12736484D01*
X12227206Y-12736484D02*
X12198634Y-12736484D01*
X12379587Y-12736484D02*
X12360539Y-12726960D01*
X12360539Y-12726960D02*
X12351015Y-12707912D01*
X12351015Y-12707912D02*
X12351015Y-12536484D01*
X12531968Y-12726960D02*
X12512920Y-12736484D01*
X12512920Y-12736484D02*
X12474825Y-12736484D01*
X12474825Y-12736484D02*
X12455777Y-12726960D01*
X12455777Y-12726960D02*
X12446253Y-12707912D01*
X12446253Y-12707912D02*
X12446253Y-12631722D01*
X12446253Y-12631722D02*
X12455777Y-12612674D01*
X12455777Y-12612674D02*
X12474825Y-12603150D01*
X12474825Y-12603150D02*
X12512920Y-12603150D01*
X12512920Y-12603150D02*
X12531968Y-12612674D01*
X12531968Y-12612674D02*
X12541491Y-12631722D01*
X12541491Y-12631722D02*
X12541491Y-12650769D01*
X12541491Y-12650769D02*
X12446253Y-12669817D01*
X12617682Y-12726960D02*
X12636730Y-12736484D01*
X12636730Y-12736484D02*
X12674825Y-12736484D01*
X12674825Y-12736484D02*
X12693872Y-12726960D01*
X12693872Y-12726960D02*
X12703396Y-12707912D01*
X12703396Y-12707912D02*
X12703396Y-12698388D01*
X12703396Y-12698388D02*
X12693872Y-12679341D01*
X12693872Y-12679341D02*
X12674825Y-12669817D01*
X12674825Y-12669817D02*
X12646253Y-12669817D01*
X12646253Y-12669817D02*
X12627206Y-12660293D01*
X12627206Y-12660293D02*
X12617682Y-12641246D01*
X12617682Y-12641246D02*
X12617682Y-12631722D01*
X12617682Y-12631722D02*
X12627206Y-12612674D01*
X12627206Y-12612674D02*
X12646253Y-12603150D01*
X12646253Y-12603150D02*
X12674825Y-12603150D01*
X12674825Y-12603150D02*
X12693872Y-12612674D01*
X12770063Y-12812674D02*
X12779587Y-12803150D01*
X12779587Y-12803150D02*
X12798634Y-12774579D01*
X12798634Y-12774579D02*
X12808158Y-12755531D01*
X12808158Y-12755531D02*
X12817682Y-12726960D01*
X12817682Y-12726960D02*
X12827206Y-12679341D01*
X12827206Y-12679341D02*
X12827206Y-12641246D01*
X12827206Y-12641246D02*
X12817682Y-12593627D01*
X12817682Y-12593627D02*
X12808158Y-12565055D01*
X12808158Y-12565055D02*
X12798634Y-12546008D01*
X12798634Y-12546008D02*
X12779587Y-12517436D01*
X12779587Y-12517436D02*
X12770063Y-12507912D01*
X13131968Y-12812674D02*
X13122444Y-12803150D01*
X13122444Y-12803150D02*
X13103396Y-12774579D01*
X13103396Y-12774579D02*
X13093872Y-12755531D01*
X13093872Y-12755531D02*
X13084349Y-12726960D01*
X13084349Y-12726960D02*
X13074825Y-12679341D01*
X13074825Y-12679341D02*
X13074825Y-12641246D01*
X13074825Y-12641246D02*
X13084349Y-12593627D01*
X13084349Y-12593627D02*
X13093872Y-12565055D01*
X13093872Y-12565055D02*
X13103396Y-12546008D01*
X13103396Y-12546008D02*
X13122444Y-12517436D01*
X13122444Y-12517436D02*
X13131968Y-12507912D01*
X13208158Y-12603150D02*
X13208158Y-12736484D01*
X13208158Y-12622198D02*
X13217682Y-12612674D01*
X13217682Y-12612674D02*
X13236730Y-12603150D01*
X13236730Y-12603150D02*
X13265301Y-12603150D01*
X13265301Y-12603150D02*
X13284349Y-12612674D01*
X13284349Y-12612674D02*
X13293872Y-12631722D01*
X13293872Y-12631722D02*
X13293872Y-12736484D01*
X13417682Y-12736484D02*
X13398634Y-12726960D01*
X13398634Y-12726960D02*
X13389111Y-12717436D01*
X13389111Y-12717436D02*
X13379587Y-12698388D01*
X13379587Y-12698388D02*
X13379587Y-12641246D01*
X13379587Y-12641246D02*
X13389111Y-12622198D01*
X13389111Y-12622198D02*
X13398634Y-12612674D01*
X13398634Y-12612674D02*
X13417682Y-12603150D01*
X13417682Y-12603150D02*
X13446253Y-12603150D01*
X13446253Y-12603150D02*
X13465301Y-12612674D01*
X13465301Y-12612674D02*
X13474825Y-12622198D01*
X13474825Y-12622198D02*
X13484349Y-12641246D01*
X13484349Y-12641246D02*
X13484349Y-12698388D01*
X13484349Y-12698388D02*
X13474825Y-12717436D01*
X13474825Y-12717436D02*
X13465301Y-12726960D01*
X13465301Y-12726960D02*
X13446253Y-12736484D01*
X13446253Y-12736484D02*
X13417682Y-12736484D01*
X13541492Y-12603150D02*
X13617682Y-12603150D01*
X13570063Y-12536484D02*
X13570063Y-12707912D01*
X13570063Y-12707912D02*
X13579587Y-12726960D01*
X13579587Y-12726960D02*
X13598634Y-12736484D01*
X13598634Y-12736484D02*
X13617682Y-12736484D01*
X13836730Y-12603150D02*
X13836730Y-12803150D01*
X13836730Y-12612674D02*
X13855777Y-12603150D01*
X13855777Y-12603150D02*
X13893873Y-12603150D01*
X13893873Y-12603150D02*
X13912920Y-12612674D01*
X13912920Y-12612674D02*
X13922444Y-12622198D01*
X13922444Y-12622198D02*
X13931968Y-12641246D01*
X13931968Y-12641246D02*
X13931968Y-12698388D01*
X13931968Y-12698388D02*
X13922444Y-12717436D01*
X13922444Y-12717436D02*
X13912920Y-12726960D01*
X13912920Y-12726960D02*
X13893873Y-12736484D01*
X13893873Y-12736484D02*
X13855777Y-12736484D01*
X13855777Y-12736484D02*
X13836730Y-12726960D01*
X14046253Y-12736484D02*
X14027206Y-12726960D01*
X14027206Y-12726960D02*
X14017682Y-12707912D01*
X14017682Y-12707912D02*
X14017682Y-12536484D01*
X14208158Y-12736484D02*
X14208158Y-12631722D01*
X14208158Y-12631722D02*
X14198634Y-12612674D01*
X14198634Y-12612674D02*
X14179587Y-12603150D01*
X14179587Y-12603150D02*
X14141492Y-12603150D01*
X14141492Y-12603150D02*
X14122444Y-12612674D01*
X14208158Y-12726960D02*
X14189111Y-12736484D01*
X14189111Y-12736484D02*
X14141492Y-12736484D01*
X14141492Y-12736484D02*
X14122444Y-12726960D01*
X14122444Y-12726960D02*
X14112920Y-12707912D01*
X14112920Y-12707912D02*
X14112920Y-12688865D01*
X14112920Y-12688865D02*
X14122444Y-12669817D01*
X14122444Y-12669817D02*
X14141492Y-12660293D01*
X14141492Y-12660293D02*
X14189111Y-12660293D01*
X14189111Y-12660293D02*
X14208158Y-12650769D01*
X14274825Y-12603150D02*
X14351015Y-12603150D01*
X14303396Y-12536484D02*
X14303396Y-12707912D01*
X14303396Y-12707912D02*
X14312920Y-12726960D01*
X14312920Y-12726960D02*
X14331968Y-12736484D01*
X14331968Y-12736484D02*
X14351015Y-12736484D01*
X14493873Y-12726960D02*
X14474825Y-12736484D01*
X14474825Y-12736484D02*
X14436730Y-12736484D01*
X14436730Y-12736484D02*
X14417682Y-12726960D01*
X14417682Y-12726960D02*
X14408158Y-12707912D01*
X14408158Y-12707912D02*
X14408158Y-12631722D01*
X14408158Y-12631722D02*
X14417682Y-12612674D01*
X14417682Y-12612674D02*
X14436730Y-12603150D01*
X14436730Y-12603150D02*
X14474825Y-12603150D01*
X14474825Y-12603150D02*
X14493873Y-12612674D01*
X14493873Y-12612674D02*
X14503396Y-12631722D01*
X14503396Y-12631722D02*
X14503396Y-12650769D01*
X14503396Y-12650769D02*
X14408158Y-12669817D01*
X14674825Y-12736484D02*
X14674825Y-12536484D01*
X14674825Y-12726960D02*
X14655777Y-12736484D01*
X14655777Y-12736484D02*
X14617682Y-12736484D01*
X14617682Y-12736484D02*
X14598634Y-12726960D01*
X14598634Y-12726960D02*
X14589111Y-12717436D01*
X14589111Y-12717436D02*
X14579587Y-12698388D01*
X14579587Y-12698388D02*
X14579587Y-12641246D01*
X14579587Y-12641246D02*
X14589111Y-12622198D01*
X14589111Y-12622198D02*
X14598634Y-12612674D01*
X14598634Y-12612674D02*
X14617682Y-12603150D01*
X14617682Y-12603150D02*
X14655777Y-12603150D01*
X14655777Y-12603150D02*
X14674825Y-12612674D01*
X14751015Y-12812674D02*
X14760539Y-12803150D01*
X14760539Y-12803150D02*
X14779587Y-12774579D01*
X14779587Y-12774579D02*
X14789111Y-12755531D01*
X14789111Y-12755531D02*
X14798634Y-12726960D01*
X14798634Y-12726960D02*
X14808158Y-12679341D01*
X14808158Y-12679341D02*
X14808158Y-12641246D01*
X14808158Y-12641246D02*
X14798634Y-12593627D01*
X14798634Y-12593627D02*
X14789111Y-12565055D01*
X14789111Y-12565055D02*
X14779587Y-12546008D01*
X14779587Y-12546008D02*
X14760539Y-12517436D01*
X14760539Y-12517436D02*
X14751015Y-12507912D01*
D12*
X7995000Y-12909000D02*
G75*
G02*
X7845000Y-12909000I-75000J0D01*
G01*
X7845000Y-12909000D02*
G75*
G02*
X7995000Y-12909000I75000J0D01*
G01*
D11*
X8360539Y-13000484D02*
X8246253Y-13000484D01*
X8303396Y-13000484D02*
X8303396Y-12800484D01*
X8303396Y-12800484D02*
X8284348Y-12829055D01*
X8284348Y-12829055D02*
X8265301Y-12848103D01*
X8265301Y-12848103D02*
X8246253Y-12857627D01*
X8446253Y-12981436D02*
X8455777Y-12990960D01*
X8455777Y-12990960D02*
X8446253Y-13000484D01*
X8446253Y-13000484D02*
X8436729Y-12990960D01*
X8436729Y-12990960D02*
X8446253Y-12981436D01*
X8446253Y-12981436D02*
X8446253Y-13000484D01*
X8636729Y-12800484D02*
X8541491Y-12800484D01*
X8541491Y-12800484D02*
X8531967Y-12895722D01*
X8531967Y-12895722D02*
X8541491Y-12886198D01*
X8541491Y-12886198D02*
X8560539Y-12876674D01*
X8560539Y-12876674D02*
X8608158Y-12876674D01*
X8608158Y-12876674D02*
X8627205Y-12886198D01*
X8627205Y-12886198D02*
X8636729Y-12895722D01*
X8636729Y-12895722D02*
X8646253Y-12914769D01*
X8646253Y-12914769D02*
X8646253Y-12962388D01*
X8646253Y-12962388D02*
X8636729Y-12981436D01*
X8636729Y-12981436D02*
X8627205Y-12990960D01*
X8627205Y-12990960D02*
X8608158Y-13000484D01*
X8608158Y-13000484D02*
X8560539Y-13000484D01*
X8560539Y-13000484D02*
X8541491Y-12990960D01*
X8541491Y-12990960D02*
X8531967Y-12981436D01*
X8770063Y-12800484D02*
X8789110Y-12800484D01*
X8789110Y-12800484D02*
X8808158Y-12810008D01*
X8808158Y-12810008D02*
X8817682Y-12819531D01*
X8817682Y-12819531D02*
X8827205Y-12838579D01*
X8827205Y-12838579D02*
X8836729Y-12876674D01*
X8836729Y-12876674D02*
X8836729Y-12924293D01*
X8836729Y-12924293D02*
X8827205Y-12962388D01*
X8827205Y-12962388D02*
X8817682Y-12981436D01*
X8817682Y-12981436D02*
X8808158Y-12990960D01*
X8808158Y-12990960D02*
X8789110Y-13000484D01*
X8789110Y-13000484D02*
X8770063Y-13000484D01*
X8770063Y-13000484D02*
X8751015Y-12990960D01*
X8751015Y-12990960D02*
X8741491Y-12981436D01*
X8741491Y-12981436D02*
X8731967Y-12962388D01*
X8731967Y-12962388D02*
X8722444Y-12924293D01*
X8722444Y-12924293D02*
X8722444Y-12876674D01*
X8722444Y-12876674D02*
X8731967Y-12838579D01*
X8731967Y-12838579D02*
X8741491Y-12819531D01*
X8741491Y-12819531D02*
X8751015Y-12810008D01*
X8751015Y-12810008D02*
X8770063Y-12800484D01*
X8960539Y-12800484D02*
X8979586Y-12800484D01*
X8979586Y-12800484D02*
X8998634Y-12810008D01*
X8998634Y-12810008D02*
X9008158Y-12819531D01*
X9008158Y-12819531D02*
X9017682Y-12838579D01*
X9017682Y-12838579D02*
X9027205Y-12876674D01*
X9027205Y-12876674D02*
X9027205Y-12924293D01*
X9027205Y-12924293D02*
X9017682Y-12962388D01*
X9017682Y-12962388D02*
X9008158Y-12981436D01*
X9008158Y-12981436D02*
X8998634Y-12990960D01*
X8998634Y-12990960D02*
X8979586Y-13000484D01*
X8979586Y-13000484D02*
X8960539Y-13000484D01*
X8960539Y-13000484D02*
X8941491Y-12990960D01*
X8941491Y-12990960D02*
X8931967Y-12981436D01*
X8931967Y-12981436D02*
X8922444Y-12962388D01*
X8922444Y-12962388D02*
X8912920Y-12924293D01*
X8912920Y-12924293D02*
X8912920Y-12876674D01*
X8912920Y-12876674D02*
X8922444Y-12838579D01*
X8922444Y-12838579D02*
X8931967Y-12819531D01*
X8931967Y-12819531D02*
X8941491Y-12810008D01*
X8941491Y-12810008D02*
X8960539Y-12800484D01*
X9112920Y-13000484D02*
X9112920Y-12867150D01*
X9112920Y-12886198D02*
X9122444Y-12876674D01*
X9122444Y-12876674D02*
X9141491Y-12867150D01*
X9141491Y-12867150D02*
X9170063Y-12867150D01*
X9170063Y-12867150D02*
X9189110Y-12876674D01*
X9189110Y-12876674D02*
X9198634Y-12895722D01*
X9198634Y-12895722D02*
X9198634Y-13000484D01*
X9198634Y-12895722D02*
X9208158Y-12876674D01*
X9208158Y-12876674D02*
X9227205Y-12867150D01*
X9227205Y-12867150D02*
X9255777Y-12867150D01*
X9255777Y-12867150D02*
X9274825Y-12876674D01*
X9274825Y-12876674D02*
X9284348Y-12895722D01*
X9284348Y-12895722D02*
X9284348Y-13000484D01*
X9379586Y-13000484D02*
X9379586Y-12867150D01*
X9379586Y-12886198D02*
X9389110Y-12876674D01*
X9389110Y-12876674D02*
X9408158Y-12867150D01*
X9408158Y-12867150D02*
X9436729Y-12867150D01*
X9436729Y-12867150D02*
X9455777Y-12876674D01*
X9455777Y-12876674D02*
X9465301Y-12895722D01*
X9465301Y-12895722D02*
X9465301Y-13000484D01*
X9465301Y-12895722D02*
X9474825Y-12876674D01*
X9474825Y-12876674D02*
X9493872Y-12867150D01*
X9493872Y-12867150D02*
X9522444Y-12867150D01*
X9522444Y-12867150D02*
X9541491Y-12876674D01*
X9541491Y-12876674D02*
X9551015Y-12895722D01*
X9551015Y-12895722D02*
X9551015Y-13000484D01*
X9941491Y-12790960D02*
X9770063Y-13048103D01*
X10198634Y-12800484D02*
X10217682Y-12800484D01*
X10217682Y-12800484D02*
X10236729Y-12810008D01*
X10236729Y-12810008D02*
X10246253Y-12819531D01*
X10246253Y-12819531D02*
X10255777Y-12838579D01*
X10255777Y-12838579D02*
X10265301Y-12876674D01*
X10265301Y-12876674D02*
X10265301Y-12924293D01*
X10265301Y-12924293D02*
X10255777Y-12962388D01*
X10255777Y-12962388D02*
X10246253Y-12981436D01*
X10246253Y-12981436D02*
X10236729Y-12990960D01*
X10236729Y-12990960D02*
X10217682Y-13000484D01*
X10217682Y-13000484D02*
X10198634Y-13000484D01*
X10198634Y-13000484D02*
X10179587Y-12990960D01*
X10179587Y-12990960D02*
X10170063Y-12981436D01*
X10170063Y-12981436D02*
X10160539Y-12962388D01*
X10160539Y-12962388D02*
X10151015Y-12924293D01*
X10151015Y-12924293D02*
X10151015Y-12876674D01*
X10151015Y-12876674D02*
X10160539Y-12838579D01*
X10160539Y-12838579D02*
X10170063Y-12819531D01*
X10170063Y-12819531D02*
X10179587Y-12810008D01*
X10179587Y-12810008D02*
X10198634Y-12800484D01*
X10351015Y-12981436D02*
X10360539Y-12990960D01*
X10360539Y-12990960D02*
X10351015Y-13000484D01*
X10351015Y-13000484D02*
X10341491Y-12990960D01*
X10341491Y-12990960D02*
X10351015Y-12981436D01*
X10351015Y-12981436D02*
X10351015Y-13000484D01*
X10484348Y-12800484D02*
X10503396Y-12800484D01*
X10503396Y-12800484D02*
X10522444Y-12810008D01*
X10522444Y-12810008D02*
X10531968Y-12819531D01*
X10531968Y-12819531D02*
X10541491Y-12838579D01*
X10541491Y-12838579D02*
X10551015Y-12876674D01*
X10551015Y-12876674D02*
X10551015Y-12924293D01*
X10551015Y-12924293D02*
X10541491Y-12962388D01*
X10541491Y-12962388D02*
X10531968Y-12981436D01*
X10531968Y-12981436D02*
X10522444Y-12990960D01*
X10522444Y-12990960D02*
X10503396Y-13000484D01*
X10503396Y-13000484D02*
X10484348Y-13000484D01*
X10484348Y-13000484D02*
X10465301Y-12990960D01*
X10465301Y-12990960D02*
X10455777Y-12981436D01*
X10455777Y-12981436D02*
X10446253Y-12962388D01*
X10446253Y-12962388D02*
X10436729Y-12924293D01*
X10436729Y-12924293D02*
X10436729Y-12876674D01*
X10436729Y-12876674D02*
X10446253Y-12838579D01*
X10446253Y-12838579D02*
X10455777Y-12819531D01*
X10455777Y-12819531D02*
X10465301Y-12810008D01*
X10465301Y-12810008D02*
X10484348Y-12800484D01*
X10731968Y-12800484D02*
X10636729Y-12800484D01*
X10636729Y-12800484D02*
X10627206Y-12895722D01*
X10627206Y-12895722D02*
X10636729Y-12886198D01*
X10636729Y-12886198D02*
X10655777Y-12876674D01*
X10655777Y-12876674D02*
X10703396Y-12876674D01*
X10703396Y-12876674D02*
X10722444Y-12886198D01*
X10722444Y-12886198D02*
X10731968Y-12895722D01*
X10731968Y-12895722D02*
X10741491Y-12914769D01*
X10741491Y-12914769D02*
X10741491Y-12962388D01*
X10741491Y-12962388D02*
X10731968Y-12981436D01*
X10731968Y-12981436D02*
X10722444Y-12990960D01*
X10722444Y-12990960D02*
X10703396Y-13000484D01*
X10703396Y-13000484D02*
X10655777Y-13000484D01*
X10655777Y-13000484D02*
X10636729Y-12990960D01*
X10636729Y-12990960D02*
X10627206Y-12981436D01*
X10836729Y-13000484D02*
X10874825Y-13000484D01*
X10874825Y-13000484D02*
X10893872Y-12990960D01*
X10893872Y-12990960D02*
X10903396Y-12981436D01*
X10903396Y-12981436D02*
X10922444Y-12952865D01*
X10922444Y-12952865D02*
X10931968Y-12914769D01*
X10931968Y-12914769D02*
X10931968Y-12838579D01*
X10931968Y-12838579D02*
X10922444Y-12819531D01*
X10922444Y-12819531D02*
X10912920Y-12810008D01*
X10912920Y-12810008D02*
X10893872Y-12800484D01*
X10893872Y-12800484D02*
X10855777Y-12800484D01*
X10855777Y-12800484D02*
X10836729Y-12810008D01*
X10836729Y-12810008D02*
X10827206Y-12819531D01*
X10827206Y-12819531D02*
X10817682Y-12838579D01*
X10817682Y-12838579D02*
X10817682Y-12886198D01*
X10817682Y-12886198D02*
X10827206Y-12905246D01*
X10827206Y-12905246D02*
X10836729Y-12914769D01*
X10836729Y-12914769D02*
X10855777Y-12924293D01*
X10855777Y-12924293D02*
X10893872Y-12924293D01*
X10893872Y-12924293D02*
X10912920Y-12914769D01*
X10912920Y-12914769D02*
X10922444Y-12905246D01*
X10922444Y-12905246D02*
X10931968Y-12886198D01*
X11122444Y-13000484D02*
X11008158Y-13000484D01*
X11065301Y-13000484D02*
X11065301Y-12800484D01*
X11065301Y-12800484D02*
X11046253Y-12829055D01*
X11046253Y-12829055D02*
X11027206Y-12848103D01*
X11027206Y-12848103D02*
X11008158Y-12857627D01*
X11198634Y-12800484D02*
X11198634Y-12838579D01*
X11274825Y-12800484D02*
X11274825Y-12838579D01*
X11570063Y-13076674D02*
X11560539Y-13067150D01*
X11560539Y-13067150D02*
X11541491Y-13038579D01*
X11541491Y-13038579D02*
X11531968Y-13019531D01*
X11531968Y-13019531D02*
X11522444Y-12990960D01*
X11522444Y-12990960D02*
X11512920Y-12943341D01*
X11512920Y-12943341D02*
X11512920Y-12905246D01*
X11512920Y-12905246D02*
X11522444Y-12857627D01*
X11522444Y-12857627D02*
X11531968Y-12829055D01*
X11531968Y-12829055D02*
X11541491Y-12810008D01*
X11541491Y-12810008D02*
X11560539Y-12781436D01*
X11560539Y-12781436D02*
X11570063Y-12771912D01*
X11636729Y-12819531D02*
X11646253Y-12810008D01*
X11646253Y-12810008D02*
X11665301Y-12800484D01*
X11665301Y-12800484D02*
X11712920Y-12800484D01*
X11712920Y-12800484D02*
X11731968Y-12810008D01*
X11731968Y-12810008D02*
X11741491Y-12819531D01*
X11741491Y-12819531D02*
X11751015Y-12838579D01*
X11751015Y-12838579D02*
X11751015Y-12857627D01*
X11751015Y-12857627D02*
X11741491Y-12886198D01*
X11741491Y-12886198D02*
X11627206Y-13000484D01*
X11627206Y-13000484D02*
X11751015Y-13000484D01*
X11989110Y-13000484D02*
X11989110Y-12800484D01*
X12074825Y-13000484D02*
X12074825Y-12895722D01*
X12074825Y-12895722D02*
X12065301Y-12876674D01*
X12065301Y-12876674D02*
X12046253Y-12867150D01*
X12046253Y-12867150D02*
X12017682Y-12867150D01*
X12017682Y-12867150D02*
X11998634Y-12876674D01*
X11998634Y-12876674D02*
X11989110Y-12886198D01*
X12198634Y-13000484D02*
X12179587Y-12990960D01*
X12179587Y-12990960D02*
X12170063Y-12981436D01*
X12170063Y-12981436D02*
X12160539Y-12962388D01*
X12160539Y-12962388D02*
X12160539Y-12905246D01*
X12160539Y-12905246D02*
X12170063Y-12886198D01*
X12170063Y-12886198D02*
X12179587Y-12876674D01*
X12179587Y-12876674D02*
X12198634Y-12867150D01*
X12198634Y-12867150D02*
X12227206Y-12867150D01*
X12227206Y-12867150D02*
X12246253Y-12876674D01*
X12246253Y-12876674D02*
X12255777Y-12886198D01*
X12255777Y-12886198D02*
X12265301Y-12905246D01*
X12265301Y-12905246D02*
X12265301Y-12962388D01*
X12265301Y-12962388D02*
X12255777Y-12981436D01*
X12255777Y-12981436D02*
X12246253Y-12990960D01*
X12246253Y-12990960D02*
X12227206Y-13000484D01*
X12227206Y-13000484D02*
X12198634Y-13000484D01*
X12379587Y-13000484D02*
X12360539Y-12990960D01*
X12360539Y-12990960D02*
X12351015Y-12971912D01*
X12351015Y-12971912D02*
X12351015Y-12800484D01*
X12531968Y-12990960D02*
X12512920Y-13000484D01*
X12512920Y-13000484D02*
X12474825Y-13000484D01*
X12474825Y-13000484D02*
X12455777Y-12990960D01*
X12455777Y-12990960D02*
X12446253Y-12971912D01*
X12446253Y-12971912D02*
X12446253Y-12895722D01*
X12446253Y-12895722D02*
X12455777Y-12876674D01*
X12455777Y-12876674D02*
X12474825Y-12867150D01*
X12474825Y-12867150D02*
X12512920Y-12867150D01*
X12512920Y-12867150D02*
X12531968Y-12876674D01*
X12531968Y-12876674D02*
X12541491Y-12895722D01*
X12541491Y-12895722D02*
X12541491Y-12914769D01*
X12541491Y-12914769D02*
X12446253Y-12933817D01*
X12617682Y-12990960D02*
X12636730Y-13000484D01*
X12636730Y-13000484D02*
X12674825Y-13000484D01*
X12674825Y-13000484D02*
X12693872Y-12990960D01*
X12693872Y-12990960D02*
X12703396Y-12971912D01*
X12703396Y-12971912D02*
X12703396Y-12962388D01*
X12703396Y-12962388D02*
X12693872Y-12943341D01*
X12693872Y-12943341D02*
X12674825Y-12933817D01*
X12674825Y-12933817D02*
X12646253Y-12933817D01*
X12646253Y-12933817D02*
X12627206Y-12924293D01*
X12627206Y-12924293D02*
X12617682Y-12905246D01*
X12617682Y-12905246D02*
X12617682Y-12895722D01*
X12617682Y-12895722D02*
X12627206Y-12876674D01*
X12627206Y-12876674D02*
X12646253Y-12867150D01*
X12646253Y-12867150D02*
X12674825Y-12867150D01*
X12674825Y-12867150D02*
X12693872Y-12876674D01*
X12770063Y-13076674D02*
X12779587Y-13067150D01*
X12779587Y-13067150D02*
X12798634Y-13038579D01*
X12798634Y-13038579D02*
X12808158Y-13019531D01*
X12808158Y-13019531D02*
X12817682Y-12990960D01*
X12817682Y-12990960D02*
X12827206Y-12943341D01*
X12827206Y-12943341D02*
X12827206Y-12905246D01*
X12827206Y-12905246D02*
X12817682Y-12857627D01*
X12817682Y-12857627D02*
X12808158Y-12829055D01*
X12808158Y-12829055D02*
X12798634Y-12810008D01*
X12798634Y-12810008D02*
X12779587Y-12781436D01*
X12779587Y-12781436D02*
X12770063Y-12771912D01*
X13131968Y-13076674D02*
X13122444Y-13067150D01*
X13122444Y-13067150D02*
X13103396Y-13038579D01*
X13103396Y-13038579D02*
X13093872Y-13019531D01*
X13093872Y-13019531D02*
X13084349Y-12990960D01*
X13084349Y-12990960D02*
X13074825Y-12943341D01*
X13074825Y-12943341D02*
X13074825Y-12905246D01*
X13074825Y-12905246D02*
X13084349Y-12857627D01*
X13084349Y-12857627D02*
X13093872Y-12829055D01*
X13093872Y-12829055D02*
X13103396Y-12810008D01*
X13103396Y-12810008D02*
X13122444Y-12781436D01*
X13122444Y-12781436D02*
X13131968Y-12771912D01*
X13208158Y-12867150D02*
X13208158Y-13000484D01*
X13208158Y-12886198D02*
X13217682Y-12876674D01*
X13217682Y-12876674D02*
X13236730Y-12867150D01*
X13236730Y-12867150D02*
X13265301Y-12867150D01*
X13265301Y-12867150D02*
X13284349Y-12876674D01*
X13284349Y-12876674D02*
X13293872Y-12895722D01*
X13293872Y-12895722D02*
X13293872Y-13000484D01*
X13417682Y-13000484D02*
X13398634Y-12990960D01*
X13398634Y-12990960D02*
X13389111Y-12981436D01*
X13389111Y-12981436D02*
X13379587Y-12962388D01*
X13379587Y-12962388D02*
X13379587Y-12905246D01*
X13379587Y-12905246D02*
X13389111Y-12886198D01*
X13389111Y-12886198D02*
X13398634Y-12876674D01*
X13398634Y-12876674D02*
X13417682Y-12867150D01*
X13417682Y-12867150D02*
X13446253Y-12867150D01*
X13446253Y-12867150D02*
X13465301Y-12876674D01*
X13465301Y-12876674D02*
X13474825Y-12886198D01*
X13474825Y-12886198D02*
X13484349Y-12905246D01*
X13484349Y-12905246D02*
X13484349Y-12962388D01*
X13484349Y-12962388D02*
X13474825Y-12981436D01*
X13474825Y-12981436D02*
X13465301Y-12990960D01*
X13465301Y-12990960D02*
X13446253Y-13000484D01*
X13446253Y-13000484D02*
X13417682Y-13000484D01*
X13541492Y-12867150D02*
X13617682Y-12867150D01*
X13570063Y-12800484D02*
X13570063Y-12971912D01*
X13570063Y-12971912D02*
X13579587Y-12990960D01*
X13579587Y-12990960D02*
X13598634Y-13000484D01*
X13598634Y-13000484D02*
X13617682Y-13000484D01*
X13836730Y-12867150D02*
X13836730Y-13067150D01*
X13836730Y-12876674D02*
X13855777Y-12867150D01*
X13855777Y-12867150D02*
X13893873Y-12867150D01*
X13893873Y-12867150D02*
X13912920Y-12876674D01*
X13912920Y-12876674D02*
X13922444Y-12886198D01*
X13922444Y-12886198D02*
X13931968Y-12905246D01*
X13931968Y-12905246D02*
X13931968Y-12962388D01*
X13931968Y-12962388D02*
X13922444Y-12981436D01*
X13922444Y-12981436D02*
X13912920Y-12990960D01*
X13912920Y-12990960D02*
X13893873Y-13000484D01*
X13893873Y-13000484D02*
X13855777Y-13000484D01*
X13855777Y-13000484D02*
X13836730Y-12990960D01*
X14046253Y-13000484D02*
X14027206Y-12990960D01*
X14027206Y-12990960D02*
X14017682Y-12971912D01*
X14017682Y-12971912D02*
X14017682Y-12800484D01*
X14208158Y-13000484D02*
X14208158Y-12895722D01*
X14208158Y-12895722D02*
X14198634Y-12876674D01*
X14198634Y-12876674D02*
X14179587Y-12867150D01*
X14179587Y-12867150D02*
X14141492Y-12867150D01*
X14141492Y-12867150D02*
X14122444Y-12876674D01*
X14208158Y-12990960D02*
X14189111Y-13000484D01*
X14189111Y-13000484D02*
X14141492Y-13000484D01*
X14141492Y-13000484D02*
X14122444Y-12990960D01*
X14122444Y-12990960D02*
X14112920Y-12971912D01*
X14112920Y-12971912D02*
X14112920Y-12952865D01*
X14112920Y-12952865D02*
X14122444Y-12933817D01*
X14122444Y-12933817D02*
X14141492Y-12924293D01*
X14141492Y-12924293D02*
X14189111Y-12924293D01*
X14189111Y-12924293D02*
X14208158Y-12914769D01*
X14274825Y-12867150D02*
X14351015Y-12867150D01*
X14303396Y-12800484D02*
X14303396Y-12971912D01*
X14303396Y-12971912D02*
X14312920Y-12990960D01*
X14312920Y-12990960D02*
X14331968Y-13000484D01*
X14331968Y-13000484D02*
X14351015Y-13000484D01*
X14493873Y-12990960D02*
X14474825Y-13000484D01*
X14474825Y-13000484D02*
X14436730Y-13000484D01*
X14436730Y-13000484D02*
X14417682Y-12990960D01*
X14417682Y-12990960D02*
X14408158Y-12971912D01*
X14408158Y-12971912D02*
X14408158Y-12895722D01*
X14408158Y-12895722D02*
X14417682Y-12876674D01*
X14417682Y-12876674D02*
X14436730Y-12867150D01*
X14436730Y-12867150D02*
X14474825Y-12867150D01*
X14474825Y-12867150D02*
X14493873Y-12876674D01*
X14493873Y-12876674D02*
X14503396Y-12895722D01*
X14503396Y-12895722D02*
X14503396Y-12914769D01*
X14503396Y-12914769D02*
X14408158Y-12933817D01*
X14674825Y-13000484D02*
X14674825Y-12800484D01*
X14674825Y-12990960D02*
X14655777Y-13000484D01*
X14655777Y-13000484D02*
X14617682Y-13000484D01*
X14617682Y-13000484D02*
X14598634Y-12990960D01*
X14598634Y-12990960D02*
X14589111Y-12981436D01*
X14589111Y-12981436D02*
X14579587Y-12962388D01*
X14579587Y-12962388D02*
X14579587Y-12905246D01*
X14579587Y-12905246D02*
X14589111Y-12886198D01*
X14589111Y-12886198D02*
X14598634Y-12876674D01*
X14598634Y-12876674D02*
X14617682Y-12867150D01*
X14617682Y-12867150D02*
X14655777Y-12867150D01*
X14655777Y-12867150D02*
X14674825Y-12876674D01*
X14751015Y-13076674D02*
X14760539Y-13067150D01*
X14760539Y-13067150D02*
X14779587Y-13038579D01*
X14779587Y-13038579D02*
X14789111Y-13019531D01*
X14789111Y-13019531D02*
X14798634Y-12990960D01*
X14798634Y-12990960D02*
X14808158Y-12943341D01*
X14808158Y-12943341D02*
X14808158Y-12905246D01*
X14808158Y-12905246D02*
X14798634Y-12857627D01*
X14798634Y-12857627D02*
X14789111Y-12829055D01*
X14789111Y-12829055D02*
X14779587Y-12810008D01*
X14779587Y-12810008D02*
X14760539Y-12781436D01*
X14760539Y-12781436D02*
X14751015Y-12771912D01*
D13*
X7905000Y-13089000D02*
X7905000Y-13269000D01*
X7815000Y-13179000D02*
X7995000Y-13179000D01*
D11*
X8360539Y-13270484D02*
X8246253Y-13270484D01*
X8303396Y-13270484D02*
X8303396Y-13070484D01*
X8303396Y-13070484D02*
X8284348Y-13099055D01*
X8284348Y-13099055D02*
X8265301Y-13118103D01*
X8265301Y-13118103D02*
X8246253Y-13127627D01*
X8446253Y-13251436D02*
X8455777Y-13260960D01*
X8455777Y-13260960D02*
X8446253Y-13270484D01*
X8446253Y-13270484D02*
X8436729Y-13260960D01*
X8436729Y-13260960D02*
X8446253Y-13251436D01*
X8446253Y-13251436D02*
X8446253Y-13270484D01*
X8570063Y-13156198D02*
X8551015Y-13146674D01*
X8551015Y-13146674D02*
X8541491Y-13137150D01*
X8541491Y-13137150D02*
X8531967Y-13118103D01*
X8531967Y-13118103D02*
X8531967Y-13108579D01*
X8531967Y-13108579D02*
X8541491Y-13089531D01*
X8541491Y-13089531D02*
X8551015Y-13080008D01*
X8551015Y-13080008D02*
X8570063Y-13070484D01*
X8570063Y-13070484D02*
X8608158Y-13070484D01*
X8608158Y-13070484D02*
X8627205Y-13080008D01*
X8627205Y-13080008D02*
X8636729Y-13089531D01*
X8636729Y-13089531D02*
X8646253Y-13108579D01*
X8646253Y-13108579D02*
X8646253Y-13118103D01*
X8646253Y-13118103D02*
X8636729Y-13137150D01*
X8636729Y-13137150D02*
X8627205Y-13146674D01*
X8627205Y-13146674D02*
X8608158Y-13156198D01*
X8608158Y-13156198D02*
X8570063Y-13156198D01*
X8570063Y-13156198D02*
X8551015Y-13165722D01*
X8551015Y-13165722D02*
X8541491Y-13175246D01*
X8541491Y-13175246D02*
X8531967Y-13194293D01*
X8531967Y-13194293D02*
X8531967Y-13232388D01*
X8531967Y-13232388D02*
X8541491Y-13251436D01*
X8541491Y-13251436D02*
X8551015Y-13260960D01*
X8551015Y-13260960D02*
X8570063Y-13270484D01*
X8570063Y-13270484D02*
X8608158Y-13270484D01*
X8608158Y-13270484D02*
X8627205Y-13260960D01*
X8627205Y-13260960D02*
X8636729Y-13251436D01*
X8636729Y-13251436D02*
X8646253Y-13232388D01*
X8646253Y-13232388D02*
X8646253Y-13194293D01*
X8646253Y-13194293D02*
X8636729Y-13175246D01*
X8636729Y-13175246D02*
X8627205Y-13165722D01*
X8627205Y-13165722D02*
X8608158Y-13156198D01*
X8770063Y-13070484D02*
X8789110Y-13070484D01*
X8789110Y-13070484D02*
X8808158Y-13080008D01*
X8808158Y-13080008D02*
X8817682Y-13089531D01*
X8817682Y-13089531D02*
X8827205Y-13108579D01*
X8827205Y-13108579D02*
X8836729Y-13146674D01*
X8836729Y-13146674D02*
X8836729Y-13194293D01*
X8836729Y-13194293D02*
X8827205Y-13232388D01*
X8827205Y-13232388D02*
X8817682Y-13251436D01*
X8817682Y-13251436D02*
X8808158Y-13260960D01*
X8808158Y-13260960D02*
X8789110Y-13270484D01*
X8789110Y-13270484D02*
X8770063Y-13270484D01*
X8770063Y-13270484D02*
X8751015Y-13260960D01*
X8751015Y-13260960D02*
X8741491Y-13251436D01*
X8741491Y-13251436D02*
X8731967Y-13232388D01*
X8731967Y-13232388D02*
X8722444Y-13194293D01*
X8722444Y-13194293D02*
X8722444Y-13146674D01*
X8722444Y-13146674D02*
X8731967Y-13108579D01*
X8731967Y-13108579D02*
X8741491Y-13089531D01*
X8741491Y-13089531D02*
X8751015Y-13080008D01*
X8751015Y-13080008D02*
X8770063Y-13070484D01*
X8960539Y-13070484D02*
X8979586Y-13070484D01*
X8979586Y-13070484D02*
X8998634Y-13080008D01*
X8998634Y-13080008D02*
X9008158Y-13089531D01*
X9008158Y-13089531D02*
X9017682Y-13108579D01*
X9017682Y-13108579D02*
X9027205Y-13146674D01*
X9027205Y-13146674D02*
X9027205Y-13194293D01*
X9027205Y-13194293D02*
X9017682Y-13232388D01*
X9017682Y-13232388D02*
X9008158Y-13251436D01*
X9008158Y-13251436D02*
X8998634Y-13260960D01*
X8998634Y-13260960D02*
X8979586Y-13270484D01*
X8979586Y-13270484D02*
X8960539Y-13270484D01*
X8960539Y-13270484D02*
X8941491Y-13260960D01*
X8941491Y-13260960D02*
X8931967Y-13251436D01*
X8931967Y-13251436D02*
X8922444Y-13232388D01*
X8922444Y-13232388D02*
X8912920Y-13194293D01*
X8912920Y-13194293D02*
X8912920Y-13146674D01*
X8912920Y-13146674D02*
X8922444Y-13108579D01*
X8922444Y-13108579D02*
X8931967Y-13089531D01*
X8931967Y-13089531D02*
X8941491Y-13080008D01*
X8941491Y-13080008D02*
X8960539Y-13070484D01*
X9112920Y-13270484D02*
X9112920Y-13137150D01*
X9112920Y-13156198D02*
X9122444Y-13146674D01*
X9122444Y-13146674D02*
X9141491Y-13137150D01*
X9141491Y-13137150D02*
X9170063Y-13137150D01*
X9170063Y-13137150D02*
X9189110Y-13146674D01*
X9189110Y-13146674D02*
X9198634Y-13165722D01*
X9198634Y-13165722D02*
X9198634Y-13270484D01*
X9198634Y-13165722D02*
X9208158Y-13146674D01*
X9208158Y-13146674D02*
X9227205Y-13137150D01*
X9227205Y-13137150D02*
X9255777Y-13137150D01*
X9255777Y-13137150D02*
X9274825Y-13146674D01*
X9274825Y-13146674D02*
X9284348Y-13165722D01*
X9284348Y-13165722D02*
X9284348Y-13270484D01*
X9379586Y-13270484D02*
X9379586Y-13137150D01*
X9379586Y-13156198D02*
X9389110Y-13146674D01*
X9389110Y-13146674D02*
X9408158Y-13137150D01*
X9408158Y-13137150D02*
X9436729Y-13137150D01*
X9436729Y-13137150D02*
X9455777Y-13146674D01*
X9455777Y-13146674D02*
X9465301Y-13165722D01*
X9465301Y-13165722D02*
X9465301Y-13270484D01*
X9465301Y-13165722D02*
X9474825Y-13146674D01*
X9474825Y-13146674D02*
X9493872Y-13137150D01*
X9493872Y-13137150D02*
X9522444Y-13137150D01*
X9522444Y-13137150D02*
X9541491Y-13146674D01*
X9541491Y-13146674D02*
X9551015Y-13165722D01*
X9551015Y-13165722D02*
X9551015Y-13270484D01*
X9941491Y-13060960D02*
X9770063Y-13318103D01*
X10198634Y-13070484D02*
X10217682Y-13070484D01*
X10217682Y-13070484D02*
X10236729Y-13080008D01*
X10236729Y-13080008D02*
X10246253Y-13089531D01*
X10246253Y-13089531D02*
X10255777Y-13108579D01*
X10255777Y-13108579D02*
X10265301Y-13146674D01*
X10265301Y-13146674D02*
X10265301Y-13194293D01*
X10265301Y-13194293D02*
X10255777Y-13232388D01*
X10255777Y-13232388D02*
X10246253Y-13251436D01*
X10246253Y-13251436D02*
X10236729Y-13260960D01*
X10236729Y-13260960D02*
X10217682Y-13270484D01*
X10217682Y-13270484D02*
X10198634Y-13270484D01*
X10198634Y-13270484D02*
X10179587Y-13260960D01*
X10179587Y-13260960D02*
X10170063Y-13251436D01*
X10170063Y-13251436D02*
X10160539Y-13232388D01*
X10160539Y-13232388D02*
X10151015Y-13194293D01*
X10151015Y-13194293D02*
X10151015Y-13146674D01*
X10151015Y-13146674D02*
X10160539Y-13108579D01*
X10160539Y-13108579D02*
X10170063Y-13089531D01*
X10170063Y-13089531D02*
X10179587Y-13080008D01*
X10179587Y-13080008D02*
X10198634Y-13070484D01*
X10351015Y-13251436D02*
X10360539Y-13260960D01*
X10360539Y-13260960D02*
X10351015Y-13270484D01*
X10351015Y-13270484D02*
X10341491Y-13260960D01*
X10341491Y-13260960D02*
X10351015Y-13251436D01*
X10351015Y-13251436D02*
X10351015Y-13270484D01*
X10484348Y-13070484D02*
X10503396Y-13070484D01*
X10503396Y-13070484D02*
X10522444Y-13080008D01*
X10522444Y-13080008D02*
X10531968Y-13089531D01*
X10531968Y-13089531D02*
X10541491Y-13108579D01*
X10541491Y-13108579D02*
X10551015Y-13146674D01*
X10551015Y-13146674D02*
X10551015Y-13194293D01*
X10551015Y-13194293D02*
X10541491Y-13232388D01*
X10541491Y-13232388D02*
X10531968Y-13251436D01*
X10531968Y-13251436D02*
X10522444Y-13260960D01*
X10522444Y-13260960D02*
X10503396Y-13270484D01*
X10503396Y-13270484D02*
X10484348Y-13270484D01*
X10484348Y-13270484D02*
X10465301Y-13260960D01*
X10465301Y-13260960D02*
X10455777Y-13251436D01*
X10455777Y-13251436D02*
X10446253Y-13232388D01*
X10446253Y-13232388D02*
X10436729Y-13194293D01*
X10436729Y-13194293D02*
X10436729Y-13146674D01*
X10436729Y-13146674D02*
X10446253Y-13108579D01*
X10446253Y-13108579D02*
X10455777Y-13089531D01*
X10455777Y-13089531D02*
X10465301Y-13080008D01*
X10465301Y-13080008D02*
X10484348Y-13070484D01*
X10617682Y-13070484D02*
X10751015Y-13070484D01*
X10751015Y-13070484D02*
X10665301Y-13270484D01*
X10865301Y-13070484D02*
X10884349Y-13070484D01*
X10884349Y-13070484D02*
X10903396Y-13080008D01*
X10903396Y-13080008D02*
X10912920Y-13089531D01*
X10912920Y-13089531D02*
X10922444Y-13108579D01*
X10922444Y-13108579D02*
X10931968Y-13146674D01*
X10931968Y-13146674D02*
X10931968Y-13194293D01*
X10931968Y-13194293D02*
X10922444Y-13232388D01*
X10922444Y-13232388D02*
X10912920Y-13251436D01*
X10912920Y-13251436D02*
X10903396Y-13260960D01*
X10903396Y-13260960D02*
X10884349Y-13270484D01*
X10884349Y-13270484D02*
X10865301Y-13270484D01*
X10865301Y-13270484D02*
X10846253Y-13260960D01*
X10846253Y-13260960D02*
X10836729Y-13251436D01*
X10836729Y-13251436D02*
X10827206Y-13232388D01*
X10827206Y-13232388D02*
X10817682Y-13194293D01*
X10817682Y-13194293D02*
X10817682Y-13146674D01*
X10817682Y-13146674D02*
X10827206Y-13108579D01*
X10827206Y-13108579D02*
X10836729Y-13089531D01*
X10836729Y-13089531D02*
X10846253Y-13080008D01*
X10846253Y-13080008D02*
X10865301Y-13070484D01*
X11027206Y-13270484D02*
X11065301Y-13270484D01*
X11065301Y-13270484D02*
X11084349Y-13260960D01*
X11084349Y-13260960D02*
X11093872Y-13251436D01*
X11093872Y-13251436D02*
X11112920Y-13222865D01*
X11112920Y-13222865D02*
X11122444Y-13184769D01*
X11122444Y-13184769D02*
X11122444Y-13108579D01*
X11122444Y-13108579D02*
X11112920Y-13089531D01*
X11112920Y-13089531D02*
X11103396Y-13080008D01*
X11103396Y-13080008D02*
X11084349Y-13070484D01*
X11084349Y-13070484D02*
X11046253Y-13070484D01*
X11046253Y-13070484D02*
X11027206Y-13080008D01*
X11027206Y-13080008D02*
X11017682Y-13089531D01*
X11017682Y-13089531D02*
X11008158Y-13108579D01*
X11008158Y-13108579D02*
X11008158Y-13156198D01*
X11008158Y-13156198D02*
X11017682Y-13175246D01*
X11017682Y-13175246D02*
X11027206Y-13184769D01*
X11027206Y-13184769D02*
X11046253Y-13194293D01*
X11046253Y-13194293D02*
X11084349Y-13194293D01*
X11084349Y-13194293D02*
X11103396Y-13184769D01*
X11103396Y-13184769D02*
X11112920Y-13175246D01*
X11112920Y-13175246D02*
X11122444Y-13156198D01*
X11198634Y-13070484D02*
X11198634Y-13108579D01*
X11274825Y-13070484D02*
X11274825Y-13108579D01*
X11570063Y-13346674D02*
X11560539Y-13337150D01*
X11560539Y-13337150D02*
X11541491Y-13308579D01*
X11541491Y-13308579D02*
X11531968Y-13289531D01*
X11531968Y-13289531D02*
X11522444Y-13260960D01*
X11522444Y-13260960D02*
X11512920Y-13213341D01*
X11512920Y-13213341D02*
X11512920Y-13175246D01*
X11512920Y-13175246D02*
X11522444Y-13127627D01*
X11522444Y-13127627D02*
X11531968Y-13099055D01*
X11531968Y-13099055D02*
X11541491Y-13080008D01*
X11541491Y-13080008D02*
X11560539Y-13051436D01*
X11560539Y-13051436D02*
X11570063Y-13041912D01*
X11636729Y-13089531D02*
X11646253Y-13080008D01*
X11646253Y-13080008D02*
X11665301Y-13070484D01*
X11665301Y-13070484D02*
X11712920Y-13070484D01*
X11712920Y-13070484D02*
X11731968Y-13080008D01*
X11731968Y-13080008D02*
X11741491Y-13089531D01*
X11741491Y-13089531D02*
X11751015Y-13108579D01*
X11751015Y-13108579D02*
X11751015Y-13127627D01*
X11751015Y-13127627D02*
X11741491Y-13156198D01*
X11741491Y-13156198D02*
X11627206Y-13270484D01*
X11627206Y-13270484D02*
X11751015Y-13270484D01*
X11989110Y-13270484D02*
X11989110Y-13070484D01*
X12074825Y-13270484D02*
X12074825Y-13165722D01*
X12074825Y-13165722D02*
X12065301Y-13146674D01*
X12065301Y-13146674D02*
X12046253Y-13137150D01*
X12046253Y-13137150D02*
X12017682Y-13137150D01*
X12017682Y-13137150D02*
X11998634Y-13146674D01*
X11998634Y-13146674D02*
X11989110Y-13156198D01*
X12198634Y-13270484D02*
X12179587Y-13260960D01*
X12179587Y-13260960D02*
X12170063Y-13251436D01*
X12170063Y-13251436D02*
X12160539Y-13232388D01*
X12160539Y-13232388D02*
X12160539Y-13175246D01*
X12160539Y-13175246D02*
X12170063Y-13156198D01*
X12170063Y-13156198D02*
X12179587Y-13146674D01*
X12179587Y-13146674D02*
X12198634Y-13137150D01*
X12198634Y-13137150D02*
X12227206Y-13137150D01*
X12227206Y-13137150D02*
X12246253Y-13146674D01*
X12246253Y-13146674D02*
X12255777Y-13156198D01*
X12255777Y-13156198D02*
X12265301Y-13175246D01*
X12265301Y-13175246D02*
X12265301Y-13232388D01*
X12265301Y-13232388D02*
X12255777Y-13251436D01*
X12255777Y-13251436D02*
X12246253Y-13260960D01*
X12246253Y-13260960D02*
X12227206Y-13270484D01*
X12227206Y-13270484D02*
X12198634Y-13270484D01*
X12379587Y-13270484D02*
X12360539Y-13260960D01*
X12360539Y-13260960D02*
X12351015Y-13241912D01*
X12351015Y-13241912D02*
X12351015Y-13070484D01*
X12531968Y-13260960D02*
X12512920Y-13270484D01*
X12512920Y-13270484D02*
X12474825Y-13270484D01*
X12474825Y-13270484D02*
X12455777Y-13260960D01*
X12455777Y-13260960D02*
X12446253Y-13241912D01*
X12446253Y-13241912D02*
X12446253Y-13165722D01*
X12446253Y-13165722D02*
X12455777Y-13146674D01*
X12455777Y-13146674D02*
X12474825Y-13137150D01*
X12474825Y-13137150D02*
X12512920Y-13137150D01*
X12512920Y-13137150D02*
X12531968Y-13146674D01*
X12531968Y-13146674D02*
X12541491Y-13165722D01*
X12541491Y-13165722D02*
X12541491Y-13184769D01*
X12541491Y-13184769D02*
X12446253Y-13203817D01*
X12617682Y-13260960D02*
X12636730Y-13270484D01*
X12636730Y-13270484D02*
X12674825Y-13270484D01*
X12674825Y-13270484D02*
X12693872Y-13260960D01*
X12693872Y-13260960D02*
X12703396Y-13241912D01*
X12703396Y-13241912D02*
X12703396Y-13232388D01*
X12703396Y-13232388D02*
X12693872Y-13213341D01*
X12693872Y-13213341D02*
X12674825Y-13203817D01*
X12674825Y-13203817D02*
X12646253Y-13203817D01*
X12646253Y-13203817D02*
X12627206Y-13194293D01*
X12627206Y-13194293D02*
X12617682Y-13175246D01*
X12617682Y-13175246D02*
X12617682Y-13165722D01*
X12617682Y-13165722D02*
X12627206Y-13146674D01*
X12627206Y-13146674D02*
X12646253Y-13137150D01*
X12646253Y-13137150D02*
X12674825Y-13137150D01*
X12674825Y-13137150D02*
X12693872Y-13146674D01*
X12770063Y-13346674D02*
X12779587Y-13337150D01*
X12779587Y-13337150D02*
X12798634Y-13308579D01*
X12798634Y-13308579D02*
X12808158Y-13289531D01*
X12808158Y-13289531D02*
X12817682Y-13260960D01*
X12817682Y-13260960D02*
X12827206Y-13213341D01*
X12827206Y-13213341D02*
X12827206Y-13175246D01*
X12827206Y-13175246D02*
X12817682Y-13127627D01*
X12817682Y-13127627D02*
X12808158Y-13099055D01*
X12808158Y-13099055D02*
X12798634Y-13080008D01*
X12798634Y-13080008D02*
X12779587Y-13051436D01*
X12779587Y-13051436D02*
X12770063Y-13041912D01*
X13131968Y-13346674D02*
X13122444Y-13337150D01*
X13122444Y-13337150D02*
X13103396Y-13308579D01*
X13103396Y-13308579D02*
X13093872Y-13289531D01*
X13093872Y-13289531D02*
X13084349Y-13260960D01*
X13084349Y-13260960D02*
X13074825Y-13213341D01*
X13074825Y-13213341D02*
X13074825Y-13175246D01*
X13074825Y-13175246D02*
X13084349Y-13127627D01*
X13084349Y-13127627D02*
X13093872Y-13099055D01*
X13093872Y-13099055D02*
X13103396Y-13080008D01*
X13103396Y-13080008D02*
X13122444Y-13051436D01*
X13122444Y-13051436D02*
X13131968Y-13041912D01*
X13208158Y-13137150D02*
X13208158Y-13270484D01*
X13208158Y-13156198D02*
X13217682Y-13146674D01*
X13217682Y-13146674D02*
X13236730Y-13137150D01*
X13236730Y-13137150D02*
X13265301Y-13137150D01*
X13265301Y-13137150D02*
X13284349Y-13146674D01*
X13284349Y-13146674D02*
X13293872Y-13165722D01*
X13293872Y-13165722D02*
X13293872Y-13270484D01*
X13417682Y-13270484D02*
X13398634Y-13260960D01*
X13398634Y-13260960D02*
X13389111Y-13251436D01*
X13389111Y-13251436D02*
X13379587Y-13232388D01*
X13379587Y-13232388D02*
X13379587Y-13175246D01*
X13379587Y-13175246D02*
X13389111Y-13156198D01*
X13389111Y-13156198D02*
X13398634Y-13146674D01*
X13398634Y-13146674D02*
X13417682Y-13137150D01*
X13417682Y-13137150D02*
X13446253Y-13137150D01*
X13446253Y-13137150D02*
X13465301Y-13146674D01*
X13465301Y-13146674D02*
X13474825Y-13156198D01*
X13474825Y-13156198D02*
X13484349Y-13175246D01*
X13484349Y-13175246D02*
X13484349Y-13232388D01*
X13484349Y-13232388D02*
X13474825Y-13251436D01*
X13474825Y-13251436D02*
X13465301Y-13260960D01*
X13465301Y-13260960D02*
X13446253Y-13270484D01*
X13446253Y-13270484D02*
X13417682Y-13270484D01*
X13541492Y-13137150D02*
X13617682Y-13137150D01*
X13570063Y-13070484D02*
X13570063Y-13241912D01*
X13570063Y-13241912D02*
X13579587Y-13260960D01*
X13579587Y-13260960D02*
X13598634Y-13270484D01*
X13598634Y-13270484D02*
X13617682Y-13270484D01*
X13836730Y-13137150D02*
X13836730Y-13337150D01*
X13836730Y-13146674D02*
X13855777Y-13137150D01*
X13855777Y-13137150D02*
X13893873Y-13137150D01*
X13893873Y-13137150D02*
X13912920Y-13146674D01*
X13912920Y-13146674D02*
X13922444Y-13156198D01*
X13922444Y-13156198D02*
X13931968Y-13175246D01*
X13931968Y-13175246D02*
X13931968Y-13232388D01*
X13931968Y-13232388D02*
X13922444Y-13251436D01*
X13922444Y-13251436D02*
X13912920Y-13260960D01*
X13912920Y-13260960D02*
X13893873Y-13270484D01*
X13893873Y-13270484D02*
X13855777Y-13270484D01*
X13855777Y-13270484D02*
X13836730Y-13260960D01*
X14046253Y-13270484D02*
X14027206Y-13260960D01*
X14027206Y-13260960D02*
X14017682Y-13241912D01*
X14017682Y-13241912D02*
X14017682Y-13070484D01*
X14208158Y-13270484D02*
X14208158Y-13165722D01*
X14208158Y-13165722D02*
X14198634Y-13146674D01*
X14198634Y-13146674D02*
X14179587Y-13137150D01*
X14179587Y-13137150D02*
X14141492Y-13137150D01*
X14141492Y-13137150D02*
X14122444Y-13146674D01*
X14208158Y-13260960D02*
X14189111Y-13270484D01*
X14189111Y-13270484D02*
X14141492Y-13270484D01*
X14141492Y-13270484D02*
X14122444Y-13260960D01*
X14122444Y-13260960D02*
X14112920Y-13241912D01*
X14112920Y-13241912D02*
X14112920Y-13222865D01*
X14112920Y-13222865D02*
X14122444Y-13203817D01*
X14122444Y-13203817D02*
X14141492Y-13194293D01*
X14141492Y-13194293D02*
X14189111Y-13194293D01*
X14189111Y-13194293D02*
X14208158Y-13184769D01*
X14274825Y-13137150D02*
X14351015Y-13137150D01*
X14303396Y-13070484D02*
X14303396Y-13241912D01*
X14303396Y-13241912D02*
X14312920Y-13260960D01*
X14312920Y-13260960D02*
X14331968Y-13270484D01*
X14331968Y-13270484D02*
X14351015Y-13270484D01*
X14493873Y-13260960D02*
X14474825Y-13270484D01*
X14474825Y-13270484D02*
X14436730Y-13270484D01*
X14436730Y-13270484D02*
X14417682Y-13260960D01*
X14417682Y-13260960D02*
X14408158Y-13241912D01*
X14408158Y-13241912D02*
X14408158Y-13165722D01*
X14408158Y-13165722D02*
X14417682Y-13146674D01*
X14417682Y-13146674D02*
X14436730Y-13137150D01*
X14436730Y-13137150D02*
X14474825Y-13137150D01*
X14474825Y-13137150D02*
X14493873Y-13146674D01*
X14493873Y-13146674D02*
X14503396Y-13165722D01*
X14503396Y-13165722D02*
X14503396Y-13184769D01*
X14503396Y-13184769D02*
X14408158Y-13203817D01*
X14674825Y-13270484D02*
X14674825Y-13070484D01*
X14674825Y-13260960D02*
X14655777Y-13270484D01*
X14655777Y-13270484D02*
X14617682Y-13270484D01*
X14617682Y-13270484D02*
X14598634Y-13260960D01*
X14598634Y-13260960D02*
X14589111Y-13251436D01*
X14589111Y-13251436D02*
X14579587Y-13232388D01*
X14579587Y-13232388D02*
X14579587Y-13175246D01*
X14579587Y-13175246D02*
X14589111Y-13156198D01*
X14589111Y-13156198D02*
X14598634Y-13146674D01*
X14598634Y-13146674D02*
X14617682Y-13137150D01*
X14617682Y-13137150D02*
X14655777Y-13137150D01*
X14655777Y-13137150D02*
X14674825Y-13146674D01*
X14751015Y-13346674D02*
X14760539Y-13337150D01*
X14760539Y-13337150D02*
X14779587Y-13308579D01*
X14779587Y-13308579D02*
X14789111Y-13289531D01*
X14789111Y-13289531D02*
X14798634Y-13260960D01*
X14798634Y-13260960D02*
X14808158Y-13213341D01*
X14808158Y-13213341D02*
X14808158Y-13175246D01*
X14808158Y-13175246D02*
X14798634Y-13127627D01*
X14798634Y-13127627D02*
X14789111Y-13099055D01*
X14789111Y-13099055D02*
X14779587Y-13080008D01*
X14779587Y-13080008D02*
X14760539Y-13051436D01*
X14760539Y-13051436D02*
X14751015Y-13041912D01*
M02*
