M48
; DRILL file {KiCad 8.0.0} date 2024-03-17T16:54:26+0100
; FORMAT={-:-/ absolute / inch / decimal}
; #@! TF.CreationDate,2024-03-17T16:54:26+01:00
; #@! TF.GenerationSoftware,Kicad,Pcbnew,8.0.0
; #@! TF.FileFunction,Plated,1,4,PTH
FMAT,2
INCH
; #@! TA.AperFunction,Plated,PTH,ViaDrill
T1C0.0118
; #@! TA.AperFunction,Plated,PTH,ComponentDrill
T2C0.0276
; #@! TA.AperFunction,Plated,PTH,ComponentDrill
T3C0.0315
; #@! TA.AperFunction,Plated,PTH,ComponentDrill
T4C0.0354
; #@! TA.AperFunction,Plated,PTH,ComponentDrill
T5C0.0402
; #@! TA.AperFunction,Plated,PTH,ComponentDrill
T6C0.0433
; #@! TA.AperFunction,Plated,PTH,ComponentDrill
T7C0.0472
; #@! TA.AperFunction,Plated,PTH,ComponentDrill
T8C0.1260
%
G90
G05
T1
X3.2972Y-3.4547
X3.2972Y-4.0354
X3.3071Y-3.7697
X3.3071Y-4.2618
X3.6024Y-4.4488
X3.622Y-2.5197
X3.7894Y-2.7067
X3.8189Y-4.6161
X3.9469Y-2.5197
X4.1929Y-4.6161
X4.3701Y-2.4803
X4.4291Y-2.8543
X4.498Y-4.6161
X4.6752Y-2.4705
X5.0098Y-3.1398
X5.0295Y-2.7953
X5.0886Y-3.5531
X5.1083Y-3.9862
X5.3051Y-3.7795
X5.3445Y-2.9724
X5.3445Y-3.3268
X5.6693Y-2.4803
X5.8563Y-3.9469
X5.8661Y-3.2382
X5.8661Y-3.5827
X5.8661Y-4.2913
X5.8858Y-4.5866
X6.0827Y-2.4705
X6.1909Y-4.5768
X6.2008Y-4.2618
X6.4961Y-3.6122
X6.5059Y-4.2028
X6.5157Y-3.8878
T2
X3.6886Y-3.2874
X3.6886Y-3.4055
X3.9886Y-3.2874
X3.9886Y-3.4055
X4.2913Y-3.1374
X4.2913Y-3.4374
X4.3185Y-2.5984
X4.4094Y-3.1374
X4.4094Y-3.4374
X4.5472Y-4.0232
X4.5472Y-4.3232
X4.6185Y-2.5984
X6.1811Y-3.5022
X6.1811Y-3.8022
T3
X3.8976Y-2.9921
X4.0945Y-2.9921
X4.1016Y-3.5896
X4.1016Y-3.8896
X4.1535Y-3.2283
X4.1535Y-3.4252
X4.2016Y-3.5896
X4.2016Y-3.8896
X4.2913Y-4.0256
X4.2913Y-4.2224
X4.3016Y-3.5896
X4.3016Y-3.8896
X4.4016Y-3.5896
X4.4016Y-3.8896
X4.4291Y-4.0256
X4.4291Y-4.124
X5.8337Y-2.6457
X5.8337Y-2.7457
X5.8337Y-2.8457
X5.8337Y-2.9457
X6.1337Y-2.6457
X6.1337Y-2.7457
X6.1337Y-2.8457
X6.1337Y-2.9457
X6.1417Y-3.0807
X6.1417Y-3.1791
T4
X4.0837Y-2.5984
X4.1837Y-2.5984
X6.2205Y-3.937
X6.2205Y-4.037
T5
X4.8118Y-2.5921
X4.8118Y-2.6921
X4.8118Y-2.7921
X4.8118Y-2.8921
X4.8118Y-2.9921
X4.8118Y-3.0921
X4.8118Y-3.1921
X4.8118Y-3.2921
X4.8118Y-3.3921
X4.8118Y-3.4921
X4.8118Y-3.5921
X4.8118Y-3.6921
X4.8118Y-3.7921
X4.8118Y-3.8921
X4.8118Y-3.9921
X4.8118Y-4.0921
X4.8118Y-4.1921
X4.8118Y-4.2921
X4.8118Y-4.3921
X4.8118Y-4.4921
X5.0618Y-2.6012
X5.1618Y-2.6012
X5.2618Y-2.6012
X5.5118Y-2.5921
X5.5118Y-2.6921
X5.5118Y-2.7921
X5.5118Y-2.8921
X5.5118Y-2.9921
X5.5118Y-3.0921
X5.5118Y-3.1921
X5.5118Y-3.2921
X5.5118Y-3.3921
X5.5118Y-3.4921
X5.5118Y-3.5921
X5.5118Y-3.6921
X5.5118Y-3.7921
X5.5118Y-3.8921
X5.5118Y-3.9921
X5.5118Y-4.0921
X5.5118Y-4.1921
X5.5118Y-4.2921
X5.5118Y-4.3921
X5.5118Y-4.4921
T7
X6.3898Y-2.8248
X6.3898Y-2.9626
X6.3898Y-3.2776
X6.3898Y-3.4154
T8
X3.3465Y-2.5591
X3.3465Y-4.5276
X6.3976Y-2.5591
X6.3976Y-4.5276
T6
X3.5181Y-3.0921G85X3.5023Y-3.0921
G05
X3.7268Y-2.9248G85X3.711Y-2.9248
G05
X3.7268Y-3.1414G85X3.711Y-3.1414
G05
M30
